<svg id="圖層_1" data-name="圖層 1" xmlns="http://www.w3.org/2000/svg" viewBox="0 0 284 54"><defs><style>.cls-1,.cls-2{fill:#fff;}.cls-2{fill-rule:evenodd;}</style></defs><path class="cls-1" d="M117.1,16.9V12.5l3.7.3c.7.1,1.1.3,1.1.6s-.3.6-.8,1.1v2.4h17.7v3.8H121.1v4h16.1v24a3.8,3.8,0,0,1-3.1,3.9,14.9,14.9,0,0,1-4.7.7l-1.5-4h3.7a1.6,1.6,0,0,0,1.6-1.7V28.2H105.1V53.5H101V24.7h16.1v-4H99.3V16.9Z"/><path class="cls-1" d="M117.6,34.1l-2,1.4h5.3l3.6-6.5,2.9,1.5q.6.3.6.6c0,.4-.2.6-.7.9L125,35.5h4.8v3.4h-8.9v3.8h9.8v3.6h-9.8v6.1h-3.8V46.3h-9.7V42.7h9.7V38.9h-9V35.5h5.6a36.5,36.5,0,0,0-3.1-4.1l2.6-2.1A29.5,29.5,0,0,1,117.6,34.1Z"/><path class="cls-1" d="M168.9,13.4c.7,0,1.1.2,1.1.6s-.3.6-.9,1.2V44.5h11.5V21.9l4,.3c.7.1,1.1.3,1.1.6s-.3.6-.8,1V53.2h-4.3V48.5H152v4.7h-4.2V21.9l4,.3c.7.1,1.1.3,1.1.6s-.3.6-.9,1V44.5h12.7V13.1Z"/><path class="cls-1" d="M215.6,13c.6.1,1,.3,1,.6s-.3.5-.7.9v1.6h17.6v3.3h-6.6l1.7,1.6c-2.1,1-4.2,1.9-6.4,2.7l8.2,2.8-1.8,1.9h5.1V32H200.2v3.8a57.3,57.3,0,0,1-.8,9.6,33.7,33.7,0,0,1-2.4,8.1l-3.9-1.9a28.2,28.2,0,0,0,2.4-6.9,52.6,52.6,0,0,0,.8-8.9V28.4h5.3l-2.8-1.9c4.7-.8,8.9-1.6,12.6-2.5l-10.8-2.8,1.7-1.8h-7.9V16.1H212V12.7Zm-7.7,20.5c.3.1.6.3.6.6s-.4.6-1.1.9a5,5,0,0,0-.2,1.2h8.5V32.9l3.6.3c.6,0,1,.2,1,.5a1.3,1.3,0,0,1-.7.9v1.6h12v3.3h-12v3.2h10.2v3.4H219.6v3.2h14.1v3.3h-33V49.3h15V46.1h-9.3V42.7h9.3V39.5h-9.5a.4.4,0,0,0-.1.3,21,21,0,0,1-2.6,4.4l-2.8-2.3a22.5,22.5,0,0,0,2.4-4.2,46.8,46.8,0,0,0,1.2-4.8Zm9.4-11.2c2.4-.7,5.2-1.7,8.2-2.9H206.1Zm9.1,6.1-9.3-2.9a94.2,94.2,0,0,1-10.2,2.9Z"/><path class="cls-1" d="M248,17.4a.6.6,0,0,1,.5.6c0,.4-.3.8-.8,1.3s-.5,2.5-.7,3.7h3.5V12.9l3.5.3c.7.1,1.1.3,1.1.6s-.3.5-.8.8V23h4.1v3.5h-4.1v8.9l5.2-1.3v4l-5.2,1.3V53.5h-3.8V40.4L245,41.7c-.5.9-.9,1.4-1.2,1.4s-.5-.3-.7-.8l-1.6-4.2a71.7,71.7,0,0,0,9-1.8V26.5h-4.2c-.5,2.3-1.1,4.5-1.7,6.4l-3.9-1.5a28.2,28.2,0,0,0,1.9-5.8c.6-2.7,1.1-5.8,1.5-9.2Z"/><path class="cls-1" d="M268.6,14.2q.6.3.6.6c0,.2-.5.4-1.4.6-.5,2-1.1,3.9-1.6,5.6h15.4c0,12.7-.4,20.7-.9,24s-1.2,5.4-2.4,6.6-3.4,1.9-6.5,1.9l-1.9-4.1c3.2,0,5-.3,5.6-1.1s1-2,1.4-4.2.7-8.9.8-19.6h-1.2a59.1,59.1,0,0,1-3.1,13,45.3,45.3,0,0,1-5.1,8.7,44.9,44.9,0,0,1-5.8,5.7l-3.4-2.1a27.6,27.6,0,0,0,5.2-4.6,32.9,32.9,0,0,0,5.9-8.9A45.5,45.5,0,0,0,273,24.5h-2.6a37.3,37.3,0,0,1-2,8.7,31.3,31.3,0,0,1-3.5,6.3,25.6,25.6,0,0,1-4,4.1l-3.3-2.1a22.5,22.5,0,0,0,3.5-3.3,22,22,0,0,0,4-6.2,37,37,0,0,0,1.9-7.5h-2.1v.2a46.9,46.9,0,0,1-3.7,6.7l-3.5-2.2a48,48,0,0,0,4.2-7,64,64,0,0,0,3-9.3Z"/><polygon class="cls-1" points="52.3 42.1 41.6 30.5 30.2 42.8 25.4 37.5 10.8 53.3 73.9 53.3 57.9 36.1 52.3 42.1"/><path class="cls-2" d="M35.6,28.7l-4.8-5.2L3.2,53.3H6.6L30.8,27.1l4.8,5.2L47.4,19.6,78.6,53.3H82L47.4,16Z"/><polygon class="cls-1" points="16.7 21.5 10.8 16.3 11.8 15.1 17.9 16.2 14 12.7 14.9 11.6 20.8 16.8 19.8 18 13.8 17 17.7 20.4 16.7 21.5"/><path class="cls-1" d="M28.5,11.3l-1.5.9-1.5-1.1-2.6,1.8.4,1.8-1.4,1L20.1,7.5l1.4-1Zm-4.2-1L21.8,8.5l.7,3Z"/><polygon class="cls-1" points="29.9 10.6 27.4 3.2 28.9 2.7 33.6 6.6 31.9 1.7 33.3 1.2 35.8 8.6 34.3 9.1 29.7 5.3 31.3 10.2 29.9 10.6"/><path class="cls-1" d="M41.9,5.2h1.5a2.3,2.3,0,0,0,.5,1.1,1.7,1.7,0,0,0,1.2.5,1.6,1.6,0,0,0,1.1-.3,1.2,1.2,0,0,0,.5-.7.8.8,0,0,0-.2-.5L46,4.9l-1.3-.4A3,3,0,0,1,43,3.6,1.7,1.7,0,0,1,42.4,2,1.7,1.7,0,0,1,42.8.9a1.8,1.8,0,0,1,1-.7A3.4,3.4,0,0,1,45.3,0a3.2,3.2,0,0,1,2.2.8,2.1,2.1,0,0,1,.7,1.8H46.6a1,1,0,0,0-.4-.9,1.9,1.9,0,0,0-.9-.3l-1.1.2a.5.5,0,0,0-.3.5c0,.2,0,.4.2.5a3.8,3.8,0,0,0,1.4.6,7.3,7.3,0,0,1,1.7.7l.8.8a1.9,1.9,0,0,1,.2,1.3,1.9,1.9,0,0,1-.4,1.2,1.8,1.8,0,0,1-1.1.8,3.2,3.2,0,0,1-1.7.2,3.2,3.2,0,0,1-2.3-.8A2.9,2.9,0,0,1,41.9,5.2Z"/><polygon class="cls-1" points="50.2 8.5 52.6 1.1 54.1 1.6 53.1 4.5 56.1 5.5 57.1 2.6 58.6 3.1 56.1 10.5 54.6 10 55.7 6.8 52.7 5.8 51.6 9 50.2 8.5"/><path class="cls-1" d="M64.1,15.5l-1.5-1,.5-1.8-2.6-1.8L58.9,12l-1.4-.9,6.9-4.8,1.4.9Zm-.7-4.2.7-3-2.5,1.8Z"/><polygon class="cls-1" points="65.2 16.6 71.1 11.5 72.1 12.6 70.3 18.5 74.2 15 75.2 16.1 69.3 21.3 68.2 20.1 70 14.4 66.1 17.7 65.2 16.6"/></svg>