<svg id="圖層_1" data-name="圖層 1" xmlns="http://www.w3.org/2000/svg" xmlns:xlink="http://www.w3.org/1999/xlink" viewBox="0 0 177 41"><defs><style>.cls-1{fill:none;stroke-miterlimit:10;stroke-width:2px;stroke:url(#新增漸層色票_2);}.cls-2{fill:url(#新增漸層色票_2-2);}.cls-3{fill:url(#新增漸層色票_2-3);}.cls-4{fill:url(#新增漸層色票_2-4);}.cls-5{fill:url(#新增漸層色票_2-5);}.cls-6{fill:url(#新增漸層色票_2-6);}</style><linearGradient id="新增漸層色票_2" x1="0.52" y1="20.52" x2="176.69" y2="20.52" gradientUnits="userSpaceOnUse"><stop offset="0.01" stop-color="#06b4ea"/><stop offset="0.19" stop-color="#06b4ea"/><stop offset="0.64" stop-color="#c4d700"/><stop offset="0.66" stop-color="#c4d70f"/><stop offset="0.71" stop-color="#c3d820"/><stop offset="0.75" stop-color="#c3d82a"/><stop offset="0.81" stop-color="#c3d82d"/><stop offset="1" stop-color="#83ccd2"/></linearGradient><linearGradient id="新增漸層色票_2-2" x1="35.35" y1="33.38" x2="35.35" y2="6.8" xlink:href="#新增漸層色票_2"/><linearGradient id="新增漸層色票_2-3" x1="64.3" y1="33.06" x2="64.3" y2="7" xlink:href="#新增漸層色票_2"/><linearGradient id="新增漸層色票_2-4" x1="89.81" y1="30.45" x2="89.81" y2="8.86" xlink:href="#新增漸層色票_2"/><linearGradient id="新增漸層色票_2-5" x1="115.06" y1="33.38" x2="115.06" y2="7.12" xlink:href="#新增漸層色票_2"/><linearGradient id="新增漸層色票_2-6" x1="144.13" y1="33.38" x2="144.13" y2="6.8" xlink:href="#新增漸層色票_2"/></defs><path class="cls-1" d="M175.7,20.5a19.1,19.1,0,0,1-19.1,19.1H20.6A19.1,19.1,0,0,1,1.5,20.5h0A19.2,19.2,0,0,1,20.6,1.4h136a19.2,19.2,0,0,1,19.1,19.1Z"/><path class="cls-2" d="M33.4,8.7V6.8h4.1V8.7H48.3v3.4H37.5v2h9.9v16c0,2-1.2,3.1-3.7,3.1H40.3l-.5-3.6h2.7a.8.8,0,0,0,.9-.9V17.3H27.5V33.4H23.6V14.1h9.8v-2h-11V8.7Zm1.1,12.4h1.8a16.1,16.1,0,0,0,1.6-3.5l3.5.8a17.1,17.1,0,0,1-1.3,2.7h1.6V24H37.4v2h5.1v2.9H37.4v3.6H33.7V28.9H28.3V26h5.4V24H29.1V21.1h1.8l-1.2-2.7,3.5-.8A18.1,18.1,0,0,1,34.5,21.1Z"/><path class="cls-3" d="M66.2,7V27h6.1V12.1h3.8v21H72.3V30.6h-16v2.5H52.4v-21h3.9V27h5.8V7Z"/><path class="cls-4" d="M96.1,28.6a9.7,9.7,0,0,1-6,1.8c-3.2,0-5.7-1-7.4-3.2a11.3,11.3,0,0,1-2.4-7.5,11.7,11.7,0,0,1,2.4-7.4,8.1,8.1,0,0,1,7-3.4,8.6,8.6,0,0,1,7.6,3.7,14.2,14.2,0,0,1,2,8.3H84.7c.5,3.7,2.3,5.6,5.4,5.6a4.3,4.3,0,0,0,4.7-3.6h4.5A9.1,9.1,0,0,1,96.1,28.6ZM89.8,12.8c-2.6,0-4.1,1.4-4.9,4.1h9.8C94,14.2,92.3,12.8,89.8,12.8Z"/><path class="cls-5" d="M110.5,8a50,50,0,0,1-2.1,6.2V33.4h-3.5V20.9L103,23.6l-1.4-4.1A32,32,0,0,0,107,7.1Zm15.8.2v9.4h-5.7v2h7.2v3.1h-4.4a14.9,14.9,0,0,0,5.1,5.9l-2.1,3.2q-1.7-.9-3.6-4.2a21,21,0,0,1-2.2-4.2v10h-3.7V24a10.3,10.3,0,0,1-1.2,2.6,23.7,23.7,0,0,1-4.7,5.5l-2-3.2a20.4,20.4,0,0,0,3.6-3.6,12.6,12.6,0,0,0,1.3-2.6h-4.6V19.6h7.6v-2h-5.6V8.2Zm-3.6,3.1h-7.8v3.3h7.8Z"/><path class="cls-6" d="M142,15.3c-.1,3.6-.3,7.2-.6,10.9l1.6-.5v3.5a96.7,96.7,0,0,1-11.6,3.1l-.6-3.8a57.3,57.3,0,0,0,7-1.3,102.3,102.3,0,0,0,1.1-12.1Zm-2.8-4.1h4.1v3.1H131.1V11.2h4.2c-.3-1.5-.6-2.8-.9-4l4.1-.3C138.7,8.3,138.9,9.7,139.2,11.2Zm-2.3,14.5-3.6.5a52.8,52.8,0,0,0-1.3-10l3.2-.3A89.2,89.2,0,0,1,136.9,25.7Zm14-18.9v4.3h6.6v3.2h-6.6v4.6h5.5V33.4h-3.6v-2h-6v2h-3.5V18.9h4V6.8Zm1.9,21.4V22.1h-6v6.1Z"/></svg>