<?xml version="1.0" encoding="utf-8"?>
<!-- Generator: Adobe Illustrator 24.3.0, SVG Export Plug-In . SVG Version: 6.00 Build 0)  -->
<svg version="1.1" id="圖層_1" xmlns="http://www.w3.org/2000/svg" xmlns:xlink="http://www.w3.org/1999/xlink" x="0px" y="0px"
	 viewBox="0 0 1444 406" style="enable-background:new 0 0 1444 406;" xml:space="preserve">
<style type="text/css">
	.st0{clip-path:url(#SVGID_2_);}
	.st1{opacity:0.27;fill:url(#SVGID_3_);}
	.st2{opacity:0.4;}
	.st3{opacity:0.27;fill:url(#SVGID_4_);}
	.st4{fill:#F6E496;}
	.st5{fill:#FFFFFF;}
	.st6{opacity:0.27;fill:url(#SVGID_5_);}
	.st7{opacity:0.27;fill:url(#SVGID_6_);}
	.st8{fill:#3C8F7C;}
	.st9{fill:#96D9C9;}
	.st10{fill:#52BCA2;}
	.st11{fill:#E4FBFA;}
	.st12{opacity:0.2;}
	.st13{opacity:0.1;}
	.st14{fill:#181617;}
	.st15{fill:#463C3E;}
	.st16{fill:#302B2D;}
	.st17{fill:#92AFA9;}
	.st18{fill:none;stroke:#181617;stroke-width:3.3127;stroke-miterlimit:10;}
	.st19{fill:#F1CEB8;}
	.st20{fill:#E5BDA5;}
	.st21{opacity:5.000000e-02;fill:#FFFFFF;}
	.st22{opacity:0.2;fill:#FFFFFF;}
	.st23{fill:#E56C40;}
	.st24{fill:#D25F33;}
	.st25{fill:#AE5739;}
	.st26{fill:#E06973;}
	.st27{fill:#D6646D;}
	.st28{opacity:0.1;fill:#FFFFFF;}
	.st29{fill:#F47458;}
	.st30{fill:#F7F3E6;}
	.st31{fill:#F8AD3D;}
	.st32{fill:#DE6853;}
	.st33{fill:#1A2E35;}
</style>
<g>
	<defs>
		<rect id="SVGID_1_" width="1444" height="406"/>
	</defs>
	<clipPath id="SVGID_2_">
		<use xlink:href="#SVGID_1_"  style="overflow:visible;"/>
	</clipPath>
	<g class="st0">
		<g>
			<g>
				
					<linearGradient id="SVGID_3_" gradientUnits="userSpaceOnUse" x1="85.4662" y1="1367.0101" x2="1544.9767" y2="1367.0101" gradientTransform="matrix(0.9993 -3.693480e-02 6.097090e-02 1.6497 -174.9601 -1916.9312)">
					<stop  offset="0" style="stop-color:#0057A0"/>
					<stop  offset="0.9625" style="stop-color:#00A7F7"/>
				</linearGradient>
				<path class="st1" d="M1457.3,415.1c0,0-34.9-198.9-373-139S218.1,492.8-11.8,165L0.1,504.9L1457.3,415.1z"/>
			</g>
			<g class="st2">
				
					<linearGradient id="SVGID_4_" gradientUnits="userSpaceOnUse" x1="87.1808" y1="1407.8947" x2="1539.1112" y2="1407.8947" gradientTransform="matrix(0.9993 -3.693480e-02 6.097090e-02 1.6497 -174.9601 -1916.9312)">
					<stop  offset="0" style="stop-color:#0057A0"/>
					<stop  offset="0.9625" style="stop-color:#00A7F7"/>
				</linearGradient>
				<path class="st3" d="M1453.1,460c0,0-26.5-176.4-364.6-116.5s-866.2,216.7-1096-111L4.3,572.3L1453.1,460z"/>
			</g>
			<g>
				<path class="st4" d="M187,343.9c0.4-0.3,0.8-0.7,1.2-1c0.4-0.3,0.8-0.7,1.1-1.2c0.2-0.3,0.4-0.6,0.6-0.9c2-1.9,2.8-5,0.5-7.1
					c-0.2-0.2-0.4-0.4-0.7-0.5c-1-1.2-2.4-1.9-4-2.3c-4.8-1.1-10.1,0.7-14.1,3.4c-2,1.4-3.9,3.2-5.3,5.3c-1.5,2.2-3,5.3-1.4,7.9
					c1.5,2.4,4.5,2.3,6.9,2.3c2.7,0,5.3-0.5,7.8-1.5C182,347.5,185.1,346,187,343.9z"/>
				<path class="st4" d="M151.8,325.2c-0.3-2.7-2.4-4.7-4.3-6.2c-3.8-3-8.5-4.5-13.2-4.4c-2.6,0-5.5,0.6-7.5,2.6
					c-1.9,1.8-2.8,4.6-2,7.2c0.8,2.7,3.4,4.4,5.7,5.5c2.1,1.1,4.5,1.8,6.8,2c2.2,0.3,4.6,0.2,6.8-0.3c1.2-0.1,2.4-0.3,3.6-0.7
					C150,330.1,152.1,328,151.8,325.2z"/>
				<path class="st4" d="M149.9,360.3c0.7-0.9,0.8-2,0.7-3c0-0.2,0-0.3,0-0.5c0.2-2-1.4-3.8-3.1-5.2c-1.4-1.5-3.2-2.7-5.1-3.4
					c-2.3-0.9-4.9-1.2-7.3-0.5c-2.5,0.2-5.3,1.3-5.8,4.2c-0.3,1.6,0.5,3,1.5,4c0.3,0.4,0.6,0.8,0.9,1.1c2.2,2.2,5.3,3.6,8.3,4.1
					c0.1,0,0.2,0,0.3,0c1.7,0.5,3.4,0.8,5,0.9C146.9,362.1,148.8,361.7,149.9,360.3z"/>
				<path class="st4" d="M174.8,364.7c0.8-2-0.5-3.8-2.2-4.5c-1.3-0.5-2.9-0.5-4.3-0.3c-1.3,0.2-2.7,0.6-3.9,1.3
					c-1.2,0.7-2.6,1.6-3.3,2.8c-0.5,0.9-0.7,2-0.3,3c0.4,1,1.4,1.6,2.4,1.7c1.7,0.3,3.6-0.2,5.2-0.7c0,0,0.1,0,0.1,0
					c1,0,1.9-0.2,2.9-0.5C172.7,366.9,174.2,366.1,174.8,364.7z"/>
				<path class="st4" d="M116.4,337.7c0.5-0.5,0.7-1.3,0.4-2.1c-0.7-2.2-1.8-4.2-3.3-5.9c-0.4-0.5-0.9-0.9-1.3-1.3
					c-0.9-1.1-2-2.1-3.2-2.9c-0.3-0.2-0.5-0.3-0.8-0.3c0,0-0.1-0.1-0.1-0.1c-1.3-0.8-2.9-0.3-3.2,1.4c0,0.1,0,0.3,0,0.4
					c-0.2,0.3-0.4,0.7-0.5,1.1c-0.3,1.2-0.1,2.4,0.3,3.6c0.7,2,2,3.8,3.7,5c1.9,1.5,4.2,2.2,6.6,2.1
					C115.6,338.7,116.1,338.3,116.4,337.7z"/>
				<path class="st4" d="M108.2,308.9c0.3-0.1,0.5-0.3,0.7-0.5c0.5-0.2,0.9-0.5,1.3-1c1.7-2.1-0.2-4.8-1.3-6.7
					c-1.1-1.9-2.3-3.8-3.6-5.5c-2.5-3.2-6.3-6.6-10.4-6.9c-1-0.1-1.9,0.2-2.6,0.7c-0.6-0.1-1.2,0.2-1.5,0.7
					c-0.5,0.8-0.7,1.7-0.7,2.6c-0.2,0.3-0.3,0.6-0.4,0.8c-1.4,5.9,4.6,10.4,8.6,13c1.2,0.7,2.3,1.4,3.5,2.1c1.3,0.7,2.7,1.6,4.2,1.7
					C106.9,309.8,107.7,309.5,108.2,308.9z M100.2,300.9c-0.4-0.4-0.8-0.7-1.2-1.1c-0.5-0.4-0.9-0.9-1.3-1.3
					C98.6,299.2,99.4,300,100.2,300.9z"/>
			</g>
			<g>
				<path class="st5" d="M856.6,353.9c2.1,0.6,4.2,0.7,6.4,0.7c2.4-0.1,4.8-0.6,7-1.4c0.9-0.3,1.5-1.4,1.4-2.4
					c0.1-0.2,0.1-0.4,0.2-0.6c0.1-1.4-0.7-2.5-2-2.8c-4.1-1.1-8.5-1.2-12.7-0.3c-1.6,0.4-3.3,1.1-3.5,3.1c-0.1,1,0.3,2.2,1.1,2.8
					C855.2,353.4,855.8,353.7,856.6,353.9z"/>
				<path class="st5" d="M815.9,354.1c1.8,0.4,3.6,0.6,5.4,0.6c3.9,0.1,7.6-0.4,11.3-1.4c0.8-0.2,1.4-1.3,1.4-2.1
					c0-0.8-0.4-1.5-1-1.9c-0.2-0.5-0.6-1-1.1-1.2c-3.5-1.1-7.1-1.8-10.8-2c-3.3-0.2-7.7-0.6-10.3,2c-0.9,0.9-1.1,2-0.5,3.2
					C811.4,353.3,814,353.7,815.9,354.1z"/>
				<path class="st5" d="M776.1,355.2c0.3,0.1,0.7,0.1,1.1,0.1c1.9,0.4,3.9-0.2,5.8-0.5c0.1,0,0.3,0,0.4-0.1c0,0,0,0,0.1,0
					c2.4-0.2,4.8-0.5,7.2-0.8c1.2-0.1,2.5-0.1,3.6-0.6c1.1-0.4,1.7-1.6,1.6-2.8c0.2-0.3,0.3-0.6,0.4-1c0.1-1.3-0.7-2.4-1.9-2.7
					c-3.9-0.9-8.1-0.9-12,0c-2,0.5-4,1.1-5.9,2c-1,0.5-2.1,1.2-2.5,2.3C773.3,353.1,774.3,354.9,776.1,355.2z"/>
				<path class="st5" d="M740,364.4c0.1,0.1,0.3,0.1,0.5,0.1c2.1,0.2,4.3,0.1,6.3-0.7c1.5-0.1,3-0.3,4.4-0.5
					c3.7-0.5,7.4-1.4,11.1-1.8c2-0.2,2.7-3.3,0.7-4.2c-0.5-0.2-1-0.4-1.4-0.6c-0.1,0-0.2-0.1-0.2-0.1c-0.2-0.1-0.4-0.1-0.6-0.1
					c-0.7-0.2-1.3-0.4-2-0.5c-4.2-0.8-8.6-0.5-12.6,0.9c-1.9,0.4-3.7,1.1-5.2,2.3c-0.7,0.4-1.5,0.9-2.2,1.4
					C737,361.7,738.1,364.5,740,364.4z"/>
				<path class="st5" d="M833.9,368.2c1.9,0.3,3.9,0.4,5.8,0.4c3.9,0,7.7-0.7,11.4-1.9c0.7-0.2,1.1-0.9,1.3-1.7
					c0.9-1.1,0.8-3-0.6-3.6c-6.6-2.9-14.3-2.8-20.8,0.5c-0.9,0.5-1.4,1.3-1.3,2.3C829.8,366.7,831.9,367.9,833.9,368.2z"/>
				<path class="st5" d="M788.8,365.2c4.2,1.9,8.7,2.8,13.2,2.7c1.1,0,2.2-0.1,3.3-0.3c1.2-0.2,2.6-0.3,3.6-1c0.5-0.3,0.8-0.7,1-1.2
					c0.3-0.1,0.5-0.1,0.8-0.1c2.3-0.5,2.3-3.6,0.1-4.3c-2.4-0.7-4.8-1.1-7.3-1.3c-3.4-0.5-6.9-0.4-10.3,0.3
					c-1.4,0.2-2.8,0.5-4.3,0.9C786.9,361.4,787.1,364.5,788.8,365.2z"/>
			</g>
		</g>
		<g>
			<g>
				
					<linearGradient id="SVGID_5_" gradientUnits="userSpaceOnUse" x1="-534.1473" y1="3141.1499" x2="362.7393" y2="3141.1499" gradientTransform="matrix(0.9986 5.253565e-02 5.253565e-02 -0.9986 924.1662 3204.1575)">
					<stop  offset="0" style="stop-color:#0057A0"/>
					<stop  offset="0.9625" style="stop-color:#00A7F7"/>
				</linearGradient>
				<path class="st6" d="M559.2-26.4c0,0,121.3,167.6,393.1,107c271.8-60.6,437.5,20.7,493.3,116.8l11.7-221.9L559.2-26.4z"/>
			</g>
			<g>
				
					<linearGradient id="SVGID_6_" gradientUnits="userSpaceOnUse" x1="-534.1965" y1="3184.6985" x2="362.69" y2="3184.6985" gradientTransform="matrix(0.9986 5.253565e-02 5.253565e-02 -0.9986 924.1662 3204.1575)">
					<stop  offset="0" style="stop-color:#0057A0"/>
					<stop  offset="0.9625" style="stop-color:#00A7F7"/>
				</linearGradient>
				<path class="st7" d="M561.5-69.9c0,0,121.3,167.6,393.1,107c271.8-60.6,437.5,20.7,493.3,116.8L1459.5-68L561.5-69.9z"/>
			</g>
			<g>
				<path class="st5" d="M826.6,72.2c-2-0.7-4.1-1-6.2-1.1c-2.4-0.1-4.8,0.3-7,0.9c-0.9,0.2-1.5,1.2-1.5,2.1
					c-0.1,0.2-0.2,0.4-0.2,0.5c-0.2,1.3,0.5,2.3,1.8,2.7c4,1.3,8.3,1.7,12.5,1.1c1.6-0.2,3.3-0.8,3.6-2.7c0.2-1-0.2-2-0.9-2.7
					C828,72.7,827.4,72.5,826.6,72.2z"/>
				<path class="st5" d="M866.8,74.7c-1.7-0.5-3.5-0.8-5.3-0.9c-3.8-0.4-7.5-0.1-11.2,0.6c-0.8,0.2-1.4,1.1-1.5,1.9
					c-0.1,0.8,0.3,1.4,0.8,1.9c0.2,0.5,0.5,1,1,1.2c3.4,1.2,6.9,2.1,10.5,2.5c3.2,0.4,7.5,1,10.3-1.2c1-0.8,1.2-1.8,0.7-3
					C871.2,75.7,868.7,75.2,866.8,74.7z"/>
				<path class="st5" d="M906.2,76.2c-0.3-0.1-0.7-0.1-1-0.1c-1.8-0.5-3.9-0.1-5.7,0.1c-0.1,0-0.3,0-0.4,0c0,0,0,0-0.1,0
					c-2.4,0.1-4.8,0.1-7.2,0.3c-1.1,0.1-2.5,0-3.6,0.3c-1.1,0.3-1.8,1.4-1.7,2.5c-0.2,0.3-0.4,0.5-0.4,0.9c-0.2,1.2,0.5,2.3,1.7,2.6
					c3.8,1.1,7.9,1.3,11.8,0.8c2-0.3,4-0.8,5.9-1.5c1-0.4,2.1-0.9,2.6-2C908.8,78.4,907.9,76.6,906.2,76.2z"/>
				<path class="st5" d="M942.4,70.1c-0.1-0.1-0.3-0.1-0.5-0.1c-2.1-0.3-4.2-0.3-6.2,0.2c-1.5,0-2.9,0.1-4.4,0.2
					c-3.7,0.2-7.4,0.8-11.1,1c-2,0.1-2.9,2.9-1,3.9c0.5,0.2,0.9,0.5,1.4,0.6c0.1,0,0.1,0.1,0.2,0.1c0.2,0.1,0.4,0.1,0.6,0.2
					c0.6,0.2,1.3,0.4,2,0.6c4.1,1,8.4,1,12.5,0c1.9-0.3,3.7-0.8,5.3-1.8c0.8-0.3,1.5-0.7,2.2-1.1C945.1,72.7,944.3,70.1,942.4,70.1z
					"/>
				<path class="st5" d="M850,60.3c-1.9-0.4-3.8-0.6-5.7-0.7c-3.8-0.2-7.7,0.1-11.4,1c-0.7,0.2-1.2,0.8-1.3,1.5
					c-1,0.9-1,2.7,0.4,3.4c6.3,3.2,14,3.5,20.5,0.9c0.9-0.4,1.5-1.1,1.5-2.1C853.9,62.1,851.9,60.8,850,60.3z"/>
				<path class="st5" d="M894.3,66.1c-4-2.1-8.4-3.2-12.9-3.3c-1.1,0-2.2,0-3.2,0c-1.2,0.1-2.6,0.1-3.6,0.7c-0.5,0.3-0.8,0.6-1.1,1
					c-0.3,0-0.5,0-0.8,0.1c-2.3,0.3-2.5,3.2-0.3,4c2.3,0.8,4.7,1.4,7.1,1.7c3.3,0.7,6.8,0.8,10.2,0.4c1.4-0.1,2.8-0.2,4.3-0.5
					C895.9,69.7,895.8,66.9,894.3,66.1z"/>
			</g>
		</g>
	</g>
</g>
<g>
	<g>
		<path class="st8" d="M1009.8,362.5c0,0-12.5-72.1-17.6-79.6c-7-10.3-15.7,21.3-16.1,18.5c-4-26.2-3.2-59.3-21.9-64.3
			c-10.6-2.8,0.7,24.7-0.6,31.8c-1.3,7.1-19-18.2-29.9-31.7c-10.9-13.4-17.6-6-11.3,10.3c6.1,15.7,28.2,34.2,23.3,35.7
			c-5,1.6-32.7-20.3-36.9-12.3c-5.1,9.9,37.7,27.4,33.4,29.4c-4.3,2-24.7-7.3-24.7,0.6c0,7.9,28.2,9.9,27.4,13.3
			c-1.2,5.5-18.9-8.6-20.3-1c-1.4,7.8,24,8.4,23.1,14.6c-0.5,3.5-6.9-0.2-8.1,4.7c-2.6,11,37.4,26.5,37.4,26.5L1009.8,362.5z"/>
		<path class="st9" d="M1029.7,364.4c-5.1-6.6-35.1-43.6-53.3-49.5c-20.1-6.5-1.2,19.4-1.2,19.4s-35.6-39.1-48.7-35.6
			c-12,3.2,0,27.4,0,27.4s-13.5-13.4-29.9-13.4c-15.9,0,11.6,49.1,13,51.7H1029.7z"/>
		<g>
			<path class="st10" d="M905.2,338.1c-0.1,0.6-0.7,2.4-0.3,4.1c0.2,1.7,1.5,3.4,1.5,3.4c0.1,0-2-0.6-3.4-2.3
				c-1.5-1.6-2.3-4.5-2-5.7c0.4-2.6,2.5-3.9,3.4-3.1C905.4,335.1,905.4,336.7,905.2,338.1z"/>
			<path class="st10" d="M918.3,342.8c-0.1,0.6-0.7,2.4-0.3,4.1c0.2,1.7,1.5,3.4,1.5,3.4c0.1,0-2-0.6-3.4-2.3
				c-1.5-1.6-2.3-4.5-2-5.7c0.4-2.6,2.5-3.9,3.4-3.1C918.4,339.8,918.5,341.4,918.3,342.8z"/>
			<path class="st10" d="M931.6,348.7c-0.1,0.6-0.7,2.4-0.3,4.1c0.2,1.7,1.5,3.4,1.5,3.4c0.1,0-2-0.6-3.4-2.3
				c-1.5-1.6-2.3-4.5-2-5.7c0.4-2.6,2.5-3.9,3.4-3.1C931.7,345.8,931.8,347.4,931.6,348.7z"/>
			<path class="st10" d="M901.3,350.3c0.3-0.5,0.8-2.2,2.1-3.2c1.1-1.1,3-1.7,3-1.6c0.1,0.1-1.8-0.7-3.8-0.2c-2,0.4-4.2,2-4.7,3.1
				c-1.2,2.1-0.3,4.3,0.8,4.2C899.8,352.6,900.7,351.4,901.3,350.3z"/>
			<path class="st10" d="M915,355.2c0.3-0.5,0.8-2.2,2.1-3.2c1.1-1.1,3-1.7,3-1.6c0.1,0.1-1.8-0.7-3.8-0.2c-2,0.4-4.2,2-4.7,3.1
				c-1.2,2.1-0.3,4.3,0.8,4.2C913.4,357.4,914.3,356.2,915,355.2z"/>
			<path class="st10" d="M892.5,338.9c0.1,0.4,0,1.5,0.5,2.4c0.4,0.9,1.5,1.7,1.4,1.6c0.1,0-1.2,0-2.3-0.7c-1.1-0.7-2.1-2.1-2.1-2.9
				c-0.3-1.5,0.7-2.6,1.4-2.4C892.1,337.3,892.4,338.2,892.5,338.9z"/>
			<path class="st10" d="M890.4,345.1c0.2-0.3,0.8-1.3,1.7-1.8c0.9-0.6,2.1-0.7,2.1-0.6c0,0.1-1-0.7-2.4-0.6c-1.3,0-2.9,0.7-3.3,1.3
				c-1,1.2-0.7,2.6-0.1,2.7C889.1,346.3,889.9,345.7,890.4,345.1z"/>
			<g>
				<g>
					<path class="st10" d="M920.6,287.3c14.6,22.8,25.3,50.2,31.4,77.1h1.6c-6-26.3-17.3-53.9-31.9-76.7c-3.4-5.3-7-11.6-13.3-13.6
						c-0.1,0-0.2,0.1-0.1,0.2C914.1,276.4,917.5,282.3,920.6,287.3z"/>
				</g>
				<g>
					<path class="st10" d="M949.1,364.4c-16.3-22.2-36.7-43.8-60.3-61.6c-0.2-0.2-0.6,0.2-0.3,0.4c22.3,17.2,42.4,38.3,59,61.2
						H949.1z"/>
				</g>
				<path class="st10" d="M919.3,273.1c-0.4,0.6-1.8,2-2.2,3.9c-0.6,1.8-0.1,4-0.1,4c0.1,0-1.7-1.5-2.2-3.8
					c-0.7-2.3-0.2-5.5,0.7-6.5c1.5-2.4,4.2-2.6,4.7-1.5C920.8,270.3,920.1,271.9,919.3,273.1z"/>
				<path class="st10" d="M915.8,293.5c0.5-0.4,2-1.9,3.8-2.3c1.8-0.6,4-0.2,4-0.1c0,0.1-1.5-1.6-3.9-2.1c-2.3-0.7-5.4-0.1-6.5,0.8
					c-2.3,1.6-2.5,4.3-1.4,4.8C913.1,295,914.6,294.3,915.8,293.5z"/>
				<path class="st10" d="M921.1,302.4c0.5-0.4,2-1.9,3.8-2.3c1.8-0.6,4-0.2,4-0.1c0,0.1-1.5-1.6-3.9-2.1c-2.3-0.7-5.4-0.1-6.5,0.8
					c-2.3,1.6-2.5,4.3-1.4,4.8C918.3,303.9,919.9,303.2,921.1,302.4z"/>
				<path class="st10" d="M902.4,323.1c0.5-0.4,2-1.9,3.8-2.3c1.8-0.6,4-0.2,4-0.1c0,0.1-1.5-1.6-3.9-2.1c-2.3-0.7-5.4-0.1-6.5,0.8
					c-2.3,1.6-2.5,4.3-1.4,4.8C899.6,324.6,901.1,323.9,902.4,323.1z"/>
				<path class="st10" d="M892.8,314.6c0.5-0.4,2-1.9,3.8-2.3c1.8-0.6,4-0.2,4-0.1c0,0.1-1.5-1.6-3.9-2.1c-2.3-0.7-5.4-0.1-6.5,0.8
					c-2.3,1.6-2.5,4.3-1.4,4.8C890,316.2,891.5,315.4,892.8,314.6z"/>
				<path class="st10" d="M926.7,283.2c-0.5,0.5-2.1,1.7-2.8,3.5c-0.8,1.7-0.8,4-0.7,3.9c0.1,0.1-1.4-1.7-1.6-4.1
					c-0.3-2.4,0.6-5.4,1.7-6.3c1.9-2.1,4.6-1.9,4.9-0.7C928.5,280.7,927.6,282.1,926.7,283.2z"/>
				<path class="st10" d="M934.4,293.3c-0.7,0.3-2.9,1-4.1,2.7c-1.3,1.5-1.5,4.1-1.4,4.1c0.1,0.1-1.6-2.5-1.5-5.3
					c-0.2-2.8,1.5-5.8,3-6.3c2.7-1.5,6.2-0.2,6.4,1.3C937.1,291.3,935.7,292.5,934.4,293.3z"/>
				<path class="st10" d="M942.5,308.7c-0.7,0.2-3,0.5-4.5,2c-1.5,1.3-2.1,3.8-2,3.8c0.1,0.1-1.2-2.7-0.6-5.5c0.3-2.8,2.4-5.4,4-5.7
					c2.9-1.1,6.1,0.9,6.1,2.4C945.6,307.1,944,308.1,942.5,308.7z"/>
				<path class="st10" d="M918.5,319.3c-0.5,0.3-2.3,1-3.2,2.4c-1,1.3-1,3.4-0.9,3.4c0.1,0.1-1.5-1.9-1.6-4.2
					c-0.3-2.3,0.9-4.8,2-5.3c2.1-1.4,5-0.5,5.3,0.7C920.6,317.5,919.5,318.6,918.5,319.3z"/>
				<path class="st10" d="M905.9,276.7c0.3-0.3,1.1-1.2,2.2-1.5c1-0.4,2.4-0.3,2.3-0.3c0,0.1-0.9-0.9-2.4-1.1
					c-1.4-0.3-3.2,0.2-3.8,0.8c-1.3,1-1.3,2.6-0.6,2.9C904.4,277.7,905.2,277.2,905.9,276.7z"/>
				<path class="st10" d="M908.9,270.2c0,0.4-0.3,1.6,0.1,2.7c0.3,1.1,1.2,2.1,1.2,2c0.1,0-1.3-0.2-2.3-1.2
					c-1.1-0.9-1.8-2.7-1.7-3.5c0-1.7,1.3-2.7,1.9-2.2C908.7,268.3,908.8,269.3,908.9,270.2z"/>
				<path class="st10" d="M885.9,306c0.3-0.3,1.1-1.2,2.2-1.5c1-0.4,2.4-0.3,2.3-0.3c0,0.1-0.9-0.9-2.4-1.1
					c-1.4-0.3-3.2,0.2-3.8,0.8c-1.3,1-1.3,2.6-0.6,2.9C884.3,307,885.2,306.5,885.9,306z"/>
				<path class="st10" d="M889.4,299.5c0,0.4-0.4,1.5-0.1,2.7c0.2,1.1,1,2.2,1,2.1c0.1,0-1.3-0.3-2.2-1.4c-1-1-1.6-2.8-1.4-3.6
					c0.2-1.7,1.5-2.5,2.1-2.1C889.4,297.6,889.5,298.6,889.4,299.5z"/>
			</g>
			<path class="st10" d="M891.9,342.6c4.2,0.4,8.3,1.2,12.4,2.2c7.4,2,14.6,4.8,21.6,7.9c3.5,1.5,6.9,3,10.3,4.6
				c1.6,0.8,3.2,1.5,4.6,2.5c2,1.3,5,4,5.4,4.4l-1.6,0c-1.1-0.9-5.2-4.3-10.8-7c-13.3-6.4-27.2-13-42-14.6
				C891.8,342.7,891.8,342.6,891.9,342.6z"/>
		</g>
	</g>
	<g>
		<path class="st11" d="M1255.7,193.6h-245.9c-4.8,0-8.6-3.6-9.2-8c-0.2-1.4-0.1-2.8,0.3-4.2l18.9-58.3c6.1-19,23.8-31.9,43.8-31.9
			h138.3c4.5,0,8.8,0.6,12.9,1.9c7.3,2.1,14,6,19.3,11.3c3.9,3.8,7.2,8.4,9.5,13.5c0.8,1.7,1.5,3.4,2,5.2l18.9,58.3
			C1266.5,187.4,1262,193.6,1255.7,193.6z"/>
		<g>
			<g class="st12">
				<path class="st5" d="M1110.4,91.1l-78.3,102.4h-22.4c-4.8,0-8.6-3.6-9.2-8l72.2-94.5H1110.4z"/>
			</g>
			<g class="st13">
				<polygon class="st5" points="1158.3,91.1 1080,193.6 1060.1,193.6 1138.4,91.1 				"/>
			</g>
			<g class="st12">
				<path class="st5" d="M1214.8,93l-76.9,100.6h-37.7l78.3-102.4h23.4C1206.3,91.1,1210.6,91.8,1214.8,93z"/>
			</g>
			<g class="st13">
				<path class="st5" d="M1243.6,117.9l-57.9,75.7h-19.9l68.2-89.2C1238,108.2,1241.3,112.7,1243.6,117.9z"/>
			</g>
		</g>
		<path class="st14" d="M1021.6,378.2h-16.2c-10.9,0-19.9-8.9-19.9-19.9v-30.8c0-10.9,8.9-19.9,19.9-19.9h16.2
			c10.9,0,19.9,8.9,19.9,19.9v30.8C1041.5,369.3,1032.6,378.2,1021.6,378.2z"/>
		<path class="st14" d="M1260.1,378.2H1244c-10.9,0-19.9-8.9-19.9-19.9v-30.8c0-10.9,8.9-19.9,19.9-19.9h16.2
			c10.9,0,19.9,8.9,19.9,19.9v30.8C1280,369.3,1271.1,378.2,1260.1,378.2z"/>
		<path class="st15" d="M1265.8,336.2H999.5c-10.9,0-19.9-8.9-19.9-19.9l-3.3-39.3c0-10.9,8.9-19.9,19.9-19.9h272.9
			c10.9,0,19.9,8.9,19.9,19.9l-3.3,39.3C1285.6,327.2,1276.7,336.2,1265.8,336.2z"/>
		<path class="st14" d="M1179.9,321.1h-94.6c-6,0-19.1-12.2-16.8-18.5c0.8-2.1,3.3-3.5,8.6-3.5h111.2c5.2,0,7.8,1.4,8.5,3.6
			C1199,308.9,1186,321.1,1179.9,321.1z"/>
		<path class="st16" d="M1196.8,302.7c-1.7,6.4-11.7,15.1-16.8,15.1h-94.6c-5,0-15.1-8.7-16.8-15.1c0.8-2.1,3.3-3.5,8.6-3.5h111.2
			C1193.5,299.1,1196,300.6,1196.8,302.7z"/>
		<g>
			<g>
				<path class="st16" d="M999.6,310.1c-2.7,0-4.9-2.2-4.9-4.9v-13.9c0-2.7,2.2-4.9,4.9-4.9h18c13.1,0,23.7,10.6,23.7,23.7
					C1041.3,310.3,1042.9,310.1,999.6,310.1z"/>
				<circle class="st17" cx="1017" cy="299.4" r="8.7"/>
			</g>
			<g>
				<path class="st16" d="M1265.7,310.1c2.7,0,4.9-2.2,4.9-4.9v-13.9c0-2.7-2.2-4.9-4.9-4.9h-18c-13.1,0-23.7,10.6-23.7,23.7
					C1223.9,310.3,1222.4,310.1,1265.7,310.1z"/>
				<circle class="st17" cx="1248.3" cy="299.4" r="8.7"/>
			</g>
		</g>
		<path class="st16" d="M1280.1,203.2v18.1c0,10.9-8.9,19.9-19.9,19.9h-255c-10.9,0-19.9-8.9-19.9-19.9v-18.2
			c2.3-9.9,6.7-24.4,14.8-53.6c1.6-0.4,3.3-0.7,5-0.7h255c1.7,0,3.4,0.2,4.9,0.6C1273.3,179,1277.7,193.5,1280.1,203.2z"/>
		<path class="st14" d="M1115.2,207h-86.6l4.9-47.5l1.7-11.4l0.2-1.1c1.5-10.3,10.3-18,20.8-18h31.6c10.4,0,19.3,7.7,20.8,18
			L1115.2,207z"/>
		<path class="st14" d="M1230.1,147c-1.5-10.3-10.3-18-20.8-18h-31.6c-10.4,0-19.3,7.7-20.8,18l-6.7,46.6h86.6L1230.1,147z"/>
		<path class="st15" d="M1086,141.6h-28.2c-6.9,0-12.6-5.7-12.6-12.6l0,0c0-6.9,5.7-12.6,12.6-12.6h28.2c6.9,0,12.6,5.7,12.6,12.6
			l0,0C1098.6,136,1092.9,141.6,1086,141.6z"/>
		<path class="st15" d="M1207.6,141.6h-28.2c-6.9,0-12.6-5.7-12.6-12.6l0,0c0-6.9,5.7-12.6,12.6-12.6h28.2c6.9,0,12.6,5.7,12.6,12.6
			l0,0C1220.2,136,1214.6,141.6,1207.6,141.6z"/>
		<line class="st18" x1="1132.6" y1="106.3" x2="1132.6" y2="91.1"/>
		<g>
			<path class="st14" d="M1197.8,125.9c6.8-4.4,9.7-10.7,8.6-19c-1.4-10.2-4.1-14.2-13.3-17c-5.2-1.6-16.1-4.9-20.8,6.3
				c-3.5,8.1,2.7,9.2,7.1,13.2C1185.8,115.2,1188.2,125.5,1197.8,125.9z"/>
			<g>
				<path class="st19" d="M1201.2,138.2c0.5,5.3,3.2,12.5,1.2,16.8c-2.5,5.4-9.7,5.8-14.5,4.3c-7-2.3-7.2-5.9-7.3-12.9
					c0-0.9,0-1.9-0.1-2.9C1186.7,144.3,1194.9,141.8,1201.2,138.2z"/>
				<path class="st20" d="M1180.6,143.5c-0.1-5.9-0.4-12,0.8-17.5c7.3,1,15,1.7,20.4-7.4c0,6.2-0.7,12-0.7,18.2c0,0.4,0,0.9,0.1,1.4
					C1194.9,141.8,1186.7,144.3,1180.6,143.5z"/>
			</g>
			<path class="st19" d="M1199.7,115.3c-0.5-6.4-3.6-11.5-10.4-11.2c-3,0.1-5.2,0.8-8.4,0.6c-4.4-0.3-4.2-1.6-5.4,3.1
				c-2.1,7.7-2.2,33.3,11.1,30.7c6-1.2,9.2-9.7,11.8-14.3c0.4,0.3,1,0.6,1.4,1C1206.3,123.1,1204.5,111.8,1199.7,115.3z"/>
			<g>
				<path class="st14" d="M1178.4,110.7C1178.4,110.7,1178.4,110.7,1178.4,110.7C1178.4,110.7,1178.4,110.7,1178.4,110.7
					C1178.4,110.7,1178.4,110.7,1178.4,110.7z"/>
				<path class="st14" d="M1179.1,110.5C1179.1,110.5,1179.1,110.5,1179.1,110.5C1179.1,110.5,1179.1,110.5,1179.1,110.5
					C1179.1,110.5,1179.1,110.5,1179.1,110.5C1179.1,110.5,1179.1,110.5,1179.1,110.5z"/>
			</g>
			<path class="st21" d="M1176.2,96.2c1.2,0.7,2,2,3.1,2.8c1.4,1.1,2.9,1.6,4.7,1.6c3.2,0.1,6.4,0,9.5,0.9c4.3,1.2,9.8,5.2,8.9,10.3
				c0,0.1-0.2,0.1-0.2,0c-0.4-3-1.5-5.3-3.9-7.2c-2.5-1.9-5.6-2.6-8.6-2.9c-2.7-0.2-5.8,0.4-8.5-0.4c-2.1-0.6-4.7-2.5-5.6-4.5
				C1175.2,96.5,1175.7,95.9,1176.2,96.2z"/>
			<path class="st21" d="M1179.6,94.1c1.3,0.9,2.5,1.8,4,2.5c1.5,0.8,3.2,1.1,4.9,1.3c3.1,0.2,6.1,0.1,9,1.4c5,2.3,8.2,7.9,6.4,13.3
				c-0.1,0.2-0.3,0.1-0.3-0.1c1.1-6.1-2.9-11.8-8.9-13.1c-3-0.7-6.1-0.1-9.2-0.8c-2.4-0.5-5.1-1.8-6.5-3.9
				C1178.8,94.3,1179.3,93.9,1179.6,94.1z"/>
		</g>
		<g>
			<path class="st19" d="M1146.3,166.1c1.7,3-4.3,18.6-5,22.7c-1.1,5.8-7.7,20-2.6,24.7c7.1,6.4,12,0.3,13.7-5.8
				c2.2-7.9,6.5-15.4,7.6-23.6C1161.5,171.5,1157.4,173.7,1146.3,166.1z"/>
			<path class="st22" d="M1149.6,168.5c-0.7,2.6-1.3,5.3-2.1,7.9c-0.8,2.6-1.7,5.2-2.5,7.9c-0.7,2.6-1.4,5.1-2,7.7
				c-0.5,2.6-1,5.2-0.4,7.9c0.1,0.6,1,0.7,1.2,0.1c0.8-2.5,1-5,1.5-7.5c0.5-2.8,1.2-5.5,1.9-8.2c0.6-2.5,1.2-5,1.7-7.5
				c0.5-2.6,1-5.4,0.9-8.1C1149.8,168.4,1149.6,168.3,1149.6,168.5z"/>
		</g>
		<g>
			<path class="st19" d="M1216.2,175c3.4,0.6,11.7,15.1,14.3,18.3c3.8,4.5,10.5,18.7,17.4,17.7c9.5-1.4,7.8-9.1,4.2-14.2
				c-4.7-6.7-7.7-14.8-13.4-20.8C1230.1,166.8,1229.1,171.3,1216.2,175z"/>
			<path class="st22" d="M1220.2,174.1c1.5,2.2,3.3,4.4,4.8,6.6c1.5,2.3,3,4.6,4.5,6.9c1.5,2.2,3,4.4,4.7,6.4
				c1.7,2.1,3.4,4.1,5.8,5.3c0.5,0.3,1.1-0.3,0.8-0.9c-1.4-2.2-3.2-3.9-4.9-5.9c-1.8-2.2-3.5-4.4-5.1-6.7c-1.5-2.1-3.1-4.1-4.8-6.1
				c-1.7-2.1-3.5-4.2-5.7-5.9C1220.3,173.8,1220.1,173.9,1220.2,174.1z"/>
		</g>
		<g>
			<path class="st23" d="M1180.1,144.3c2.3,4.3,5.8,8.9,11.3,8.9c7,0,10.4-5.2,10.5-9.7c14.9,1.9,36.7,15.4,41.7,32.8
				c-3.7,5.3-4.4,4.6-9.7,8.6c-4.4,3.3-12.7-1.4-16.7-3.1c-4.3,7.1,1,25.7-6.6,28.6c-7,2.6-17,0.2-24.3,0.1
				c-6.7-0.1-14.2,0.2-20.7-1.6c-0.8-10.6,2.3-22,1.3-32.6c-0.8,5.1-1.2,4.3-5.1,10.8c-8.1-1.1-7.1-1.8-14.3-5.7
				c-2.2-1.2-4.9-3.1-5.1-5.7c-0.4-3.9,4.8-14.6,6.7-17.3C1155.7,149.2,1169.4,141,1180.1,144.3z"/>
			<path class="st24" d="M1170.1,155.1c-0.5-1.8-1.2-4-2.7-5.2c-0.1,0-0.1,0-0.1,0.1c0.4,1.9,1.4,3.5,1.7,5.5c0.4,2,0.4,4.1,0.1,6
				c-0.7,4.2-2.5,7.9-3.6,12c-0.1,0.5,0.5,1,0.9,0.5c2.8-3.5,4.2-8.3,4.3-12.7C1170.7,159.2,1170.6,157.1,1170.1,155.1z"/>
			<path class="st24" d="M1218.8,165.2c-0.2-1.7-0.5-3.5-0.9-5.2c-0.4-1.7-0.8-3.7-1.8-5.1c-0.1-0.1-0.2-0.1-0.2,0.1
				c-0.1,1.7,0.4,3.5,0.5,5.3c0.2,1.7,0.3,3.4,0.3,5.2c0,1.7,0,3.5-0.1,5.2c-0.1,1.7-0.4,3.6,0,5.2c0.1,0.7,1.1,0.8,1.5,0.2
				c0.8-1.5,0.9-3.7,0.9-5.4C1219.1,168.8,1219,167,1218.8,165.2z"/>
			<path class="st22" d="M1202.2,151c-0.6,0.9-1,1.7-1.8,2.5c-0.7,0.7-1.5,1.3-2.4,1.8c-2.2,1.1-4.8,1.4-7.2,1.5
				c-2.3,0.1-4.6-0.2-6.5-1.5c-1.8-1.2-3.8-3-4.8-5c-0.1-0.1-0.2-0.1-0.2,0.1c0,1.2,0.7,2,1.4,2.9c0.9,1.1,1.8,2.1,2.9,3
				c2.1,1.6,4.6,2.2,7.2,2.2c2.8,0,5.7-0.3,8.2-1.7c1.9-1,4-3,4.1-5.4C1203.1,150.8,1202.5,150.6,1202.2,151z"/>
			<path class="st22" d="M1211.4,157.5c0-0.1-0.2-0.1-0.2,0c0.2,7.2,0.6,14.3,0.5,21.4c-0.1,3.5-0.3,6.9-0.5,10.4
				c-0.3,3.6-1.2,7.4-0.9,11c0.1,0.8,1.1,1,1.4,0.2c1.3-3.2,1.3-7.1,1.6-10.5c0.3-3.7,0.4-7.4,0.4-11.1
				C1213.8,171.8,1213.2,164.4,1211.4,157.5z"/>
			<path class="st22" d="M1235.5,165.1c-1.1-1.2-2.1-2.3-3.3-3.4c-2.6-2.4-5.3-4.6-8.2-6.5c-2.7-1.9-5.6-3.6-8.5-5.1
				c-2.7-1.4-6.1-3.6-9.2-3.4c-0.8,0-0.9,1.1-0.4,1.5c1.2,1.1,2.5,1.4,4,2c1.5,0.6,3,1.3,4.4,2c3,1.4,5.8,3.1,8.6,4.9
				c2.6,1.7,5.1,3.6,7.4,5.7c1.2,1,2.4,2.1,3.6,3.2c1.1,1,2.1,2.3,3.6,2.8c0.1,0,0.2,0,0.2-0.2
				C1237.4,167.1,1236.4,166.1,1235.5,165.1z"/>
			<path class="st22" d="M1173.4,145.3c-1-0.9-2.2-0.6-3.4-0.3c-1.4,0.4-2.7,0.9-4,1.5c-2.6,1.2-5,2.7-7.3,4.5
				c-2.3,1.8-4.5,3.9-6.5,6c-2,2.2-4,4.5-5.4,7.1c-0.3,0.6,0.5,1.3,1,0.8c1.8-1.9,3.3-4,5.1-6c1.8-2,3.7-3.9,5.7-5.7
				c4-3.4,9.2-6.9,14.6-7.5C1173.4,145.7,1173.6,145.5,1173.4,145.3z"/>
		</g>
		<path class="st25" d="M1071,177.7c-2.1,0.4-6.6,3.2-10.2,3.3c-8,0.1-7.6-3.7-9.6-9.6c-2.2-6.4-4.7-4-9.3-8.4
			c-4.3-4.2-2.8-8.1,1.4-11.7c-1.9-2.2-4.1-4.9-4-8.1c0.1-5.6,3.1-3.1,4.7-5.8c3.5-5.9-1.2-11.7,7.4-14.6c2-0.7,2.9,2.1,5.2,0.8
			c2.2-1.2,2.4-4.8,3.7-6.8c1.7-2.6,4.5-4.5,7.3-5.8c5.6-2.6,15.7-5.6,21.1-1.1c4.5,3.6,4.9,10.8,10,13.8c2.4,1.4,5.4-0.1,7.4,2.4
			c3,3.6-1.1,7,0.8,10.5c1.4,2.5,5.6,1.7,7,4.7c2.5,5.4-3.9,7.4-5.2,12c-2,7.2,6.2,10.5-1.3,16.4c-2.8,2.2-4.8,1.8-7.3,4.7
			c-3,3.5-0.6,5.6-6.7,6.8C1087.3,182.4,1081.9,176.9,1071,177.7z"/>
		<g>
			<path class="st20" d="M1086.2,148.3c-5-0.3-12.2,0.7-16.4-3.4c-0.3,2.5,0.1,5,0.3,7.3c4.2,2.9,9.4,4.6,14.6,4.8
				C1085,153.8,1085.9,150.5,1086.2,148.3z"/>
			<path class="st19" d="M1069.4,172.3c6.4,3.6,14.4,0.2,19-5.3c-1.2-0.6-2.3-1.5-3-2.9c-1.1-1.9-1.1-4.5-0.8-7.2
				c-5.2-0.2-10.3-1.9-14.6-4.8c0.3,3.2,0.3,6.3-2.3,9c-1.4,1.4-3,2.4-4.8,3.1C1064.3,167.5,1066.2,170.5,1069.4,172.3z"/>
			<path class="st26" d="M1104.7,211.5c-2.1,0.9-5,1-8,0.8c-0.7,0-1.5-0.1-2.2-0.2c-2.7-0.2-5.4-0.6-7.5-0.6
				c-9.3,0-18.7,0.5-27.9,0.1c-0.5,0-1,0-1.6-0.1c-0.1,0-0.1,0-0.2,0c-3.6-0.2-12.7-0.7-14.6-4.6c-0.9-1.9,1.2-10.8,1.4-13.3
				c0.8-8.9,0.6-18.8,8.2-24.7c3.1-2.4,7.1-3.2,10.7-4.7c1.4,3.2,3.2,6.1,6.5,8c6.4,3.6,14.4,0.2,19-5.3c3.1,1.6,7.4,1.6,10.7,3.6
				C1114.4,180.3,1105.6,197.7,1104.7,211.5z"/>
		</g>
		<path class="st19" d="M1092.7,139.7c-0.2,1-0.5,2-0.9,2.8c-0.1,0.2-0.2,0.4-0.2,0.5c-3,6.7-8.4,12.9-14.2,10
			c-2.6-1.3-7.9-5.3-9.9-10.5c-4,2.7-7.2-15.8,0.7-6.6c1.4-3.2-1.9-7.1,2.3-10.5c1.2-1,4-0.2,5.6-1c2-0.9,2.4-2.4,3.8-3.5
			C1090.1,113.5,1094.8,129.8,1092.7,139.7z"/>
		<path class="st27" d="M1061,198.9c-0.2,4.1-0.4,8.9-2.1,12.8c-0.5,0-1,0-1.6-0.1c0-2,0.4-4,0.7-5.9c0.3-2.3,0.6-4.7,0.7-7.1
			c0.2-2.4,0.2-4.8,0.2-7.2c0-2.3-0.2-4.6,0.1-6.9c0-0.3,0.4-0.4,0.6-0.1C1061.3,188.9,1061.2,194.3,1061,198.9z"/>
		<path class="st27" d="M1097.3,199.4c0,2.4-0.1,4.8-0.1,7.1c-0.1,1.9,0,4-0.5,5.8c-0.7,0-1.5-0.1-2.2-0.2c-0.3-2,0-4.3,0.1-6.2
			c0.1-2.4,0.3-4.8,0.5-7.1c0.2-2.4,0.5-4.8,0.7-7.1c0.1-1.1,0.2-2.3,0.4-3.4c0.1-1,0.2-2.2,0.6-3.2c0-0.1,0.1,0,0.1,0
			c0.4,1,0.3,2.2,0.4,3.3c0.1,1.3,0.1,2.6,0.1,3.8C1097.2,194.6,1097.3,197,1097.3,199.4z"/>
		<g>
			<path class="st28" d="M1062.3,163.9c-2-0.3-4.3-0.7-6-1.7c-2.4-1.3-0.4-3.5-0.7-5.5c-0.6-4-5.8-2.9-7.8-5.4c-1.7-2,1.1-3,1.4-4.8
				c0.3-1.4-1-1.8-2.1-2c-1.8-0.3-2.5-2.1-1.7-3.7c0.9-1.7,2.8-2.2,4.3-3.2c0.4-0.3,0.3-1-0.3-1c-3.3,0.3-6.8,3.5-5.6,7
				c0.5,1.4,1.5,2,2.9,2.3c0.8,0.1,1.2,0.2,0.5,1.1c-0.3,0.4-0.6,0.7-0.9,1.1c-0.5,0.7-0.7,1.5-0.6,2.4c0.4,2,2.4,3,4.2,3.6
				c1,0.3,2.1,0.5,3,1.1c1.5,0.9,1.5,2.1,1.1,3.7c-0.4,1.8-0.1,3.3,1.7,4.2c2,1,4.3,1.2,6.5,1.1
				C1062.4,164,1062.5,163.9,1062.3,163.9z"/>
			<path class="st28" d="M1069.3,122.6c-1.9-1.6-4.7-1.4-6.6,0.1c-1.9,1.6-2.6,4.1-2.4,6.5c-1.6-0.7-3.6-0.1-4.2,1.8
				c-0.4,1.1-0.1,2.2,0.5,3.2c0.4,0.7,1,1.5,1.1,2.4c0.1,1.4-1,1.6-2,1.7c-0.9,0.1-1.9,0.1-2.7,0.8c-0.9,0.8-1.1,2.1-1.1,3.3
				c0.1,2.4,1.6,4.6,3.8,5.6c0.3,0.2,0.6-0.3,0.3-0.5c-2-1-3.3-3.1-3.2-5.4c0-1.6,0.7-2.6,2.3-2.7c0.8-0.1,1.6,0,2.3-0.4
				c1.5-0.7,1.5-2.5,0.8-3.8c-0.5-1.1-1.6-2.1-1.3-3.4c0.4-1.7,2.4-2.1,3.6-1c0.4,0.4,0.9,0,0.8-0.5c-0.4-2.2,0-4.6,1.7-6.2
				c1.5-1.4,3.9-1.7,5.6-0.4C1069.2,123.7,1069.8,123,1069.3,122.6z"/>
			<path class="st28" d="M1096.7,123.5c-0.2-0.7-0.7-1.3-1.3-1.6c-1.1-0.6-2.2-0.2-2.2-1.8c0.1-1.8,0.4-3.5-1.3-4.7
				c-1.6-1.1-3.4-0.4-5.1,0c-1.7,0.4-2.8,0.1-3.6-1.5c-0.4-0.9-0.8-1.6-1.6-2.2c-1.3-1-3.1-1.2-4.7-0.8c-2.1,0.5-3.7,2-5.1,3.6
				c-0.9,1-1.9,2.3-3.3,2.7c-1.7,0.5-3.5-0.5-4.4-1.9c-0.1-0.1-0.2,0-0.2,0.1c0.6,1.4,1.9,2.3,3.4,2.4c1.7,0.2,3.1-0.9,4.2-2.1
				c1.6-1.7,3.3-3.6,5.7-4c1.3-0.3,2.9,0,3.9,1c0.8,0.8,1,1.9,1.7,2.8c0.9,1.2,2.2,1.4,3.6,1.2c2.1-0.3,5.6-1.6,5.7,1.9
				c0,1.3-0.7,3,0.6,3.9c1,0.7,2.4,0.2,2.8,1.9c0.3,1.5-0.9,2.9-1.8,4c-0.3,0.5,0.4,1,0.8,0.6C1096,127.5,1097.4,125.5,1096.7,123.5
				z"/>
			<path class="st28" d="M1097.7,149c-0.6-1.6-2.6-3.3-1.6-5.1c0.1-0.1-0.1-0.2-0.2-0.1c-0.8,1.1-0.3,2.5,0.3,3.6
				c0.4,0.8,1,1.6,1.1,2.5c0.1,1-0.5,1.6-1.3,2.2c-1,0.8-1.5,1.7-1.7,3c-0.2,1.2,0,2.7-1,3.6c-0.4,0.3,0.1,0.9,0.5,0.7
				c1-0.7,1.2-1.8,1.3-3c0-0.7,0.1-1.3,0.2-2c0.2-0.8,0.7-1.3,1.3-1.8C1097.8,151.6,1098.2,150.4,1097.7,149z"/>
		</g>
		<path class="st22" d="M1086,173.4c-1.4,1.4-3.1,2.5-5,3.1c-2.2,0.7-4.6,0.7-6.9,0.5c-2.2-0.2-4.2-0.7-5.9-2.3
			c-1.5-1.5-2.7-3.4-4.4-4.7c-0.1-0.1-0.2,0.1-0.2,0.2c0.2,1.2,0.9,2.5,1.6,3.5c0.7,1.1,1.4,2.1,2.4,3c1.9,1.6,4.2,2.2,6.7,2.5
			c4.6,0.5,11.2,0.1,13-5.1C1087.4,173.4,1086.5,172.9,1086,173.4z"/>
		<path class="st22" d="M1058.6,169.7c-2.9,0.5-6,0.9-7.9,3.4c-2.1,2.7-2.4,6.6-3,9.8c-0.8,3.9-1.6,7.8-2.3,11.7
			c-0.3,1.9-0.5,3.8-0.8,5.7c-0.2,1.9-0.7,4.1,0,6c0.2,0.6,1.2,0.9,1.5,0.2c0.7-1.4,0.7-2.9,0.9-4.5c0.2-1.9,0.4-3.8,0.7-5.7
			c0.5-3.5,0.9-7,1.5-10.5c0.5-3.1,0.9-6.5,1.9-9.5c1.2-3.5,4.1-5.2,7.5-6.4C1058.8,169.9,1058.8,169.7,1058.6,169.7z"/>
		<path class="st22" d="M1099.1,173.6c-0.2-0.1-0.3,0.1-0.1,0.2c5.3,3.2,4.8,10.3,4.2,15.6c-0.3,3.1-0.7,6.2-1.2,9.3
			c-0.4,2.8-1.1,5.9-0.4,8.6c0.2,0.7,1.2,0.8,1.5,0.2c1.7-2.8,1.7-6.6,1.9-9.7c0.3-3.5,0.5-7,0.5-10.6
			C1105.6,181.9,1104.5,175.9,1099.1,173.6z"/>
		<g>
			<path class="st17" d="M1091.2,206.1l-15.6-0.8c-10.2-9.1-19.8-18.9-29.1-28.7c-2.2-2.3-4.3-4.6-6.5-6.8
				c-8.6-9.1-17.4-18.4-26.7-27.2l1.7-11.4c11.2,10.3,21.7,21.4,31.9,32.1c4.2,4.4,8.4,8.9,12.7,13.3
				C1066.8,184,1083.5,199.3,1091.2,206.1z"/>
		</g>
		<path class="st29" d="M1280.1,203.2c-2.4-9.7-6.8-24.2-14.9-53.7c-2.4-8.6-5.1-18.6-8.2-30c-6.4-24-28.2-40.7-53.1-40.7h-142.4
			c-24.9,0-46.7,16.7-53.1,40.7c-3.1,11.5-5.8,21.4-8.2,30.1c-8.1,29.3-12.5,43.7-14.8,53.6c-3.8,16-2.2,20.2-2.2,55.9
			c0,1.2,0.1,2.5,0.3,3.6c8.4-2.7,17.7-4.3,27.3-4.3c14.3,0,27.6,9.9,38.9,15.6c14,7.1,29.3,11.2,44.9,11.2h76.2
			c15.7,0,31-4.1,44.9-11.2c11.3-5.7,24.6-15.6,38.9-15.6c9.7,0,18.9,1.5,27.3,4.3c0.2-1.2,0.3-2.4,0.3-3.6
			C1282.2,222.3,1284,219.5,1280.1,203.2z M1257.8,204.1h-246c-6.3,0-10.8-6.2-8.9-12.2l16.7-68.9c6.2-19,23.9-31.9,43.8-31.9h138.3
			c20,0,37.7,12.9,43.8,31.9l21,68.9C1268.7,198,1264.2,204.1,1257.8,204.1z"/>
		<g>
			<g>
				
					<ellipse transform="matrix(0.8252 -0.5648 0.5648 0.8252 83.6242 742.0563)" class="st30" cx="1240.7" cy="235.9" rx="33.8" ry="18.1"/>
				<path class="st17" d="M1228.6,244.2c2.1,3.1,1.3,7.4-1.8,9.5c-3.1,2.1-7.4,1.3-9.5-1.8c-2.1-3.1-1.3-7.4,1.8-9.5
					S1226.5,241.1,1228.6,244.2z"/>
				<path class="st31" d="M1263.8,220.2c2.1,3.1,1.3,7.4-1.8,9.5c-3.1,2.1-7.4,1.3-9.5-1.8c-2.1-3.1-1.3-7.4,1.8-9.5
					C1257.4,216.2,1261.6,217,1263.8,220.2z"/>
				<path class="st17" d="M1249.1,230.2c3.2,4.7,2,11.1-2.7,14.3c-4.7,3.2-11.1,2-14.3-2.7c-3.2-4.7-2-11.1,2.7-14.3
					C1239.5,224.3,1245.9,225.5,1249.1,230.2z"/>
			</g>
			<g>
				
					<ellipse transform="matrix(0.5648 -0.8252 0.8252 0.5648 251.1992 948.1993)" class="st30" cx="1024.7" cy="235.9" rx="18.1" ry="33.8"/>
				<path class="st17" d="M1036.8,244.2c-2.1,3.1-1.3,7.4,1.8,9.5c3.1,2.1,7.4,1.3,9.5-1.8c2.1-3.1,1.3-7.4-1.8-9.5
					S1038.9,241.1,1036.8,244.2z"/>
				<path class="st31" d="M1001.6,220.2c-2.1,3.1-1.3,7.4,1.8,9.5c3.1,2.1,7.4,1.3,9.5-1.8c2.1-3.1,1.3-7.4-1.8-9.5
					C1008,216.2,1003.8,217,1001.6,220.2z"/>
				<path class="st17" d="M1016.2,230.2c-3.2,4.7-2,11.1,2.7,14.3c4.7,3.2,11.1,2,14.3-2.7c3.2-4.7,2-11.1-2.7-14.3
					C1025.9,224.3,1019.5,225.5,1016.2,230.2z"/>
			</g>
		</g>
		<g>
			<path class="st16" d="M1090.8,280.2h-1.3c-2,0-3.6-1.6-3.6-3.6v-11c0-2,1.6-3.6,3.6-3.6h1.3c2,0,3.6,1.6,3.6,3.6v11
				C1094.4,278.6,1092.8,280.2,1090.8,280.2z"/>
			<path class="st16" d="M1107.2,280.2L1107.2,280.2c-2.3,0-4.2-1.9-4.2-4.2v-16.8c0-2.3,1.9-4.2,4.2-4.2l0,0c2.3,0,4.2,1.9,4.2,4.2
				V276C1111.4,278.3,1109.5,280.2,1107.2,280.2z"/>
			<path class="st16" d="M1124.1,280.2L1124.1,280.2c-2.3,0-4.2-1.9-4.2-4.2v-16.8c0-2.3,1.9-4.2,4.2-4.2l0,0c2.3,0,4.2,1.9,4.2,4.2
				V276C1128.4,278.3,1126.5,280.2,1124.1,280.2z"/>
			<path class="st16" d="M1141.1,280.2L1141.1,280.2c-2.3,0-4.2-1.9-4.2-4.2v-16.8c0-2.3,1.9-4.2,4.2-4.2l0,0c2.3,0,4.2,1.9,4.2,4.2
				V276C1145.4,278.3,1143.5,280.2,1141.1,280.2z"/>
			<path class="st16" d="M1158.1,280.2L1158.1,280.2c-2.3,0-4.2-1.9-4.2-4.2v-16.8c0-2.3,1.9-4.2,4.2-4.2l0,0c2.3,0,4.2,1.9,4.2,4.2
				V276C1162.3,278.3,1160.4,280.2,1158.1,280.2z"/>
			<path class="st16" d="M1175.7,280.2h-1.3c-2,0-3.6-1.6-3.6-3.6v-11c0-2,1.6-3.6,3.6-3.6h1.3c2,0,3.6,1.6,3.6,3.6v11
				C1179.3,278.6,1177.7,280.2,1175.7,280.2z"/>
		</g>
		<path class="st32" d="M1167.5,252h-69.7c-8.8,0-17.2-3.8-23-10.5l-42.3-37.4h196.8l-38.9,37.4C1184.7,248.2,1176.4,252,1167.5,252
			z"/>
		<path class="st15" d="M1225.1,189.3h-63c-9.2,0-16.9,6.3-19.2,14.8h101.4C1242,195.6,1234.3,189.3,1225.1,189.3z"/>
		<g>
			<path class="st16" d="M1193.6,178.1c10.7,0,20.1,5.6,25.5,14h10.3c-6.2-13.6-19.9-23.1-35.8-23.1c-15.9,0-29.6,9.5-35.8,23.1
				h10.3C1173.5,183.7,1182.9,178.1,1193.6,178.1z"/>
		</g>
		<g>
			<path class="st19" d="M1155.4,186.6c-2.5,5.4-1.2,8.5,1.1,11.2c4.1,5,5.3,1.2,3.4-3.1c1,2.1,2.7,3.2,4.5,2.7
				c0.4-0.1,0.7-0.6,0.6-1c-0.3-1.5-0.5-3.1-1.3-4.5c1.3,1.7,2.4,1.9,4,2.1c0.4,0,0.8-0.3,0.8-0.8c0-1.4,0.1-2.4-1-3.9
				c0.9,1.1,4.8,3.4,5.5,1.1c0.4-1.1-3.6-6.8-6.5-7.8c2.6-1.3,7.2-6.2,4.4-6.3C1165.7,176.3,1156.6,185,1155.4,186.6z"/>
		</g>
		<g>
			<path class="st19" d="M1231.6,182.2c3.1,5,2.1,8.3,0.2,11.2c-3.5,5.5-5.2,1.8-3.8-2.7c-0.8,2.2-2.3,3.5-4.2,3.2
				c-0.5-0.1-0.8-0.5-0.7-1c0.2-1.6,0.1-3.2,0.8-4.6c-1.1,1.9-2.2,2.2-3.8,2.5c-0.4,0.1-0.9-0.2-0.9-0.7c-0.1-1.4-0.4-2.3,0.5-4
				c-0.7,1.2-4.4,3.9-5.3,1.8c-0.5-1.1,2.8-7.2,5.6-8.5c-2.7-1-7.9-5.3-5.1-5.7C1220.2,173.2,1230.3,180.8,1231.6,182.2z"/>
		</g>
		<g>
			<path class="st29" d="M1272,179.7v19.4l1.1-1c5.9-5,7.1-11.2,19.7-11.7c2.8-0.1,5.6-2.2,7.5-5
				C1290.1,181.2,1279.6,178.3,1272,179.7z"/>
			<path class="st32" d="M1280.6,165.2c-4.7,0.5-8.6,3.8-8.6,8.6v5.9c7.6-1.4,18.1,1.5,28.3,1.8
				C1305.1,174.5,1304,162.9,1280.6,165.2z"/>
		</g>
		<g>
			<path class="st29" d="M993.3,179.7v19.4l-1.1-1c-5.9-5-7.1-11.2-19.7-11.7c-2.8-0.1-5.6-2.2-7.5-5
				C975.2,181.2,985.8,178.3,993.3,179.7z"/>
			<path class="st32" d="M984.7,165.2c4.7,0.5,8.6,3.8,8.6,8.6v5.9c-7.6-1.4-18.1,1.5-28.3,1.8C960.3,174.5,961.4,162.9,984.7,165.2
				z"/>
		</g>
		<path class="st15" d="M1151.9,123.1h-38.4c-4.6,0-8.4-3.8-8.4-8.4l0,0c0-4.6,3.8-8.4,8.4-8.4h38.4c4.6,0,8.4,3.8,8.4,8.4l0,0
			C1160.3,119.3,1156.5,123.1,1151.9,123.1z"/>
		<path class="st22" d="M1068.9,191.7c-4.2-4-8.5-8-12.5-12.3c-4.2-4.5-8.2-9.3-12.3-14c-4.2-4.9-8.5-9.7-12.8-14.6
			c-2.1-2.4-4.3-4.8-6.5-7.2c-2.1-2.2-4.2-4.6-6.7-6.5c-0.1-0.1-0.2,0.1-0.1,0.1c1.4,2.8,3.6,5.2,5.5,7.7c2,2.6,4.1,5.1,6.2,7.5
			c4.3,5.1,8.5,10.1,12.8,15.1c4,4.6,7.9,9.2,12,13.7c2.1,2.2,4.2,4.4,6.4,6.5c2.2,2.1,4.4,3.6,7,5.2
			C1068.7,193.6,1069.7,192.4,1068.9,191.7z"/>
		<g>
			<path class="st22" d="M1006.7,223.4C1006.9,223.3,1006.8,223.3,1006.7,223.4L1006.7,223.4z"/>
			<path class="st22" d="M1009.4,221.1c-0.1-0.3-0.4-0.4-0.6-0.6c-0.3-0.3-0.6-0.5-1.1-0.5c-0.5-0.1-1,0-1.5,0.1
				c-0.6,0.1-1.1,0.5-1.5,0.9c-0.7,0.6-1.3,1.5-1.4,2.4c-0.2,1.1,0,2.4,0.8,3.2c0.4,0.4,0.8,0.6,1.3,0.8c0.1,0,0.2,0,0.2,0.1
				c0.1,0,0.2,0,0.2,0c0,0,0,0,0,0c0.1,0,0.3,0.1,0.3,0.1c0.2,0,0.3-0.1,0.4-0.2c0.2,0,0.3,0.1,0.5,0.1c0.2,0,0.2-0.2,0-0.3
				c-0.1,0-0.2-0.1-0.3-0.2c0-0.2,0-0.3-0.1-0.4c0,0,0,0-0.1-0.1c0,0,0-0.1,0-0.1c0-0.1,0-0.1-0.1-0.2c0-0.1-0.1-0.3-0.1-0.4
				c-0.1-0.3-0.1-0.6-0.2-0.8c0-0.1,0-0.1,0-0.2c0-0.1,0-0.3,0-0.4c0-0.1,0-0.1,0-0.2c0-0.1,0.1-0.3,0.1-0.4c0,0,0-0.1,0.1-0.1
				c0-0.1,0.1-0.1,0.1-0.2c0,0,0,0,0,0c0.1-0.1,0.2-0.2,0.2-0.2c0,0,0,0,0,0c0,0,0,0-0.1,0.1c0.1,0,0.1-0.1,0.2-0.1
				c0.2-0.2,0.5-0.3,0.7-0.4c0.1,0,0.1-0.1,0.2-0.1c0,0,0,0,0,0c0,0,0,0,0.1,0c0,0,0,0,0,0c0.1,0,0.1,0,0.1,0c0.1,0,0.1,0,0.2-0.1
				c0.2-0.1,0.4-0.2,0.6-0.3c0.2,0,0.3-0.1,0.4-0.2C1009.6,222,1009.6,221.5,1009.4,221.1z"/>
			<path class="st22" d="M1007.8,222.8c0.1,0,0.2,0,0.2-0.1C1007.9,222.8,1007.8,222.8,1007.8,222.8
				C1007.8,222.8,1007.8,222.8,1007.8,222.8z"/>
		</g>
		<path class="st22" d="M1260.2,221.7c-0.1-0.6-0.5-0.9-1.1-1.1c-0.3-0.2-0.6-0.3-1-0.3c-0.3,0-0.6,0-0.9,0.1
			c-0.6,0.2-1.1,0.6-1.6,1c-0.9,0.7-1.4,1.7-1.5,2.8c-0.1,0.9,0.1,1.8,0.5,2.6c0.2,0.4,0.5,0.7,0.8,1c0.1,0.1,0.3,0.3,0.4,0.4
			c0.2,0.1,0.3,0.2,0.5,0.2c0.1,0.1,0.3,0.2,0.4,0.3c0.1,0.1,0.2,0.1,0.4,0.1c0.1,0,0.2,0.1,0.2,0.1c0.1,0,0.2,0,0.3,0
			c0.2,0,0.3,0.1,0.5,0.1c0.1,0,0.2-0.2,0.1-0.3c-0.1,0-0.2-0.1-0.3-0.1c0,0-0.1-0.1-0.2-0.1c0-0.1,0-0.2-0.1-0.2
			c0-0.1-0.1-0.1-0.1-0.1c-0.1-0.2-0.2-0.4-0.4-0.5c-0.1-0.2-0.2-0.4-0.2-0.6c-0.1-0.2-0.1-0.3-0.1-0.5c0,0,0,0,0,0c0,0,0,0,0,0
			c0-0.1,0-0.1,0-0.2c0-0.2,0-0.3,0-0.5c0-0.1,0.1-0.3,0-0.1c-0.1,0.2,0-0.1,0-0.1c0-0.1,0.1-0.2,0.1-0.4c0-0.1,0.1-0.1,0.1-0.2
			c0.1-0.2,0.3-0.5,0.5-0.7c0,0,0.1-0.1,0.1-0.1c0.1-0.1,0.1-0.1,0.2-0.2c0,0,0,0,0,0c0.1-0.1,0.2-0.1,0.2-0.2
			c0.1-0.1,0.3-0.1,0.4-0.2c0.4-0.2,0.7-0.5,1-0.8C1259.9,222.6,1260.2,222.3,1260.2,221.7z"/>
		<path class="st22" d="M1026.4,241.6c-0.1,0-0.2-0.1-0.3-0.3c-0.2-0.5-0.6-1-0.9-1.4c0,0-0.2-0.2-0.2-0.2c0-0.1-0.1-0.2-0.1-0.2
			c-0.2-0.3-0.5-0.6-0.8-0.9c0,0,0,0,0,0c0,0,0,0,0,0c-0.1-0.1-0.2-0.2-0.2-0.3c-0.2-0.2-0.3-0.5-0.4-0.8c0,0,0,0,0,0c0,0,0,0,0,0
			c0-0.2-0.1-0.3-0.1-0.5c0-0.1-0.1-0.3-0.1-0.4c0-0.1,0,0,0-0.1c0,0,0,0,0,0c0-0.3,0-0.6,0-0.9c0,0,0,0,0,0c0-0.1,0-0.2,0.1-0.4
			c0-0.2,0.1-0.3,0.1-0.5c0,0,0.1-0.2,0.1-0.3c0-0.1,0.1-0.1,0.1-0.1c0.1-0.1,0.2-0.3,0.2-0.4c0.1-0.1,0.1-0.2,0.2-0.3c0,0,0,0,0,0
			c0.2-0.2,0.4-0.5,0.7-0.7c0.5-0.4,0.9-0.8,1.2-1.3c0.1-0.1,0.2-0.2,0.3-0.3c0.7-0.7,0.5-2.2-0.6-2.4c-0.3-0.1-0.6-0.1-0.8-0.1
			c0,0,0,0,0,0c0,0,0,0,0,0c-0.7-0.3-1.5,0.1-2.2,0.5c-0.9,0.5-1.6,1.3-2.2,2.1c-1,1.5-1.6,3.4-1.4,5.2c0.2,1.9,1.1,3.7,2.5,4.9
			c0.8,0.7,1.8,1.1,2.8,1.2c0.4,0,0.8,0,1.2-0.1c0.2-0.1,0.4-0.2,0.6-0.3c-0.1,0,0.4-0.2,0.5-0.2
			C1026.6,242,1026.6,241.7,1026.4,241.6z"/>
		<g>
			<path class="st22" d="M1042.5,247.7c0,0,0.1-0.1,0.1-0.1C1042.6,247.6,1042.6,247.6,1042.5,247.7c0.1-0.1,0.1-0.1,0.1-0.1
				c0.1-0.1,0.2-0.2,0.3-0.3c0.1-0.1,0.2-0.2,0.3-0.4c0.1-0.1,0.2-0.1,0.3-0.2c0.5-0.3,0.7-0.8,0.7-1.4c-0.1-0.5-0.5-1.1-1-1.2
				c-0.5-0.1-0.9,0-1.4,0c-0.5,0-1,0.2-1.4,0.5c-0.5,0.3-0.9,0.7-1.2,1.2c-0.5,0.7-0.8,1.6-0.9,2.5c-0.2,1.7,0.8,3.4,2.3,4.3
				c0.3,0.2,0.7,0.2,1.1,0.2c0.3,0.1,0.6,0,0.9-0.2c0.2,0,0.3-0.1,0.5-0.3c0.2,0,0.3-0.1,0.5-0.1c0.2-0.1,0.2-0.4,0-0.5
				c-0.1,0-0.2-0.1-0.3-0.1c0-0.1-0.1-0.2-0.1-0.3c0-0.2-0.1-0.4-0.2-0.5c0,0,0,0,0,0c-0.1-0.2-0.1-0.4-0.2-0.5
				c-0.1-0.1-0.1-0.1-0.2-0.2c-0.1-0.2-0.3-0.4-0.4-0.7c0,0,0,0,0,0c0-0.1-0.1-0.2-0.1-0.3c0,0,0-0.1,0-0.1c0-0.1,0-0.1,0-0.2
				c0-0.2,0.1-0.4,0.1-0.6c0,0,0,0,0,0c0.1-0.1,0.1-0.2,0.2-0.3c0,0,0,0,0.1-0.1C1042.5,247.8,1042.5,247.7,1042.5,247.7
				C1042.5,247.7,1042.5,247.7,1042.5,247.7z"/>
			<path class="st22" d="M1042.5,247.7C1042.5,247.7,1042.5,247.7,1042.5,247.7c-0.1,0.1-0.1,0.1-0.1,0.1
				C1042.4,247.9,1042.4,247.9,1042.5,247.7z"/>
		</g>
		<path class="st22" d="M1244.6,229.4c-0.3-0.3-0.7-0.5-1.1-0.7c-0.1,0-0.1-0.1-0.2-0.1c0,0,0.1,0.1,0.1,0.1l-0.4-0.3
			c-0.3-0.2-0.7-0.3-1.1-0.4c-1-0.1-2.1-0.1-3.1,0.1c-1.8,0.5-3.5,1.6-4.6,3c-1.3,1.6-2.1,3.5-2.1,5.6c0,2,0.9,3.8,2.2,5.2
			c0.7,0.7,1.4,1.1,2.3,1.5c0.8,0.4,1.7,0.7,2.7,0.6c0.3,0,0.6-0.4,0.3-0.7c-0.6-0.5-1.2-1-1.6-1.7c-0.4-0.7-0.6-1.2-0.8-1.9
			c-0.1-0.2-0.1-0.4-0.2-0.7c0-0.1,0-0.2-0.1-0.3c0-0.4,0-0.8-0.1-1.2c0-0.4,0-0.8,0-1.2c0-0.1,0-0.2,0-0.2c0-0.2,0.1-0.4,0.2-0.6
			c0-0.1,0-0.1,0-0.1c0,0,0,0,0,0c0.1-0.2,0.2-0.4,0.3-0.6c0-0.1,0.1-0.2,0.2-0.2c0,0,0.3-0.3,0.3-0.4c0.2-0.2,0.3-0.3,0.5-0.5
			c0,0,0,0,0,0c0,0,0,0,0,0c0.4-0.2,0.7-0.4,1.1-0.7c0.1,0,0.1,0,0.1-0.1c0,0,0,0,0,0c0.2-0.1,0.4-0.2,0.7-0.2
			c0.4-0.1,0.8-0.3,1.2-0.3c0.1,0,0.2,0,0.3,0c0.1,0,0.2,0,0.4-0.1c0.2-0.1,0.4-0.2,0.6-0.3c0,0,0.5,0,0.2,0c0.3,0,0.6,0,0.9-0.1
			C1245.1,231.7,1245.4,230.1,1244.6,229.4z"/>
		<g>
			<path class="st22" d="M1221,250.8C1221,250.8,1221,250.8,1221,250.8C1221,250.8,1221,250.8,1221,250.8
				C1221,250.8,1221,250.8,1221,250.8C1221,250.8,1221,250.8,1221,250.8z"/>
			<path class="st22" d="M1226.3,246.1c-0.1-0.2-0.3-0.4-0.5-0.6c-0.1-0.1-0.2-0.1-0.3-0.2c0,0,0,0-0.1,0c-0.4-0.5-1.1-0.6-1.7-0.7
				c-0.1,0-0.2-0.1-0.3-0.1c-0.3-0.1-0.6-0.1-0.9,0c-0.5,0.1-1,0.1-1.4,0.3c-0.9,0.3-1.7,0.8-2.3,1.4c-0.7,0.7-1.1,1.6-1.1,2.6
				c0,0.4,0,0.8,0.1,1.2c0.1,0.4,0.2,0.7,0.4,1c0.2,0.3,0.4,0.7,0.7,0.9c0,0,0,0,0.1,0.1c0,0,0.1,0.1,0.1,0.1
				c0.1,0.1,0.1,0.1,0.2,0.2c0.2,0.1,0.3,0.2,0.5,0.3c0.1,0,0.1,0,0.2,0c0.1,0,0.2,0.1,0.4,0.1c0,0,0.1,0,0.1,0c0,0,0,0,0,0
				c0.1,0,0.1,0,0.2,0c0.3,0,0.5,0,0.7-0.2c0.2,0,0.3-0.1,0.5-0.2c0.1-0.1,0.2-0.3,0-0.3c-0.1,0-0.1,0-0.2-0.1c0,0-0.1-0.1-0.1-0.1
				c0-0.2-0.1-0.3-0.3-0.5c0,0,0-0.1,0-0.1c0,0,0,0,0,0c0,0,0,0,0,0c0,0,0,0,0,0c-0.1-0.1-0.1-0.2,0-0.1c0-0.1,0-0.1-0.1-0.2
				c0,0.2,0,0.2,0,0c0,0,0-0.1,0-0.1c0,0,0,0,0,0c0,0,0-0.1,0-0.1c0-0.1,0-0.2-0.1-0.2c0,0,0,0,0,0c0,0,0-0.1,0-0.1
				c0-0.2,0-0.3,0-0.5l-0.1,0.4c0-0.1,0-0.3,0.1-0.4c0-0.1,0.1-0.2,0.1-0.3c0.1-0.2,0.2-0.3,0.3-0.5c0.1-0.1,0.2-0.2,0.3-0.3
				c0.2-0.1,0.4-0.2,0.6-0.3c0.4-0.1,0.8-0.2,1.2-0.3c-0.2,0-0.3,0-0.5,0.1c0.4,0,0.7-0.1,1-0.3c0,0,0,0,0.1,0c0.1,0,0.2,0,0.4,0
				c0.3,0,0.6-0.1,0.9-0.3c0.1,0,0.2,0,0.3,0c0.2-0.1,0.4-0.2,0.6-0.3C1226.4,247,1226.5,246.4,1226.3,246.1z"/>
			<path class="st22" d="M1221.1,251.2c0-0.1,0-0.1,0-0.1C1221.1,251.1,1221.1,251.1,1221.1,251.2
				C1221.1,251.2,1221.1,251.2,1221.1,251.2z"/>
			<path class="st22" d="M1221.1,250.8c0,0,0-0.1,0-0.1C1221,250.8,1221,250.8,1221.1,250.8C1221.1,250.9,1221.1,250.9,1221.1,250.8
				z"/>
		</g>
		<g>
			<path class="st22" d="M1015.2,298.6C1015.2,298.6,1015.2,298.6,1015.2,298.6c0.2-0.2,0.1-0.2,0.1-0.1
				C1015.3,298.5,1015.3,298.5,1015.2,298.6C1015.3,298.5,1015.2,298.6,1015.2,298.6z"/>
			<path class="st22" d="M1020.7,303.4c-0.2,0.1-0.5,0.1-0.8,0.1c-0.1-0.1-0.2-0.1-0.4-0.1c-0.1-0.1-0.3-0.1-0.4-0.2
				c-0.2-0.1-0.4-0.2-0.7-0.3c0,0-0.1,0-0.1,0c0,0-0.1,0-0.1-0.1c-0.1-0.1-0.3-0.1-0.4-0.2c-0.1-0.1-0.2-0.1-0.3-0.2c0,0,0,0,0,0
				c0,0-0.1-0.1-0.1-0.1c-0.2-0.1-0.4-0.3-0.5-0.4c0,0,0,0,0,0c0,0,0,0,0,0c-0.2-0.2-0.4-0.4-0.6-0.6c-0.1-0.1-0.2-0.2-0.3-0.3
				c0,0,0,0-0.1-0.1c0-0.1-0.1-0.2-0.2-0.2c-0.1-0.1-0.2-0.3-0.2-0.4c-0.1-0.1-0.1-0.2-0.2-0.3c0,0,0,0,0-0.1
				c-0.1-0.2-0.1-0.4-0.2-0.6c0-0.1,0-0.3,0-0.4c0,0,0-0.1,0-0.1c0-0.1,0-0.1,0.1-0.2c0,0,0,0,0,0.1c0,0,0.1-0.1,0.1-0.2
				c0,0,0-0.1,0-0.1c0,0,0-0.1,0.1-0.1c0-0.1,0.1-0.2,0.2-0.3c0.1-0.1,0.2-0.2,0.3-0.3c0,0,0,0,0,0c0.2-0.1,0.4-0.3,0.6-0.5
				c0.1,0,0.1-0.1,0.2-0.1c0.1-0.1,0.2-0.2,0.3-0.3c0.1,0,0.2,0,0.2-0.1c0.1,0,0.2-0.1,0.3-0.1c0.1,0,0.1-0.1,0.2-0.1c0,0,0,0,0,0
				c0,0,0,0,0,0c0,0,0,0,0,0c0,0,0,0,0,0c0.6-0.2,1.1-1,0.6-1.6c-0.4-0.7-1-1-1.7-1.1c-0.1-0.1-0.3-0.2-0.4-0.2
				c-0.4-0.1-0.7-0.1-1.1,0c-0.1,0-0.2,0-0.3,0.1c-0.2,0.1-0.6,0.1,0,0c-0.8,0.1-1.2,0.4-1.8,0.8c-0.2,0.2-0.4,0.3-0.5,0.5
				c-0.9,1.1-1.5,2.4-1.5,3.8c0,1.3,0.5,2.7,1.3,3.8c0.8,1.1,1.9,1.8,3.1,2.3c0.6,0.2,1.3,0.3,1.9,0.3c0.6,0,1.4,0,2-0.4
				c0.2-0.1,0.3-0.2,0.4-0.3c0.2-0.1,0.3-0.2,0.4-0.4c0.1-0.1,0.3-0.1,0.4-0.2c0.1-0.1,0.2-0.3,0.3-0.4
				C1020.9,303.5,1020.8,303.3,1020.7,303.4z"/>
		</g>
		<path class="st22" d="M1247.7,303.6c-0.4-0.6-0.5-1.1-0.8-1.7c0,0-0.1-0.2-0.1-0.3c0-0.1-0.1-0.3-0.1-0.4c0-0.1-0.1-0.3-0.1-0.4
			c0-0.1,0-0.6,0-0.2c0-0.3,0-0.6,0-0.9c0-0.1,0-0.2,0-0.3c0-0.1,0.1-0.3,0.1-0.3c0.1-0.2,0.1-0.5,0.2-0.7c0-0.1,0.1-0.2,0.1-0.2
			c0.1-0.2,0.2-0.3,0.2-0.5c0.1-0.2,0.3-0.5,0.5-0.7c0,0,0.1-0.1,0.1-0.1c0.1-0.1,0.2-0.2,0.3-0.3c0.4-0.5,0.9-0.8,1.2-1.3
			c0,0,0.1-0.1,0.1-0.1c0,0,0,0,0,0c0,0,0,0,0.1,0c0.3-0.2,0.5-0.5,0.7-0.7c0.7-0.4,1.4-0.9,1.2-1.6c-0.2-0.9-1.3-1-2.1-1.1
			c-0.7-0.2-1.4-0.1-2,0.1c-0.4,0-0.9,0.2-1.3,0.4c-0.5,0.3-0.9,0.6-1.3,1c-0.6,0.6-1.2,1.4-1.6,2.2c-0.9,1.9-1,4-0.2,6
			c0.4,0.8,0.8,1.7,1.5,2.3c0.6,0.6,1.4,1,2.2,1.3c1.4,0.6,3,0.7,4.5,0.5c0.1,0,0.1-0.2,0-0.2
			C1249.6,305.5,1248.5,304.7,1247.7,303.6z"/>
		<path class="st21" d="M1132.8,99.7c-0.1-0.7-0.2-1.4-0.2-2.2c0-1.5,0.2-3,0.6-4.4c0.1-0.3-0.4-0.4-0.5-0.1c-0.5,1.5-0.7,3-0.7,4.6
			c0,0.8,0,1.5,0.1,2.3c0.1,0.7,0.2,1.5,0.5,2.2c0.1,0.3,0.6,0.1,0.6-0.1C1133.1,101.1,1132.9,100.4,1132.8,99.7z"/>
		<path class="st21" d="M1155.7,111.5c-2.6-1.4-4.8-1.8-7.7-2.1c-2.7-0.3-5.5-0.4-8.2-0.5c-5.6-0.1-11.3-0.1-16.9,0.1
			c-4,0.1-9.7-0.4-12.9,2.6c-2.2,2.1-2.3,5.4,0.4,7c0.2,0.1,0.4-0.1,0.2-0.3c-1.4-1.2-0.7-3.7,0.4-4.8c1.3-1.3,3.6-1.4,5.4-1.4
			c4.3-0.1,8.6,0,12.8,0c4.3,0.1,8.5,0.2,12.7,0.7c4.3,0.5,8.6,1.6,12.9,1.3C1156.3,114.1,1157.1,112.2,1155.7,111.5z"/>
		<path class="st21" d="M1213.1,177.7c-4.2-1.9-8.8-3.3-13.2-4.2c-4.3-0.9-8.7-1.1-13-0.1c-1.9,0.5-3.7,1.2-5.4,2.2
			c-1,0.6-3,1.7-2.9,3.1c0,0,0,0,0,0c1.1,0.3,2.3-0.9,3.4-1.4c1.7-0.8,3.6-1.3,5.5-1.5c3.9-0.5,7.9,0.3,11.7,1.3
			c3.7,1,7.4,2.3,10.9,3.7c1.5,0.6,3.1,1.3,4.4,2.3c1.3,1,2.3,2.3,3.8,3c0.9,0.5,1.8-0.1,1.9-1.1
			C1220.6,181.5,1216.1,179,1213.1,177.7z"/>
		<path class="st21" d="M1176.1,136.4c-0.2-0.2-0.4-0.5-0.6-0.7c-0.2-0.2-0.4-0.4-0.6-0.7c-0.4-0.5-0.7-1-1-1.5c-0.6-1-1-2.2-1-3.3
			c-0.1-1.2,0.2-2.3,0.6-3.5c0.1-0.3,0.2-0.5,0.3-0.7c0.1-0.3,0.2-0.5,0.2-0.7c0,0,0.1-0.1,0.1-0.1c0.4-0.6,0.5-1.3,0.9-1.8
			c0.5-0.7-0.4-1.3-1-1c-0.8,0.3-1.5,0.6-2.1,1.2c-0.6,0.6-1.1,1.2-1.4,2c-0.7,1.6-0.9,3.4-0.6,5.2c0.3,1.6,1,3,2.1,4.2
			c0.5,0.6,1.1,1,1.7,1.4c0.3,0.2,0.7,0.4,1.1,0.5c0.4,0.2,0.8,0.1,1.2,0.2C1176.1,137,1176.4,136.6,1176.1,136.4z"/>
		<g>
			<path class="st21" d="M1217.3,128.3c-0.1-0.2-0.1-0.4-0.2-0.5c0,0,0-0.1,0-0.1c-0.2-0.5-0.4-0.9-0.7-1.3
				c-0.2-0.3-0.5-0.5-0.8-0.6c-0.2-0.2-0.4-0.3-0.7-0.4c-0.4-0.1-0.9,0.1-0.9,0.5c0,0.2-0.1,0.4,0,0.6c-0.2,0.4-0.1,0.8-0.1,1.2
				c0,0,0,0.3,0,0.5c0,0,0,0,0,0.1c0,0,0,0,0,0c0,0,0,0,0,0c0,0,0,0,0,0c0,0.2-0.1,0.4-0.1,0.6c0,0.8,0.1,1.6,0,2.4
				c0,0.1,0,0.2,0,0.2c0,0,0,0,0-0.1c0,0,0,0.1,0,0.1c0,0.2-0.1,0.4-0.1,0.6c-0.1,0.3-0.1,0.6-0.1,0.8c0-0.1,0-0.1,0,0
				c0,0.1-0.1,0.2-0.1,0.3c-0.1,0.3-0.2,0.6-0.4,1c-0.1,0.1-0.1,0.3-0.1,0.4c0,0-0.1,0.2-0.1,0.2c-0.1,0.2,0,0.3-0.1,0.5
				c-0.1,0.1,0.1,0.3,0.2,0.3c0.2-0.1,0.4,0,0.6-0.1c0.2-0.1,0.5-0.2,0.7-0.3c0.4-0.2,0.7-0.5,1.1-0.8c0.3-0.3,0.7-0.6,1-1
				c0.2-0.3,0.4-0.7,0.6-1.1c0.4-0.9,0.7-2,0.6-3C1217.4,129,1217.4,128.5,1217.3,128.3z"/>
			<path class="st21" d="M1213.7,131.5C1213.7,131.4,1213.7,131.3,1213.7,131.5L1213.7,131.5z"/>
		</g>
		<path class="st21" d="M1227.7,143.7c-0.3-1-0.8-2-1.3-2.9c-0.5-0.9-1.1-1.7-1.7-2.5c-0.3-0.4-0.6-0.7-1-1.1
			c-0.2-0.2-0.4-0.3-0.6-0.5c-0.3-0.2-0.7-0.3-0.9-0.5c-0.1-0.1-0.3,0-0.2,0.2c0.2,0.3,0.2,0.5,0.3,0.8c0.1,0.2,0.2,0.4,0.3,0.6
			c0.2,0.4,0.5,0.8,0.8,1.3c0.5,0.9,1,1.8,1.4,2.7c0.4,0.9,0.7,1.8,1.1,2.7c0.4,0.9,0.6,1.9,1.2,2.7c0.3,0.4,0.9,0.1,1-0.3
			C1228.3,145.8,1227.9,144.6,1227.7,143.7z"/>
		<path class="st21" d="M1164.8,138.1c-0.3,0-0.6,0.2-0.9,0.3c-0.3,0.2-0.5,0.3-0.8,0.6c-0.4,0.5-0.8,1-1,1.5
			c-0.3,0.5-0.4,1.1-0.5,1.7c-0.1,0.5-0.2,1.3,0.2,1.7c0,0.1,0,0.3,0,0.4c0,0.1,0.2,0.1,0.2,0c0-0.1,0-0.2,0-0.4
			c0.4-0.2,0.5-0.8,0.7-1.2c0.2-0.5,0.5-0.9,0.8-1.3c0.1-0.1,0.1-0.2,0.2-0.3c0,0,0,0,0-0.1c0,0,0,0,0,0c0.1-0.1,0.1-0.1,0.2-0.2
			c0.1-0.1,0.1-0.2,0.2-0.2c0,0,0,0,0,0c0.1-0.1,0.2-0.2,0.2-0.3c0.1-0.1,0.2-0.3,0.3-0.4c0.1-0.1,0.1-0.2,0.2-0.3
			c0.2-0.2,0.3-0.4,0.4-0.7C1165.5,138.5,1165.1,138.1,1164.8,138.1z"/>
		<path class="st21" d="M1042.4,142c-0.1-0.3-0.4-0.4-0.7-0.4c-0.4,0.1-0.6,0.4-0.8,0.7c-0.2,0.3-0.4,0.6-0.6,0.9
			c-0.3,0.6-0.6,1.3-0.9,2c-0.3,0.6-0.4,1.3-0.6,1.9c-0.2,0.7-0.3,1.4-0.3,2.1c0,0.3,0.5,0.5,0.7,0.2c0.3-0.6,0.4-1.3,0.7-1.9
			c0.2-0.6,0.5-1.2,0.8-1.8c0.3-0.6,0.6-1.2,0.9-1.8c0.2-0.3,0.3-0.6,0.5-0.9C1042.3,142.7,1042.5,142.4,1042.4,142z"/>
		<path class="st21" d="M1037.4,173.1c-0.2-0.5-0.9-0.5-1.2-0.2c-0.9,1-1,2.8-1.1,4c-0.2,1.4-0.4,2.8-0.6,4.3
			c-0.2,1.4-0.4,2.8-0.6,4.3c-0.2,1.3-0.4,2.8-0.2,4.1c0.1,0.4,0.6,0.4,0.7,0.1c0.7-1.2,0.9-2.7,1.2-4c0.3-1.4,0.6-2.8,0.9-4.2
			c0.3-1.4,0.5-2.8,0.8-4.2C1037.5,176,1038,174.3,1037.4,173.1z"/>
		<path class="st21" d="M1143,153.7c-2.3-0.4-4.6,0.1-6.9-0.1c-2.6-0.3-5.2-0.9-7.8-1.3c-2.8-0.3-5.5-0.4-8.3-0.2
			c-2.6,0.2-5.7,0.3-8.2,1.3c-0.4,0.1-0.4,0.7,0,0.8c2.7,0.8,5.7,0.5,8.5,0.7c3,0.2,6.1,0.4,9.1,0.9c4,0.7,11.3,3.4,14.2-0.8
			C1143.9,154.6,1143.6,153.8,1143,153.7z"/>
		<path class="st21" d="M1252.4,152.5c-0.3-0.4-0.6-0.6-0.9-0.8c-1-0.8-2.7-0.9-3.8-0.9c-1.2,0-2.5,0-3.8,0.1
			c-1.3,0.1-2.7,0.3-4,0.6c-0.6,0.2-1.4,0.3-1.9,0.7c-0.3,0.2-0.5,0.4-0.7,0.7c-0.2,0.3-0.1,0.6-0.3,0.9c-0.1,0.1,0,0.2,0.1,0.2
			c0.2,0.1,0.3,0.5,0.6,0.7c0.2,0.2,0.5,0.3,0.7,0.4c0.6,0.2,1.4,0.1,2.1,0.1c1.2,0,2.4,0,3.6-0.1c1.2,0,2.4-0.1,3.6,0
			c0.7,0,1.3,0,1.9,0c0.3,0,0.8,0,1.1-0.1c0.3-0.1,0.5-0.2,0.6-0.3c0.3-0.1,0.6-0.3,0.9-0.5C1252.6,153.7,1252.7,153,1252.4,152.5z"
			/>
		<path class="st21" d="M1123.9,158c0-0.2-0.3-0.1-0.3,0c-0.6,5.1-0.8,10.3-0.9,15.5c-0.1,2.6-0.1,5.2-0.3,7.7
			c-0.1,2.4-0.5,4.9,0.2,7.3c0.2,0.5,0.9,0.7,1.2,0.2c1.1-2.3,0.9-4.9,1-7.5c0.1-2.6,0.2-5.2,0.2-7.7
			C1125.1,168.4,1124.9,163.1,1123.9,158z"/>
		<path class="st21" d="M1139.8,164.8c-0.1-1.5,0.1-3.2-0.3-4.6c-0.1-0.4-0.6-0.4-0.8,0c-0.5,1.3-0.5,3-0.6,4.4
			c-0.2,1.6-0.2,3.2-0.3,4.8c-0.1,1.5-0.1,3.1-0.2,4.6c0,1.5-0.1,3.2,0.2,4.6c0.1,0.7,1.1,0.6,1.3,0c0.4-1.4,0.4-3,0.5-4.5
			c0.1-1.6,0.1-3.2,0.2-4.8C1139.8,167.8,1139.9,166.3,1139.8,164.8z"/>
		<path class="st21" d="M1020.3,153.5c-0.2-0.2-0.4-0.5-0.7-0.6c-0.3-0.2-0.7-0.2-1-0.3c-0.6-0.1-1.3-0.2-1.9-0.2
			c-0.6,0-1.1-0.1-1.7-0.1c-0.6,0-1.2,0.1-1.8,0.1c-0.6,0-0.7,0.9-0.1,1.1c0.6,0.2,1.1,0.5,1.7,0.7c0.5,0.2,1.1,0.3,1.6,0.5
			c0.6,0.1,1.2,0.3,1.9,0.4c0.3,0,0.7,0.1,1.1,0c0.3-0.1,0.6-0.2,0.8-0.4C1020.6,154.4,1020.7,153.8,1020.3,153.5z"/>
		<path class="st21" d="M1018.4,159.1c0-0.2-0.3-0.2-0.4-0.1c-1.4,2.1-1.8,4.6-2.3,7c-0.5,2.6-1,5.3-1.4,8c-0.3,2.6-0.5,5.2-0.6,7.8
			c-0.1,2.1-0.8,5.7,0.9,7.3c0.4,0.4,1.1,0.4,1.5,0c0.8-0.9,0.9-1.9,0.9-3c0-1.3,0-2.6,0-4c0-2.6,0.2-5.3,0.4-7.9
			c0.2-2.6,0.3-5.2,0.6-7.9C1018.2,164,1018.8,161.5,1018.4,159.1z"/>
		<path class="st21" d="M1252.5,164c0-0.3-0.2-0.6-0.3-0.8c-0.2-0.5-0.4-1-0.6-1.5c-0.2-0.4-0.4-0.9-0.6-1.3
			c-0.1-0.2-0.2-0.5-0.4-0.7c-0.1-0.1-0.1-0.2-0.2-0.3c-0.1-0.1-0.2-0.2-0.4-0.2c0,0,0-0.1-0.1-0.1c-0.1-0.1-0.4-0.1-0.3,0.1
			c0,0.2-0.1,0.3-0.1,0.5c0,0.1,0,0.2,0,0.3c0,0.3,0.1,0.5,0.1,0.8c0.1,0.5,0.3,1,0.4,1.5c0.1,0.5,0.3,1,0.5,1.5
			c0.1,0.3,0.2,0.6,0.4,0.9c0.1,0.2,0.3,0.4,0.4,0.6c0.3,0.4,1,0.1,1-0.4C1252.5,164.5,1252.5,164.3,1252.5,164z"/>
		<path class="st21" d="M1172.3,167c-0.3-0.1-0.5-0.3-0.8-0.4c-0.3-0.1-0.7-0.2-1-0.2c-0.3,0-0.5,0-0.8-0.1c-0.3,0-0.6-0.1-0.8,0
			c-0.1,0-0.2,0-0.2,0c-0.2,0-0.3,0.1-0.4,0.3c0,0.2,0,0.4,0.2,0.4c0.1,0,0.2,0.1,0.3,0.1c0.2,0.2,0.5,0.2,0.7,0.3
			c0.3,0.1,0.5,0.2,0.8,0.2c0.1,0,0.3,0.1,0.4,0.1c0.2,0,0.3,0.1,0.5,0.1c0.3,0,0.5,0,0.8-0.1c0.2,0,0.4-0.1,0.5-0.4
			C1172.6,167.4,1172.5,167.1,1172.3,167z"/>
		<path class="st22" d="M1043.3,233.6c-2.5-5.5-7.5-9.9-12.2-13.4c-4.7-3.5-10-5.9-15.8-6.7c-5.1-0.7-11.6-0.4-15.9,2.8
			c-3.5,2.6-3.7,7.8-0.3,10.6c0.1,0.1,0.2,0,0.1-0.1c-1.6-2-1.8-5-0.5-7.3c1.3-2.1,4-2.9,6.3-3.4c4.9-1.1,9.7-0.2,14.3,1.5
			c4.5,1.7,8.5,4.4,12.1,7.6c3.6,3.1,6.7,7,10.7,9.6C1042.9,235.4,1043.6,234.3,1043.3,233.6z"/>
		<path class="st22" d="M1254.5,213.5c-2.5-1.6-6.1-0.7-8.7,0.2c-3,1-5.7,2.6-8.4,4.2c-4.9,3-9.6,6.3-13.8,10.2
			c-3.9,3.7-7.5,8.2-9.6,13.2c-1.6,3.8-2.6,9.4,1.2,12.3c0.4,0.3,0.8-0.2,0.6-0.6c-4.9-8.7,5.3-18.5,11.4-23.5c3.7-3.1,7.8-5.6,12-8
			c2.3-1.3,4.6-2.6,7.1-3.5c1.3-0.5,2.6-0.9,3.9-1.1c1.3-0.2,2.7-0.2,3.9-0.7C1255.4,215.9,1255.7,214.3,1254.5,213.5z"/>
		<path class="st28" d="M989.1,171.5c0-1.3-0.9-2.5-2.1-3.1c-1.3-0.7-2.8-0.9-4.3-1c-3.6-0.3-7.4-0.2-10.9,0.5c-2.9,0.6-6,2-7,5
			c-0.5,1.3-0.4,2.5,0.1,3.8c0.1,0.3,0.2,0.5,0.4,0.7c0.1,0.1,0.3,0.2,0.5,0.3c-0.2-0.1-0.1-0.1,0.1,0.1c0.4,0.3,0.8,0.7,1.3,0.9
			c0.1,0.1,0.3-0.1,0.2-0.2c-0.3-0.4-0.5-0.8-0.4-1.3c0.3-0.5,0.3-1.2,0.6-1.7c0.3-0.7,0.7-1.4,1.3-1.9c1.5-1.2,3.6-1.4,5.4-1.6
			c2.7-0.2,5.5-0.1,8.2,0.2c0.5,0.1,1.6,0.3,2.4,0.6c0.2,0.1,0.8,0.3,1.3,0.4c0.2,0.1,0.4,0.1,0.6,0.1c0,0,0,0,0.1,0.1
			c1.1,1.1,2.6-0.1,2.4-1.4C989.2,171.9,989.2,171.7,989.1,171.5z"/>
		<path class="st28" d="M1298.7,171.9c-1.2-2.3-4.5-2.9-7-3.2c-2.8-0.4-5.7-0.7-8.6-0.4c-2.6,0.3-5.1,1-7.2,2.6
			c-1,0.8-1.8,1.7-2.2,2.8c-0.2,0.5-0.3,1.1-0.3,1.7c0,0.7,0.3,1,0.5,1.6c0.1,0.3,0.6,0.4,0.8,0.1c0.2-0.3,0.7-0.6,0.9-0.9
			c0.3-0.4,0.7-0.7,1-1.1c0.6-0.6,1.3-1.2,2-1.7c1.9-1.1,4.1-1.2,6.3-1.1c2.3,0,4.6,0.3,6.9,0.8c1.2,0.2,2.3,0.5,3.5,0.6
			c0.6,0.1,1.4-0.1,1.7-0.1c0.2,0,0.8-0.1,1.3-0.3C1298.8,173,1298.9,172.3,1298.7,171.9z"/>
		<path class="st28" d="M998.9,190.8c-5.2,0.2-8.7,5.1-10.4,9.4c-2.3,6-2.2,12.8-2.7,19.2c-0.5,7.1-1,14.1-1.4,21.2
			c-0.4,6-0.9,13,1.9,18.5c0.1,0.1,0.3,0.1,0.3-0.1c-0.2-2.9-0.4-5.8-0.2-8.7c0.2-3,0.6-6,0.9-8.9c0.7-6.4,1.3-12.8,1.9-19.2
			c0.6-5.9,0.7-12.1,2.2-17.9c1.3-5.1,4.2-8.4,8.3-11.6C1000.5,192.1,999.8,190.8,998.9,190.8z"/>
		<path class="st28" d="M1280.1,218.7c-0.6-5.8-1.6-11.7-4.5-16.8c-1.3-2.3-3.1-4.4-5.2-6c-1.9-1.4-4.8-2.8-7.2-2.1
			c-1.2,0.4-1.8,2-0.8,3c1.6,1.5,3.9,2.3,5.6,3.7c1.9,1.6,3.3,3.5,4.4,5.7c2.5,4.8,3.4,10.6,3.9,16c0.6,5.8,0.6,11.5,0.3,17.3
			c-0.3,5.7-1.1,11.6-0.4,17.3c0,0.2,0.3,0.3,0.4,0.1c2.3-5.9,2.9-12.6,3.4-18.9C1280.5,231.5,1280.8,225.1,1280.1,218.7z"/>
		<path class="st28" d="M1095.2,244.9c-1.2-0.4-2.5-0.7-3.6-1.2c-1.1-0.5-2.2-1-3.3-1.5c-2.3-1-4.4-2.1-6.3-3.5
			c-4.1-2.9-7.5-6.4-11.1-9.8c-8.4-8.1-17.2-15.6-27.7-21.9c-0.3-0.2-0.7,0.2-0.5,0.4c8.2,8.9,17.3,17.1,26.1,25.6
			c3.5,3.4,7.1,6.9,11.4,9.7c4.3,2.7,9.4,4.8,15,3.9C1096.3,246.4,1096.1,245.2,1095.2,244.9z"/>
		<path class="st28" d="M1214.7,206.3c-5,3.1-8.7,7.5-12.5,11.6c-3.9,4.3-7.8,8.6-11.7,12.9c-3.5,3.9-6.8,8.1-10.9,11.6
			c-1.9,1.6-4,3.1-6.4,3.9c-2.4,0.8-5.8,1.3-8.2,0.4c-0.2-0.1-0.3,0.2-0.1,0.2c2.4,1.1,4.3,1.8,7,1.6c2.4-0.2,4.9-0.9,7-1.9
			c5.1-2.5,8.8-7.1,12.6-11c4.3-4.5,8.6-9,12.9-13.6c4.2-4.5,9-9.1,11.7-14.5C1216.4,206.8,1215.6,205.7,1214.7,206.3z"/>
		<g>
			<path class="st28" d="M1163.6,85.7C1163.6,85.7,1163.6,85.7,1163.6,85.7c-0.1-0.1-0.1-0.2-0.1-0.2c0,0,0,0-0.1-0.1
				c0,0-0.1-0.1-0.1-0.1c0,0,0,0,0-0.1c0,0,0,0,0,0c0,0,0,0,0-0.1c0,0,0,0,0,0c0-0.1-0.1-0.1-0.1-0.2c0,0,0-0.1-0.1-0.1c0,0,0,0,0,0
				c0,0,0,0,0,0c0-0.1-0.1-0.2-0.1-0.4c0-0.1-0.1-0.1-0.1-0.2c0-0.1-0.1-0.1-0.1-0.2c-0.1-0.2-0.2-0.3-0.4-0.4
				c-0.3-0.2-0.7-0.1-0.9,0.2c-0.1,0.1-0.1,0.3-0.1,0.4c0,0.1,0,0.2,0,0.3c0,0.1,0.1,0.3,0.1,0.4c0,0.1,0.1,0.1,0.1,0.2
				c0.1,0.1,0.1,0.2,0.2,0.2c0,0,0.1,0.1,0.2,0.1c0,0,0,0-0.1,0c0,0,0,0,0.1,0c0.1,0,0.2,0.1,0.2,0.1c-0.1,0-0.1,0-0.2-0.1
				c0.2,0.1,0.4,0.3,0.6,0.3c0.1,0,0.2,0.1,0.3,0.1c0.1,0,0.1,0,0.2,0c0.1,0,0.1,0,0.2,0c0.1,0,0.1,0,0.2-0.1c0,0,0,0,0.1,0
				C1163.7,86.1,1163.8,85.8,1163.6,85.7z"/>
			<path class="st28" d="M1162,85.6C1162,85.6,1162,85.6,1162,85.6L1162,85.6C1161.9,85.6,1161.9,85.6,1162,85.6z"/>
			<path class="st28" d="M1161.9,85.5C1161.9,85.5,1161.9,85.5,1161.9,85.5C1162,85.6,1162,85.6,1161.9,85.5
				C1161.9,85.5,1161.9,85.5,1161.9,85.5L1161.9,85.5z"/>
		</g>
		<path class="st28" d="M1177.5,85.1c0-0.2-0.1-0.3-0.2-0.4c0,0,0,0,0,0c0,0,0-0.1,0-0.1c0-0.1-0.1-0.2-0.2-0.2
			c-0.1,0-0.2-0.1-0.3-0.1c-0.1,0-0.2,0-0.2,0.1c0,0-0.1,0-0.1,0c0,0,0,0,0,0c-0.2,0-0.4,0-0.5,0.1c-0.2,0.1-0.3,0.2-0.4,0.4
			c0,0-0.1,0.1-0.1,0.1c0,0-0.1,0.1-0.1,0.1c0,0.1-0.1,0.2-0.1,0.3c0,0.1,0,0.2,0,0.3c0,0,0,0.1,0,0.1c0,0.4,0.2,0.8,0.6,1
			c0.2,0.1,0.4,0.2,0.6,0.2c0.2,0,0.4-0.1,0.6-0.2c0,0,0,0,0.1,0c0.1-0.1,0.2-0.2,0.3-0.3c0,0,0.1-0.1,0.1-0.1
			c0.1-0.1,0.1-0.3,0.2-0.4c0,0,0-0.1,0.1-0.1c0-0.1,0-0.2,0-0.3C1177.6,85.3,1177.6,85.2,1177.5,85.1z"/>
		<path class="st28" d="M1058.8,248.4c-0.1-0.8-0.3-1.5-0.6-2.3c-0.2-0.5-0.5-1-0.8-1.4c-0.7-1.4-1.3-2.7-2.3-3.9
			c-0.6-0.7-1.8,0.1-1.5,0.9c0.3,1.1,0.7,2.3,1,3.4c0.3,1.2,0.3,2.5,0.5,3.7c0.1,1.2,0,2.3-0.1,3.5c0,1.1-0.1,2.3-0.4,3.3
			c-1,4.2-3.9,6.8-8,8c-0.6,0.2-0.4,0.9,0.1,0.9c4.7,0.6,9.4-3.5,11.2-7.5c0.6-1.4,1-2.7,1.2-4.2
			C1059.4,251.3,1059.1,249.8,1058.8,248.4z"/>
		<path class="st28" d="M1217.4,263.4c-3.8-2.1-6.9-4.9-9-8.7c-1.1-1.9-1.8-4.1-2.2-6.3c-0.2-1.1-0.5-2.3-0.5-3.4
			c0-1.2,0.1-2.4,0.3-3.6c0.1-0.8-1.1-1.1-1.4-0.4c-0.6,1.2-1,2.4-1.2,3.7c-0.2,1.4-0.5,2.6-0.4,4c0.2,2.8,1,5.3,2.5,7.8
			c2.5,4,7.1,7,11.9,7.3C1217.5,263.7,1217.5,263.5,1217.4,263.4z"/>
		<path class="st28" d="M1089.7,258.9c-1.5-0.8-3.4-0.1-4.7,0.9c-1.4,1.2-2.3,2.9-2.6,4.7c-0.8,4.2,0.2,8.6,0.5,12.8
			c0,0.2,0.3,0.2,0.3,0c0.2-1.8,0.4-3.7,0.7-5.5c0.2-1.8,0.2-3.6,0.5-5.4c0.2-1.5,0.6-3.1,1.6-4.2c0.5-0.5,1-0.9,1.6-1.2
			c0.6-0.3,1.2-0.4,1.9-0.6C1090.2,260.3,1090.3,259.2,1089.7,258.9z"/>
		<path class="st28" d="M1104.5,253c-1.6-0.5-3.1,1.2-3.7,2.5c-0.8,1.7-1,3.6-1,5.4c0,2.6,0,5.2,0.1,7.8c0,1.2,0.1,2.4,0.2,3.5
			c0.2,1.5,0.5,3,0.6,4.5c0,0.1,0.2,0.1,0.2,0c0.1-2.4,0.6-4.7,0.7-7.1c0.1-2.2,0.2-4.4,0.4-6.7c0.1-1.7,0.1-3.5,0.5-5.2
			c0.2-0.7,0.5-1.4,0.9-2c0.4-0.6,1.1-0.9,1.5-1.5C1105.4,253.8,1105,253.2,1104.5,253z"/>
		<path class="st28" d="M1122.8,253.1c-1.6-0.9-3.6,0.5-4.5,1.8c-1.3,1.8-1.4,4.2-1.4,6.4c-0.1,2.6,0,5.2,0.3,7.8
			c0.2,2.5,0.6,5.2,1.4,7.6c0.1,0.2,0.4,0.2,0.4-0.1c0.1-2.2-0.1-4.5-0.2-6.7c-0.1-2.1-0.1-4.2-0.1-6.3c0-1.9-0.1-4,0.4-5.9
			c0.2-0.9,0.6-1.7,1.3-2.3c0.7-0.6,1.5-0.7,2.3-1C1123.3,254.2,1123.2,253.4,1122.8,253.1z"/>
		<path class="st28" d="M1140.9,253.8c-1.6-1.4-3.9-1.1-5.5,0.3c-1.8,1.7-2.2,4.3-2.4,6.6c-0.2,3-0.2,5.9,0.2,8.9
			c0.3,2.8,0.7,5.7,1.9,8.3c0.1,0.2,0.4,0.1,0.4-0.1c0-2.3-0.2-4.7-0.4-7.1c-0.1-2.4-0.1-4.8,0-7.1c0.1-2.1,0-4.5,0.9-6.4
			c0.7-1.6,2.5-2.8,4.2-2.3C1140.9,255.1,1141.4,254.3,1140.9,253.8z"/>
		<path class="st28" d="M1156.6,253.6c-4.1-0.2-5.4,4.6-5.8,7.9c-0.4,2.6-0.5,5.2-0.5,7.8c0,1.3,0.1,2.7,0.3,4
			c0.2,1.4,0.7,2.7,1.1,4.1c0,0.1,0.2,0.1,0.2,0c0-1.2,0.1-2.4,0.1-3.6c0-1.2,0-2.4,0-3.6c0-2.2,0.1-4.5,0.4-6.7
			c0.4-2.9,1-7.5,4.3-8.7C1157.4,254.6,1157.3,253.6,1156.6,253.6z"/>
		<path class="st28" d="M1178.5,263c-1.4-1.6-3.3-3.2-5.5-3.3c-2.1-0.1-3.9,1.1-4.7,3.1c-0.9,2.3-1.1,4.9-1.3,7.3
			c-0.2,2.5-0.3,5.3,0.5,7.7c0.1,0.2,0.4,0.3,0.5,0c0.4-2,0.3-4.2,0.6-6.2c0.2-2.2,0.6-4.3,1.2-6.5c0.2-0.8,0.4-1.9,1-2.5
			c0.5-0.6,1.3-0.8,2-0.8c2,0,3.5,1.1,5.2,2C1178.4,264.1,1178.8,263.5,1178.5,263z"/>
		<path class="st21" d="M1013.4,284.2c-1-0.3-2-0.1-3-0.2c-1-0.1-1.9-0.1-2.9,0c-2,0.1-4.1,0.2-6.1,0.4c-3.1,0.2-6.7,0-8.5,3.1
			c-1.5,2.6-1.2,5.8-1.1,8.6c0.1,1.9,0.3,3.8,0.6,5.7c0.3,1.8,0.7,3.7,1.5,5.3c0.1,0.1,0.2,0,0.2-0.1c0.2-1.7,0-3.4-0.1-5
			c-0.1-1.7-0.2-3.4-0.2-5.1c-0.1-2.6-0.4-5.7,0.8-8.1c0.7-1.3,1.8-1.8,3.3-1.9c1.7-0.2,3.4-0.2,5.2-0.3c1.7-0.1,3.4-0.1,5-0.3
			c0.9-0.1,1.7-0.2,2.5-0.3c0.9-0.1,1.8-0.1,2.7-0.5C1014,285.3,1014.1,284.4,1013.4,284.2z"/>
		<path class="st21" d="M1260.2,283.9c-2.3,0.2-4.6,0.6-6.9,0.7c-2.2,0.1-4.3,0.1-6.5,0.1c-4.3,0.1-8.6,0.5-12.4,2.6
			c-7.6,4.2-11.4,13.1-12.2,21.4c0,0.1,0.1,0.1,0.2,0c3.5-7.5,6-16.6,14.3-20.2c3.9-1.7,8.2-1.6,12.4-1.6c3.7,0,8.1,0.2,11.4-1.7
			C1261.2,284.9,1260.9,283.8,1260.2,283.9z"/>
		<path class="st21" d="M1089.4,300.4c-1.2,0.4-2.4,1.1-3.5,1.8c-1.1,0.7-2.2,1.4-3.4,2.1c-2.3,1.4-4.6,2.8-6.7,4.4
			c-0.3,0.2-0.1,0.8,0.3,0.6c2.5-0.9,4.8-2.3,7.1-3.7c1.2-0.7,2.3-1.5,3.4-2.2c0.6-0.4,1-0.8,1.5-1.2c0.5-0.5,1.1-0.8,1.5-1.3
			C1090,300.7,1089.8,300.3,1089.4,300.4z"/>
		<path class="st21" d="M1097.2,303.1c-1.2,0.5-2.3,1.2-3.5,1.9c-1.2,0.7-2.3,1.4-3.5,2.1c-2.2,1.3-4.7,2.5-6.5,4.4
			c-0.1,0.1,0,0.2,0.1,0.2c2.6-0.5,5-2,7.3-3.2c2.3-1.3,4.8-2.6,6.8-4.3C1098.7,303.7,1097.9,302.9,1097.2,303.1z"/>
		<path class="st21" d="M1114.5,300.8c-1.8,0.7-3.6,1.8-5.3,2.7c-1.8,1-3.5,2.1-5.3,3.2c-3.4,2-7.1,3.9-10,6.6
			c-0.1,0.1,0,0.2,0.1,0.2c3.8-1.2,7.3-3.5,10.7-5.4c1.8-1,3.6-2,5.4-3.1c1.7-1,3.5-2,5-3.2C1115.5,301.4,1115,300.6,1114.5,300.8z"
			/>
		<path class="st21" d="M1127.7,300.8c-2,0.6-3.9,1.7-5.7,2.7c-2,1.1-3.9,2.3-5.8,3.5c-1.8,1.2-3.7,2.3-5.4,3.6
			c-1.8,1.3-3.4,2.6-4.9,4.1c-0.1,0.1,0,0.2,0.1,0.2c1.9-1.1,3.8-2.1,5.7-3.2c1.8-1.1,3.6-2.2,5.4-3.3c1.8-1.1,3.7-2.1,5.5-3.1
			c1.9-1,3.9-2,5.7-3.3C1128.8,301.6,1128.5,300.5,1127.7,300.8z"/>
		<path class="st21" d="M1140.9,301.2c-1.9,0.6-3.7,1.8-5.5,2.8c-1.8,1.1-3.7,2.1-5.5,3.2c-1.8,1.1-3.7,2.2-5.5,3.3
			c-1.7,1-3.6,2-5,3.5c-0.2,0.2,0,0.6,0.3,0.6c1.9-0.4,3.8-1.6,5.5-2.5c1.9-1,3.7-2,5.6-3.1c1.9-1,3.7-2.1,5.6-3.2
			c1.8-1,3.6-2,5.2-3.3C1142.1,302,1141.6,301,1140.9,301.2z"/>
		<path class="st21" d="M1157.5,300.2c-2.1,0.5-4.1,1.8-6.2,2.6c-1.9,0.8-3.8,2-5.6,3c-3.7,2.1-7.5,4.3-10.8,7.2
			c-0.3,0.2,0.1,0.6,0.4,0.5c3.9-1.8,7.5-4.1,11.3-6.2c1.8-1,3.8-1.9,5.6-3c1.8-1.1,4-1.9,5.7-3.1
			C1158.4,300.9,1158.1,300.1,1157.5,300.2z"/>
		<path class="st21" d="M1167.9,301.8c-3.8,1.4-7.4,3.6-10.9,5.6c-3.5,1.9-7.2,3.9-10.3,6.4c-0.1,0.1,0,0.3,0.2,0.3
			c3.8-1.2,7.3-3.2,10.8-5.1c3.6-1.9,7.5-3.6,10.7-6.1C1168.9,302.5,1168.6,301.6,1167.9,301.8z"/>
		<path class="st21" d="M1179.7,304.3c-1.6,0.4-3.1,1.3-4.6,2c-1.5,0.7-2.9,1.4-4.3,2.1c-1.4,0.7-2.8,1.5-4.2,2.2
			c-1.4,0.8-2.9,1.5-4.1,2.6c-0.1,0.1,0,0.3,0.2,0.3c1.5-0.3,2.9-1,4.3-1.6c1.5-0.7,3-1.4,4.5-2.1c1.5-0.7,2.9-1.4,4.3-2.1
			c1.4-0.7,3.1-1.4,4.4-2.4C1180.6,305,1180.3,304.1,1179.7,304.3z"/>
		<path class="st21" d="M1195.5,304.3c-3.1,1.3-6,2.9-8.9,4.5c-1.4,0.8-2.9,1.6-4.3,2.4c-0.7,0.4-1.4,0.8-2.1,1.3
			c-0.3,0.2-0.7,0.5-1,0.7c-0.4,0.3-0.7,0.8-1,1c-0.1,0.1,0,0.2,0.1,0.2c0.4-0.1,0.7-0.1,1-0.2c0.4-0.1,0.9-0.3,1.3-0.5
			c0.7-0.3,1.4-0.7,2.1-1c1.5-0.8,3-1.6,4.5-2.4c3.1-1.6,6-3.3,8.9-5.2C1196.6,304.9,1196.1,304.1,1195.5,304.3z"/>
		<path class="st21" d="M1054,282.3c-0.8-1.1-2-1.9-3.1-2.7c-1.1-0.9-2.2-1.8-3.3-2.7c-2.5-1.8-5-3.3-7.7-4.8
			c-5-2.7-10.4-5-15.9-6.6c-10.7-3.1-23.4-3.9-33.9,0.6c-2.6,1.1-5.4,2.3-7.4,4.3c-1.5,1.5-3,3.6-2.3,5.7c0,0.1,0.1,0.1,0.2,0
			c0.9-1,1.7-2.3,2.7-3.2c1.1-0.9,2.4-1.7,3.6-2.3c2.8-1.4,6.1-2.1,9.1-2.7c6.7-1.4,13.7-1.2,20.4,0.1c6.7,1.2,13.1,3.6,19.1,6.6
			c2.9,1.5,5.7,3.1,8.5,4.7c1.4,0.8,2.9,1.5,4.3,2.4c1.5,0.9,2.9,2,4.5,2.6C1054.1,284.8,1054.6,283.2,1054,282.3z"/>
		<path class="st21" d="M1277.2,269c-4.8-3.8-12.1-4.5-18-4.4c-6.6,0.1-13.2,1.6-19.5,3.7c-13.3,4.4-25.4,12-38.7,16.5
			c-7.6,2.6-15.4,4.4-23.4,4.2c-0.1,0-0.1,0.2,0,0.2c13.3,2.4,26-2.2,38-7.4c12.4-5.4,24.9-11.7,38.6-13.2c3.5-0.4,7.1-0.5,10.6-0.1
			c3.8,0.4,7.3,1.9,11.1,2.7C1277.1,271.4,1278.3,269.9,1277.2,269z"/>
		<path class="st21" d="M1152.7,289.9c-14.5-0.4-29,0.5-43.5,1c-6.8,0.2-13.5,0.6-20.3,0.5c-3.5,0-7-0.2-10.5-0.7
			c-3.3-0.5-6.5-1.4-9.6-2.3c0,0-0.1,0,0,0.1c5.7,3,12.4,4,18.7,4.5c6.8,0.5,13.7,0.1,20.5-0.1c14.9-0.5,29.8-0.6,44.7-2
			C1153.4,290.8,1153.4,289.9,1152.7,289.9z"/>
		<path class="st21" d="M1043.5,329.4c-7.2-0.7-14.6-0.2-21.9-0.2c-7,0-14.1-0.3-21.1-0.9c-3-0.3-6.5-0.2-9-2.1
			c-2.1-1.7-2.9-4.4-3.5-6.8c-0.8-3.1-1.4-6.3-2.1-9.5c-0.8-3.5-1.1-7.1-2.1-10.6c0-0.1-0.3-0.1-0.3,0c0,4.1,0.9,8.2,1,12.3
			c0.1,3.2,0.3,6.5,0.9,9.6c0.5,2.6,1.5,5.2,3.4,7c2.1,2.1,5,2.8,7.9,3.2c7.6,1,15.4,1.3,23.1,1.4c7.8,0.1,16,0.1,23.6-1.9
			C1044.6,330.7,1044.3,329.5,1043.5,329.4z"/>
		<path class="st21" d="M1280.1,302.2c-1.8,3.4-3.2,7.1-4.5,10.7c-1.1,3.3-1.8,6.9-3.8,9.7c-3.4,4.7-9.5,5.9-14.9,6.3
			c-15.1,1-30.5-0.9-45.6,0.6c-0.2,0-0.2,0.3,0,0.3c6.4,0.9,13,1,19.5,1.3c6.7,0.3,13.5,0.6,20.2,0.8c9.1,0.3,20.6-0.2,25.6-9.3
			c1.6-2.9,2.5-6.2,3.2-9.4c0.9-3.5,1.6-7.1,1.9-10.6C1281.8,301.8,1280.5,301.5,1280.1,302.2z"/>
		<path class="st21" d="M1200.9,333.1c-15.6-2.3-31.7-2.3-47.5-2.7c-16.1-0.4-32.1-0.6-48.2-0.1c-9.2,0.3-18.3,0.5-27.4,1.1
			c-0.1,0-0.1,0.2,0,0.2c31.9,0.1,63.8,0.1,95.6,1.6c9.1,0.4,18.3,1.1,27.4,1C1201.3,334.1,1201.5,333.2,1200.9,333.1z"/>
		<path class="st21" d="M999.1,343.1c-0.8,0.8-1.6,1.8-2.4,2.6c-0.9,0.9-1.8,1.7-2.9,2.4c-1,0.7-2,1.3-3.1,1.8
			c-0.6,0.3-1.1,0.5-1.7,0.7c-0.6,0.3-1.1,0.5-1.7,0.7c-0.2,0-0.1,0.3,0.1,0.3c0.6-0.1,1.2-0.2,1.9-0.3c0.6-0.1,1.2-0.4,1.8-0.7
			c1.2-0.5,2.3-1,3.3-1.8c1-0.7,2-1.5,2.9-2.3c0.9-0.9,1.8-1.9,2.4-3C999.7,343.2,999.3,342.9,999.1,343.1z"/>
		<path class="st21" d="M1001.2,349.7c-2.2,2.3-4.5,4.5-6.9,6.5c-1.2,1-2.5,2-3.8,2.9c-1.3,0.9-2.6,1.7-3.8,2.7
			c-0.1,0.1,0,0.3,0.2,0.3c1.5-0.5,2.8-1.3,4.1-2.2c1.3-0.9,2.6-1.8,3.9-2.8c1.2-1,2.4-2,3.6-3.1c1.2-1.2,2.3-2.4,3.3-3.8
			C1002,349.9,1001.6,349.4,1001.2,349.7z"/>
		<path class="st21" d="M1002.4,360.8c-1.7,1.8-3.6,3.5-5.8,4.8c-1,0.6-2.1,1.3-3.2,1.8c-1.1,0.5-2.3,0.9-3.4,1.5
			c-0.1,0,0,0.2,0,0.2c1.3,0,2.6-0.4,3.7-0.8c1.2-0.5,2.4-1,3.5-1.7c2.2-1.4,4.2-3.2,5.6-5.3
			C1003.1,360.9,1002.7,360.6,1002.4,360.8z"/>
		<path class="st21" d="M1003.4,371.4c-1.5,2.3-4.1,3.9-6.8,4c-0.2,0-0.2,0.3,0,0.3c3,0.2,5.9-1.4,7.3-4
			C1004.1,371.3,1003.6,371.1,1003.4,371.4z"/>
		<path class="st21" d="M1039.2,352.1c-1.8-1.2-3.5-2.4-5.1-3.9c-1.6-1.5-3.1-3-4.4-4.8c-0.1-0.1-0.2,0-0.1,0.1
			c1.2,1.8,2.6,3.5,4.2,5c1.6,1.5,3.3,2.9,5.2,3.9C1039.2,352.5,1039.4,352.2,1039.2,352.1z"/>
		<path class="st21" d="M1039.2,359.2c-2.6-1.1-4.9-2.3-7-4.2c-2.1-1.8-3.7-4.1-4.9-6.5c0-0.1-0.1,0-0.1,0c1,2.6,2.6,5,4.7,6.9
			c2,1.9,4.5,3.5,7.3,4.2C1039.3,359.6,1039.4,359.3,1039.2,359.2z"/>
		<path class="st21" d="M1035.4,366.4c-0.8-0.5-1.7-0.8-2.5-1.3c-0.8-0.5-1.6-1-2.3-1.6c-1.5-1.2-2.9-2.6-4.1-4.1
			c-0.1-0.1-0.3,0-0.2,0.1c1.1,1.6,2.5,3,4,4.3c0.7,0.6,1.5,1.2,2.3,1.7c0.8,0.5,1.7,1.1,2.6,1.3
			C1035.4,366.9,1035.6,366.5,1035.4,366.4z"/>
		<path class="st21" d="M1032,372.4c-3.3-0.5-6.4-2.5-8.3-5.2c-0.1-0.1-0.2,0-0.1,0.1c1.9,3,4.9,4.9,8.4,5.4
			C1032.1,372.7,1032.2,372.4,1032,372.4z"/>
		<path class="st21" d="M1236,344.2c-0.7,0.2-1.3,0.5-2,0.7c-0.6,0.2-1.3,0.4-1.9,0.6c-0.6,0.2-1.3,0.3-1.9,0.5
			c-0.6,0.1-1.3,0.2-1.9,0.5c0,0,0,0.1,0,0.1c0.6,0.3,1.2,0.2,1.8,0.2c0.7-0.1,1.4-0.2,2.1-0.3c0.7-0.2,1.4-0.4,2-0.6
			c0.7-0.3,1.4-0.5,1.9-0.9C1236.6,344.7,1236.4,344.1,1236,344.2z"/>
		<path class="st21" d="M1238,349.7c-0.9,0.7-1.7,1.4-2.6,2.1c-0.9,0.7-1.9,1.3-2.9,1.9c-2,1.2-4.2,2.1-6.3,3c-0.1,0-0.1,0.3,0,0.2
			c1.2-0.2,2.3-0.4,3.4-0.8c1.1-0.4,2.2-0.9,3.3-1.5c2-1.1,4.2-2.6,5.6-4.5C1238.7,349.9,1238.3,349.5,1238,349.7z"/>
		<path class="st21" d="M1240.8,356.9c-2.1,1.4-4.2,2.9-6.3,4.2c-1.1,0.6-2.2,1.2-3.3,1.8c-1.2,0.6-2.2,1.2-3.4,1.8
			c-0.1,0.1,0,0.2,0.1,0.2c1.3-0.2,2.4-0.5,3.6-1c1.2-0.5,2.4-1.1,3.6-1.7c2.2-1.2,4.4-2.8,6.1-4.7
			C1241.4,357.1,1241.1,356.7,1240.8,356.9z"/>
		<path class="st21" d="M1241.5,365.9c-1.5,0.7-3,1.6-4.4,2.5c-1.5,0.9-2.9,1.8-4.3,2.7c-0.2,0.2,0,0.5,0.2,0.4
			c1.5-0.8,3-1.5,4.5-2.4c1.5-0.8,2.9-1.7,4.3-2.7C1242.1,366.2,1241.8,365.7,1241.5,365.9z"/>
		<path class="st21" d="M1278.1,346.5c-4.2-0.7-8.1-2.2-11.1-5.3c-0.1-0.1-0.2,0-0.2,0.2c2.6,3.4,6.8,5.8,11.2,5.6
			C1278.3,347,1278.4,346.5,1278.1,346.5z"/>
		<path class="st21" d="M1275.3,353.9c-1.7-0.4-3.5-1-5.1-1.8c-1.6-0.8-3.1-1.9-4.5-3.1c-0.2-0.1-0.5,0.1-0.3,0.3
			c1.1,1.5,2.7,2.7,4.3,3.7c0.8,0.5,1.7,0.8,2.6,1.2c0.9,0.3,1.9,0.5,2.9,0.6C1275.7,354.7,1275.7,354,1275.3,353.9z"/>
		<path class="st21" d="M1274,364.5c-0.3-0.4-0.8-0.5-1.2-0.8c-0.4-0.3-0.8-0.5-1.2-0.8c-0.8-0.5-1.6-1.1-2.3-1.6
			c-0.7-0.6-1.5-1.2-2.1-1.9c-0.7-0.7-1.4-1.3-2-2.1c-0.2-0.2-0.5,0.1-0.3,0.3c0.6,0.8,1.1,1.6,1.8,2.4c0.7,0.7,1.3,1.4,2.1,2.1
			c0.8,0.6,1.5,1.2,2.4,1.8c0.4,0.3,0.8,0.5,1.2,0.8c0.5,0.2,0.9,0.5,1.4,0.6C1274.1,365.2,1274.2,364.7,1274,364.5z"/>
		<path class="st21" d="M1269.7,371c-1.5,0-2.9-0.6-4-1.6c-1.1-1-1.8-2.4-1.9-3.9c0-0.1-0.1-0.1-0.1,0c-0.1,1.6,0.5,3.2,1.6,4.3
			c1.1,1.1,2.7,1.9,4.4,1.7C1270,371.5,1270,371,1269.7,371z"/>
		<g>
			<g>
				<g>
					<g>
						<g>
							<g>
								<g>
									<g>
										<g>
											<g>
												<g>
													<g>
														<g>
															<g>
																<g>
																	<g>
																		<g>
																			<path class="st33" d="M1176.2,117.4c0,0.6,0.5,1.2,1.2,1.2c0.7,0,1.2-0.5,1.2-1.1c0-0.6-0.5-1.2-1.2-1.2
																				C1176.8,116.3,1176.2,116.8,1176.2,117.4z"/>
																		</g>
																	</g>
																</g>
															</g>
														</g>
													</g>
												</g>
											</g>
										</g>
									</g>
								</g>
							</g>
						</g>
					</g>
				</g>
			</g>
			<g>
				<g>
					<g>
						<g>
							<g>
								<g>
									<g>
										<g>
											<g>
												<g>
													<g>
														<g>
															<g>
																<g>
																	<g>
																		<g>
																			<g>
																				<path class="st33" d="M1175.6,113.8c0.2,0.2,1-0.6,2.3-0.6c1.3-0.1,2.3,0.6,2.4,0.4c0.1-0.1-0.1-0.3-0.5-0.6
																					c-0.4-0.3-1.1-0.5-1.9-0.5c-0.8,0-1.5,0.4-1.8,0.7C1175.7,113.5,1175.6,113.7,1175.6,113.8z"/>
																			</g>
																		</g>
																	</g>
																</g>
															</g>
														</g>
													</g>
												</g>
											</g>
										</g>
									</g>
								</g>
							</g>
						</g>
					</g>
				</g>
			</g>
			<g>
				<g>
					<g>
						<g>
							<g>
								<g>
									<g>
										<g>
											<g>
												<g>
													<g>
														<g>
															<g>
																<g>
																	<g>
																		<g>
																			<path class="st33" d="M1187.9,117.2c0,0.6,0.5,1.2,1.2,1.2c0.7,0,1.2-0.5,1.2-1.1c0-0.6-0.5-1.2-1.2-1.2
																				C1188.5,116.1,1187.9,116.6,1187.9,117.2z"/>
																		</g>
																	</g>
																</g>
															</g>
														</g>
													</g>
												</g>
											</g>
										</g>
									</g>
								</g>
							</g>
						</g>
					</g>
				</g>
			</g>
			<g>
				<g>
					<g>
						<g>
							<g>
								<g>
									<g>
										<g>
											<g>
												<g>
													<g>
														<g>
															<g>
																<g>
																	<g>
																		<g>
																			<g>
																				<path class="st33" d="M1188.3,113.6c0.2,0.2,1-0.6,2.3-0.6c1.3-0.1,2.3,0.6,2.4,0.4c0.1-0.1-0.1-0.3-0.5-0.6
																					c-0.4-0.3-1.1-0.5-1.9-0.5c-0.8,0-1.5,0.4-1.8,0.7C1188.4,113.2,1188.2,113.5,1188.3,113.6z"/>
																			</g>
																		</g>
																	</g>
																</g>
															</g>
														</g>
													</g>
												</g>
											</g>
										</g>
									</g>
								</g>
							</g>
						</g>
					</g>
				</g>
			</g>
			<g>
				<g>
					<g>
						<g>
							<g>
								<g>
									<g>
										<g>
											<g>
												<g>
													<g>
														<g>
															<g>
																<g>
																	<g>
																		<g>
																			<path class="st33" d="M1183.7,122.5c0-0.1-0.6-0.1-1.7-0.2c-0.3,0-0.5-0.1-0.6-0.2c-0.1-0.2,0-0.5,0.1-0.8
																				c0.2-0.6,0.4-1.3,0.7-2c0.9-2.8,1.6-5.2,1.5-5.2c-0.1,0-1,2.2-1.9,5.1c-0.2,0.7-0.4,1.4-0.6,2
																				c-0.1,0.3-0.2,0.6-0.1,1c0.1,0.2,0.3,0.3,0.4,0.4c0.2,0,0.3,0,0.4,0C1183.1,122.6,1183.7,122.6,1183.7,122.5z"/>
																		</g>
																	</g>
																</g>
															</g>
														</g>
													</g>
												</g>
											</g>
										</g>
									</g>
								</g>
							</g>
						</g>
					</g>
				</g>
			</g>
			<g>
				<g>
					<g>
						<g>
							<g>
								<g>
									<g>
										<g>
											<g>
												<g>
													<g>
														<g>
															<path class="st33" d="M1187.7,109.6c0.2,0.3,1.4-0.1,3-0.2c1.5-0.1,2.8,0.1,2.9-0.3c0.1-0.2-0.2-0.5-0.8-0.7
																c-0.5-0.2-1.4-0.4-2.3-0.4c-0.9,0.1-1.7,0.4-2.2,0.7C1187.9,109.1,1187.6,109.4,1187.7,109.6z"/>
														</g>
													</g>
												</g>
											</g>
										</g>
									</g>
								</g>
							</g>
						</g>
					</g>
				</g>
			</g>
			<g>
				<g>
					<g>
						<g>
							<g>
								<g>
									<g>
										<g>
											<g>
												<g>
													<g>
														<g>
															<path class="st33" d="M1175.4,110c0.3,0.3,1.3,0,2.6-0.1c1.3-0.1,2.3,0.1,2.6-0.2c0.1-0.2-0.1-0.4-0.5-0.7
																c-0.5-0.3-1.2-0.5-2.1-0.4c-0.9,0-1.6,0.3-2,0.6C1175.4,109.6,1175.3,109.9,1175.4,110z"/>
														</g>
													</g>
												</g>
											</g>
										</g>
									</g>
								</g>
							</g>
						</g>
					</g>
				</g>
			</g>
			<g>
				<g>
					<g>
						<g>
							<g>
								<g>
									<g>
										<g>
											<g>
												<g>
													<g>
														<g>
															<g>
																<path class="st33" d="M1181.8,129.5c0.1-0.2,1.4,0.3,2.8-0.5c1.4-0.8,1.8-2.3,2-2.2c0.1,0,0.1,0.4-0.1,1
																	c-0.2,0.6-0.7,1.4-1.6,1.9c-0.9,0.5-1.8,0.5-2.3,0.3C1182,129.9,1181.7,129.6,1181.8,129.5z"/>
															</g>
														</g>
													</g>
												</g>
											</g>
										</g>
									</g>
								</g>
							</g>
						</g>
					</g>
				</g>
			</g>
		</g>
		<path class="st5" d="M1085.4,142.1l-8.9,0.4c0,0,0.4,3.4,4.3,3.3C1085.6,145.7,1085.4,142.1,1085.4,142.1z"/>
		<g>
			<g>
				<g>
					<g>
						<g>
							<g>
								<g>
									<g>
										<path class="st33" d="M1082.3,139.6c0,0,0.4-0.2,1.1-0.4c0.2,0,0.3-0.1,0.4-0.2c0-0.1-0.1-0.3-0.2-0.5
											c-0.2-0.4-0.5-0.9-0.7-1.3c-1-1.9-1.8-3.4-1.7-3.5c0.1,0,1,1.4,2,3.3c0.2,0.5,0.5,0.9,0.7,1.3c0.1,0.2,0.2,0.4,0.2,0.7
											c0,0.1-0.2,0.3-0.3,0.3c-0.1,0.1-0.2,0.1-0.3,0.1C1082.8,139.6,1082.3,139.6,1082.3,139.6z"/>
									</g>
								</g>
							</g>
						</g>
					</g>
				</g>
			</g>
			<g>
				<g>
					<g>
						<path class="st33" d="M1076.1,128.5c-0.1,0.3-1.2,0.3-2.5,0.6c-1.3,0.3-2.3,0.8-2.5,0.6c-0.1-0.1,0.1-0.4,0.4-0.8
							c0.4-0.3,1-0.7,1.8-0.9c0.8-0.2,1.5-0.2,2,0C1075.8,128.1,1076.1,128.3,1076.1,128.5z"/>
					</g>
				</g>
			</g>
			<g>
				<g>
					<g>
						<path class="st33" d="M1086.8,128c-0.1,0.3-1.2,0.1-2.5,0.1c-1.3,0-2.4,0.3-2.6,0.1c-0.1-0.1,0.1-0.4,0.6-0.7
							c0.4-0.3,1.1-0.5,1.9-0.5c0.8,0,1.5,0.2,2,0.4C1086.7,127.6,1086.9,127.8,1086.8,128z"/>
					</g>
				</g>
			</g>
			<g>
				<g>
					<g>
						<g>
							<path class="st33" d="M1077.4,135.6c0.1,0.6-0.3,1.1-0.9,1.2c-0.6,0.1-1.1-0.3-1.2-0.8c-0.1-0.6,0.3-1.1,0.9-1.2
								C1076.8,134.7,1077.3,135,1077.4,135.6z"/>
						</g>
					</g>
				</g>
			</g>
			<g>
				<g>
					<g>
						<g>
							<path class="st33" d="M1087.7,133.8c0.1,0.6-0.3,1.1-0.9,1.2c-0.6,0.1-1.1-0.3-1.2-0.8c-0.1-0.6,0.3-1.1,0.9-1.2
								C1087.1,132.9,1087.6,133.3,1087.7,133.8z"/>
						</g>
					</g>
				</g>
			</g>
			<g>
				<g>
					<g>
						<g>
							<g>
								<path class="st33" d="M1086.9,131.1c-0.1,0.2-0.9-0.3-2-0.1c-1,0.2-1.7,1-1.8,0.8c-0.1-0.1,0-0.3,0.3-0.7
									c0.3-0.3,0.8-0.7,1.4-0.8c0.6-0.1,1.2,0,1.6,0.3C1086.8,130.7,1087,131,1086.9,131.1z"/>
							</g>
						</g>
					</g>
				</g>
			</g>
			<g>
				<g>
					<g>
						<g>
							<g>
								<path class="st33" d="M1077.1,132.8c-0.1,0.2-1.1-0.4-2.3-0.3c-1.3,0.1-2.1,0.9-2.3,0.7c-0.1-0.1,0-0.4,0.4-0.7
									c0.4-0.3,1-0.7,1.8-0.8c0.8-0.1,1.5,0.2,1.9,0.5C1077,132.4,1077.1,132.7,1077.1,132.8z"/>
							</g>
						</g>
					</g>
				</g>
			</g>
		</g>
	</g>
	<g>
		<path class="st8" d="M1265.5,384.3c0,0,12.5-72.1,17.6-79.6c7-10.3,15.7,21.3,16.1,18.5c4-26.2,3.2-59.3,21.9-64.3
			c10.6-2.8-0.7,24.7,0.6,31.8s19-18.2,29.9-31.7c10.9-13.4,17.6-6,11.3,10.3c-6.1,15.7-28.2,34.2-23.3,35.7
			c5,1.6,32.7-20.3,36.9-12.3c5.1,9.9-37.7,27.4-33.4,29.4c4.3,2,24.7-7.3,24.7,0.6c0,7.9-28.2,9.9-27.4,13.3
			c1.2,5.5,18.9-8.6,20.3-1c1.4,7.8-24,8.4-23.1,14.6c0.5,3.5,6.9-0.2,8.1,4.7c2.6,11-37.4,26.5-37.4,26.5L1265.5,384.3z"/>
		<path class="st9" d="M1245.5,386.1c5.1-6.6,35.1-43.6,53.3-49.5c20.1-6.5,1.2,19.4,1.2,19.4s35.6-39.1,48.7-35.6
			c12,3.2,0,27.4,0,27.4s13.5-13.4,29.9-13.4c15.9,0-11.6,49.1-13,51.7H1245.5z"/>
		<g>
			<path class="st10" d="M1370,359.8c0.1,0.6,0.7,2.4,0.3,4.1c-0.2,1.7-1.5,3.4-1.5,3.4c-0.1,0,2-0.6,3.4-2.3c1.5-1.6,2.3-4.5,2-5.7
				c-0.4-2.6-2.5-3.9-3.4-3.1C1369.9,356.9,1369.9,358.5,1370,359.8z"/>
			<path class="st10" d="M1356.9,364.5c0.1,0.6,0.7,2.4,0.3,4.1c-0.2,1.7-1.5,3.4-1.5,3.4c-0.1,0,2-0.6,3.4-2.3
				c1.5-1.6,2.3-4.5,2-5.7c-0.4-2.6-2.5-3.9-3.4-3.1C1356.8,361.6,1356.8,363.2,1356.9,364.5z"/>
			<path class="st10" d="M1343.6,370.5c0.1,0.6,0.7,2.4,0.3,4.1c-0.2,1.7-1.5,3.4-1.5,3.4c-0.1,0,2-0.6,3.4-2.3
				c1.5-1.6,2.3-4.5,2-5.7c-0.4-2.6-2.5-3.9-3.4-3.1C1343.5,367.6,1343.5,369.1,1343.6,370.5z"/>
			<path class="st10" d="M1373.9,372.1c-0.3-0.5-0.8-2.2-2.1-3.2c-1.1-1.1-3-1.7-3-1.6c-0.1,0.1,1.8-0.7,3.8-0.2
				c2,0.4,4.2,2,4.7,3.1c1.2,2.1,0.3,4.3-0.8,4.2C1375.5,374.3,1374.6,373.2,1373.9,372.1z"/>
			<path class="st10" d="M1360.3,376.9c-0.3-0.5-0.8-2.2-2.1-3.2c-1.1-1.1-3-1.7-3-1.6c-0.1,0.1,1.8-0.7,3.8-0.2
				c2,0.4,4.2,2,4.7,3.1c1.2,2.1,0.3,4.3-0.8,4.2C1361.8,379.2,1360.9,378,1360.3,376.9z"/>
			<path class="st10" d="M1382.7,360.7c-0.1,0.4,0,1.5-0.5,2.4c-0.4,0.9-1.5,1.7-1.4,1.6c-0.1,0,1.2,0,2.3-0.7
				c1.1-0.7,2.1-2.1,2.1-2.9c0.3-1.5-0.7-2.6-1.4-2.4C1383.2,359,1382.9,359.9,1382.7,360.7z"/>
			<path class="st10" d="M1384.8,366.8c-0.2-0.3-0.8-1.3-1.7-1.8c-0.9-0.6-2.1-0.7-2.1-0.6c0,0.1,1-0.7,2.4-0.6
				c1.3,0,2.9,0.7,3.3,1.3c1,1.2,0.7,2.6,0.1,2.7C1386.1,368,1385.4,367.4,1384.8,366.8z"/>
			<g>
				<g>
					<path class="st10" d="M1354.6,309c-14.6,22.8-25.3,50.2-31.4,77.1h-1.6c6-26.3,17.3-53.9,31.9-76.7c3.4-5.3,7-11.6,13.3-13.6
						c0.1,0,0.2,0.1,0.1,0.2C1361.1,298.1,1357.8,304.1,1354.6,309z"/>
				</g>
				<g>
					<path class="st10" d="M1326.1,386.1c16.3-22.2,36.7-43.8,60.3-61.6c0.2-0.2,0.6,0.2,0.3,0.4c-22.3,17.2-42.4,38.3-59,61.2
						H1326.1z"/>
				</g>
				<path class="st10" d="M1355.9,294.9c0.4,0.6,1.8,2,2.2,3.9c0.6,1.8,0.1,4,0.1,4c-0.1,0,1.7-1.5,2.2-3.8c0.7-2.3,0.2-5.5-0.7-6.5
					c-1.5-2.4-4.2-2.6-4.7-1.5C1354.5,292.1,1355.2,293.6,1355.9,294.9z"/>
				<path class="st10" d="M1359.4,315.3c-0.5-0.4-2-1.9-3.8-2.3c-1.8-0.6-4-0.2-4-0.1c0,0.1,1.5-1.6,3.9-2.1
					c2.3-0.7,5.4-0.1,6.5,0.8c2.3,1.6,2.5,4.3,1.4,4.8C1362.2,316.8,1360.6,316,1359.4,315.3z"/>
				<path class="st10" d="M1354.1,324.2c-0.5-0.4-2-1.9-3.8-2.3c-1.8-0.6-4-0.2-4-0.1c0,0.1,1.5-1.6,3.9-2.1
					c2.3-0.7,5.4-0.1,6.5,0.8c2.3,1.6,2.5,4.3,1.4,4.8C1356.9,325.7,1355.4,325,1354.1,324.2z"/>
				<path class="st10" d="M1372.9,344.9c-0.5-0.4-2-1.9-3.8-2.3c-1.8-0.6-4-0.2-4-0.1c0,0.1,1.5-1.6,3.9-2.1
					c2.3-0.7,5.4-0.1,6.5,0.8c2.3,1.6,2.5,4.3,1.4,4.8C1375.7,346.4,1374.1,345.6,1372.9,344.9z"/>
				<path class="st10" d="M1382.5,336.4c-0.5-0.4-2-1.9-3.8-2.3c-1.8-0.6-4-0.2-4-0.1c0,0.1,1.5-1.6,3.9-2.1
					c2.3-0.7,5.4-0.1,6.5,0.8c2.3,1.6,2.5,4.3,1.4,4.8C1385.2,337.9,1383.7,337.2,1382.5,336.4z"/>
				<path class="st10" d="M1348.6,305c0.5,0.5,2.1,1.7,2.8,3.5c0.8,1.7,0.8,4,0.7,3.9c-0.1,0.1,1.4-1.7,1.6-4.1
					c0.3-2.4-0.6-5.4-1.7-6.3c-1.9-2.1-4.6-1.9-4.9-0.7C1346.7,302.4,1347.6,303.9,1348.6,305z"/>
				<path class="st10" d="M1340.8,315.1c0.7,0.3,2.9,1,4.1,2.7c1.3,1.5,1.5,4.1,1.4,4.1c-0.1,0.1,1.6-2.5,1.5-5.3
					c0.2-2.8-1.5-5.8-3-6.3c-2.7-1.5-6.2-0.2-6.4,1.3C1338.1,313.1,1339.5,314.3,1340.8,315.1z"/>
				<path class="st10" d="M1332.7,330.4c0.7,0.2,3,0.5,4.5,2c1.5,1.3,2.1,3.8,2,3.8c-0.1,0.1,1.2-2.7,0.6-5.5
					c-0.3-2.8-2.4-5.4-4-5.7c-2.9-1.1-6.1,0.9-6.1,2.4C1329.7,328.9,1331.2,329.8,1332.7,330.4z"/>
				<path class="st10" d="M1356.8,341.1c0.5,0.3,2.3,1,3.2,2.4c1,1.3,1,3.4,0.9,3.4c-0.1,0.1,1.5-1.9,1.6-4.2c0.3-2.3-0.9-4.8-2-5.3
					c-2.1-1.4-5-0.5-5.3,0.7C1354.7,339.3,1355.7,340.3,1356.8,341.1z"/>
				<path class="st10" d="M1369.3,298.5c-0.3-0.3-1.1-1.2-2.2-1.5c-1-0.4-2.4-0.3-2.3-0.3c0,0.1,0.9-0.9,2.4-1.1
					c1.4-0.3,3.2,0.2,3.8,0.8c1.3,1,1.3,2.6,0.6,2.9C1370.9,299.5,1370,299,1369.3,298.5z"/>
				<path class="st10" d="M1366.4,292c0,0.4,0.3,1.6-0.1,2.7c-0.3,1.1-1.2,2.1-1.2,2c-0.1,0,1.3-0.2,2.3-1.2
					c1.1-0.9,1.8-2.7,1.7-3.5c0-1.7-1.3-2.7-1.9-2.2C1366.5,290.1,1366.4,291.1,1366.4,292z"/>
				<path class="st10" d="M1389.4,327.8c-0.3-0.3-1.1-1.2-2.2-1.5c-1-0.4-2.4-0.3-2.3-0.3c0,0.1,0.9-0.9,2.4-1.1
					c1.4-0.3,3.2,0.2,3.8,0.8c1.3,1,1.3,2.6,0.6,2.9C1390.9,328.8,1390.1,328.3,1389.4,327.8z"/>
				<path class="st10" d="M1385.8,321.2c0,0.4,0.4,1.5,0.1,2.7c-0.2,1.1-1,2.2-1,2.1c-0.1,0,1.3-0.3,2.2-1.4c1-1,1.6-2.8,1.4-3.6
					c-0.2-1.7-1.5-2.5-2.1-2.1C1385.8,319.3,1385.8,320.3,1385.8,321.2z"/>
			</g>
			<path class="st10" d="M1383.4,364.3c-4.2,0.4-8.3,1.2-12.4,2.2c-7.4,2-14.6,4.8-21.6,7.9c-3.5,1.5-6.9,3-10.3,4.6
				c-1.6,0.8-3.2,1.5-4.6,2.5c-2,1.3-5,4-5.4,4.4l1.6,0c1.1-0.9,5.2-4.3,10.8-7c13.3-6.4,27.2-13,42-14.6
				C1383.5,364.4,1383.5,364.3,1383.4,364.3z"/>
		</g>
	</g>
</g>
</svg>
