<svg width="217" height="244" viewBox="0 0 217 244" fill="none" xmlns="http://www.w3.org/2000/svg">
<path d="M108 83.2C130.897 83.2 149.458 64.575 149.458 41.6C149.458 18.625 130.897 0 108 0C85.1031 0 66.5415 18.625 66.5415 41.6C66.5415 64.575 85.1031 83.2 108 83.2Z" fill="#C8E7FA"/>
<path d="M118.476 233.38C64.0512 239.159 15.3214 199.789 9.59708 145.213C5.89313 109.899 21.1451 75.2773 49.7072 54.3911C51.2144 53.3294 53.4048 53.6379 54.4625 55.1487C55.5202 56.6594 55.211 58.8563 53.7038 59.918C12.6254 90.0681 3.55906 147.657 33.5949 188.832C63.6308 230.006 121.05 239.058 162.129 208.908C203.207 178.758 212.273 121.169 182.238 79.9945C177.005 72.9758 170.94 66.5865 163.901 61.2023C162.347 60.1049 162.104 57.7864 163.218 56.4057C164.313 54.8467 166.626 54.6012 168.002 55.7175C200.089 80.4436 214.005 122.248 202.993 161.288C192.375 200.647 158.673 229.113 118.476 233.38Z" fill="#0F6AA5"/>
<g clip-path="url(#clip0_68_215)">
<path d="M114.296 45.8689C114.296 45.7973 114.296 45.7973 114.224 45.7256C107.564 45.7256 100.903 45.7256 94.2419 45.7256C94.2419 45.1527 94.2419 44.5797 94.2419 44.0067C94.4568 44.0067 94.6717 44.0067 94.8865 44.0067C101.762 44.0067 108.71 44.0067 115.585 44.0067C115.8 44.0067 116.015 44.0067 116.158 43.9351C116.731 43.4338 117.232 42.9324 117.734 42.4311C117.734 42.3594 117.662 42.3594 117.662 42.2878C109.855 42.2878 102.049 42.2878 94.2419 42.2878C94.2419 41.7148 94.2419 41.1419 94.2419 40.5689C94.4568 40.5689 94.6717 40.5689 94.8865 40.5689C102.908 40.5689 110.93 40.5689 118.951 40.5689C119.381 40.5689 119.668 40.4256 119.954 40.1392C120.957 39.1365 121.96 38.1338 122.962 37.1311C123.177 36.9162 123.32 36.6297 123.32 36.2716C123.32 33.3351 123.32 30.327 123.32 27.3905C123.32 27.2473 123.32 27.0324 123.32 26.8892C112.505 26.8892 101.691 26.8892 90.8757 26.8892C90.8757 39.9959 90.8757 53.0311 90.8757 66.1378C101.691 66.1378 112.505 66.1378 123.32 66.1378C123.32 60.05 123.32 53.9621 123.32 47.7311C120.742 50.3094 118.235 52.7446 115.8 55.2513C114.941 56.1108 114.01 56.827 112.864 57.3283C111.789 57.8297 110.787 58.331 109.784 58.904C109.139 59.2621 108.566 59.5486 107.993 58.6892C107.277 59.4054 106.704 60.05 106.131 60.6229C105.701 60.2648 105.272 59.8351 104.842 59.4054C105.487 58.7608 106.131 58.1878 106.847 57.5432C106.203 56.9702 106.274 56.4689 106.632 55.8243C107.42 54.3919 108.065 52.9594 108.781 51.4554C108.924 51.1689 109.139 50.8824 109.426 50.5959C111.001 49.2351 112.649 47.5878 114.296 45.8689Z" fill="white"/>
<path d="M125.039 26.8892C125.039 29.6108 125.039 32.3324 125.039 35.1257C125.254 34.9824 125.326 34.8392 125.469 34.6959C127.116 33.0486 128.692 31.4014 130.339 29.8257C132.488 27.7486 135.926 28.6081 136.785 31.473C137.143 32.6189 136.928 33.6216 136.355 34.6243C136.212 34.8392 136.141 35.1973 136.069 35.4838C135.782 38.85 134.493 41.7865 132.13 44.15C130.912 45.3676 129.766 46.5135 128.549 47.7311C128.405 47.8743 128.334 47.9459 128.191 48.0892C127.832 47.6595 127.474 47.3014 127.045 46.8716C127.116 46.8 127.259 46.6568 127.403 46.5135C128.907 44.9378 130.482 43.4338 131.986 41.7865C133.061 40.5689 133.705 39.1365 134.064 37.5608C134.064 37.4176 134.064 37.3459 134.135 37.1311C133.92 37.2743 133.777 37.4176 133.705 37.5608C130.912 40.3541 128.191 43.0757 125.397 45.8689C125.182 46.0838 125.039 46.3703 125.039 46.7284C125.039 53.4608 125.039 60.1932 125.039 66.8541C125.039 67.8568 124.824 68.0716 123.822 68.0716C112.649 68 101.476 68 90.3027 68C89.3716 68 89.0851 67.7135 89.0851 66.7824C89.0851 66.1378 89.0851 65.4216 89.0851 64.777C89.0851 64.777 89.0851 64.7054 89.0851 64.6338C88.9419 64.6338 88.727 64.6338 88.5838 64.6338C87.3662 64.6338 86.1486 64.6338 84.9311 64.6338C84.2865 64.6338 84 64.2757 84 63.7027C84 63.6311 84 63.5595 84 63.4878C84 49.3784 84 35.3405 84 21.2311C84 18.2946 85.7905 15.9311 88.5838 15.2865C89.0135 15.0716 89.5149 15 89.9446 15C101.404 15 112.792 15 124.251 15C127.689 15 130.268 17.7932 130.196 21.2311C130.124 23.7378 128.262 26.1014 125.827 26.7459C125.541 26.8176 125.326 26.8892 125.039 26.8892ZM114.296 45.8689C114.296 45.7973 114.296 45.7973 114.224 45.7257C107.564 45.7257 100.903 45.7257 94.2419 45.7257C94.2419 45.1527 94.2419 44.5797 94.2419 44.0068C94.4568 44.0068 94.6716 44.0068 94.8865 44.0068C101.762 44.0068 108.709 44.0068 115.585 44.0068C115.8 44.0068 116.015 44.0068 116.158 43.9351C116.731 43.4338 117.232 42.9324 117.734 42.4311C117.734 42.3595 117.662 42.3595 117.662 42.2878C109.855 42.2878 102.049 42.2878 94.2419 42.2878C94.2419 41.7149 94.2419 41.1419 94.2419 40.5689C94.4568 40.5689 94.6716 40.5689 94.8865 40.5689C102.908 40.5689 110.93 40.5689 118.951 40.5689C119.381 40.5689 119.668 40.4257 119.954 40.1392C120.957 39.1365 121.959 38.1338 122.962 37.1311C123.177 36.9162 123.32 36.6297 123.32 36.2716C123.32 33.3351 123.32 30.327 123.32 27.3905C123.32 27.2473 123.32 27.0324 123.32 26.8892C112.505 26.8892 101.691 26.8892 90.8757 26.8892C90.8757 39.9959 90.8757 53.0311 90.8757 66.1378C101.691 66.1378 112.505 66.1378 123.32 66.1378C123.32 60.05 123.32 53.9622 123.32 47.7311C120.742 50.3095 118.235 52.7446 115.8 55.2514C114.941 56.1108 114.009 56.827 112.864 57.3284C111.789 57.8297 110.786 58.3311 109.784 58.9041C109.139 59.2622 108.566 59.5486 107.993 58.6892C107.277 59.4054 106.704 60.05 106.131 60.623C105.701 60.2649 105.272 59.8351 104.842 59.4054C105.486 58.7608 106.131 58.1878 106.847 57.5432C106.203 56.9703 106.274 56.4689 106.632 55.8243C107.42 54.3919 108.065 52.9595 108.781 51.4554C108.924 51.1689 109.139 50.8824 109.426 50.5959C111.001 49.2351 112.649 47.5878 114.296 45.8689ZM94.2419 25.2419C94.3851 25.2419 94.5284 25.2419 94.6716 25.2419C104.484 25.2419 114.296 25.2419 124.036 25.2419C124.466 25.2419 124.896 25.1703 125.326 25.0986C127.331 24.5257 128.692 22.5203 128.405 20.5149C128.119 18.2946 126.328 16.7905 124.108 16.7905C114.296 16.7905 104.412 16.7905 94.6 16.7905C94.4568 16.7905 94.3851 16.7905 94.2419 16.7905C96.6054 20.0135 96.6054 21.5176 94.2419 25.2419ZM94.1703 20.1568C93.8122 18.223 92.1649 16.7905 90.2311 16.7189C87.6527 16.5757 85.7189 18.5095 85.7189 21.1595C85.7189 34.9108 85.7189 48.5905 85.7189 62.3419C85.7189 62.4851 85.7189 62.7 85.7189 62.8432C86.8649 62.8432 88.0108 62.8432 89.0851 62.8432C89.0851 62.5568 89.0851 62.3419 89.0851 62.127C89.0851 49.0203 89.0851 35.9851 89.0851 22.8784C89.0851 21.1595 90.1595 20.0851 91.8784 20.0851C92.6662 20.1568 93.3824 20.1568 94.1703 20.1568ZM116.516 46.2986C114.654 48.1608 112.792 50.023 111.073 51.7419C112.004 52.673 113.007 53.6757 113.938 54.6068C115.728 52.8162 117.591 50.9541 119.381 49.1635C118.45 48.2324 117.447 47.2297 116.516 46.2986ZM118.522 45.7973C122.103 42.2162 125.684 38.6351 129.193 35.1257C128.978 34.8392 128.692 34.5527 128.477 34.3378C124.896 37.9189 121.315 41.5 117.805 45.0095C118.092 45.2243 118.307 45.5108 118.522 45.7973ZM130.697 36.4149C127.116 39.9959 123.535 43.577 120.026 47.0865C120.241 47.3014 120.527 47.5878 120.742 47.8027C124.323 44.2216 127.832 40.7122 131.414 37.1311C131.199 36.9162 130.912 36.6297 130.697 36.4149ZM132.774 35.9851C133.419 35.3405 134.135 34.6959 134.708 34.0514C135.424 33.2635 135.424 32.0459 134.78 31.1865C134.064 30.327 132.846 30.1122 131.986 30.7568C131.127 31.4014 130.411 32.1892 129.695 32.9054C130.769 33.9081 131.772 34.9108 132.774 35.9851ZM108.136 56.7554C108.351 56.9703 108.566 57.1851 108.853 57.4C108.924 57.4716 109.068 57.5432 109.139 57.4716C110.285 56.8986 111.359 56.3973 112.362 55.8959C111.503 55.0365 110.643 54.177 109.855 53.3892C109.282 54.4635 108.709 55.6095 108.136 56.7554ZM94.1703 21.8757C93.3108 21.8757 92.523 21.8757 91.7351 21.8757C91.2338 21.8757 90.9473 22.1622 90.8757 22.5919C90.8041 23.4514 90.8757 24.3108 90.8757 25.1703C92.523 24.8122 93.8838 23.523 94.1703 21.8757Z" fill="#0F6AA5"/>
<path d="M119.882 30.3987C119.882 30.9717 119.882 31.473 119.882 32.046C111.359 32.046 102.836 32.046 94.3135 32.046C94.3135 31.473 94.3135 30.9717 94.3135 30.3987C102.836 30.3987 111.359 30.3987 119.882 30.3987Z" fill="#0F6AA5"/>
<path d="M94.3135 33.8364C102.836 33.8364 111.359 33.8364 119.882 33.8364C119.882 34.4094 119.882 34.9108 119.882 35.4837C111.359 35.4837 102.836 35.4837 94.3135 35.4837C94.3135 34.9824 94.3135 34.4094 94.3135 33.8364Z" fill="#0F6AA5"/>
<path d="M119.882 37.2743C119.882 37.8473 119.882 38.3486 119.882 38.9216C111.359 38.9216 102.836 38.9216 94.3135 38.9216C94.3135 38.3486 94.3135 37.8473 94.3135 37.2743C102.836 37.2743 111.288 37.2743 119.882 37.2743Z" fill="#0F6AA5"/>
<path d="M94.3135 62.8432C94.3135 62.2702 94.3135 61.7689 94.3135 61.1959C102.836 61.1959 111.359 61.1959 119.882 61.1959C119.882 61.6973 119.882 62.2702 119.882 62.8432C111.359 62.8432 102.836 62.8432 94.3135 62.8432Z" fill="#0F6AA5"/>
<path d="M103.624 59.477C100.545 59.477 97.3932 59.477 94.3135 59.477C94.3135 58.9757 94.3135 58.4027 94.3135 57.8297C97.3932 57.8297 100.545 57.8297 103.624 57.8297C103.624 58.3311 103.624 58.8324 103.624 59.477Z" fill="#0F6AA5"/>
<path d="M94.2419 25.2419C94.3852 25.2419 94.5284 25.2419 94.6717 25.2419C104.484 25.2419 114.296 25.2419 124.037 25.2419C124.466 25.2419 124.896 25.1703 125.326 25.0986C127.331 24.5257 128.692 22.5203 128.405 20.5149C128.119 18.2946 126.328 16.7905 124.108 16.7905C114.296 16.7905 104.412 16.7905 94.6001 16.7905C94.4568 16.7905 94.3852 16.7905 94.2419 16.7905C96.5338 20.0135 96.5338 21.5176 94.2419 25.2419Z" fill="#7DC8EF"/>
<path d="M94.0987 20.1568C93.7406 18.223 92.0933 16.7905 90.1595 16.7189C87.6528 16.6473 85.719 18.5095 85.719 21.1595C85.719 34.9108 85.719 48.5905 85.719 62.3419C85.719 62.4851 85.719 62.7 85.719 62.8432C86.8649 62.8432 88.0109 62.8432 89.0852 62.8432C89.0852 62.5568 89.0852 62.3419 89.0852 62.127C89.0852 49.0203 89.0852 35.9851 89.0852 22.8784C89.0852 21.1595 90.1595 20.0851 91.8785 20.0851C92.6663 20.1568 93.3825 20.1568 94.0987 20.1568Z" fill="#7DC8EF"/>
<path d="M116.516 46.3704C114.654 48.2325 112.792 50.0947 111.073 51.8136C112.004 52.7447 113.007 53.7474 113.938 54.6785C115.728 52.8879 117.591 51.0258 119.381 49.2352C118.45 48.3041 117.447 47.3014 116.516 46.3704Z" fill="white"/>
<path d="M118.522 45.7973C122.103 42.2163 125.684 38.6352 129.193 35.1257C128.978 34.8392 128.692 34.5528 128.477 34.3379C124.896 37.919 121.315 41.5001 117.805 45.0095C118.092 45.296 118.307 45.5825 118.522 45.7973Z" fill="white"/>
<path d="M130.697 36.4866C127.116 40.0677 123.535 43.6487 120.026 47.1582C120.24 47.3731 120.527 47.6595 120.742 47.8744C124.323 44.2933 127.832 40.7839 131.413 37.2028C131.199 36.9879 130.912 36.7014 130.697 36.4866Z" fill="white"/>
<path d="M132.774 36.0568C133.419 35.4122 134.135 34.7676 134.708 34.123C135.424 33.3352 135.424 32.1176 134.78 31.2581C134.064 30.3987 132.846 30.1838 131.986 30.8284C131.127 31.473 130.411 32.2608 129.695 32.9771C130.769 33.9798 131.772 34.9825 132.774 36.0568Z" fill="#7DC8EF"/>
<path d="M108.136 56.827C108.351 57.0419 108.566 57.2568 108.853 57.4716C108.924 57.5432 109.068 57.6149 109.139 57.5432C110.285 56.9703 111.359 56.4689 112.362 55.9676C111.503 55.1081 110.643 54.2487 109.855 53.4608C109.282 54.4635 108.709 55.6095 108.136 56.827Z" fill="#7DC8EF"/>
<path d="M94.1702 21.8757C93.3107 21.8757 92.5229 21.8757 91.735 21.8757C91.2337 21.8757 90.9472 22.1622 90.8756 22.5919C90.804 23.4514 90.8756 24.3109 90.8756 25.1703C92.5229 24.8122 93.8837 23.523 94.1702 21.8757Z" fill="#0F6AA5"/>
</g>
<defs>
<clipPath id="clip0_68_215">
<rect width="53" height="53" fill="white" transform="translate(84 15)"/>
</clipPath>
</defs>
</svg>
