<svg id="圖層_1" data-name="圖層 1" xmlns="http://www.w3.org/2000/svg" viewBox="0 0 452.41 267.4"><defs><style>.cls-1{fill:#e4f3fc;}.cls-2{fill:#ffc900;}.cls-3{fill:#96d9c9;}.cls-4{fill:#52bca2;}.cls-5{fill:#4f374a;}.cls-6{fill:#6fadc4;}.cls-7{fill:#f4dab0;}.cls-8{fill:#7e4520;}.cls-9{fill:#402f42;}.cls-10{fill:#c8ebfc;}.cls-11,.cls-15{fill:#fff;}.cls-12{fill:#f47458;}.cls-13{fill:#bfe4f0;}.cls-14{fill:#ad4537;}.cls-15{opacity:0.2;}.cls-16,.cls-20{opacity:0.1;}.cls-17{fill:#375a64;}.cls-18{fill:#1a2e35;}.cls-19{fill:#2b454e;}.cls-21{fill:#ececec;}.cls-22{fill:#dcdcdc;}.cls-23{fill:#a8a8a8;}.cls-24{opacity:0.5;}</style></defs><circle class="cls-1" cx="139.47" cy="155.54" r="92.57"/><circle class="cls-1" cx="292.05" cy="124.59" r="124.59"/><ellipse id="Floor" class="cls-1" cx="226.21" cy="212.76" rx="226.21" ry="54.65"/><polyline class="cls-2" points="151.72 142.71 170.34 102.07 181.25 103.7 151.72 142.71"/><polyline class="cls-2" points="162.5 138.29 195.59 99.85 205.17 98.4 203.51 103.44 196.89 110.35 162.5 138.29"/><polyline class="cls-2" points="144.08 156.41 202 119.2 201.52 137.21 144.08 156.41"/><path class="cls-3" d="M354,199c3.06-4,21.13-26.22,32.06-29.78,12.07-3.92.69,11.65.69,11.65s21.41-23.49,29.27-21.37c7.2,1.94,0,16.5,0,16.5s8.11-8.06,17.95-8.06c9.57,0-7,29.53-7.83,31.06Z"/><path class="cls-4" d="M428.8,183.15a5.73,5.73,0,0,1,.2,2.49,4.46,4.46,0,0,1-.9,2,4.85,4.85,0,0,0,2-1.41,4.73,4.73,0,0,0,1.2-3.44c-.21-1.57-1.5-2.33-2-1.87A2.58,2.58,0,0,0,428.8,183.15Z"/><path class="cls-4" d="M420.93,186a5.69,5.69,0,0,1,.2,2.49,4.4,4.4,0,0,1-.9,2,5,5,0,0,0,3.22-4.85c-.21-1.56-1.5-2.32-2-1.86S420.85,185.16,420.93,186Z"/><path class="cls-4" d="M412.93,189.55a5.85,5.85,0,0,1,.21,2.49,4.58,4.58,0,0,1-.9,2,4.8,4.8,0,0,0,2-1.41,4.73,4.73,0,0,0,1.2-3.44c-.21-1.56-1.51-2.32-2-1.87A2.58,2.58,0,0,0,412.93,189.55Z"/><path class="cls-4" d="M431.15,190.53a5.27,5.27,0,0,0-1.24-1.95,4.11,4.11,0,0,0-1.78-1,4.48,4.48,0,0,1,2.27-.1,4.37,4.37,0,0,1,2.8,1.87c.71,1.27.18,2.55-.47,2.52S431.54,191.17,431.15,190.53Z"/><path class="cls-4" d="M423,193.43a5.37,5.37,0,0,0-1.23-2,4.19,4.19,0,0,0-1.79-1,4.47,4.47,0,0,1,2.28-.09,4.34,4.34,0,0,1,2.79,1.86c.72,1.27.18,2.56-.46,2.52S423.35,194.08,423,193.43Z"/><path class="cls-4" d="M436.44,183.67a3.62,3.62,0,0,1-.33,1.45,2.59,2.59,0,0,1-.87,1,2.9,2.9,0,0,0,1.4-.44,2.79,2.79,0,0,0,1.29-1.73c.15-.92-.45-1.58-.83-1.42S436.53,183.2,436.44,183.67Z"/><path class="cls-4" d="M437.72,187.37a3.48,3.48,0,0,0-1-1.07,2.5,2.5,0,0,0-1.25-.37,2.78,2.78,0,0,1,1.41-.36,2.73,2.73,0,0,1,2,.8c.62.7.45,1.58,0,1.64S438.05,187.72,437.72,187.37Z"/><path class="cls-4" d="M419.54,152.62A148.49,148.49,0,0,0,400.66,199h-.94a150.93,150.93,0,0,1,19.15-46.11c2-3.19,4.22-7,8-8.2.07,0,.1.08,0,.11C423.45,146.06,421.44,149.64,419.54,152.62Z"/><path class="cls-4" d="M402.43,199a181.9,181.9,0,0,1,36.22-37c.15-.11.34.14.19.25A179.85,179.85,0,0,0,403.38,199Z"/><path class="cls-4" d="M420.34,144.12a6.2,6.2,0,0,1,1.34,2.33,4.82,4.82,0,0,1,0,2.39,5.22,5.22,0,0,0,1.33-2.31,5.12,5.12,0,0,0-.4-3.91c-.93-1.43-2.54-1.58-2.85-.88S419.89,143.36,420.34,144.12Z"/><path class="cls-4" d="M422.43,156.35a6.31,6.31,0,0,0-2.3-1.39,4.84,4.84,0,0,0-2.38-.09,5.26,5.26,0,0,1,2.33-1.29,5.07,5.07,0,0,1,3.89.49c1.41,1,1.52,2.57.82,2.87S423.18,156.82,422.43,156.35Z"/><path class="cls-4" d="M419.27,161.71a6.22,6.22,0,0,0-2.3-1.39,4.84,4.84,0,0,0-2.38-.09,5.35,5.35,0,0,1,2.33-1.28,5,5,0,0,1,3.89.48c1.41.95,1.52,2.57.82,2.87S420,162.18,419.27,161.71Z"/><path class="cls-4" d="M430.54,174.15a6.37,6.37,0,0,0-2.31-1.39,4.8,4.8,0,0,0-2.37-.09,5.26,5.26,0,0,1,2.32-1.29,5.09,5.09,0,0,1,3.9.49c1.4.95,1.51,2.57.82,2.87S431.28,174.62,430.54,174.15Z"/><path class="cls-4" d="M436.29,169.07a6.08,6.08,0,0,0-2.3-1.4,4.84,4.84,0,0,0-2.38-.09,5.35,5.35,0,0,1,2.33-1.28,5,5,0,0,1,3.89.48c1.41,1,1.52,2.58.82,2.88S437,169.53,436.29,169.07Z"/><path class="cls-4" d="M415.92,150.18a6.46,6.46,0,0,1,1.69,2.1,4.87,4.87,0,0,1,.42,2.35,5.27,5.27,0,0,0,1-2.49,5.08,5.08,0,0,0-1-3.8c-1.13-1.27-2.75-1.15-2.95-.42S415.35,149.51,415.92,150.18Z"/><path class="cls-4" d="M411.28,156.27a5.33,5.33,0,0,1,2.44,1.61,4.13,4.13,0,0,1,.82,2.44,6.86,6.86,0,0,0,.93-3.19c.1-1.68-.9-3.47-1.77-3.81-1.63-.92-3.71-.09-3.88.81S410.46,155.76,411.28,156.27Z"/><path class="cls-4" d="M406.39,165.48a5.46,5.46,0,0,1,2.68,1.17,4.2,4.2,0,0,1,1.22,2.27,7,7,0,0,0,.38-3.3c-.19-1.67-1.47-3.27-2.39-3.45-1.75-.63-3.66.53-3.68,1.45S405.5,165.11,406.39,165.48Z"/><path class="cls-4" d="M420.85,171.89a4.42,4.42,0,0,1,1.9,1.45,3.41,3.41,0,0,1,.53,2,5.52,5.52,0,0,0,.93-2.54,3.45,3.45,0,0,0-1.22-3.2c-1.27-.84-3-.29-3.2.43S420.22,171.43,420.85,171.89Z"/><path class="cls-4" d="M428.38,146.27a3.6,3.6,0,0,0-1.3-.92,2.87,2.87,0,0,0-1.4-.16,3.13,3.13,0,0,1,1.43-.66,3,3,0,0,1,2.28.46c.79.62.79,1.59.36,1.74S428.8,146.58,428.38,146.27Z"/><path class="cls-4" d="M426.63,142.36a3.75,3.75,0,0,1-.07,1.6,2.88,2.88,0,0,1-.73,1.21,3.19,3.19,0,0,0,1.4-.74,3,3,0,0,0,1-2.09c0-1-.78-1.6-1.15-1.35S426.64,141.83,426.63,142.36Z"/><path class="cls-4" d="M440.44,163.88a3.8,3.8,0,0,0-1.3-.92,2.9,2.9,0,0,0-1.41-.16,3.13,3.13,0,0,1,1.44-.66,3,3,0,0,1,2.28.46c.79.63.78,1.59.36,1.74S440.86,164.19,440.44,163.88Z"/><path class="cls-4" d="M438.32,159.94a3.75,3.75,0,0,1,.07,1.59,2.91,2.91,0,0,1-.63,1.27,3.09,3.09,0,0,0,1.33-.85,3,3,0,0,0,.85-2.17c-.09-1-.9-1.52-1.25-1.25A1.65,1.65,0,0,0,438.32,159.94Z"/><path class="cls-4" d="M436.84,185.86a45,45,0,0,0-7.46,1.33,90.17,90.17,0,0,0-13,4.75c-2.07.91-4.16,1.8-6.2,2.79a22.17,22.17,0,0,0-2.79,1.53,31.44,31.44,0,0,0-3.26,2.66l1,0a32.19,32.19,0,0,1,6.48-4.22c8-3.86,16.33-7.82,25.26-8.8A0,0,0,1,0,436.84,185.86Z"/><path class="cls-5" d="M123.23,228.58a6.25,6.25,0,0,1-8.62-1.91l-1.46-2.31L99.49,202.84v0l-1.11-18.28L92,204.47l5.63,27.95a7.13,7.13,0,1,1-14,2.81l-.62-3-5.72-28.57v0l8.79-27.49.4-1.18.37-1.2.07-.19,2.29-7.16c6.24,2,13.66,2.22,19.88,2.45,1,.05,2.47.21,4.17.31l-2.43,14.58.9,15.14L125.16,220a6.23,6.23,0,0,1-1.93,8.62"/><path class="cls-6" d="M152,116.44a6.31,6.31,0,0,1-.36,2.1v0a6.5,6.5,0,0,1-2.19,2.93l-24.16,17.8-12,29.87c-1.7-.1-3.19-.26-4.17-.31-6.22-.23-13.64-.49-19.88-2.45L101,129.77,99.72,127,91,107.14l2.17-16,.89-6.65a6.13,6.13,0,0,1,2.33-4.1A6.26,6.26,0,0,1,106,82.84a5.83,5.83,0,0,1,.52,2.44l-.07.9-2.57,19.13,8.2,18.63v0l0,.11,0,.07.1.19c1,2.08,2.24,3.48,4.64,3.91,1.76.29,5.84.11,5.7-2.54L125,124l6-4.43.14-.07.21-.2.57-.39,10.15-7.49A5.94,5.94,0,0,1,146,110.2h0a6.22,6.22,0,0,1,4.82,2.52,6.33,6.33,0,0,1,1.21,3.72Z"/><path class="cls-7" d="M131.59,115.66a11.32,11.32,0,0,1-3.48,5.21l-.55.4-.23.16-.12.1a10.35,10.35,0,0,1-3.42,1.58l-1.15,2.59c.14,2.65-3.94,2.83-5.7,2.54-2.4-.43-3.65-1.83-4.64-3.91l-.1-.19,0-.07,0-.09,1.51-3a11.32,11.32,0,1,1,17.88-5.37Z"/><path class="cls-8" d="M135.53,112.14c.37,1.43,0,1.59-.93,2.7-1,1.38-2.26,3.36-3.59,4.21-1.58,1-2.4,1.86-4.17,1.58s-4.48-3.08-5.07-5c1-.35,1.62-.14,2.5-.8a2.87,2.87,0,0,0,1.25-2.07,2.37,2.37,0,0,0-3.82-2c-3,.51-3.5-2.36-4.47-3.4s0-4.23-1.07-5.42c1.63-2.43,2.5-4.27,5.58-4.44,1.32-.07,2.43,1.62,3.7,1.92s2,1.3,3,2.17c3.08,2.69,6,6.57,7.06,10.59Z"/><path class="cls-7" d="M156.53,113a5.59,5.59,0,0,1-4.85,5.56,6.32,6.32,0,0,0-.85-5.82A6.22,6.22,0,0,0,146,110.2a5.54,5.54,0,0,1,4.89-2.88,5.64,5.64,0,0,1,5.63,5.66Z"/><path class="cls-7" d="M108.06,78.37a5.94,5.94,0,0,1-2,4.47,6.26,6.26,0,0,0-9.61-2.46,5.74,5.74,0,0,1-.35-2,6,6,0,0,1,12,0Z"/><path class="cls-9" d="M106.94,213.19c.21-.49.38-.8.38-.8l.14-.19-.14.23a7.06,7.06,0,0,0-.38.76"/><polyline class="cls-10" points="64.02 195.07 54.3 195.07 54.3 73.23 64.02 73.23 64.02 195.07"/><path class="cls-11" d="M89.18,83.52l-13.25,25a3.64,3.64,0,0,1-3,2.06l-27.27.58a3.65,3.65,0,0,1-3.13-2L36,97.35,28.49,83.81a4.06,4.06,0,0,1,0-3.86l14-25.44a3.58,3.58,0,0,1,3.13-1.9L72.93,53a3.53,3.53,0,0,1,3,1.94l5.2,9.76,8.05,15.1a4,4,0,0,1,0,3.7Z"/><path class="cls-12" d="M87.22,81.05,74,56.23a1.17,1.17,0,0,0-1-.61l-27.27-.37a1.17,1.17,0,0,0-1.06.6l-14,25.36a1.34,1.34,0,0,0,0,1.29l14,25.37a1.28,1.28,0,0,0,1.06.69L72.93,108a1.28,1.28,0,0,0,1-.72l13.27-25a1.38,1.38,0,0,0,0-1.28Z"/><path class="cls-11" d="M44.62,82.54a6.47,6.47,0,0,0-2.33-1.71,17,17,0,0,1-1.64-.89,1.73,1.73,0,0,1-.5-.52,1.18,1.18,0,0,1-.16-.63,1.21,1.21,0,0,1,.39-.93,1.61,1.61,0,0,1,1.13-.36,4.93,4.93,0,0,1,1.25.16,12,12,0,0,1,1.61.59l.83-2.11a12.08,12.08,0,0,0-1.8-.66,6.7,6.7,0,0,0-1.81-.24,4.4,4.4,0,0,0-3,1,3.4,3.4,0,0,0-1.1,2.67,3.54,3.54,0,0,0,.33,1.58,4,4,0,0,0,.9,1.19,7.35,7.35,0,0,0,1.68,1,16.93,16.93,0,0,1,1.58.86,2.4,2.4,0,0,1,.58.56,1.32,1.32,0,0,1-.25,1.69,2.15,2.15,0,0,1-1.31.35,5.31,5.31,0,0,1-1.49-.23,5.57,5.57,0,0,1-2-.8v2.53a6.46,6.46,0,0,0,3.39.74,4.92,4.92,0,0,0,3.27-1,3.4,3.4,0,0,0,1.16-2.73,3.48,3.48,0,0,0-.65-2.11Z"/><polygon class="cls-11" points="46.66 75.29 46.66 77.56 50.34 77.56 50.34 88.49 53.28 88.47 53.28 77.55 56.6 77.55 56.6 75.3 46.66 75.29 46.66 75.29"/><path class="cls-11" d="M64,86a2.52,2.52,0,0,1-2.25-1.06A5.45,5.45,0,0,1,61,81.75a5.51,5.51,0,0,1,.77-3.2A2.58,2.58,0,0,1,64,77.47q3,0,3,4.26T64,86Zm4.18-9.07A5.21,5.21,0,0,0,64,75.24a5.35,5.35,0,0,0-4.21,1.67,7.13,7.13,0,0,0-1.46,4.83,7.13,7.13,0,0,0,1.46,4.84A5.23,5.23,0,0,0,64,88.24a5.24,5.24,0,0,0,4.17-1.71,7.16,7.16,0,0,0,1.45-4.81,7.13,7.13,0,0,0-1.44-4.8Z"/><path class="cls-11" d="M77.86,81a2.67,2.67,0,0,1-1.71.63h-.77V77.55h1.08A2.16,2.16,0,0,1,78,78a2,2,0,0,1,.47,1.47,1.93,1.93,0,0,1-.56,1.5Zm2-4.56a4.27,4.27,0,0,0-2.66-1c-.18,0-.45-.09-.64-.09H72.8v13h2.58V83.49h1a4.8,4.8,0,0,0,3.34-1.06,4,4,0,0,0,1.17-3.08,3.67,3.67,0,0,0-1.1-2.9Z"/><path class="cls-10" d="M322.14,29.8a4.17,4.17,0,0,0-1.3-2.95,4.12,4.12,0,0,0-3-1.14l-90.2,2.88a4.16,4.16,0,0,0-4,4.29l4.45,149.38a4.17,4.17,0,0,0,4.2,4l88.39-.86a4.17,4.17,0,0,0,4.12-4.23L322.14,29.8"/><path class="cls-1" d="M313.07,46.86h0l-80.55-.09a1.63,1.63,0,0,1-1.44-1.59L231,38.07a1.37,1.37,0,0,1,1.4-1.34h80.33a1.45,1.45,0,0,1,1.48,1.35l.25,7.18a1.56,1.56,0,0,1-1.39,1.6"/><path class="cls-1" d="M313.6,62.43h0l-80.9-.22a1.51,1.51,0,0,1-1.44-1.47l-.08-7.16a1.49,1.49,0,0,1,1.4-1.5h0l80.67.14a1.61,1.61,0,0,1,1.5,1.51L315,61a1.42,1.42,0,0,1-1.39,1.47"/><path class="cls-1" d="M314.13,78.14h0l-54.87-.25a16.31,16.31,0,0,1,2.32-2.15.51.51,0,0,0,.13-.71.51.51,0,0,0-.71-.13,19.28,19.28,0,0,0-3.14,3l-25-.11a1.38,1.38,0,0,1-1.44-1.33l-.08-7.23c0-.75.62-1.11,1.41-1.11h0l81,.27c.81,0,1.47.38,1.49,1.14l.25,7.29a1.32,1.32,0,0,1-1.4,1.34"/><path class="cls-1" d="M312.19,94,250,93.58a58.84,58.84,0,0,1,4.79-9.76l59.52.31a1.41,1.41,0,0,1,1.51,1.29l.17,5h-1.45c-1.15,0-2.36.59-2.36,1.31V94m-63.27-.39L233,93.47a1.28,1.28,0,0,1-1.45-1.19l-.08-7.3a1.3,1.3,0,0,1,1.41-1.27h0l20.65.11a59.67,59.67,0,0,0-4.66,9.75"/><path class="cls-1" d="M312.19,110.49,245.58,110a94.58,94.58,0,0,1,2.19-9.66l.21-.73,64.21.43v10.49M244.53,110l-11.31-.09a1.65,1.65,0,0,1-1.46-1.61l-.08-7.36a1.43,1.43,0,0,1,1.42-1.42h0l13.82.09c0,.11-.07.22-.1.33a99.05,99.05,0,0,0-2.3,10.06"/><path class="cls-1" d="M312.19,126.6l-68.35-.66c.19-3.78.5-7.27.91-10.49l67.44.58V126.6m-69.41-.67-9.38-.09a1.51,1.51,0,0,1-1.46-1.48l-.08-7.42a1.56,1.56,0,0,1,1.41-1.58h0l10.42.09c-.43,3.36-.73,6.86-.92,10.48"/><path class="cls-1" d="M312.19,142.86l-68.4-.78c-.14-3.53-.18-6.87-.14-10l68.54.7v10.11m-69.45-.79-9.16-.11a1.39,1.39,0,0,1-1.47-1.34l-.08-7.49c0-.77.63-1.19,1.42-1.19h0l9.12.1q0,3.22,0,6.59c0,1.14.06,2.28.11,3.44"/><path class="cls-1" d="M312.19,159.26l-67.12-.88c-.4-3.53-.71-6.9-.93-10.14l68.05.83v10.19m-68.17-.9-10.26-.13c-.8,0-1.46-.41-1.47-1.2l-.08-7.56a1.35,1.35,0,0,1,1.42-1.35h0l9.43.11c.23,3.3.55,6.68.94,10.13"/><path class="cls-1" d="M312.19,176.38,260,175.6a29.62,29.62,0,0,1,13.83-3.52l38.37-.17v4.47m-60.94-.91-3.72-.06q-1-5.61-1.68-10.81l66.34.92v5.38a19,19,0,0,0-5.4-.79h-.08l-38.59.18a22.07,22.07,0,0,0-6.92,1.15l-9.95,4m-4.76-.07L234,175.21a1.65,1.65,0,0,1-1.48-1.63l-.09-7.63a1.5,1.5,0,0,1,1.44-1.51h0l11,.15q.72,5.29,1.69,10.81"/><path class="cls-13" d="M381.34,82.81c0-.71-.95-1.28-2.08-1.28H310.77c-1.14,0-2.36.59-2.36,1.31V183.5a2,2,0,0,0,1.09,1.43,4.65,4.65,0,0,0,2.35.59l69.24-.12a4.43,4.43,0,0,0,2.31-.6,1.78,1.78,0,0,0,.93-1.46l-3-100.53"/><polyline class="cls-1" points="342 88.67 319.6 88.62 319.61 86.85 341.99 86.9 342 88.67"/><polyline class="cls-1" points="342.06 95.17 319.57 95.1 319.57 93.32 342.05 93.38 342.06 95.17"/><polyline class="cls-1" points="342.13 101.72 319.54 101.64 319.54 99.85 342.11 99.92 342.13 101.72"/><polyline class="cls-1" points="342.19 108.33 319.5 108.24 319.51 106.43 342.17 106.52 342.19 108.33"/><polyline class="cls-1" points="342.25 115 319.47 114.88 319.48 113.06 342.23 113.17 342.25 115"/><polyline class="cls-1" points="342.38 128.5 319.41 128.35 319.42 126.49 342.36 126.64 342.38 128.5"/><polyline class="cls-1" points="342.57 149.18 319.31 148.97 319.32 147.07 342.56 147.27 342.57 149.18"/><polyline class="cls-1" points="342.31 121.72 319.44 121.59 319.45 119.75 342.3 119.88 342.31 121.72"/><polyline class="cls-1" points="342.44 135.33 319.38 135.17 319.38 133.3 342.43 133.46 342.44 135.33"/><polyline class="cls-1" points="342.51 142.22 319.34 142.04 319.35 140.16 342.49 140.33 342.51 142.22"/><polyline class="cls-1" points="342.64 156.19 319.28 155.97 319.29 154.05 342.62 154.26 342.64 156.19"/><polyline class="cls-1" points="342.71 163.26 319.25 163.02 319.25 161.08 342.69 161.32 342.71 163.26"/><polyline class="cls-1" points="342.77 170.39 319.21 170.13 319.22 168.18 342.76 168.43 342.77 170.39"/><polyline class="cls-1" points="319.18 177.26 319.19 175.34 342.82 175.61 342.83 176.64 334.82 177.09 319.18 177.26"/><polyline class="cls-1" points="371.38 88.73 348.83 88.68 348.81 86.91 371.33 86.95 371.38 88.73"/><polyline class="cls-1" points="371.56 95.25 348.92 95.19 348.9 93.4 371.51 93.46 371.56 95.25"/><polyline class="cls-1" points="371.74 101.83 349.01 101.75 348.99 99.95 371.69 100.02 371.74 101.83"/><polyline class="cls-1" points="371.93 108.46 349.1 108.36 349.08 106.55 371.88 106.64 371.93 108.46"/><polyline class="cls-1" points="372.12 115.15 349.19 115.03 349.17 113.2 372.07 113.31 372.12 115.15"/><polyline class="cls-1" points="372.5 128.69 349.38 128.54 349.35 126.68 372.44 126.83 372.5 128.69"/><polyline class="cls-1" points="373.08 149.44 349.67 149.24 349.64 147.33 373.02 147.53 373.08 149.44"/><polyline class="cls-1" points="372.31 121.89 349.29 121.76 349.26 119.91 372.25 120.04 372.31 121.89"/><polyline class="cls-1" points="372.69 135.55 349.47 135.38 349.45 133.5 372.64 133.67 372.69 135.55"/><polyline class="cls-1" points="372.88 142.46 349.57 142.28 349.54 140.39 372.83 140.57 372.88 142.46"/><polyline class="cls-1" points="373.27 156.47 349.76 156.25 349.73 154.33 373.22 154.54 373.27 156.47"/><polyline class="cls-1" points="373.48 163.57 349.86 163.33 349.83 161.39 373.42 161.62 373.48 163.57"/><polyline class="cls-1" points="373.68 170.73 349.96 170.47 349.93 168.51 373.62 168.76 373.68 170.73"/><path class="cls-1" d="M373.88,178l-13.43-.16c-3.43-.66-7-1-10.41-1.3v-.8l23.79.27.06,2"/><path class="cls-14" d="M374,209.27l-62.68.3s6.73-29.31,31.2-29.43S372.94,202.74,374,209.27Z"/><path class="cls-14" d="M192.14,213.31l-62.69.3s6.73-29.32,31.21-29.44S191,206.77,192.14,213.31Z"/><path class="cls-12" d="M388.12,155.79c1.36,2.13,3.83,25.63,4,26.45s2.11,4.42,2.15,5.1.57,11.28.3,12a28.92,28.92,0,0,1-2.14,3.61c-.34.42-9.19,8.11-10.18,8.21s-10.19.22-10.36.05-1.37-28.45-29.25-28.32S315.18,213,314.66,213.14s-125.29,3.55-125.29,3.55c0-4.6-.52-32-27.87-31.83-17.81.09-26.07,14.82-26.33,25.66-.11,4.51.67,9.46.42,9.46a28.32,28.32,0,0,1-4.11,0c-.48-.2.37-3.92-.11-4.05s-3.84-.19-4.66-.39-6.77-6.54-6.88-6.75.48-15.91.47-16.56c0-.26,1.09-3.71,2.55-7.92.36-1,2.41-1.84,2.8-2.92,2.08-5.73,3.79-12.5,5.31-12.89.53-.13,4.85,2.7,5.45,2.35.9-.53,1.87-2.4,3.45-3.81.09-.08,2.6,0,2.69-.11s1.62-4.14,2-4.12c1,.08,4.06,2.21,4.69,2.16s2.34-3.45,2.4-3.46c1-.25,2.15-.27,3.27-.54,2.69-.64,11.44,1.92,12.78,1.81,2.31-.18,10.24-5.73,10.63-6,1-.72,49.18-28.65,57.57-30.73,6.78-1.67,85.39.21,89.51.4s15.51,2.19,16.61,2.18,13.72-.13,14.47.21,0,3.36-.94,3.91S385.77,152.09,388.12,155.79Z"/><path class="cls-15" d="M182.54,196s124.38-3.44,125.09-2.38-123.56,7.47-123.56,7.47Z"/><path class="cls-15" d="M388.12,155.79s-55.76,6.17-58.26,6.12-135.07,4.93-137.48,4.79-24.73-3.9-24.73-3.9c2.31-.17,10.24-5.73,10.62-6,1-.73,49.19-28.66,57.58-30.73,6.78-1.69,85.4.2,89.51.39s15.51,2.19,16.61,2.18,13.72-.13,14.47.21,0,3.36-.94,3.91S385.77,152.09,388.12,155.79Z"/><path class="cls-16" d="M156.29,167.52c0,.25-2.57,0-2.79,0s-4.3-2.49-4.3-2.49c.55-.05,2.34-3.45,2.4-3.47S156.29,167.27,156.29,167.52Z"/><path class="cls-16" d="M142.52,171.85c-.11.33-2.53.1-2.64.13s-3.47-1.11-3.47-1.11c.9-.53,1.88-2.4,3.45-3.81C139.86,167.06,142.64,171.51,142.52,171.85Z"/><path class="cls-16" d="M144.51,162.83l-.21,4.47-1.75-.35C142.62,166.89,144.17,162.83,144.51,162.83Z"/><path class="cls-17" d="M386.32,154a22.55,22.55,0,0,1-5.73.22C380.07,154,349,133.58,349,133c0-.3,5.81-.25,6.51-.22S386.88,153.49,386.32,154Z"/><path class="cls-18" d="M351.83,153.85c-1.32,4-158,10.63-158.93,8.72-.66-1.42,8-11.65,14.75-15.48s26.17-15,35.73-16.12,29-1.17,45.88-.94,36.53.54,43.54,3.49C339,136.11,352.89,150.7,351.83,153.85Z"/><path class="cls-19" d="M347.29,151.56c-.4,1.49-36.29,5.53-78.36,7.68s-62.85,2.57-63.37,2.36,1.39-11.42,2.1-12.35,30.79-16.51,35.52-16.94,30.3-.61,43.21-.47,39.83,1.56,44.41,3.39C334.84,136.84,347.7,150.07,347.29,151.56Z"/><g class="cls-20"><path class="cls-11" d="M291.5,131.94l24.21,24c4.3-.4,8.27-.8,11.85-1.18L305.1,132.51C300.33,132.25,295.59,132.05,291.5,131.94Z"/><path class="cls-11" d="M205.63,159.22l2.45,2.42c2.44,0,6.67-.11,12.72-.3l-12.6-12.47a2.46,2.46,0,0,0-.54.38C207.15,149.91,206,155.82,205.63,159.22Z"/><path class="cls-11" d="M273.51,131.8l25.76,25.51c2.05-.15,4.07-.31,6-.48L280,131.8C278,131.79,275.77,131.79,273.51,131.8Z"/><path class="cls-11" d="M218.55,143.3l17.65,17.47,6.25-.27-19.58-19.38C221.38,141.85,219.93,142.58,218.55,143.3Z"/><path class="cls-11" d="M309.41,132.76l21.79,21.58h0l1.65-.19-21.47-21.27Z"/><path class="cls-11" d="M214.82,145.23,230.73,161l1.78-.07L216,144.6Z"/><path class="cls-11" d="M237.52,134.24l25.54,25.3,1.77-.09-26-25.75C238.41,133.86,238,134,237.52,134.24Z"/><path class="cls-11" d="M326.63,134.32l18.23,18.06c.6-.13,1.1-.25,1.49-.36l-17.49-17.31C328.22,134.58,327.47,134.45,326.63,134.32Z"/></g><path class="cls-18" d="M324.68,134.06c-.17,0-.24.22-.1.62.86,2.33,7.5,15.51,9.16,18.59a1.41,1.41,0,0,0,.94.65l-11.59,1.3a1,1,0,0,0,.57-1.06c-.12-.72-4.5-16.24-5.87-20a1.62,1.62,0,0,0-.78-.81c-.23,0,2,0,4.07.23C322.93,133.71,324.68,134.06,324.68,134.06Z"/><path class="cls-18" d="M309.39,132.75s-.21.12-.22.54c-.06,3.66-.38,22,0,23,.05.13.1.21.17.24l-2.19.18a1.13,1.13,0,0,0,.2-.55c.23-3.09.37-19.87.31-23a.9.9,0,0,0-.21-.51Z"/><path class="cls-18" d="M273.34,132.55c-.25.82-.56,24.72-.56,25.49s.88,1,.88,1l-13.58.7s.88-.26,1-.67,4.3-26.2,4.27-26.54-.7-.65-.7-.65l9.47,0A1.46,1.46,0,0,0,273.34,132.55Z"/><path class="cls-11" d="M385.74,159.16c1.67.21,5.44,4.09,5.72,4.91s1.33,6.37.78,7.2-2.52,2.89-4.23,3-10.1-3.86-10.86-4.54-1.33-4.86-.44-6.21S383.61,158.9,385.74,159.16Z"/><path class="cls-21" d="M377.15,169.7c.75.68,9.14,4.62,10.86,4.54,1.3-.06,2.77-1.28,3.63-2.22a5.51,5.51,0,0,1-3.35,1.07c-.92-.08-8.78-3.41-9.79-4.33s-1.07-4.38-.94-5,5.18-3.92,5.18-3.92c-2.5,1-5.44,2.75-6,3.66C375.82,164.84,376.39,169,377.15,169.7Z"/><path class="cls-11" d="M392.82,190.16c.46.46.63,3.94.15,4.25a8.3,8.3,0,0,1-3.84,0,7,7,0,0,1-1.87-3.76C387.36,189.78,392.26,189.62,392.82,190.16Z"/><path class="cls-18" d="M140.34,176.89c-.56,1.67-8.81,4.26-12.8,4.23-1.3,0-1.9-1.23-2.4-1.86l.56-1.39h.37l.39-.92.4.08.4-1.59.54-.89-.65-.74a4.16,4.16,0,0,1,.85-1,15.16,15.16,0,0,1,7.17-1.78C136.17,171,141.23,174.27,140.34,176.89Z"/><path class="cls-11" d="M140.34,176.89c-.56,1.67-8.81,4.26-12.8,4.23a2.56,2.56,0,0,1-2-1.3l.41-.22,1.5-.15,3.74-.11,1.21-2.81.57.8,1-1.4-1-1,1.07-.86-1.81-1.23-2.68-.17-.78.6-.37-.53-1.12.91a4.05,4.05,0,0,1,.74-.85,15.16,15.16,0,0,1,7.17-1.78C136.17,171,141.23,174.27,140.34,176.89Z"/><polygon class="cls-11" points="129.91 183.52 131.68 182.15 132 183.13 132.69 183.25 131.64 184.85 130.64 183.79 129.91 183.52"/><polygon class="cls-11" points="133.99 182.22 134.89 181.78 135.32 182.79 133.99 182.22"/><polygon class="cls-11" points="126 181.64 125.78 181.97 126.23 181.81 126 181.64"/><polygon class="cls-11" points="126.27 182.17 126.44 183.81 127 183.21 127.27 183.15 127.08 182.48 126.27 182.17"/><polygon class="cls-11" points="132.32 186.26 132.8 186.7 133.12 186.38 133.7 186.28 132.83 185.52 132.32 186.26"/><path class="cls-22" d="M137.94,177.41c-1.06.3-2.13.52-3.2.78h0c-.64.42-1.31.82-2,1.23h0c-.53,0-1.05,0-1.58-.08.53,0,1.05,0,1.58,0h0c.65-.43,1.28-.86,1.94-1.28h0C135.78,177.82,136.85,177.58,137.94,177.41Z"/><path class="cls-22" d="M136.7,176.14a7.41,7.41,0,0,1-.48.93,8.27,8.27,0,0,1-.61.85,9,9,0,0,1,.47-.93A8.37,8.37,0,0,1,136.7,176.14Z"/><path class="cls-22" d="M134,174.06c.32.15.62.33.93.5h0c.4-.09.81-.17,1.22-.22s.82-.14,1.24-.16c-.4.12-.81.2-1.21.29a10.54,10.54,0,0,1-1.23.21h0A10.45,10.45,0,0,1,134,174.06Z"/><g class="cls-20"><path d="M352.64,166.61a5.61,5.61,0,0,1,7.95-.16,5.62,5.62,0,0,1,0,8.07,5.62,5.62,0,0,1-8-7.91Zm.09,7.78a5.38,5.38,0,0,0,9.12-3.91,5.31,5.31,0,0,0-1.54-3.75,5.41,5.41,0,0,0-7.62-.08,5.39,5.39,0,0,0,0,7.74Z"/><path d="M373.94,187.13c.55-1.24,1.06-2.5,1.55-3.76s1-2.54,1.44-3.81.91-2.55,1.34-3.84.85-2.58,1.22-3.89c-.55,1.24-1.06,2.5-1.56,3.77s-.95,2.53-1.43,3.8-.91,2.56-1.34,3.85S374.31,185.83,373.94,187.13Z"/><path d="M393.23,187c-2.7,0-5.4,0-8.1,0l-8.1.13-8.09.23c-2.7.1-5.4.2-8.1.36,2.7,0,5.4,0,8.1,0l8.1-.13,8.1-.23C387.84,187.3,390.53,187.2,393.23,187Z"/><path d="M265.62,161.38l-.89,6.59-.39,3.3c-.06.55-.11,1.1-.15,1.66s0,1.1,0,1.66l.18,13.29.14,6.64.07,3.33,0,1.66.13,1.65.55,6.62.59,6.62-.37-6.63-.41-6.63-.1-1.65,0-1.66-.05-3.32-.09-6.64-.3-13.27c0-.55,0-1.11,0-1.66s.08-1.1.12-1.65L265,168Z"/><path d="M192.68,164.75l-1.08,6.62-.55,3.31-.13.83a4.59,4.59,0,0,0-.1.83c0,.57,0,1.12,0,1.68.06,4.48.19,8.95.35,13.42,0,1.11.09,2.23.16,3.35a12.4,12.4,0,0,0,.66,3.3c.62,2.15,1.33,4.28,2.11,6.38a47.27,47.27,0,0,0,2.71,6.15l.41.73c.15.24.31.47.47.71a6.7,6.7,0,0,0,.51.68l.28.33a1,1,0,0,0,.49.14c1.13.12,2.24.13,3.36.16,8.95.14,17.89,0,26.84-.09s17.88-.28,26.82-.48,17.88-.5,26.82-.87c4.47-.21,8.94-.38,13.4-.8a9.42,9.42,0,0,0,1.7-.28c.31-.12.5-.27.76-.38s.5-.25.75-.36c1-.47,2.05-.88,3.06-1.39a11.55,11.55,0,0,0,2.81-1.89,26.82,26.82,0,0,0,2-2.71c2.5-3.72,4.89-7.5,7.28-11.28s4.75-7.58,7.09-11.39,4.67-7.63,6.95-11.47l.85-1.45c.07-.12.13-.25.2-.38l.1-.19a1.52,1.52,0,0,0,0-.21l.08-.84c.09-1.11.17-2.23.2-3.35,0-.28,0-.55,0-.84a4.64,4.64,0,0,0-.19-.82c-.16-.53-.34-1.06-.53-1.59-.38-1.05-.78-2.09-1.2-3.13.41,1,.8,2.09,1.17,3.14.19.53.37,1.06.52,1.59a5.71,5.71,0,0,1,.18.82c0,.27,0,.55,0,.83-.05,1.12-.14,2.23-.24,3.35l-.08.83a1.2,1.2,0,0,1,0,.2l-.1.18-.2.36-.86,1.44c-2.31,3.82-4.68,7.62-7,11.41-4.74,7.59-9.45,15.19-14.43,22.61a26.69,26.69,0,0,1-2,2.66,11.12,11.12,0,0,1-2.74,1.83c-1,.5-2,.9-3.05,1.37-.26.12-.51.23-.76.36s-.52.3-.73.37a10.22,10.22,0,0,1-1.61.25c-4.44.41-8.92.57-13.38.76-8.94.35-17.88.58-26.82.79s-17.88.42-26.82.57-17.88.28-26.82.16c-1.12,0-2.24,0-3.34-.14l-.31-.06-.26-.31a4.58,4.58,0,0,1-.5-.66c-.15-.23-.31-.45-.46-.69l-.41-.72a48.31,48.31,0,0,1-2.71-6.11c-.78-2.09-1.5-4.21-2.12-6.35a11.82,11.82,0,0,1-.66-3.25l-.17-3.34c-.2-4.47-.37-8.94-.47-13.41,0-.56,0-1.12,0-1.67a4.58,4.58,0,0,1,.09-.83l.13-.83.51-3.31Z"/><path d="M137.92,178.83a25.77,25.77,0,0,0,3.07,2c1.06.61,2.14,1.18,3.21,1.76s2.17,1.13,3.27,1.67,2.21,1.08,3.34,1.57c-1.05-.62-2.12-1.21-3.19-1.8l-3.22-1.73-3.26-1.69-1.62-.85A14.57,14.57,0,0,1,137.92,178.83Z"/><polygon points="323.5 188.57 306.08 189.11 288.66 189.73 253.83 190.96 219 192.34 201.59 193.04 184.18 193.81 201.6 193.26 219.02 192.65 253.85 191.42 288.68 190.03 306.09 189.34 323.5 188.57"/><path d="M324.41,163.6l.68,0h.17s0,0,.06.09a1.65,1.65,0,0,1,.07.32,8.67,8.67,0,0,1,0,1.35,4.91,4.91,0,0,1-.06.66,1.12,1.12,0,0,1-.07.29s0,0,0,0h-.18c-.44.05-.9.06-1.35.08-1.81.06-3.62.13-5.44.17l-2.72.09-1.35,0h-.59a1,1,0,0,1-.07-.17,2.84,2.84,0,0,1-.06-.31,7.26,7.26,0,0,1-.07-1.32,4.62,4.62,0,0,1,.06-.66.63.63,0,0,1,.07-.25s.15-.06.25-.08c.88-.16,1.8-.21,2.7-.31-.91,0-1.82,0-2.73.08a.78.78,0,0,0-.39.13.8.8,0,0,0-.16.38,5.43,5.43,0,0,0-.09.69,8.07,8.07,0,0,0,0,1.39c0,.12,0,.24.06.36a.66.66,0,0,0,.25.41.21.21,0,0,0,.14,0h2l2.73,0c1.81-.08,3.63-.14,5.44-.28.46,0,.91-.07,1.37-.14l.2,0,.11,0a.36.36,0,0,0,.09-.12,1.13,1.13,0,0,0,.08-.38,5.31,5.31,0,0,0,0-.69,10.42,10.42,0,0,0-.14-1.37,2.19,2.19,0,0,0-.1-.34l0-.08a.13.13,0,0,0-.11-.05h-.17Z"/><path d="M257.74,165.57l.68,0h.17s.05,0,.07.09a1.65,1.65,0,0,1,.06.32,8.58,8.58,0,0,1,0,1.34c0,.23,0,.45-.06.67a2.06,2.06,0,0,1-.07.29h-.19c-.44,0-.9.06-1.35.08-1.81.06-3.63.13-5.44.17l-2.72.09-1.36,0H247a1,1,0,0,1-.07-.17,2.82,2.82,0,0,1-.07-.31,8.35,8.35,0,0,1-.06-1.33c0-.22,0-.44.05-.65a2.06,2.06,0,0,1,.07-.26,1.11,1.11,0,0,1,.26-.07c.88-.16,1.79-.22,2.69-.31-.91,0-1.81,0-2.73.08a.79.79,0,0,0-.38.12.83.83,0,0,0-.16.39c-.05.23-.07.46-.1.69a8.07,8.07,0,0,0,0,1.39,2.25,2.25,0,0,0,.06.36.62.62,0,0,0,.25.41.45.45,0,0,0,.13,0h2l2.72-.05c1.82-.08,3.63-.14,5.45-.28.45,0,.9-.07,1.36-.14l.21,0a.54.54,0,0,0,.11,0,.31.31,0,0,0,.09-.12,1.76,1.76,0,0,0,.08-.37,5.3,5.3,0,0,0,0-.69,7.86,7.86,0,0,0-.14-1.37,2.14,2.14,0,0,0-.09-.34.22.22,0,0,0-.05-.08s-.09-.06-.11-.05h-.17Z"/></g><circle class="cls-18" cx="343.77" cy="211.87" r="25.93" transform="translate(-49.13 305.13) rotate(-45)"/><path class="cls-19" d="M322.17,212.4a21.6,21.6,0,1,0,21.17-22A21.39,21.39,0,0,0,322.17,212.4Z"/><circle class="cls-22" cx="343.77" cy="211.87" r="18.93" transform="translate(-58.58 177.54) rotate(-26.77)"/><circle class="cls-23" cx="343.77" cy="211.87" r="17.46" transform="translate(-45.19 320.39) rotate(-47.24)"/><path class="cls-22" d="M340.94,207.55l5.48-.11c-1.9-2.64,4.36-12.09,4.36-12.09l-2.9-.91c-1.86,3.33-2.8,4.32-4.37,4.35s-2.56-.92-4.55-4.17l-2.86,1S342.74,204.84,340.94,207.55Z"/><path class="cls-22" d="M346.89,207.76l1.79,5.18c1.92-2.62,12.85.41,12.85.41l0-3c-3.74-.73-5-1.32-5.48-2.81s.08-2.72,2.56-5.61l-1.86-2.41S350,208.63,346.89,207.76Z"/><path class="cls-22" d="M348.52,213.48l-4.37,3.31c3.09,1,3.58,12.34,3.58,12.34l2.88-1c-.46-3.78-.28-5.13,1-6.08s2.61-.76,6.13.7l1.71-2.51S348.66,216.73,348.52,213.48Z"/><path class="cls-22" d="M343.58,216.8l-4.5-3.13c0,3.25-10.63,7.22-10.63,7.22l1.82,2.44c3.45-1.61,4.79-1.85,6.09-1s1.53,2.24,1.22,6.05l2.92.85S340.54,217.94,343.58,216.8Z"/><path class="cls-22" d="M338.9,213.14l1.59-5.25c-3.1,1-10.15-7.88-10.15-7.88l-1.76,2.48c2.59,2.79,3.24,4,2.78,5.5s-1.66,2.15-5.37,3l.09,3S336.88,210.59,338.9,213.14Z"/><path class="cls-22" d="M338.7,211.85a5.07,5.07,0,1,0,5-5.17A5.05,5.05,0,0,0,338.7,211.85Z"/><path class="cls-18" d="M181.08,237.61H143.72c-3.44,0-1.27-1.78-.55-1.78s.59-1.17,1-1.56l.13-.11,18.09-.92,18.1.92.09.09c.36.33.42,1.58,1,1.58S184.5,237.61,181.08,237.61Z"/><path class="cls-18" d="M188.32,215.4a25.43,25.43,0,0,1-7.74,18.85,26,26,0,0,1-4.29,3.36H148.41a25.51,25.51,0,0,1-11.93-21.17,25.93,25.93,0,0,1,51.84-1Z"/><path class="cls-19" d="M140.8,216.33a21.6,21.6,0,1,0,21.16-22A21.39,21.39,0,0,0,140.8,216.33Z"/><circle class="cls-22" cx="162.39" cy="215.92" r="18.93" transform="translate(-72.61 82.62) rotate(-23.49)"/><circle class="cls-23" cx="162.39" cy="215.92" r="17.46" transform="translate(-106.39 188.54) rotate(-47.24)"/><path class="cls-22" d="M159.57,211.6l5.48-.11c-1.9-2.63,4.36-12.09,4.36-12.09l-2.91-.9c-1.85,3.33-2.79,4.31-4.37,4.34s-2.55-.91-4.54-4.17l-2.86,1S161.36,208.89,159.57,211.6Z"/><path class="cls-22" d="M165.51,211.82l1.8,5.17c1.92-2.62,12.84.41,12.84.41l0-3c-3.74-.73-5-1.32-5.48-2.81s.08-2.71,2.56-5.61l-1.86-2.4S168.65,212.69,165.51,211.82Z"/><path class="cls-22" d="M167.15,217.54l-4.37,3.31c3.09,1,3.58,12.34,3.58,12.34l2.88-1c-.46-3.79-.28-5.13,1-6.09s2.6-.76,6.13.7l1.71-2.5S167.29,220.79,167.15,217.54Z"/><path class="cls-22" d="M162.21,220.86l-4.5-3.13c0,3.25-10.63,7.21-10.63,7.21l1.82,2.44c3.45-1.6,4.79-1.85,6.08-.94s1.53,2.24,1.23,6l2.91.85S159.16,222,162.21,220.86Z"/><path class="cls-22" d="M157.53,217.19l1.59-5.25c-3.1,1-10.15-7.88-10.15-7.88l-1.76,2.48c2.59,2.79,3.24,4,2.78,5.5s-1.66,2.15-5.37,3l.09,3S155.5,214.64,157.53,217.19Z"/><path class="cls-22" d="M157.33,215.9a5.07,5.07,0,1,0,5-5.17A5.06,5.06,0,0,0,157.33,215.9Z"/><path class="cls-14" d="M211.47,151.9c.95.94.9,9.4.22,10.08s-10.08,1.36-10.86-3.89S210,150.44,211.47,151.9Z"/><path class="cls-19" d="M231.91,130.75s-27.24,13.11-47.07,26.33l-7,0,.43-.3h0l.17-.11.15-.09,1.14-.68.45-.27.26-.15c.16-.1.34-.19.52-.31l.33-.18,2.07-1.21,1-.59.4-.24.84-.48c.14-.08.29-.16.44-.26l1.29-.73.15-.09,1.36-.78.14-.08,1.89-1.08,1.6-.91.76-.43.9-.51c.6-.35,1.22-.69,1.85-1l1-.58c1.17-.65,2.37-1.32,3.58-2l1.21-.67,2-1.11,1.73-1,.63-.35,1.24-.68,1.24-.69,5.56-3,1.21-.65.61-.33.77-.4.42-.23,1.18-.63.58-.3,1.16-.61.56-.3,1.67-.87h0l1.07-.55.67-.34,1.42-.72,1.84-.91Z"/><g class="cls-24"><path class="cls-11" d="M374,193.72a33.24,33.24,0,0,0-5.85-7.11,35.89,35.89,0,0,0-25.34-9.71l-2.32.13-1.16.06c-.38,0-.76.11-1.15.16l-2.29.34c-.76.16-1.51.36-2.26.54a28.66,28.66,0,0,0-8.49,3.69,29.9,29.9,0,0,0-6.85,6.19,40.86,40.86,0,0,0-4.82,7.85,43.55,43.55,0,0,1,5.05-7.66,30,30,0,0,1,6.88-6,33.55,33.55,0,0,1,17.42-4.7,37.47,37.47,0,0,1,9.07.93,36.4,36.4,0,0,1,16.06,8.38A34.55,34.55,0,0,1,374,193.72Z"/><path class="cls-11" d="M192.32,194.59a33.2,33.2,0,0,0-5.84-7.11,36.64,36.64,0,0,0-7.5-5.4,36.26,36.26,0,0,0-17.85-4.3l-2.31.12-1.16.06c-.39,0-.77.11-1.15.16l-2.3.34c-.76.16-1.5.37-2.26.55a28.58,28.58,0,0,0-8.48,3.68,30,30,0,0,0-6.86,6.19,41.88,41.88,0,0,0-4.82,7.85,43.15,43.15,0,0,1,5.06-7.65,29.53,29.53,0,0,1,6.87-6,33.55,33.55,0,0,1,17.42-4.7,37.38,37.38,0,0,1,9.07.94,35.76,35.76,0,0,1,8.55,3.17,36.22,36.22,0,0,1,7.51,5.2A34.55,34.55,0,0,1,192.32,194.59Z"/><path class="cls-11" d="M370,150.71c-4.05-3.15-8.17-6.22-12.31-9.25s-8.32-6-12.63-8.82c-.54-.35-1.09-.69-1.65-1-.28-.16-.57-.32-.87-.47a6.37,6.37,0,0,0-.94-.35c-1.25-.36-2.49-.66-3.74-1-2.5-.6-5-1.18-7.53-1.66a44.11,44.11,0,0,0-7.68-.75c-2.57,0-5.14,0-7.7.11,2.57,0,5.13,0,7.69.19a44,44,0,0,1,7.6.92c2.5.55,5,1.11,7.48,1.74,1.24.31,2.49.63,3.71,1a5.34,5.34,0,0,1,.85.32c.28.14.55.29.82.45.55.32,1.09.67,1.63,1,4.31,2.76,8.48,5.75,12.69,8.69Z"/></g><path class="cls-16" d="M134.5,210.51c-.11,4.5.67,9.46.42,9.45-.53,0-1.86.1-2.88.11h0a1.83,1.83,0,0,1-.54-.07c-.48-.2.37-3.91-.11-4.05s-3.84-.19-4.66-.39-6.78-6.55-6.87-6.75c1.22.31,7.86,3.89,8.66,3s-.09-1.4,3.32-8.62,11.91-14.25,17-15.36A27.2,27.2,0,0,0,134.5,210.51Z"/></svg>