<svg id="圖層_1" data-name="圖層 1" xmlns="http://www.w3.org/2000/svg" viewBox="0 0 443.31 284.8"><defs><style>.cls-1{fill:#e4f3fc;}.cls-2{fill:#ffa901;}.cls-3{fill:#96d9c9;}.cls-4{fill:#2b464e;}.cls-12,.cls-13,.cls-19,.cls-23,.cls-5{fill:#fff;}.cls-5{opacity:0.6;isolation:isolate;}.cls-6{fill:#c8ebfc;}.cls-7{fill:#1a2e35;}.cls-8{fill:#375a64;}.cls-10,.cls-9{opacity:0.1;}.cls-11{fill:#196382;}.cls-12,.cls-22{opacity:0.5;}.cls-14{fill:#dcdcdc;}.cls-15{fill:#2b454e;}.cls-16{fill:#ffc900;}.cls-17{fill:#ad4537;}.cls-18{fill:#f47458;}.cls-19{opacity:0.2;}.cls-20{fill:#ececec;}.cls-21{fill:#a8a8a8;}.cls-23{opacity:0.4;}</style></defs><circle class="cls-1" cx="123.08" cy="170.51" r="87.22"/><circle class="cls-1" cx="263.12" cy="141.35" r="117.39"/><path class="cls-2" d="M373.67,69.43a6.85,6.85,0,0,0-3.82-1.16c-.78-1,0-2.54.82-3.53s1.9-2.12,1.66-3.41c-.37-1.95-3.05-2.15-5-1.87-.67-1.19-.58-2.65-.86-4s-1.27-2.78-2.63-2.68-2.14,1.5-3.41,1.73c-1.47.28-2.66-1.07-3.76-2.09a5,5,0,0,0-.43-.35h0c.43-4,4.21-3.16,7.47-3.54,2.55-.3-3.84-7,1.36-8.83a4.48,4.48,0,0,0,2.55-1.59,2.92,2.92,0,0,0-.94-3.59,6.83,6.83,0,0,0-3.83-1.16c-.78-1,0-2.54.83-3.54s1.89-2.12,1.65-3.4c-.37-1.95-3.05-2.15-5-1.87-.66-1.2-.58-2.65-.86-4s-1.27-2.77-2.63-2.67-2.14,1.5-3.4,1.73c-1.47.27-2.67-1.07-3.76-2.09s-3.06-1.72-3.91-.49c-.51.74-.28,1.81-.8,2.54-.91,1.25-2.88.35-4.08-.63s-3.15-1.91-4.09-.68a5.42,5.42,0,0,0-.55,1.31,3.29,3.29,0,0,1-.55.9c-.2-.9-.23-1.87-.42-2.78C335,16.38,334,14.94,332.63,15s-2.13,1.5-3.4,1.73c-1.47.27-2.67-1.07-3.76-2.1s-3.06-1.71-3.91-.48c-.5.74-.27,1.81-.8,2.54a1.44,1.44,0,0,1-.43.39c-.42-.07-.86-.12-1.28-.15-.79-1,0-2.54.82-3.53s1.9-2.12,1.65-3.41c-.36-1.94-3-2.14-5-1.86-.66-1.2-.57-2.65-.86-4S314.39,1.41,313,1.51s-2.13,1.49-3.4,1.73c-1.47.27-2.66-1.08-3.76-2.1S302.8-.58,302,.66c-.51.73-.28,1.81-.81,2.53-.91,1.26-2.88.36-4.08-.62S293.92.66,293,1.89a5.42,5.42,0,0,0-.55,1.31c-.67,1.67-2.55,2.43-4,3.46s-2.73,3.13-1.58,4.53c.57.68,1.61,1,1.87,1.85.32,1.07-.8,2-1.68,2.63a4.47,4.47,0,0,0-1.06,4.52,3.82,3.82,0,0,1-1.52.79c-1.47.27-2.66-1.08-3.76-2.1s-3.06-1.72-3.9-.49c-.51.74-.28,1.82-.8,2.54-.92,1.26-2.88.36-4.09-.63s-3.15-1.91-4.09-.67a5.4,5.4,0,0,0-.54,1.31c-.68,1.67-2.56,2.43-4.05,3.45s-2.72,3.14-1.57,4.53c.54.66,1.51,1,1.82,1.77-1-.45-2.08-.51-2.66.33s-.28,1.81-.8,2.53c-.91,1.26-2.88.36-4.08-.62s-3.15-1.92-4.09-.68a5.42,5.42,0,0,0-.55,1.31c-.67,1.67-2.56,2.43-4,3.45s-2.73,3.14-1.58,4.54c.57.68,1.61,1,1.86,1.85.32,1.07-.79,2-1.67,2.63-1.47,1.13-1.9,4.71-.09,5.78.77.45,1.91.63,2.06,1.5s-.68,1.34-1.23,1.91a3.7,3.7,0,0,0,.87,5.57c.43.23,1,.44,1.12.91a1.82,1.82,0,0,1-.16,1,5.58,5.58,0,0,0-.28,2,.87.87,0,0,0,.22.63.91.91,0,0,0,.58.2c2.68.25,4-.64,5.56,1.78A1.86,1.86,0,0,0,255,68a1.64,1.64,0,0,0,.73.22c1.84.25,3.11-.85,4.81-1,2.36-.19,2.79,1,4.81,2.12,3.18,1.68,4.8.82,5.52-1.37a9.67,9.67,0,0,0,.38-1.9,3.33,3.33,0,0,1,1.25-2.5h.06c1.72.23,2.94-.7,4.47-.94l1,0c1.82.07,2.37,1.16,4.19,2.13a6.51,6.51,0,0,0,2.74.87c.22,1-.84,1.87-1.69,2.53-1.46,1.13-1.89,4.7-.08,5.77.76.45,1.9.64,2,1.51s-.67,1.34-1.22,1.91a3.71,3.71,0,0,0,.86,5.57c.44.23,1,.44,1.12.91a1.73,1.73,0,0,1-.15,1,5.31,5.31,0,0,0-.28,2,1,1,0,0,0,.21.64.94.94,0,0,0,.59.2c2.68.25,4-.64,5.55,1.78a2,2,0,0,0,.53.62,1.72,1.72,0,0,0,.74.22c1.84.24,3.1-.85,4.8-1,2.36-.19,2.8,1,4.82,2.12,3.18,1.68,4.8.82,5.51-1.37a9.06,9.06,0,0,0,.39-1.91c.43-4,4.2-3.15,7.47-3.54a.62.62,0,0,0,.55-.34l.2,0c1.84.24,3.1-.85,4.8-1,2.36-.18,2.8,1,4.82,2.12,3.18,1.69,4.8.82,5.51-1.36a9.2,9.2,0,0,0,.39-1.91c.33-3.09,2.69-3.28,5.26-3.39a3.57,3.57,0,0,0,1.73,3c.44.23,1,.44,1.12.91a1.73,1.73,0,0,1-.15,1,5.31,5.31,0,0,0-.28,2,1,1,0,0,0,.21.64.94.94,0,0,0,.59.2c2.68.25,4-.64,5.55,1.78a2,2,0,0,0,.53.62,1.72,1.72,0,0,0,.74.22c1.84.24,3.1-.85,4.8-1,2.36-.19,2.8,1,4.82,2.12,3.18,1.68,4.8.82,5.51-1.37a9.06,9.06,0,0,0,.39-1.91c.43-4,4.2-3.15,7.47-3.54,2.55-.3-3.84-7,1.36-8.83A4.44,4.44,0,0,0,374.61,73,2.89,2.89,0,0,0,373.67,69.43ZM339.25,73.5a1.09,1.09,0,0,1,.52.75,1,1,0,0,1-.13.69A10.58,10.58,0,0,1,339.25,73.5ZM306,38.65A5.25,5.25,0,0,1,303.44,37,15.4,15.4,0,0,1,306,38.65Zm26.27,9.5a3.13,3.13,0,0,1,.62-1.06,1.21,1.21,0,0,1,.63.65,1.15,1.15,0,0,1,0,.26,2,2,0,0,0-.55,0A2.26,2.26,0,0,0,332.28,48.15Zm3.52,3.49c1.51,0,2.53,0,3.65,1.74A1.86,1.86,0,0,0,340,54a1.64,1.64,0,0,0,.73.22,5.72,5.72,0,0,0,2.79-.47l-.26.75a4.66,4.66,0,0,1-1.73,2h0c-.37-1.95-3.05-2.15-5-1.87A7.84,7.84,0,0,1,335.8,51.64Zm12.07,2.22c-.17-.13-.35-.27-.55-.4a11.27,11.27,0,0,1,2.17,1.38A6.42,6.42,0,0,1,347.87,53.86Z"/><path class="cls-2" d="M276.71,104.66a5.44,5.44,0,0,0-3-.91c-.62-.83,0-2,.65-2.78s1.49-1.67,1.3-2.69c-.29-1.53-2.4-1.68-3.95-1.46a11,11,0,0,1-.67-3.14c-.23-1.06-1-2.19-2.07-2.11s-1.69,1.18-2.68,1.36c-1.16.22-2.1-.84-3-1.64s-2.41-1.36-3.08-.39c-.4.58-.22,1.43-.63,2-.72,1-2.27.28-3.22-.49s-2.48-1.51-3.22-.54a4.55,4.55,0,0,0-.43,1c-.53,1.31-2,1.91-3.18,2.72s-2.15,2.47-1.24,3.56c.44.54,1.26.79,1.46,1.46.26.84-.62,1.54-1.32,2.08-1.15.89-1.49,3.7-.06,4.54.6.36,1.5.5,1.62,1.19s-.54,1.05-1,1.5a2.93,2.93,0,0,0,.68,4.39c.35.18.77.34.89.72a1.37,1.37,0,0,1-.13.81,4.39,4.39,0,0,0-.22,1.57.57.57,0,0,0,.63.65c2.11.2,3.17-.5,4.38,1.41a1.36,1.36,0,0,0,.41.48,1.31,1.31,0,0,0,.58.18c1.45.19,2.45-.67,3.79-.78,1.85-.14,2.2.83,3.79,1.67,2.5,1.33,3.78.65,4.34-1.07a7.8,7.8,0,0,0,.3-1.5c.34-3.13,3.31-2.49,5.88-2.79,2-.24-3-5.53,1.08-7a3.57,3.57,0,0,0,2-1.26A2.29,2.29,0,0,0,276.71,104.66Z"/><path class="cls-3" d="M373.67,69.43a6.85,6.85,0,0,0-3.82-1.16c-.78-1,0-2.54.82-3.53s1.9-2.12,1.66-3.41c-.37-1.95-3.05-2.15-5-1.87-.67-1.19-.58-2.65-.86-4s-1.27-2.78-2.63-2.68-2.14,1.5-3.41,1.73c-1.47.28-2.66-1.07-3.76-2.09a5,5,0,0,0-.43-.35h0c.43-4,4.21-3.16,7.47-3.54,2.55-.3-3.84-7,1.36-8.83a4.48,4.48,0,0,0,2.55-1.59,2.92,2.92,0,0,0-.94-3.59,6.83,6.83,0,0,0-3.83-1.16c-.78-1,0-2.54.83-3.54s1.89-2.12,1.65-3.4c-.37-1.95-3.05-2.15-5-1.87-.66-1.2-.58-2.65-.86-4s-1.27-2.77-2.63-2.67-2.14,1.5-3.4,1.73c-1.47.27-2.67-1.07-3.76-2.09s-3.06-1.72-3.91-.49c-.51.74-.28,1.81-.8,2.54-.91,1.25-2.88.35-4.08-.63s-3.15-1.91-4.09-.68a5.42,5.42,0,0,0-.55,1.31,3.29,3.29,0,0,1-.55.9c-.2-.9-.23-1.87-.42-2.78C335,16.38,334,14.94,332.63,15s-2.13,1.5-3.4,1.73c-1.47.27-2.67-1.07-3.76-2.1s-3.06-1.71-3.91-.48c-.5.74-.27,1.81-.8,2.54a1.44,1.44,0,0,1-.43.39c-.42-.07-.86-.12-1.28-.15-.79-1,0-2.54.82-3.53s1.9-2.12,1.65-3.41c-.36-1.94-3-2.14-5-1.86-.66-1.2-.57-2.65-.86-4S314.39,1.41,313,1.51s-2.13,1.49-3.4,1.73c-1.47.27-2.66-1.08-3.76-2.1S302.8-.58,302,.66c-.51.73-.28,1.81-.81,2.53-.91,1.26-2.88.36-4.08-.62S293.92.66,293,1.89a5.42,5.42,0,0,0-.55,1.31c-.67,1.67-2.55,2.43-4,3.46s-2.73,3.13-1.58,4.53c.57.68,1.61,1,1.87,1.85.32,1.07-.8,2-1.68,2.63a4.47,4.47,0,0,0-1.06,4.52,3.82,3.82,0,0,1-1.52.79c-1.47.27-2.66-1.08-3.76-2.1s-3.06-1.72-3.9-.49c-.51.74-.28,1.82-.8,2.54-.92,1.26-2.88.36-4.09-.63s-3.15-1.91-4.09-.67a5.4,5.4,0,0,0-.54,1.31c-.68,1.67-2.56,2.43-4.05,3.45s-2.72,3.14-1.57,4.53c.54.66,1.51,1,1.82,1.77-1-.45-2.08-.51-2.66.33s-.28,1.81-.8,2.53c-.91,1.26-2.88.36-4.08-.62s-3.15-1.92-4.09-.68a5.42,5.42,0,0,0-.55,1.31c-.67,1.67-2.56,2.43-4,3.45s-2.73,3.14-1.58,4.54c.57.68,1.61,1,1.86,1.85.32,1.07-.79,2-1.67,2.63-1.47,1.13-1.9,4.71-.09,5.78.77.45,1.91.63,2.06,1.5s-.68,1.34-1.23,1.91a3.7,3.7,0,0,0,.87,5.57c.43.23,1,.44,1.12.91a1.82,1.82,0,0,1-.16,1,5.58,5.58,0,0,0-.28,2,.87.87,0,0,0,.22.63.91.91,0,0,0,.58.2c2.68.25,4-.64,5.56,1.78A1.86,1.86,0,0,0,255,68a1.64,1.64,0,0,0,.73.22c1.84.25,3.11-.85,4.81-1,2.36-.19,2.79,1,4.81,2.12,3.18,1.68,4.8.82,5.52-1.37a9.67,9.67,0,0,0,.38-1.9,3.33,3.33,0,0,1,1.25-2.5h.06c1.72.23,2.94-.7,4.47-.94l1,0c1.82.07,2.37,1.16,4.19,2.13a6.51,6.51,0,0,0,2.74.87c.22,1-.84,1.87-1.69,2.53-1.46,1.13-1.89,4.7-.08,5.77.76.45,1.9.64,2,1.51s-.67,1.34-1.22,1.91a3.71,3.71,0,0,0,.86,5.57c.44.23,1,.44,1.12.91a1.73,1.73,0,0,1-.15,1,5.31,5.31,0,0,0-.28,2,1,1,0,0,0,.21.64.94.94,0,0,0,.59.2c2.68.25,4-.64,5.55,1.78a2,2,0,0,0,.53.62,1.72,1.72,0,0,0,.74.22c1.84.24,3.1-.85,4.8-1,2.36-.19,2.8,1,4.82,2.12,3.18,1.68,4.8.82,5.51-1.37a9.06,9.06,0,0,0,.39-1.91c.43-4,4.2-3.15,7.47-3.54a.62.62,0,0,0,.55-.34l.2,0c1.84.24,3.1-.85,4.8-1,2.36-.18,2.8,1,4.82,2.12,3.18,1.69,4.8.82,5.51-1.36a9.2,9.2,0,0,0,.39-1.91c.33-3.09,2.69-3.28,5.26-3.39a3.57,3.57,0,0,0,1.73,3c.44.23,1,.44,1.12.91a1.73,1.73,0,0,1-.15,1,5.31,5.31,0,0,0-.28,2,1,1,0,0,0,.21.64.94.94,0,0,0,.59.2c2.68.25,4-.64,5.55,1.78a2,2,0,0,0,.53.62,1.72,1.72,0,0,0,.74.22c1.84.24,3.1-.85,4.8-1,2.36-.19,2.8,1,4.82,2.12,3.18,1.68,4.8.82,5.51-1.37a9.06,9.06,0,0,0,.39-1.91c.43-4,4.2-3.15,7.47-3.54,2.55-.3-3.84-7,1.36-8.83A4.44,4.44,0,0,0,374.61,73,2.89,2.89,0,0,0,373.67,69.43ZM339.25,73.5a1.09,1.09,0,0,1,.52.75,1,1,0,0,1-.13.69A10.58,10.58,0,0,1,339.25,73.5ZM306,38.65A5.25,5.25,0,0,1,303.44,37,15.4,15.4,0,0,1,306,38.65Zm26.27,9.5a3.13,3.13,0,0,1,.62-1.06,1.21,1.21,0,0,1,.63.65,1.15,1.15,0,0,1,0,.26,2,2,0,0,0-.55,0A2.26,2.26,0,0,0,332.28,48.15Zm3.52,3.49c1.51,0,2.53,0,3.65,1.74A1.86,1.86,0,0,0,340,54a1.64,1.64,0,0,0,.73.22,5.72,5.72,0,0,0,2.79-.47l-.26.75a4.66,4.66,0,0,1-1.73,2h0c-.37-1.95-3.05-2.15-5-1.87A7.84,7.84,0,0,1,335.8,51.64Zm12.07,2.22c-.17-.13-.35-.27-.55-.4a11.27,11.27,0,0,1,2.17,1.38A6.42,6.42,0,0,1,347.87,53.86Z"/><path class="cls-3" d="M276.71,104.66a5.44,5.44,0,0,0-3-.91c-.62-.83,0-2,.65-2.78s1.49-1.67,1.3-2.69c-.29-1.53-2.4-1.68-3.95-1.46a11,11,0,0,1-.67-3.14c-.23-1.06-1-2.19-2.07-2.11s-1.69,1.18-2.68,1.36c-1.16.22-2.1-.84-3-1.64s-2.41-1.36-3.08-.39c-.4.58-.22,1.43-.63,2-.72,1-2.27.28-3.22-.49s-2.48-1.51-3.22-.54a4.55,4.55,0,0,0-.43,1c-.53,1.31-2,1.91-3.18,2.72s-2.15,2.47-1.24,3.56c.44.54,1.26.79,1.46,1.46.26.84-.62,1.54-1.32,2.08-1.15.89-1.49,3.7-.06,4.54.6.36,1.5.5,1.62,1.19s-.54,1.05-1,1.5a2.93,2.93,0,0,0,.68,4.39c.35.18.77.34.89.72a1.37,1.37,0,0,1-.13.81,4.39,4.39,0,0,0-.22,1.57.57.57,0,0,0,.63.65c2.11.2,3.17-.5,4.38,1.41a1.36,1.36,0,0,0,.41.48,1.31,1.31,0,0,0,.58.18c1.45.19,2.45-.67,3.79-.78,1.85-.14,2.2.83,3.79,1.67,2.5,1.33,3.78.65,4.34-1.07a7.8,7.8,0,0,0,.3-1.5c.34-3.13,3.31-2.49,5.88-2.79,2-.24-3-5.53,1.08-7a3.57,3.57,0,0,0,2-1.26A2.29,2.29,0,0,0,276.71,104.66Z"/><path class="cls-4" d="M334,85.85l4.82-13,8.63-10-1.34-1.23-8.06,8-.73-13.3-3-.15s3.3,15.33.38,21c0,0-12.11,24.26-18.17,29.23a5.32,5.32,0,0,0-.91,1,60.65,60.65,0,0,0-6.12-13c2.57-5.76,8.11-18.43,10.11-25.2A134.52,134.52,0,0,0,323.28,53l-2.22-1.35s-6.3,26.25-15.77,37.4a35.4,35.4,0,0,0-8.59-6.38c-.54-3.61-.55-9.85,2.29-19.45l-1.68-1.71A55,55,0,0,0,293,80.57a32.41,32.41,0,0,1-3.75-2.48c-8.3-6.45-13.8-17.65-13.8-17.65l-3.26-.16s8,18.23,17.92,24.1,15.93,19.28,16.28,22.74c.1,1-.17,11.35-.62,25.66-10.83-7.31-37.45-25.3-38.82-26.55l-.16,3.31,38.72,31.61c-1.08,33.24-2.75,79.86-3,87.34l15.82.77c.67-10.32,4.38-70.56,1-103.75.21-1,.43-2.13.67-3.45,2.18-12.36,14.7-30.59,17.16-33.5s9.66-12.09,9.66-12.09l-1.29-2.16Z"/><path class="cls-5" d="M334,85.85l4.82-13,8.63-10-1.34-1.23-8.06,8-.73-13.3-3-.15s3.3,15.33.38,21c0,0-12.11,24.26-18.17,29.23a5.32,5.32,0,0,0-.91,1,60.65,60.65,0,0,0-6.12-13c2.57-5.76,8.11-18.43,10.11-25.2A134.52,134.52,0,0,0,323.28,53l-2.22-1.35s-6.3,26.25-15.77,37.4a35.4,35.4,0,0,0-8.59-6.38c-.54-3.61-.55-9.85,2.29-19.45l-1.68-1.71A55,55,0,0,0,293,80.57a32.41,32.41,0,0,1-3.75-2.48c-8.3-6.45-13.8-17.65-13.8-17.65l-3.26-.16s8,18.23,17.92,24.1,15.93,19.28,16.28,22.74c.1,1-.17,11.35-.62,25.66-10.83-7.31-37.45-25.3-38.82-26.55l-.16,3.31,38.72,31.61c-1.08,33.24-2.75,79.86-3,87.34l15.82.77c.67-10.32,4.38-70.56,1-103.75.21-1,.43-2.13.67-3.45,2.18-12.36,14.7-30.59,17.16-33.5s9.66-12.09,9.66-12.09l-1.29-2.16Z"/><ellipse id="Floor" class="cls-1" cx="221.66" cy="233.31" rx="221.66" ry="51.49"/><path class="cls-6" d="M167.93,219.73c4.11,2.92,27.38-14.28,31.75-17.59s1.29-15.43-4-17.73-9.63-4.92-10.68-11.37.68-9.84,5.5-11.44,14.37-4.45,12.22-14.63-13.25-7.89-19.3-9.86-12.75-4.94-12.29-11.86,6.95-5.92,17.21-6.25,17.67-17.62,18.5-22.73-.41-16.22-6.09-16.63-9.55,7.66-13,4.61,6.34-6,6.17-9.79-3.54-7.17-7.49-4.37-11.11,6-14.32.74.08-10.62,4.36-12.18,10.21-2.39,11.28-7.49-6.26-11.53-3.21-17,7.66-2.88,7.66-2.88-5.44-2.72-8.81.74,2.88,13.92-1,16.88-17.37,2.22-21.65,6.83-9.8,11.94-6.1,18,13.67,6.84,17.62,6.84,7.49-1.81,8.89-1.07-.57,3-4,4.36-11,7.58-5.68,12.68,13.83-1.32,17.21-3,0,18-9.06,19.51-13.5-5.11-19.18-4-13.28,10.54-9,21.74,25.7,14.54,27.59,17.72,1.27,6.59-1.67,8.23-18.17,3.15-22.12,14.91S150.86,207.6,167.93,219.73Z"/><path class="cls-6" d="M197.25,201.07c4.1-2.18,5.59-8.19,4.52-12.55a5.74,5.74,0,0,0-1.43-2.79c-3.46-3-9.41-3.21-11.84-7.78a12.39,12.39,0,0,1-1.24-8.5c.78-3.43,4.1-5.7,7.28-6.41a14.24,14.24,0,0,0,7.23-3c4.1-3.46,5.36-9.39,4.27-14.55a8.87,8.87,0,0,0-4.29-6.21c-2.3-1.38-5.09-2-7.85-2.79s-6.05-1.52-7.74-4.23-.21-6.48,2.38-8.1a10.87,10.87,0,0,1,4.08-1.68,16.19,16.19,0,0,0,4.12-.89c5.2-2.41,7.82-8.3,9.43-13.53-1.48,5.4-3.89,11.37-9.2,14.06a16.53,16.53,0,0,1-4.19,1.06,10.23,10.23,0,0,0-3.74,1.68c-3.8,2.74-3.36,7.53,1.2,9.05,4.07,1.55,8.37,1.69,12.38,3.86A10.81,10.81,0,0,1,208,145c2.29,8.91-2.24,18.76-11.77,20.6-4.27.84-7,3.61-5.73,8.1a10.28,10.28,0,0,0,1,2.53,7,7,0,0,0,3.34,2.59c3.37,1.51,8,2.46,9.9,6.23a16.69,16.69,0,0,1-1.36,16.56,12.47,12.47,0,0,1-3.84,3.52l-2.29-4.06Z"/><path class="cls-6" d="M163.61,222.33c-11.11-10.79-20.08-26-18-42a34,34,0,0,1,8-17.89c3.75-3.75,8.72-5.84,13.61-7.56a31.68,31.68,0,0,0,3.37-1.29c1.4-.71,1.7-3.21.3-4-8.28-4.7-21.79-8.21-22.92-19.38,1.72,11,15.29,13.63,23.76,17.88,2.65,1.42,2.32,5.7-.19,7.09a31.6,31.6,0,0,1-3.63,1.58,41.34,41.34,0,0,0-9.81,5.09,16.83,16.83,0,0,0-4.71,5.21,33.05,33.05,0,0,0-2.92,27.92c3.08,9.17,9.11,17.41,16.25,23.88l-3.06,3.51Z"/><rect class="cls-7" x="20.13" y="205.95" width="22.02" height="45.93" rx="7.11"/><rect class="cls-7" x="147.92" y="205.35" width="22.02" height="45.93" rx="7.11" transform="translate(293.25 471.93) rotate(-174.03)"/><path class="cls-8" d="M40.73,172.34s-3-1.4-3.44-2.14-2.3-3.84-3-4c-2.6-.55-9.77-.56-12.23.64-1.34.65-.16,5.94,1,7.22s9.78,1.86,11.19,1.64a4.73,4.73,0,0,0,2.49-1.62l3.4,1.09Z"/><path class="cls-8" d="M41.72,168.52a9.27,9.27,0,0,0-2.92.71c-.58.46-2.49,4.3-2.44,5.65a5.43,5.43,0,0,0,1.44,2.8Z"/><path class="cls-9" d="M41.72,168.52a9.27,9.27,0,0,0-2.92.71c-.58.46-2.49,4.3-2.44,5.65a5.43,5.43,0,0,0,1.44,2.8Z"/><path class="cls-8" d="M158.46,177.31s3.32,0,4-.47,3.72-2.49,4.41-2.32c2.59.62,9.08,3.66,10.79,5.8.94,1.16-2.39,5.44-4,6.1s-9.65-2.49-10.82-3.29a4.66,4.66,0,0,1-1.56-2.53l-3.54-.46Z"/><path class="cls-8" d="M155.53,174.83a9.14,9.14,0,0,1,2.81,1.06c.52.53,2,4.57,1.73,5.9a5.45,5.45,0,0,1-1.76,2.61Z"/><path class="cls-9" d="M155.53,174.83a9.14,9.14,0,0,1,2.81,1.06c.52.53,2,4.57,1.73,5.9a5.45,5.45,0,0,1-1.76,2.61Z"/><path class="cls-8" d="M29.63,190s-5.2,2.41-6.5,4.76S22.06,222,22,223.86s3.13,14.45,3.78,15.77,10.3,3.21,10.3,3.21Z"/><path class="cls-9" d="M29.63,190s-5.2,2.41-6.5,4.76S22.06,222,22,223.86s3.13,14.45,3.78,15.77,10.3,3.21,10.3,3.21Z"/><path class="cls-8" d="M164.77,195.3s3.13,3.25,3.64,4.55c.13.32.3,2.69.41,3.29a23.56,23.56,0,0,1,1.24,4.27c0,.9-2.42,17.18-2.3,18.88s1,2.68,1,3.4c0,.38-.81,1.94-.84,2.14a9.72,9.72,0,0,1,.22,2.1c-1.29,4.34-2.86,10.25-3.4,11.16-.75,1.27-10.51,2.39-10.51,2.39Z"/><g class="cls-10"><path d="M164.77,195.3s3.13,3.25,3.64,4.55c.13.32.3,2.69.41,3.29a23.56,23.56,0,0,1,1.24,4.27c0,.9-2.42,17.18-2.3,18.88s1,2.68,1,3.4c0,.38-.81,1.94-.84,2.14a9.72,9.72,0,0,1,.22,2.1c-1.29,4.34-2.86,10.25-3.4,11.16-.75,1.27-10.51,2.39-10.51,2.39Z"/></g><path class="cls-11" d="M165.13,236.64c-.07.65-2.64,9.87-3.58,10.78s-19,1-20.07.91-4.47-2.12-5.12-2.3-36.77-1.49-41.19-1.66-40.54-1.7-41.2-1.57-4.18,1.93-5.28,1.89-19.08-1.5-19.94-2.49-2.7-10.37-2.72-11,.76-2.93.78-3.43.85-35.37,1-36a42.63,42.63,0,0,1,2.46-6.32c.68-1,6.67-8,6.83-8.41,3.92-10.39,14.34-25.4,15.89-26.69a9.86,9.86,0,0,1,5.09-2.17c1.5-.13,21.83-.08,40.81.67s39.26,2.29,40.75,2.53a9.86,9.86,0,0,1,4.89,2.56c1.45,1.41,10.65,17.19,13.75,27.85.13.46,5.55,7.89,6.15,8.93a44.24,44.24,0,0,1,2,6.49c.06.32-.72,7.91-1.15,16.18-.06,1,.2,2.27.23,3.3,0,.47-2.77,5-2.74,5.28.11,1.13,1.87,11,1.86,11.25C164.6,233.67,165.21,236,165.13,236.64Z"/><path class="cls-9" d="M161,230.27c0,.6-1,5.23-1.55,5.34-14.63,3-49.55,4.7-64.1,3.89-14.57-.33-49.25-4.73-63.59-8.9-.53-.15-1.16-4.85-1.13-5.45s.88-7.23,1.63-7.4,16,3.19,28.79,5.4a273,273,0,0,0,34.8,3.53,272.92,272.92,0,0,0,35-.79c12.95-1.2,28.39-3.36,29.12-3.13S161,229.67,161,230.27Z"/><path class="cls-12" d="M147.07,224.13,141.59,238c-16.15,1.47-36.11,2.1-46.23,1.53-10.13-.23-30-2.42-46-5.15L45,220.13c5,1,10.71,2.1,16,3a273.2,273.2,0,0,0,34.81,3.53,272.92,272.92,0,0,0,35-.79C136.23,225.39,142.06,224.72,147.07,224.13Z"/><path class="cls-7" d="M130.84,225.89c.06.34-2.93,5.73-5.14,8.93a14.56,14.56,0,0,1-4.45,3.2c-.71.12-9.43,2.13-25.89,1.48s-25-3.33-25.69-3.5a14.48,14.48,0,0,1-4.18-3.55c-2-3.35-4.52-9-4.43-9.3s10.3,2.57,34.8,3.53S130.79,225.55,130.84,225.89Z"/><path class="cls-13" d="M41.35,225.49a3,3,0,1,1-2.92-3.15A3,3,0,0,1,41.35,225.49Z"/><path class="cls-14" d="M36.25,223.14a3.29,3.29,0,0,1,5.49,2.37,3.32,3.32,0,0,1-3.56,3.29,3.28,3.28,0,0,1-1.93-5.66Zm0,0a2.82,2.82,0,1,0,4.13.32,2.84,2.84,0,0,0-4.13-.32Z"/><path class="cls-13" d="M150,229.76a3,3,0,1,0,3.16-2.92A3,3,0,0,0,150,229.76Z"/><path class="cls-14" d="M155.24,227.81a2.82,2.82,0,1,0-.32,4.13,2.84,2.84,0,0,0,.32-4.13Zm0,0a3.29,3.29,0,0,1-2.37,5.5,3.32,3.32,0,0,1-3.29-3.57,3.29,3.29,0,0,1,5.66-1.93Z"/><path class="cls-15" d="M155.59,181.12s-27.15.12-57.89-1.09-57.81-3.46-57.81-3.46c6.1-13.68,13.78-24.15,14.6-24.72A20.92,20.92,0,0,1,59,150.17c3.44-.72,27.8.09,39.84.56s36.38,1.58,39.75,2.57a21.16,21.16,0,0,1,4.38,2C143.75,156,150.59,167,155.59,181.12Z"/><path class="cls-7" d="M155.59,181.12s-27.15.12-57.89-1.09-57.81-3.46-57.81-3.46c.58-1.28,1.16-2.54,1.75-3.77,6.24.49,29.87,2.29,56.21,3.33s50,1.09,56.29,1.09C154.63,178.48,155.12,179.79,155.59,181.12Z"/><path class="cls-7" d="M49.41,174.65l9.53.38a14.92,14.92,0,0,0-.79-2.39,11.09,11.09,0,0,0-3.85-.88,11.29,11.29,0,0,0-3.91.57A14.42,14.42,0,0,0,49.41,174.65Z"/><path class="cls-7" d="M54,172s5.63-1.83,6.16-1.89,23-.9,23-.9l0,.5s-21.72,1.57-22.07,1.61-7,2.36-7,2.36Z"/><path class="cls-7" d="M112.41,177.13l9.54.37a14.14,14.14,0,0,0-.8-2.39,10.68,10.68,0,0,0-7.76-.3A14.42,14.42,0,0,0,112.41,177.13Z"/><path class="cls-9" d="M39.89,176.57a55.58,55.58,0,0,1-5.07,8.19l-.2.28c-.11.31.22,1,.4,1.3s.54,1,.83,1.44c-.73-.63-2.43-2.18-1.78-3.23a45.54,45.54,0,0,1,5.82-8Z"/><path class="cls-9" d="M155.59,181.12a44.78,44.78,0,0,1,5.18,8.4c.57,1.11-1.25,2.51-2,3.09.33-.46.66-.91.95-1.38.2-.32.58-.95.5-1.26-.05-.07-.13-.22-.18-.29a55.45,55.45,0,0,1-4.42-8.56Z"/><rect class="cls-13" x="81.18" y="219.73" width="29.6" height="7.91" transform="translate(8.85 -3.59) rotate(2.25)"/><polygon class="cls-9" points="113.44 199.84 110.34 194.75 92.39 201.9 110.82 201.1 113.44 199.84"/><polygon class="cls-9" points="144.41 195.02 125.85 180.86 123.65 189.31 144.41 195.02"/><path class="cls-7" d="M160.19,190c-.23,2.66-6.12,6.58-6.12,6.58s-5.69,1.85-13,3.79h0c-1.63.3-3.35.59-5.16.84-9.85,1.38-37.71,1-46,.88,3.28-.16,22.27-1.79,23.52-2.22s9-9.83,10.21-10.53c.6-.35,19,4.92,20.76,5.71.17.08,8.74-6.33,9-6.75s2.22-7.15,2.22-7.15S160.3,188.62,160.19,190Z"/><polygon class="cls-9" points="153.37 188.27 145.41 181.13 155.59 181.12 153.37 188.27"/><path class="cls-9" d="M165.24,204.21c0,.64-.2,4.28-.71,4.56-1.41.78-7.6,2.47-11.44,3-18,2.59-44,3.43-56.75,2.71-12.76-.29-38.63-3.16-56.35-7.15-3.79-.86-9.83-3-11.18-3.92-.49-.31-.37-4-.34-4.6s4.6-9,5.4-9.13,9.41,5.18,24.07,8.41c15,3.32,38.88,4.33,38.88,4.33s23.84.87,39.08-1.26c14.88-2.08,23.87-6.3,24.65-6.06S165.26,203.58,165.24,204.21Z"/><path class="cls-12" d="M164.53,208.77a54,54,0,0,1-16.62,4.47c-5.69.81-11.41,1.45-17.14,2a274,274,0,0,1-34.5,1.22,308.11,308.11,0,0,1-55.44-8.22,46.88,46.88,0,0,1-12-4.76A50.74,50.74,0,0,0,41,207.54c18.28,3.38,36.77,6.25,55.36,7.08,11.43.51,22.9-.14,34.32-.82,5.72-.38,11.44-.84,17.15-1.43a75.62,75.62,0,0,0,8.49-1.15,53.33,53.33,0,0,0,8.23-2.45Z"/><path class="cls-13" d="M37.18,188.15c3.06.4,17.32,10,17.91,10.82s1.77,8.34.82,9-12-.11-15.28-.78-10.11-2.8-11.61-4,0-9.59,1.6-11.22C32.66,189.88,35.21,187.89,37.18,188.15Z"/><path class="cls-14" d="M37.18,188.15a10.25,10.25,0,0,1,2.26.84c2.18,1.06,4.26,2.31,6.34,3.55,3.11,1.91,6.22,3.81,9.16,6a1.82,1.82,0,0,1,.7,1.13c.23.8.39,1.59.54,2.4a23.58,23.58,0,0,1,.45,4.9c-.06.94-.24,1.55-1.28,1.64a48,48,0,0,1-8-.12,57.53,57.53,0,0,1-7.27-.91A50.66,50.66,0,0,1,29.77,204a4.45,4.45,0,0,1-1.06-.76c-.83-1.47-.44-3.31-.28-4.91.41-2.16.79-4.49,2.11-6.3,1.77-1.66,4-4,6.64-3.83Zm0,0c-2.48-.1-4.46,1.88-6.15,3.46a4.71,4.71,0,0,0-1.26,2,21,21,0,0,0-1.05,4.7,13.34,13.34,0,0,0,0,3.57,1.62,1.62,0,0,0,.8,1.34,42.17,42.17,0,0,0,8.48,3,47.55,47.55,0,0,0,9.5,1.38c1.6.13,3.21.23,4.81.27a15.28,15.28,0,0,0,3.39-.14.55.55,0,0,0,.11-.27,19.65,19.65,0,0,0-.21-5.29,16.21,16.21,0,0,0-.62-2.88c0-.14-.19-.23-.32-.36-2.85-2.24-5.88-4.26-8.91-6.24A66.69,66.69,0,0,0,39.43,189a9.59,9.59,0,0,0-2.25-.86Z"/><path class="cls-14" d="M44.32,199.64a4.26,4.26,0,0,1-7.25,2.83,4.3,4.3,0,0,1,.25-6.22,4.25,4.25,0,0,1,7,3.39Zm0,0A3.79,3.79,0,1,0,37.64,202a3.8,3.8,0,0,0,6.68-2.31Z"/><path class="cls-14" d="M52.4,202.62a3.64,3.64,0,1,1-6-2.92,3.66,3.66,0,0,1,6,2.92Zm0,0a3.19,3.19,0,1,0-3.54,3,3.19,3.19,0,0,0,3.54-3Z"/><path class="cls-16" d="M35.54,195.53a39.78,39.78,0,0,0-1.07,8.87,4.82,4.82,0,0,0,.82,1.39c-2.73-.85-5.4-1.88-6.28-2.61-1.5-1.25,0-9.59,1.61-11.21,2-2.09,4.59-4.08,6.56-3.82a13.48,13.48,0,0,1,3.51,1.49S36.06,194.18,35.54,195.53Z"/><path class="cls-13" d="M157.39,192.87c-3.09.16-18.06,8.66-18.7,9.39s-2.43,8.17-1.53,8.94,12,.83,15.3.42,10.29-2,11.89-3.13.73-9.56-.72-11.3C161.76,195,159.37,192.76,157.39,192.87Z"/><path class="cls-14" d="M157.39,192.87a10,10,0,0,0-2.32.68,67.78,67.78,0,0,0-6.55,3.14c-3.18,1.74-6.35,3.51-9.37,5.52-.14.12-.29.19-.35.33a15.92,15.92,0,0,0-.84,2.83,19.28,19.28,0,0,0-.62,5.25c0,.16.09.32.09.28a1.89,1.89,0,0,0,.42.12,55.73,55.73,0,0,0,7.76.4,47.84,47.84,0,0,0,9.57-.64,41.2,41.2,0,0,0,8.69-2.28,1.59,1.59,0,0,0,.9-1.27,13.25,13.25,0,0,0,.26-3.56,21.28,21.28,0,0,0-.69-4.76,4.7,4.7,0,0,0-1.09-2.11c-1.56-1.71-3.38-3.84-5.86-3.93Zm0,0c2.61.07,4.68,2.54,6.31,4.34,1.18,1.9,1.38,4.26,1.61,6.45,0,1.61.29,3.45-.66,4.87a4.26,4.26,0,0,1-1.12.67A50.4,50.4,0,0,1,152.92,212a73.93,73.93,0,0,1-12.18.19,21.24,21.24,0,0,1-3.07-.36,2.17,2.17,0,0,1-.72-.27,1.18,1.18,0,0,1-.39-.8,18.44,18.44,0,0,1,.8-5.52,22.55,22.55,0,0,1,.73-2.34,1.88,1.88,0,0,1,.78-1.08c3.1-1.92,6.36-3.57,9.6-5.22,2.17-1.08,4.34-2.17,6.6-3.05a9.91,9.91,0,0,1,2.32-.66Z"/><path class="cls-14" d="M149.37,203.76a3.79,3.79,0,1,0,6.67-2.3,3.8,3.8,0,0,0-6.67,2.3Zm0,0a4.26,4.26,0,0,1,7.25-2.83,4.31,4.31,0,0,1-.25,6.23,4.26,4.26,0,0,1-7-3.4Z"/><path class="cls-14" d="M141.08,206.11a3.19,3.19,0,1,0,3.54-3.05,3.21,3.21,0,0,0-3.54,3.05Zm0,0a3.64,3.64,0,1,1,6,2.92,3.66,3.66,0,0,1-6-2.92Z"/><path class="cls-16" d="M158.44,200.36a38.65,38.65,0,0,1,.37,8.92,4.7,4.7,0,0,1-.92,1.33c2.79-.64,5.53-1.46,6.46-2.12,1.59-1.12.73-9.56-.72-11.3-1.87-2.24-4.26-4.43-6.24-4.32a13.44,13.44,0,0,0-3.62,1.21S158,199,158.44,200.36Z"/><path class="cls-7" d="M165.21,204.53l-2.12,1.67-1.28,2.45-1.56-1.54-1.31.52-1.86.74-1.83-.49-1.29.39-1.2-2.74-2.09,0-.25-1.64,1.12-2.08,3.09-2.22-1.2-.55.32-2,1.58-1,1.76-1.14,2.09-1.2,2.07,2.21,1.8.72c.2.22.39.44.58.67a10.28,10.28,0,0,1,1.32,4.27l-.48,1.48.72.89C165.2,204.07,165.2,204.3,165.21,204.53Z"/><path class="cls-14" d="M153.75,197c-.68,0-1.36.06-2,.07h0c-1,.62-1.95,1.2-2.93,1.8h0c-1.73.68-3.46,1.36-5.23,1.93,1.68-.81,3.4-1.51,5.12-2.22h0c1-.57,2-1.16,3-1.7l0,0h0C152.39,196.86,153.07,196.9,153.75,197Z"/><path class="cls-14" d="M150.67,205.5c-1-.1-2-.29-3-.48h0a35.15,35.15,0,0,1-3.7.22,32.44,32.44,0,0,1,3.67-.53h0A30,30,0,0,1,150.67,205.5Z"/><path class="cls-7" d="M135.9,201.19a85.71,85.71,0,0,1-4.67,9.13c-.71.94-4,2.5-4.77,2.62s-12.39,2-30.11,1.32-29.17-3.49-29.92-3.67-3.9-2-4.54-3a85.22,85.22,0,0,1-4-9.47c.09-.33,11.11,2.28,17.81,2.8,3.3.26,13.63,1.24,21.07,1.53s17.8.13,21.11.13C124.66,202.58,135.85,200.85,135.9,201.19Z"/><path class="cls-8" d="M65.21,199.36c1.51.27,3.12.56,4.72.82l-11.44-.45c-.1-.24-.18-.45-.25-.64Zm63.35,2.49c-1.52.15-3.15.32-4.76.44l11.44.45c.11-.23.21-.43.29-.62Zm-24.84.76c-2.39,0-4.77-.07-6.9-.16s-4.52-.22-6.9-.39l-31-1.21.26.64,75.21,2.95.31-.62Zm-44.07,0,.27.64,73.62,2.89.31-.62Zm.74,1.76c.1.22.19.43.29.64l72,2.83.33-.62Zm.78,1.76.3.64,70.24,2.76c.11-.19.23-.39.35-.62Zm1,1.77a7.84,7.84,0,0,0,.76.66l67.27,2.64a5.92,5.92,0,0,0,.8-.6Zm2.55,1.83a11.13,11.13,0,0,0,1.29.68l61,2.39a11.51,11.51,0,0,0,1.34-.57Zm7.53,2q2.27.41,5.31.83l37.74,1.49c2-.13,3.83-.27,5.35-.42Z"/><polygon class="cls-15" points="162.76 221.91 160.59 218.54 154.42 218.37 149.36 217.74 140.34 220.47 136.54 220.44 140.34 220.96 149.36 219 154.49 220.06 158.59 220.06 163.19 224.59 162.76 221.91"/><path class="cls-17" d="M212.2,183.3c-8.44-6.79-21.11-16.92-22.95-18.27a66.78,66.78,0,0,0-6.44,2.19c-2.38.89-2.38.89-2.75.76-.55-.17-5.23-5.42-6.28-6.61-.77-.17-3.47-.53-5.88-.82l.22-1.88c6.54.77,6.66.92,6.95,1.29s4.31,4.77,5.54,6l1.53-.57c6.77-2.53,7.32-2.53,7.92-2.15,1.15.7,21.06,16.71,23.33,18.54Z"/><path class="cls-17" d="M405.52,225.28l-59.06.28s6.34-27.62,29.4-27.73S404.48,219.12,405.52,225.28Z"/><path class="cls-17" d="M234.13,229.08l-59.06.28s6.34-27.62,29.4-27.73S233.09,222.92,234.13,229.08Z"/><path class="cls-18" d="M418.79,174.89c1.27,2,3.6,24.15,3.73,24.92s2,4.16,2,4.81.54,10.63.28,11.28a27.75,27.75,0,0,1-2,3.4c-.32.39-8.65,7.63-9.59,7.73s-9.6.21-9.76.05-1.29-26.81-27.56-26.69-25.84,28.43-26.33,28.53-118,3.35-118,3.35c0-4.33-.49-30.11-26.25-30-16.79.08-24.57,14-24.82,24.17-.1,4.25.64,8.92.4,8.92a26.44,26.44,0,0,1-3.87,0c-.46-.2.35-3.69-.1-3.82s-3.62-.18-4.4-.37S166.1,225,166,224.84s.45-15,.45-15.6c0-.24,1-3.5,2.4-7.46.34-1,2.27-1.73,2.64-2.75,2-5.4,3.56-11.78,5-12.14.49-.13,4.57,2.54,5.13,2.21.85-.5,1.77-2.26,3.26-3.59.08-.07,2.44,0,2.53-.11s1.53-3.9,1.84-3.87c1,.06,3.83,2.08,4.43,2s2.2-3.24,2.25-3.26c1-.23,2-.25,3.08-.5,2.54-.6,10.79,1.81,12.05,1.71,2.17-.17,9.65-5.41,10-5.66,1-.69,46.34-27,54.24-29,6.39-1.58,80.46.2,84.34.37s14.62,2.07,15.65,2.06,12.92-.13,13.64.19,0,3.17-.89,3.69S416.57,171.41,418.79,174.89Z"/><path class="cls-19" d="M225.08,212.81s117.2-3.24,117.87-2.24-116.42,7-116.42,7Z"/><path class="cls-19" d="M418.78,174.89s-52.54,5.81-54.89,5.77-127.26,4.64-129.53,4.51-23.3-3.68-23.3-3.68c2.17-.16,9.65-5.4,10-5.65,1-.69,46.34-27,54.24-29,6.39-1.58,80.46.2,84.34.38s14.62,2.05,15.65,2.05,12.92-.13,13.64.2,0,3.16-.89,3.68S416.57,171.41,418.78,174.89Z"/><path class="cls-9" d="M200.35,186c0,.23-2.42,0-2.62,0s-4-2.35-4-2.35c.51-.05,2.2-3.26,2.25-3.27S200.36,185.71,200.35,186Z"/><path class="cls-9" d="M187.38,190c-.1.32-2.38.1-2.48.13s-3.28-1.05-3.28-1.05c.85-.5,1.77-2.26,3.26-3.59C184.88,185.51,187.49,189.7,187.38,190Z"/><path class="cls-9" d="M189.25,181.52l-.19,4.21-1.65-.33C187.47,185.35,188.93,181.52,189.25,181.52Z"/><path class="cls-8" d="M417.08,173.21a21.27,21.27,0,0,1-5.39.21c-.49-.19-29.75-19.46-29.77-20,0-.29,5.47-.24,6.13-.21S417.61,172.73,417.08,173.21Z"/><path class="cls-7" d="M384.59,173.06c-1.24,3.74-148.89,10-149.74,8.21-.63-1.33,7.52-11,13.9-14.58s24.65-14.08,33.66-15.19,27.3-1.1,43.23-.88,34.42.51,41,3.29C372.46,156.35,385.59,170.09,384.59,173.06Z"/><path class="cls-15" d="M380.31,170.9c-.38,1.41-34.19,5.21-73.83,7.24s-59.21,2.42-59.7,2.23,1.3-10.77,2-11.64,29-15.56,33.46-16,28.55-.57,40.72-.43,37.52,1.46,41.84,3.19C368.58,157,380.7,169.5,380.31,170.9Z"/><g class="cls-10"><path class="cls-13" d="M327.74,152.42,350.56,175c4.05-.37,7.79-.75,11.16-1.11L340.56,153C336.07,152.71,331.6,152.53,327.74,152.42Z"/><path class="cls-13" d="M246.85,178.12l2.3,2.28q3.45,0,12-.28l-11.87-11.75a2.7,2.7,0,0,0-.5.35C248.28,169.35,247.23,174.92,246.85,178.12Z"/><path class="cls-13" d="M310.8,152.29l24.26,24q2.91-.21,5.69-.45l-23.81-23.58Z"/><path class="cls-13" d="M259,163.12l16.62,16.46,5.89-.25-18.45-18.27C261.69,161.76,260.32,162.45,259,163.12Z"/><path class="cls-13" d="M344.63,153.19l20.52,20.33h0l1.55-.18-20.22-20Z"/><path class="cls-13" d="M255.5,164.94l15,14.84,1.68-.06-15.53-15.38Z"/><path class="cls-13" d="M276.89,154.58,301,178.42l1.67-.08-24.5-24.26Z"/><path class="cls-13" d="M360.85,154.66l17.17,17c.57-.12,1-.24,1.41-.34L363,155C362.35,154.9,361.64,154.78,360.85,154.66Z"/></g><path class="cls-7" d="M359,154.42c-.16,0-.23.21-.09.58.81,2.19,7.07,14.62,8.63,17.52a1.37,1.37,0,0,0,.88.61l-10.92,1.22a.89.89,0,0,0,.54-1c-.12-.69-4.24-15.31-5.53-18.9a1.51,1.51,0,0,0-.74-.76c-.21,0,1.87,0,3.84.21C357.36,154.09,359,154.42,359,154.42Z"/><path class="cls-7" d="M344.6,153.18a.57.57,0,0,0-.2.51c-.06,3.45-.36,20.7,0,21.64a.35.35,0,0,0,.16.23l-2.07.17a.91.91,0,0,0,.19-.52c.22-2.91.35-18.72.3-21.65a1,1,0,0,0-.2-.49Z"/><path class="cls-7" d="M310.64,153c-.24.76-.53,23.28-.53,24s.83.89.83.89l-12.8.66s.83-.24,1-.63,4.05-24.69,4-25-.66-.61-.66-.61l8.92,0A1.36,1.36,0,0,0,310.64,153Z"/><path class="cls-13" d="M416.54,178.06c1.57.2,5.12,3.86,5.39,4.63s1.25,6,.74,6.78-2.38,2.73-4,2.8-9.52-3.64-10.24-4.28-1.25-4.57-.41-5.84S414.53,177.82,416.54,178.06Z"/><path class="cls-20" d="M408.44,188c.72.64,8.62,4.35,10.24,4.28,1.23-.05,2.61-1.2,3.42-2.09a5.25,5.25,0,0,1-3.16,1c-.87-.07-8.27-3.21-9.22-4.08s-1-4.13-.89-4.72,4.88-3.69,4.88-3.69c-2.35.92-5.12,2.59-5.68,3.45C407.2,183.42,407.73,187.35,408.44,188Z"/><path class="cls-13" d="M423.21,207.28c.44.43.6,3.71.15,4a8.19,8.19,0,0,1-3.62,0,6.66,6.66,0,0,1-1.77-3.55C418.07,206.91,422.69,206.76,423.21,207.28Z"/><path class="cls-7" d="M185.33,194.77c-.53,1.58-8.3,4-12.06,4-1.23,0-1.8-1.15-2.27-1.75l.53-1.31h.35l.37-.88.37.08.38-1.5.51-.83-.62-.71a4.6,4.6,0,0,1,.81-1,14.31,14.31,0,0,1,6.75-1.67C181.4,189.23,186.16,192.3,185.33,194.77Z"/><path class="cls-13" d="M185.33,194.77c-.53,1.58-8.3,4-12.06,4a2.41,2.41,0,0,1-1.89-1.22l.39-.21,1.41-.14,3.53-.1,1.14-2.65.54.75,1-1.31-1-1,1-.8-1.7-1.17-2.53-.15-.73.56-.35-.5-1.06.86a4.59,4.59,0,0,1,.7-.81,14.31,14.31,0,0,1,6.75-1.67C181.4,189.23,186.16,192.3,185.33,194.77Z"/><polygon class="cls-13" points="175.5 201.02 177.17 199.72 177.47 200.65 178.12 200.76 177.13 202.27 176.19 201.28 175.5 201.02"/><polygon class="cls-13" points="179.34 199.79 180.19 199.38 180.6 200.32 179.34 199.79"/><polygon class="cls-13" points="171.81 199.25 171.61 199.56 172.03 199.41 171.81 199.25"/><polygon class="cls-13" points="172.07 199.74 172.23 201.28 172.76 200.72 173.01 200.67 172.84 200.04 172.07 199.74"/><polygon class="cls-13" points="177.77 203.6 178.22 204.01 178.52 203.71 179.07 203.62 178.25 202.9 177.77 203.6"/><path class="cls-14" d="M183.07,195.26c-1,.28-2,.49-3,.73h0c-.61.4-1.23.77-1.85,1.16h0c-.49,0-1,0-1.48-.07.49,0,1,0,1.48,0h0c.61-.4,1.21-.82,1.82-1.2h0C181,195.65,182,195.42,183.07,195.26Z"/><path class="cls-14" d="M181.89,194.07a7.09,7.09,0,0,1-.44.87,9,9,0,0,1-.58.8,8,8,0,0,1,.44-.88C181.51,194.6,181.67,194.31,181.89,194.07Z"/><path class="cls-14" d="M179.37,192.11c.3.14.59.3.88.47h0a11.11,11.11,0,0,1,1.15-.22c.39,0,.77-.12,1.17-.14-.38.11-.76.19-1.15.27a11.05,11.05,0,0,1-1.15.2h0v0A9.12,9.12,0,0,1,179.37,192.11Z"/><g class="cls-10"><path d="M385.36,185.08a5.3,5.3,0,0,1,7.49-.14,5.3,5.3,0,1,1-7.46,7.52,5.3,5.3,0,0,1,0-7.38Zm.08,7.34a5.08,5.08,0,0,0,7.18-.15,5.08,5.08,0,0,0,0-7.07,5,5,0,0,0-3.54-1.52,5.1,5.1,0,0,0-3.64,1.45,5.08,5.08,0,0,0,0,7.29Z"/><path d="M405.42,204.42c.52-1.17,1-2.36,1.47-3.55s.9-2.39,1.35-3.58.86-2.41,1.26-3.62.8-2.43,1.15-3.67c-.52,1.17-1,2.36-1.46,3.55s-.91,2.39-1.36,3.59-.86,2.41-1.26,3.62S405.77,203.19,405.42,204.42Z"/><path d="M423.6,204.33c-2.55,0-5.09,0-7.63,0l-7.63.12-7.63.22c-2.54.09-5.09.19-7.63.34,2.55,0,5.09,0,7.64,0l7.63-.12,7.62-.22C418.52,204.58,421.06,204.48,423.6,204.33Z"/><path d="M303.37,180.16l-.85,6.2-.36,3.11c-.05.52-.11,1-.14,1.56s0,1.05,0,1.57l.17,12.52.13,6.26.07,3.13,0,1.57.13,1.56.51,6.24.56,6.23-.35-6.25-.39-6.24-.09-1.56,0-1.56,0-3.13-.09-6.25-.28-12.51c0-.52,0-1.05,0-1.56s.07-1,.11-1.55l.31-3.12Z"/><path d="M234.64,183.33l-1,6.24-.51,3.12-.13.78a5.16,5.16,0,0,0-.09.79c0,.52,0,1.05,0,1.58.05,4.21.18,8.42.33,12.63,0,1.06.09,2.11.15,3.16a11.83,11.83,0,0,0,.62,3.12q.88,3,2,6a46,46,0,0,0,2.55,5.8l.39.69c.14.23.29.44.44.67a7.12,7.12,0,0,0,.48.64l.26.31a1,1,0,0,0,.46.13c1.07.11,2.12.12,3.17.15,8.44.13,16.86,0,25.29-.08s16.85-.27,25.27-.46,16.85-.47,25.27-.82c4.21-.19,8.42-.35,12.63-.75a10.12,10.12,0,0,0,1.59-.26,6.88,6.88,0,0,0,.72-.37l.71-.34c1-.43,1.94-.82,2.88-1.3a11,11,0,0,0,2.65-1.78,24.3,24.3,0,0,0,1.91-2.56c2.35-3.5,4.6-7.06,6.85-10.62s4.47-7.14,6.68-10.73,4.4-7.19,6.55-10.81l.8-1.37c.07-.11.13-.24.19-.36l.1-.18a1.23,1.23,0,0,0,0-.19l.08-.79c.08-1.05.16-2.1.19-3.16,0-.26,0-.52,0-.79a5,5,0,0,0-.17-.77c-.15-.51-.32-1-.5-1.5-.36-1-.74-2-1.14-3,.39,1,.77,2,1.11,3,.18.49.35,1,.49,1.5a5,5,0,0,1,.17.77c0,.26,0,.52,0,.78-.05,1-.13,2.1-.22,3.15l-.08.79a1.25,1.25,0,0,1,0,.19l-.09.17c-.07.11-.12.22-.19.33l-.81,1.36c-2.18,3.6-4.41,7.18-6.64,10.76-4.46,7.14-8.9,14.31-13.59,21.3a28,28,0,0,1-1.87,2.5,11.31,11.31,0,0,1-2.58,1.73c-.94.46-1.92.85-2.88,1.28l-.72.35c-.23.1-.49.28-.69.35a10.08,10.08,0,0,1-1.52.23c-4.18.39-8.4.54-12.6.72-8.42.32-16.84.55-25.27.74s-16.84.4-25.27.54-16.85.26-25.27.15c-1.05,0-2.11,0-3.14-.14l-.3-.05-.24-.29a4.6,4.6,0,0,1-.47-.62c-.15-.22-.3-.43-.43-.65l-.39-.68a43.48,43.48,0,0,1-2.55-5.76c-.74-2-1.42-4-2-6a12.06,12.06,0,0,1-.62-3.06l-.16-3.15q-.28-6.32-.44-12.63c0-.53,0-1.06,0-1.58a4.15,4.15,0,0,1,.09-.78l.12-.78.48-3.12Z"/><path d="M183.05,196.6a22.81,22.81,0,0,0,2.89,1.84c1,.58,2,1.12,3,1.67s2,1.06,3.08,1.57,2.08,1,3.14,1.48c-1-.59-2-1.14-3-1.7l-3-1.63-3.07-1.6-1.53-.79A15.61,15.61,0,0,1,183.05,196.6Z"/><polygon points="357.9 205.78 341.49 206.29 325.08 206.86 292.26 208.02 259.44 209.33 243.04 209.98 226.63 210.71 243.04 210.2 259.45 209.62 292.27 208.46 325.09 207.15 341.49 206.5 357.9 205.78"/><path d="M358.75,182.25l.64,0h.16s0,0,.07.08a1.45,1.45,0,0,1,.05.3,7.71,7.71,0,0,1,0,1.27c0,.21,0,.42,0,.63a1.76,1.76,0,0,1-.07.27h-.18c-.42,0-.85,0-1.28.07-1.7.06-3.41.13-5.12.16l-2.56.09-1.28,0h-.53s0,0,0,0a1,1,0,0,1-.07-.16l-.06-.29a7.43,7.43,0,0,1-.06-1.25c0-.21,0-.42.05-.62a1,1,0,0,1,.07-.24s.14-.06.24-.07c.83-.15,1.69-.2,2.54-.29a22.31,22.31,0,0,0-2.58.08.64.64,0,0,0-.36.11.82.82,0,0,0-.15.36c0,.22-.07.43-.09.65a7.17,7.17,0,0,0,0,1.31c0,.11,0,.23,0,.34a.63.63,0,0,0,.24.39.22.22,0,0,0,.13,0h1.88l2.57-.05c1.71-.07,3.42-.13,5.12-.27.43,0,.86-.06,1.29-.13a.81.81,0,0,0,.19,0l.11,0a.33.33,0,0,0,.08-.11,1.73,1.73,0,0,0,.08-.35,4.85,4.85,0,0,0,0-.66,8.06,8.06,0,0,0-.13-1.29,2.23,2.23,0,0,0-.09-.32.59.59,0,0,0,0-.08.15.15,0,0,0-.11,0h-.16Z"/><path d="M295.94,184.11l.64,0h.16s0,0,.07.08a1.54,1.54,0,0,1,.05.31,7.67,7.67,0,0,1,0,1.27,4.2,4.2,0,0,1-.06.62,1,1,0,0,1-.06.27s0,0,0,0h-.17c-.42,0-.85.06-1.28.07-1.7.07-3.41.13-5.12.17l-2.56.08-1.28,0h-.55a1,1,0,0,1-.07-.16l-.06-.29a7.38,7.38,0,0,1-.06-1.25c0-.21,0-.42.05-.62a1,1,0,0,1,.07-.24.78.78,0,0,1,.24-.07c.83-.15,1.69-.2,2.54-.29a24.79,24.79,0,0,0-2.58.08.73.73,0,0,0-.36.11.86.86,0,0,0-.15.36q-.06.33-.09.66a7.18,7.18,0,0,0,0,1.31c0,.11,0,.22,0,.34a.61.61,0,0,0,.24.38.45.45,0,0,0,.13.05h1.88l2.57-.05c1.71-.07,3.42-.13,5.12-.26.43,0,.86-.07,1.29-.13l.19,0,.11,0a.35.35,0,0,0,.08-.12,1.73,1.73,0,0,0,.08-.35,4.75,4.75,0,0,0,0-.65,7.83,7.83,0,0,0-.13-1.29,1.92,1.92,0,0,0-.09-.32.3.3,0,0,0,0-.08.13.13,0,0,0-.11-.05h-.16Z"/></g><circle class="cls-7" cx="376.99" cy="227.73" r="24.43" transform="translate(-50.61 333.27) rotate(-45)"/><path class="cls-15" d="M356.64,228.23a20.35,20.35,0,1,0,19.95-20.75A20.16,20.16,0,0,0,356.64,228.23Z"/><circle class="cls-14" cx="376.99" cy="227.73" r="17.84" transform="translate(-62.16 194.21) rotate(-26.77)"/><circle class="cls-21" cx="376.99" cy="227.73" r="16.45" transform="translate(-46.16 349.88) rotate(-47.24)"/><path class="cls-14" d="M374.33,223.65l5.16-.1c-1.79-2.48,4.11-11.39,4.11-11.39l-2.74-.85c-1.74,3.13-2.63,4.06-4.11,4.09s-2.41-.86-4.28-3.93l-2.7,1S376,221.1,374.33,223.65Z"/><path class="cls-14" d="M379.93,223.86l1.7,4.88c1.8-2.48,12.1.38,12.1.38l0-2.86c-3.52-.69-4.67-1.25-5.16-2.65s.07-2.56,2.41-5.29l-1.75-2.26S382.88,224.68,379.93,223.86Z"/><path class="cls-14" d="M381.47,229.25l-4.12,3.12c2.91.95,3.38,11.62,3.38,11.62l2.71-.91c-.43-3.57-.26-4.84.92-5.73s2.46-.72,5.78.66l1.61-2.37S381.6,232.31,381.47,229.25Z"/><path class="cls-14" d="M376.82,232.38l-4.24-3c0,3.07-10,6.8-10,6.8l1.71,2.3c3.26-1.51,4.52-1.74,5.74-.89s1.44,2.11,1.16,5.7l2.74.8S374,233.45,376.82,232.38Z"/><path class="cls-14" d="M372.4,228.92l1.5-4.94c-2.91.93-9.56-7.43-9.56-7.43l-1.66,2.34c2.45,2.63,3.05,3.76,2.62,5.18s-1.56,2-5.05,2.86l.08,2.86S370.5,226.52,372.4,228.92Z"/><path class="cls-14" d="M372.22,227.71a4.77,4.77,0,1,0,4.67-4.87A4.76,4.76,0,0,0,372.22,227.71Z"/><path class="cls-7" d="M223.71,252h-35.2c-3.24,0-1.2-1.68-.52-1.68s.56-1.1.95-1.46l.12-.11,17.05-.87,17,.87.08.08c.34.31.39,1.49,1,1.49S226.94,252,223.71,252Z"/><path class="cls-7" d="M230.53,231.06a24,24,0,0,1-7.29,17.75,24.33,24.33,0,0,1-4,3.17H192.93a24.31,24.31,0,0,1-4-3.14A24,24,0,0,1,181.69,232a24.42,24.42,0,1,1,48.84-1Z"/><path class="cls-15" d="M185.76,231.93a20.35,20.35,0,1,0,19.94-20.75A20.15,20.15,0,0,0,185.76,231.93Z"/><circle class="cls-14" cx="206.11" cy="231.55" r="17.84" transform="translate(-75.21 101.34) rotate(-23.49)"/><circle class="cls-21" cx="206.11" cy="231.55" r="16.45" transform="translate(-103.83 225.65) rotate(-47.24)"/><path class="cls-14" d="M203.44,227.47l5.17-.1c-1.8-2.48,4.1-11.39,4.1-11.39l-2.73-.85c-1.75,3.13-2.63,4.06-4.12,4.09s-2.41-.86-4.28-3.93l-2.69,1S205.14,224.92,203.44,227.47Z"/><path class="cls-14" d="M209.05,227.68l1.69,4.88c1.81-2.48,12.1.38,12.1.38l0-2.86c-3.53-.69-4.68-1.25-5.17-2.65s.08-2.56,2.41-5.29l-1.75-2.26S212,228.5,209.05,227.68Z"/><path class="cls-14" d="M210.58,233.07l-4.11,3.12c2.91.95,3.37,11.62,3.37,11.62l2.71-.91c-.43-3.57-.26-4.84.93-5.73s2.45-.72,5.77.65l1.61-2.36S210.72,236.13,210.58,233.07Z"/><path class="cls-14" d="M205.93,236.2l-4.24-3c0,3.07-10,6.8-10,6.8l1.71,2.3c3.25-1.51,4.51-1.74,5.73-.89s1.45,2.11,1.16,5.7l2.75.8S203.06,237.27,205.93,236.2Z"/><path class="cls-14" d="M201.52,232.74l1.5-4.94c-2.92.93-9.57-7.43-9.57-7.43l-1.65,2.34c2.44,2.63,3,3.76,2.62,5.18s-1.57,2-5.06,2.86l.08,2.86S199.61,230.34,201.52,232.74Z"/><path class="cls-14" d="M201.33,231.53a4.78,4.78,0,1,0,4.68-4.87A4.76,4.76,0,0,0,201.33,231.53Z"/><path class="cls-17" d="M252.34,171.23c.9.88.85,8.85.21,9.5s-9.49,1.27-10.23-3.67S251,169.84,252.34,171.23Z"/><path class="cls-15" d="M271.6,151.29s-25.66,12.36-44.34,24.81l-6.61,0,.4-.29h0l.16-.1.14-.09,1.07-.64c.14-.07.28-.16.43-.25l.25-.14.49-.29.31-.18,2-1.13,1-.56.38-.23.79-.45.41-.24,1.22-.7.14-.08,1.28-.73.14-.07c.57-.34,1.16-.67,1.78-1l1.5-.85.72-.41.85-.48,1.74-1,1-.54,3.37-1.9,1.14-.63,1.88-1,1.63-.9.59-.33,1.17-.64,1.17-.65c1.76-1,3.52-1.92,5.24-2.85l1.14-.61.57-.31.72-.38.4-.21,1.11-.59.55-.29,1.09-.57.53-.29,1.58-.81h0l1-.53.63-.31,1.33-.68,1.74-.86Z"/><g class="cls-22"><path class="cls-13" d="M405.45,210.62a31.29,31.29,0,0,0-5.51-6.69,33.81,33.81,0,0,0-23.88-9.15l-2.18.12-1.09,0-1.09.16-2.16.32c-.71.15-1.42.34-2.13.51a27,27,0,0,0-8,3.48,27.82,27.82,0,0,0-6.46,5.83,38.7,38.7,0,0,0-4.54,7.39,40.9,40.9,0,0,1,4.76-7.21,27.9,27.9,0,0,1,6.48-5.64,31.56,31.56,0,0,1,16.41-4.42,35,35,0,0,1,8.54.87,34.36,34.36,0,0,1,15.14,7.9A32.6,32.6,0,0,1,405.45,210.62Z"/><path class="cls-13" d="M234.31,211.45a31.4,31.4,0,0,0-5.51-6.7,34.72,34.72,0,0,0-7.06-5.09,34.23,34.23,0,0,0-16.82-4.06l-2.19.12-1.09.06c-.36,0-.72.1-1.08.15l-2.16.32c-.72.15-1.42.34-2.13.51a27,27,0,0,0-8,3.48,28,28,0,0,0-6.45,5.83,38.75,38.75,0,0,0-4.55,7.39,41,41,0,0,1,4.77-7.21,27.8,27.8,0,0,1,6.47-5.63,31.5,31.5,0,0,1,16.41-4.43,35.08,35.08,0,0,1,8.55.87,34.14,34.14,0,0,1,8.06,3,34.85,34.85,0,0,1,7.08,4.91A33,33,0,0,1,234.31,211.45Z"/><path class="cls-13" d="M401.72,170.1c-3.82-3-7.69-5.85-11.6-8.71s-7.84-5.66-11.9-8.32c-.51-.32-1-.64-1.56-.94-.26-.16-.53-.3-.81-.44a4,4,0,0,0-.89-.33c-1.18-.34-2.35-.63-3.52-.92-2.36-.57-4.72-1.11-7.09-1.56a41.11,41.11,0,0,0-7.24-.71c-2.42,0-4.84,0-7.26.1,2.42,0,4.84,0,7.25.18a42.06,42.06,0,0,1,7.16.87c2.35.51,4.71,1,7.05,1.63,1.17.3,2.34.6,3.49.94a4.73,4.73,0,0,1,.8.3c.26.13.52.28.78.43.51.3,1,.62,1.53.95,4.06,2.6,8,5.42,11.95,8.18Z"/></g><path class="cls-9" d="M179.82,226.44c-.1,4.25.63,8.92.4,8.91-.5,0-1.75.1-2.71.11h0a2,2,0,0,1-.51-.07c-.46-.19.35-3.69-.1-3.82s-3.62-.18-4.4-.37S166.1,225,166,224.84c1.16.29,7.41,3.67,8.16,2.85s-.08-1.32,3.13-8.12,11.22-13.42,16-14.47A25.64,25.64,0,0,0,179.82,226.44Z"/><path class="cls-16" d="M184.61,184.65l21.12,15.87-26.41-4.64-.57,20.91-7.66-19.16-13.51,18.54,5.57-20-25.25,4.36,22.61-12-15.15-3.14,16.44-2.64-16.92-19.68,23,10.83,3.22-27.21,6,25.78s19-15.56,18.36-15.12-13,20-13,20L203,171.4Z"/><path class="cls-23" d="M184.61,184.65l21.12,15.87-26.41-4.64-.57,20.91-7.66-19.16-13.51,18.54,5.57-20-25.25,4.36,22.61-12-15.15-3.14,16.44-2.64-16.92-19.68,23,10.83,3.22-27.21,6,25.78s19-15.56,18.36-15.12-13,20-13,20L203,171.4Z"/><path class="cls-23" d="M181.08,184.61l14.81,11.13-18.51-3.25-.4,14.65-5.37-13.43-9.47,13,3.9-14L148.49,197l15.7-9.64-10.62-2.2,11.53-1.85L153.23,169.5l16.11,7.59L171.6,158l4.21,18.07s13.29-10.9,12.87-10.6-9.13,14-9.13,14L194,175.33Z"/></svg>