<svg width="32" height="8" viewBox="0 0 32 8" fill="none" xmlns="http://www.w3.org/2000/svg">
<path fill-rule="evenodd" clip-rule="evenodd" d="M32 7.9988C30.834 7.9988 29.6684 8.00403 28.5025 7.99265C27.3866 7.98157 26.1376 7.96587 25.0516 7.59567C23.8785 7.19563 23.1019 6.49616 22.3205 5.67298C21.7579 5.08091 20.6529 3.81769 20.1149 3.20777C19.6745 2.70771 18.8124 1.71928 18.3418 1.24107C17.7493 0.63946 17.0169 -8.33028e-07 15.9997 -9.21957e-07C14.9824 -1.01089e-06 14.2504 0.639459 13.6582 1.24045C13.1876 1.71836 12.3255 2.7074 11.8848 3.20715C11.3474 3.81707 10.2424 5.0803 9.6795 5.67237C8.89676 6.49554 8.1215 7.19501 6.94874 7.59506C5.86242 7.96433 4.61309 7.98095 3.49785 7.99203C2.33156 8.00341 1.16595 7.99818 1.90751e-06 7.99818" fill="#F3F3F3"/>
</svg>
