<svg width="670" height="370" viewBox="0 0 670 370" fill="none" xmlns="http://www.w3.org/2000/svg">
<path fill-rule="evenodd" clip-rule="evenodd" d="M649.452 57.7668C693.768 101.863 644.798 176.673 624.955 235.464C611.814 274.396 589.68 307.732 556.812 332.232C527.125 354.361 491.232 359.541 454.213 362.734C407.207 366.789 356.942 380.236 318.206 352.813C272.527 320.474 239.345 267.043 240.331 211.313C241.339 154.293 273.953 98.1505 323.21 69.9676C367.004 44.9102 418.522 82.2978 469.124 80.4054C532.11 78.0498 604.508 13.0451 649.452 57.7668Z" fill="#6B9FC4" fill-opacity="0.08"/>
<path fill-rule="evenodd" clip-rule="evenodd" d="M509.301 157.633C526.571 220.798 436.58 264.162 383.769 307.82C348.797 336.73 308.395 355.892 262.753 361.445C221.526 366.46 184.065 352.761 146.663 336.663C99.1697 316.222 43.1543 302.71 21.6757 257.685C-3.65291 204.589 -4.86858 138.594 28.0664 88.0499C61.7638 36.336 125.325 1.66761 188.829 1.16276C245.29 0.713907 273.332 61.4357 323.039 85.7049C384.911 115.914 491.785 93.5708 509.301 157.633Z" fill="#6B9FC4" fill-opacity="0.14"/>
</svg>
