<svg width="32" height="32" viewBox="0 0 32 32" fill="none" xmlns="http://www.w3.org/2000/svg">
  <path d="M20 6.66663C20 5.60576 19.5786 4.58834 18.8284 3.8382C18.0783 3.08805 17.0609 2.66663 16 2.66663C14.9391 2.66663 13.9217 3.08805 13.1716 3.8382C12.4214 4.58834 12 5.60576 12 6.66663M20 6.66663H24M20 6.66663C20 7.87063 19.468 8.95063 18.6267 9.68396M12 6.66663H8M12 6.66663C12 7.87063 12.532 8.95063 13.3733 9.68396M18.6267 9.68396C22.8547 10.912 24 15.0773 24 17.3333V24C24 24.7072 23.719 25.3855 23.219 25.8856C22.7189 26.3857 22.0406 26.6666 21.3333 26.6666H18.6667M18.6267 9.68396C17.8991 10.319 16.9657 10.6682 16 10.6666C15.0343 10.6682 14.1009 10.319 13.3733 9.68396M13.3733 9.68396C9.14533 10.912 8 15.0773 8 17.3333V24C8 24.7072 8.28095 25.3855 8.78105 25.8856C9.28115 26.3857 9.95942 26.6666 10.6667 26.6666H13.3333M18.6667 26.6666C18.6667 27.3739 18.3857 28.0521 17.8856 28.5522C17.3855 29.0523 16.7072 29.3333 16 29.3333C15.2928 29.3333 14.6145 29.0523 14.1144 28.5522C13.6143 28.0521 13.3333 27.3739 13.3333 26.6666M18.6667 26.6666V20C18.6667 19.2927 18.3857 18.6144 17.8856 18.1143C17.3855 17.6142 16.7072 17.3333 16 17.3333C15.2928 17.3333 14.6145 17.6142 14.1144 18.1143C13.6143 18.6144 13.3333 19.2927 13.3333 20V26.6666" stroke="white" stroke-width="2" stroke-linecap="round" stroke-linejoin="round"></path>
</svg>
