<svg width="20" height="20" viewBox="0 0 20 20" fill="none" xmlns="http://www.w3.org/2000/svg">
<g fill="currentColor">

<path fill-rule="evenodd" clip-rule="evenodd" d="M12.3863 1.13642C12.6792 0.843525 13.1541 0.843525 13.447 1.13642L18.8637 6.55308C19.1566 6.84598 19.1566 7.32085 18.8637 7.61374C18.5708 7.90664 18.0959 7.90664 17.803 7.61374L16.8746 6.68532L15.6436 7.91633L16.7803 9.05308C17.0732 9.34598 17.0732 9.82085 16.7803 10.1137C16.4874 10.4066 16.0126 10.4066 15.7197 10.1137L9.88634 4.28041C9.59344 3.98752 9.59344 3.51264 9.88634 3.21975C10.1792 2.92686 10.6541 2.92686 10.947 3.21975L12.0829 4.35567L13.3139 3.12466L12.3863 2.19708C12.0934 1.90418 12.0934 1.42931 12.3863 1.13642ZM14.3746 4.18532L13.1436 5.41633L14.5829 6.85567L15.8139 5.62466L14.3746 4.18532ZM5.11366 14.8864C5.40656 15.1793 5.40656 15.6542 5.11366 15.9471L3.03033 18.0304C2.73744 18.3233 2.26256 18.3233 1.96967 18.0304C1.67678 17.7375 1.67678 17.2626 1.96967 16.9697L4.053 14.8864C4.3459 14.5935 4.82077 14.5935 5.11366 14.8864Z" />
<path fill-rule="evenodd" clip-rule="evenodd" d="M11.137 4.46967C11.4299 4.17678 11.9048 4.17678 12.1977 4.46967L15.531 7.803C15.8239 8.0959 15.8239 8.57077 15.531 8.86366L8.86432 15.5303C8.7439 15.6508 8.58607 15.7266 8.41681 15.7454L4.66681 16.1621C4.44037 16.1872 4.21476 16.1081 4.05366 15.947C3.89255 15.7859 3.81342 15.5603 3.83858 15.3338L4.25524 11.5838C4.27405 11.4146 4.3499 11.2568 4.47033 11.1363L11.137 4.46967ZM5.71702 12.011L5.43293 14.5677L7.98969 14.2836L13.94 8.33333L11.6673 6.06066L5.71702 12.011Z" />
<path fill-rule="evenodd" clip-rule="evenodd" d="M9.64645 6.52145C9.84171 6.32618 10.1583 6.32618 10.3536 6.52145L11.6036 7.77145C11.7988 7.96671 11.7988 8.28329 11.6036 8.47855C11.4083 8.67382 11.0917 8.67382 10.8964 8.47855L9.64645 7.22855C9.45118 7.03329 9.45118 6.71671 9.64645 6.52145Z" />
<path fill-rule="evenodd" clip-rule="evenodd" d="M5.89645 10.2714C6.09171 10.0762 6.40829 10.0762 6.60355 10.2714L7.85355 11.5214C8.04882 11.7167 8.04882 12.0333 7.85355 12.2286C7.65829 12.4238 7.34171 12.4238 7.14645 12.2286L5.89645 10.9786C5.70118 10.7833 5.70118 10.4667 5.89645 10.2714Z" />
<path fill-rule="evenodd" clip-rule="evenodd" d="M7.77145 8.39645C7.96671 8.20118 8.28329 8.20118 8.47855 8.39645L9.72855 9.64645C9.92382 9.84171 9.92382 10.1583 9.72855 10.3536C9.53329 10.5488 9.21671 10.5488 9.02145 10.3536L7.77145 9.10355C7.57618 8.90829 7.57618 8.59171 7.77145 8.39645Z" />
</g>

</svg>
