<svg width="32" height="32" viewBox="0 0 32 32" fill="none" xmlns="http://www.w3.org/2000/svg">
<path d="M4.18652 9.44071L10.1178 12.6237C10.1178 12.6237 11.9906 13.4352 13.0523 11.8123C14.1134 10.1894 14.4257 9.5655 16.049 9.87716C17.6724 10.1888 19.608 8.81615 19.2958 6.881C18.9836 4.94584 18.7342 3.82275 18.7342 3.82275" stroke="white" stroke-width="2" stroke-miterlimit="10"></path>
<path d="M8.24532 24.2334L9.33566 21.6793C9.33566 21.6793 10.2979 19.499 8.62971 17.693C6.96154 15.8864 4.97305 16.3849 4.97305 16.3849L3.17676 16.6339" stroke="white" stroke-width="2" stroke-miterlimit="10"></path>
<path d="M27.6428 24.8284L25.4354 20.5549L27.6814 18.4523C28.6312 17.5663 29.1151 16.2933 28.9764 15.0461C28.949 14.799 28.8383 14.5777 28.6728 14.4109C28.518 14.2547 28.3146 14.1469 28.0869 14.1111C26.8125 13.9123 25.515 14.3789 24.6169 15.3571L22.5295 17.624L18.2906 15.3991C18.2819 15.3941 18.2726 15.3897 18.2639 15.3853C17.8092 15.1633 17.2519 15.2681 16.8762 15.6468L16.6075 15.9177C16.3992 16.1278 16.2872 16.4169 16.2984 16.7141C16.309 16.9831 16.4197 17.2371 16.6075 17.4265C16.6268 17.4459 16.6474 17.4653 16.6685 17.4835L20.0167 20.3655L16.9484 23.7166L15.5831 23.247C15.2012 23.1159 14.7789 23.2143 14.4934 23.5022L14.4623 23.5335C14.2533 23.7442 14.1414 24.0333 14.1532 24.3312C14.1638 24.5996 14.2751 24.8535 14.4623 25.0416C14.4828 25.0623 14.504 25.0818 14.5258 25.1006L15.7784 26.1729C15.9874 26.3516 16.1927 26.5422 16.3892 26.7398C16.5858 26.9379 16.7767 27.1467 16.9565 27.3606L18.0195 28.6229C18.0381 28.6448 18.0574 28.6661 18.0779 28.6868C18.2651 28.8756 18.5164 28.9872 18.7826 28.9985C19.0781 29.0104 19.3648 28.8975 19.5738 28.6868L19.6049 28.6555C19.8904 28.3676 19.988 27.9419 19.858 27.5568L19.3922 26.1804L22.7161 23.087L25.5747 26.4626C25.5928 26.4839 25.6114 26.5046 25.6313 26.524C25.8185 26.7128 26.0704 26.825 26.3379 26.8357C26.6327 26.8476 26.9188 26.7347 27.1278 26.524L27.3965 26.2531C27.7778 25.8688 27.8786 25.2849 27.6428 24.8284Z" stroke="white" stroke-width="2" stroke-miterlimit="10"></path>
<path d="M11.0473 25.5947C6.38485 24.1286 3 19.7423 3 14.5589C3 8.17524 8.13325 3 14.4651 3C19.6879 3 24.0947 6.5204 25.4786 11.3363" stroke="white" stroke-width="2" stroke-miterlimit="10" stroke-linecap="round"></path>
</svg>