<svg id="圖層_1" data-name="圖層 1" xmlns="http://www.w3.org/2000/svg" viewBox="0 0 228.79 215.32"><defs><style>.cls-1{fill:#ff8b87;}.cls-2{fill:#595552;}.cls-3{fill:#ff6f70;}.cls-4{fill:#9bd0e2;}.cls-5{fill:#fff;}.cls-6{fill:#6dbcd0;}.cls-7{fill:#fcc773;}</style></defs><path class="cls-1" d="M38.7,46.26s-26.07,1.54-25-11.88c.64-8.14,13.83-10.5,18.77-8.14,2.7,1.27,7.61,4.06,4.65,8.48S41,41.51,41,41.51L38.7,46.26Z"/><path class="cls-1" d="M184.15,44s26.07,1.54,25-11.88c-.64-8.14-13.84-10.5-18.78-8.14-2.7,1.27-7.6,4.06-4.66,8.47s-3.85,6.8-3.85,6.8L184.15,44Z"/><path d="M36.07,49.7c-5.44,0-16.86-.72-22.47-6.45a11.37,11.37,0,0,1-3.26-9.14c.29-3.79,2.56-7.1,6.37-9.3,5.14-3,12.86-3.69,17.21-1.62,1.51.72,6.1,2.89,7.24,7a7.62,7.62,0,0,1-1.23,6.4,2.27,2.27,0,0,0-.15.25,6,6,0,0,0,2.34,1.49l3.51,1.27-4.75,9.91-2,.12C38.52,49.65,37.5,49.7,36.07,49.7Zm-8.35-21a15.94,15.94,0,0,0-7.63,1.9c-1.89,1.09-2.91,2.43-3,4a4.71,4.71,0,0,0,1.35,3.89C22,42.19,31.36,43,36.4,43h.14a8.44,8.44,0,0,1-3.21-4.06,6.72,6.72,0,0,1,1-6,1.46,1.46,0,0,0,.34-.85c0-.12-.41-1.18-3.63-2.7A8.28,8.28,0,0,0,27.72,28.75Zm12,8.18Z"/><path d="M186.79,47.39c-1.44,0-2.45,0-2.84-.07l-2-.12-4.75-10L180.77,36a5.94,5.94,0,0,0,2.31-1.48l-.14-.24a7.64,7.64,0,0,1-1.24-6.42c1.15-4.11,5.74-6.28,7.25-7,4.34-2.08,12.06-1.35,17.2,1.61,3.82,2.21,6.08,5.51,6.38,9.31a11.38,11.38,0,0,1-3.27,9.14C203.65,46.66,192.22,47.39,186.79,47.39Zm-.46-6.76c5,0,14.5-.72,18.12-4.42a4.63,4.63,0,0,0,1.35-3.88c-.12-1.56-1.14-2.91-3-4-3.75-2.16-9.07-2.25-10.94-1.36-3.23,1.52-3.6,2.59-3.64,2.7s.24.72.34.86a6.71,6.71,0,0,1,1,6A8.4,8.4,0,0,1,186.33,40.63Z"/><path class="cls-2" d="M35.7,212H22.59a9.08,9.08,0,0,1-8.87-9.28V173.79H44.57v28.88A9.09,9.09,0,0,1,35.7,212Z"/><path class="cls-2" d="M202.94,212h-13.1a9.09,9.09,0,0,1-8.88-9.28V173.79h30.85v28.88a9.08,9.08,0,0,1-8.87,9.28Z"/><path d="M35.7,215.32H22.59a12.46,12.46,0,0,1-12.24-12.65V170.41H47.94v32.26A12.46,12.46,0,0,1,35.7,215.32ZM17.09,177.16v25.51a5.72,5.72,0,0,0,5.5,5.91H35.7a5.72,5.72,0,0,0,5.5-5.91V177.16Z"/><path d="M202.94,215.32h-13.1a12.46,12.46,0,0,1-12.25-12.65V170.41h37.6v32.26A12.47,12.47,0,0,1,202.94,215.32Zm-18.6-38.16v25.51a5.72,5.72,0,0,0,5.5,5.91h13.1a5.72,5.72,0,0,0,5.5-5.91V177.16Z"/><path class="cls-3" d="M10.86,137.92v24.85c0,15.38,11.91,20.41,26.61,20.41H188.31c14.7,0,26.62-5,26.62-20.41V137.92a799.17,799.17,0,0,1-102,6.34,799.13,799.13,0,0,1-102-6.34Z"/><path class="cls-1" d="M212.51,101.22c-3.47-6.94-4.36-19.24-8.09-23.8-5.32-6.49-4.44-17.63-7.09-21.33S184,7.93,176,6.91C118.35-.51,58.66,6,50.67,6.91S32,52.37,29.37,56.09,27.6,70.93,22.28,77.42c-3.74,4.56-5.54,16.86-9,23.8a28.16,28.16,0,0,0-2.41,10.53v26.17a799.13,799.13,0,0,0,102,6.34,799.17,799.17,0,0,0,102-6.34V111.75a28.17,28.17,0,0,0-2.42-10.53Z"/><path d="M188.31,186.56H37.47c-19.34,0-30-8.45-30-23.79,0-5.14-.14-10.4-.28-15.49-.56-20.57-1.14-41.85,7.47-62,5.92-13.87,11.64-29.47,17.48-47.7.3-1,.71-2.45,1.19-4.19,4-14.53,8.55-28.8,16.93-29.78,11.09-1.29,69.25-7.32,126.19,0,6.8.88,10.42,10.54,13.55,20.36.32,1,.61,1.92.85,2.59,2.91,8.45,5.75,17.05,8.5,25.36,4.42,13.33,9,27.11,13.87,40.49a73.9,73.9,0,0,1,2.45,8.12c2.7,11.17,2.67,22,2.63,33.41,0,1.33,0,2.67,0,4v24.85C218.3,178.11,207.65,186.56,188.31,186.56ZM116.13,6.74a595.83,595.83,0,0,0-65.08,3.52c-.25,0-2.58.52-5.92,8.44a136.64,136.64,0,0,0-5.28,16.42c-.52,1.89-.93,3.38-1.28,4.47C32.66,58,26.88,73.81,20.88,87.88c-8,18.84-7.5,38.45-6.93,59.22.13,5.13.28,10.44.28,15.67,0,11.47,7.6,17,23.24,17H188.31c15.64,0,23.25-5.57,23.25-17V137.92c0-1.36,0-2.71,0-4,0-11,.06-21.43-2.44-31.81h0a69.91,69.91,0,0,0-2.23-7.38C202,81.2,197.39,67.37,193,54c-2.75-8.3-5.58-16.87-8.47-25.26-.25-.69-.56-1.65-.91-2.77-4-12.65-6.57-15.53-8-15.71A473.08,473.08,0,0,0,116.13,6.74Z"/><path class="cls-4" d="M112.9,65.63c-14.67,0-64.68-1.74-65.14-1.75a5,5,0,0,1-4.27-2.05A5.93,5.93,0,0,1,42.81,57l8.87-31.89c6.07-.25,48.11-1.72,61.22-1.72S169,24.87,175,25.12l8.88,31.94a5.87,5.87,0,0,1-.68,4.78,5,5,0,0,1-4.23,2c-.5,0-51.42,1.75-66.09,1.75Z"/><path class="cls-1" d="M112.89,153.5H29.15s1.23,20.29,21.63,20.29H175c20.4,0,21.63-20.29,21.63-20.29Z"/><path class="cls-5" d="M140.14,170.42H85.64a5.45,5.45,0,0,1-5.32-5.57V156a5.46,5.46,0,0,1,5.32-5.58h54.5a5.47,5.47,0,0,1,5.33,5.58v8.82a5.45,5.45,0,0,1-5.33,5.57Z"/><path d="M85.64,152.15a3.8,3.8,0,0,0-3.7,3.88v8.82a3.79,3.79,0,0,0,3.7,3.87h54.5a3.78,3.78,0,0,0,3.7-3.87V156a3.79,3.79,0,0,0-3.7-3.88Zm54.5,20H85.64a7.12,7.12,0,0,1-7-7.27V156a7.12,7.12,0,0,1,7-7.27h54.5a7.12,7.12,0,0,1,7,7.27v8.82a7.12,7.12,0,0,1-7,7.27Z"/><path d="M140.14,174.15H85.64a9.14,9.14,0,0,1-9-9.29V156a9.14,9.14,0,0,1,9-9.29h54.5a9.15,9.15,0,0,1,9,9.29v8.83A9.15,9.15,0,0,1,140.14,174.15Zm-54.5-20A1.79,1.79,0,0,0,84,156v8.83a1.77,1.77,0,0,0,1.68,1.84h54.5a1.77,1.77,0,0,0,1.68-1.84V156a1.78,1.78,0,0,0-1.68-1.86Z"/><path d="M29.15,117.27s30.5,1.87,33.17,12.07-8,12-8,12-31.75,9.37-34.57-12c-1.83-13.92,9.39-12.07,9.39-12.07Z"/><path d="M39.8,145.46c-5,0-10.47-.84-14.71-3.6S18.47,135,17.75,129.6c-.69-5.28.27-9.23,2.86-11.74,3.27-3.17,7.91-2.71,8.74-2.6,3.65.23,32,2.36,34.93,13.57A11.16,11.16,0,0,1,63.19,138c-2.59,4-7.51,5.19-8.38,5.36A59.38,59.38,0,0,1,39.8,145.46ZM27.89,119.22a6.45,6.45,0,0,0-4.49,1.57c-1.6,1.57-2.15,4.36-1.63,8.28.56,4.27,2.36,7.33,5.52,9.39,9.18,6,26.3,1,26.47,1l.22,0s4-.76,5.82-3.61a7.33,7.33,0,0,0,.56-5.94C58.69,123.45,40.25,120,29,119.29l-.19,0A9.37,9.37,0,0,0,27.89,119.22Z"/><path class="cls-5" d="M39.76,137.89c-13.52,0-14.42-6.76-14.75-9.31-.47-3.59.27-4.8.51-5.09a3.42,3.42,0,0,1,2.36-.76l.26,0,.7,0c14.79.91,27.61,5.12,28.36,8,.52,2,.07,2.71-.07,3-.75,1.23-2.83,2-3.73,2.18a56,56,0,0,1-13.64,1.95Z"/><path d="M196.64,117.27s-30.5,1.87-33.17,12.07,8,12,8,12,31.76,9.37,34.58-12c1.83-13.92-9.39-12.07-9.39-12.07Z"/><path d="M186,145.46a59.38,59.38,0,0,1-15-2.1c-.87-.17-5.78-1.33-8.38-5.36-1.64-2.55-2-5.64-1.08-9.17,2.93-11.21,31.28-13.34,34.92-13.57.84-.11,5.47-.57,8.75,2.6,2.59,2.51,3.55,6.46,2.85,11.74-.71,5.43-3.18,9.55-7.33,12.25S191,145.46,186,145.46Zm11.92-26.25a6.77,6.77,0,0,0-.93.06l-.21,0c-11.23.69-29.66,4.17-31.33,10.56a7.26,7.26,0,0,0,.56,5.94c1.81,2.85,5.77,3.6,5.81,3.61l.22,0c.17.05,17.3,5,26.48-1,3.15-2.06,5-5.13,5.52-9.39.52-3.94,0-6.74-1.66-8.3A6.48,6.48,0,0,0,197.9,119.21Z"/><path class="cls-5" d="M186,137.89c13.53,0,14.42-6.76,14.75-9.31.47-3.59-.26-4.8-.51-5.09a3.41,3.41,0,0,0-2.36-.76l-.26,0-.69,0c-14.79.91-27.61,5.12-28.37,8-.51,2-.07,2.71.08,3,.74,1.23,2.82,2,3.72,2.18A56,56,0,0,0,186,137.89Z"/><path d="M168.06,137.82a515.1,515.1,0,0,1-110.33,0l1.41-7.51a501.71,501.71,0,0,0,107.5,0c.47,2.5,1,5,1.42,7.51Z"/><path class="cls-6" d="M179.5,39.55C165.83,48.77,134,55,103.68,55c-20.83,0-44.36-3-58.63-7.8L42.8,55.31a5.93,5.93,0,0,0,.68,4.82,5,5,0,0,0,4.27,2c.46,0,50.47,1.75,65.14,1.75s65.59-1.74,66.09-1.75a5,5,0,0,0,4.23-2,5.87,5.87,0,0,0,.68-4.78Z"/><path d="M112.9,69c-14.42,0-63.3-1.68-65.2-1.75a8.37,8.37,0,0,1-7-3.5,9.27,9.27,0,0,1-1.19-7.51.5.5,0,0,1,0-.13l8.87-31.89a3.38,3.38,0,0,1,3.11-2.47C57.35,21.52,99.66,20,112.9,20c13,0,55.37,1.44,62.26,1.72a3.38,3.38,0,0,1,3.11,2.47l8.88,31.94,0,.11A9.15,9.15,0,0,1,186,63.76a8.33,8.33,0,0,1-6.93,3.49h-.24C170.17,67.55,126.36,69,112.9,69ZM46.08,57.84a2.67,2.67,0,0,0,.18,2.06,1.9,1.9,0,0,0,1.62.61c.5,0,50.49,1.75,65,1.75,13.36,0,57.06-1.45,65.69-1.74h.29a1.86,1.86,0,0,0,1.56-.59,2.67,2.67,0,0,0,.2-2L172.43,28.4C161.1,28,124.7,26.77,112.9,26.77S65.08,28,54.27,28.4Z"/><ellipse class="cls-5" cx="73.9" cy="36.41" rx="12.1" ry="3.94"/><rect class="cls-7" x="3.89" y="52.05" width="221" height="61.1" rx="15.25"/><path d="M208.65,116.59H20.14C9,116.59,0,108.62,0,98.84V66.37c0-9.79,9-17.75,20.14-17.75H208.65c11.11,0,20.14,8,20.14,17.75V98.84C228.79,108.62,219.76,116.59,208.65,116.59ZM20.14,55.49c-6.81,0-12.35,4.88-12.35,10.88V98.84c0,6,5.54,10.88,12.35,10.88H208.65c6.81,0,12.35-4.88,12.35-10.88V66.37c0-6-5.54-10.88-12.35-10.88Z"/><path d="M71.41,83.32a39.28,39.28,0,0,1-6.54,8.29c.84,2.33,1.77,3.73,2.61,3.73.68,0,1.12-1.83,1.32-6.21a15.25,15.25,0,0,0,4.74,3.26c-.88,7.09-2.65,8.68-6.66,8.68-2.77,0-5-2.09-6.67-5.5a54,54,0,0,1-6.82,4.22,22.86,22.86,0,0,0-3.9-4.57,42.77,42.77,0,0,0,8.75-5.08,67.22,67.22,0,0,1-1.92-10H48.77v3.45l5.78-.89.4,5.11L48.77,89v5.5c0,2.87-.56,4.38-2.37,5.27s-4.34,1.09-7.59,1.09a20.92,20.92,0,0,0-2.05-5.7c2.09.12,4.42.12,5.14.08s1-.2,1-.82V90.1l-6.55,1.17L35,85.57c2.16-.27,4.93-.62,7.91-1.09v-4.3H35.8V74.87h7.07V71.42c-2,.27-4,.5-5.87.66a20.1,20.1,0,0,0-1.64-4.73,97.26,97.26,0,0,0,16.06-3.14L55.35,69c-2,.58-4.29,1-6.58,1.47v4.38h7c-.28-3.49-.44-7.06-.44-10.47h6.11a101.71,101.71,0,0,0,.32,10.47H72.34v5.31h-10c.28,1.86.56,3.64.92,5.27a26.24,26.24,0,0,0,3-4.26ZM67.68,74.4a26.92,26.92,0,0,0-5.42-6.35l4.38-2.87a30.21,30.21,0,0,1,5.74,6.08Z"/><path d="M104.9,90.68A17.4,17.4,0,0,1,102,94.13c4,.93,7.55,1.9,10.36,2.72l-5.18,3.91c-2.73-1-6.39-2.05-10.6-3.14-4.7,2-10.8,2.91-18.79,3.41a14.93,14.93,0,0,0-2.13-4.84,80.65,80.65,0,0,0,11.12-.89c-2.21-.47-4.5-.89-6.78-1.32.84-1,1.76-2.09,2.69-3.3h-7V86.07H85.83c.6-1,1.16-2,1.64-2.94H78.08V71.69h8.59V70.14H76.31V65.29h35.46v4.85H101.12v1.55h9.6V83.13h-21l3.82.81c-.33.7-.73,1.43-1.13,2.13H101a20.17,20.17,0,0,0,.81-2.13l5.7,1.32-.28.81h5.54v4.61ZM83.54,78.78h3.13V76.07H83.54ZM88.92,91.3c2.13.39,4.25.82,6.3,1.28a10.82,10.82,0,0,0,2.53-1.9H89.36Zm3.25-19.61h3.45V70.14H92.17Zm3.45,7.09V76.07H92.17v2.71Zm5.5-2.71v2.71h3.78V76.07Z"/><path d="M125.78,86.5v8.37c0,2.56-.45,3.92-2,4.73s-3.61,1-6.5,1a18.86,18.86,0,0,0-1.57-5.08c1.4,0,3.05,0,3.57,0s.77-.2.77-.74V87.89l-3.5.82-1.44-5.39c1.44-.27,3.13-.58,4.94-1V76.42h-4.42V71.23h4.42V64.09h5.7v7.14h3.81V75.3a6.15,6.15,0,0,0,3-5.9V65.26H147.7v8.21c0,1.13.08,1.63.68,1.63H150a9.16,9.16,0,0,0,2.37-.31c.08,1.4.2,3.33.4,4.61a7.17,7.17,0,0,1-2.69.35h-2.33c-4.66,0-5.58-1.94-5.58-6.35v-3h-4.14a10.81,10.81,0,0,1-7,10.12,22,22,0,0,0-3.86-4.11l.08,0h-1.52v4.69l2.49-.54.72,5.15ZM151.43,82A24.89,24.89,0,0,1,145,93.32a37.48,37.48,0,0,0,8.55,2.44,23.85,23.85,0,0,0-3.65,5.23,33.27,33.27,0,0,1-10-3.87,39.26,39.26,0,0,1-10.44,3.76,19.52,19.52,0,0,0-2.81-5.12,32.51,32.51,0,0,0,8.39-2.4,29.22,29.22,0,0,1-5-6.63l2.21-.74h-2.85V80.76h17.23l1-.19ZM135.77,86A18.2,18.2,0,0,0,140,90.37,17.2,17.2,0,0,0,143.72,86Z"/><path d="M169.54,65.88a66.48,66.48,0,0,1-3.89,8V100.8h-5.54V81.88c-.69.78-1.37,1.52-2.05,2.21a35.76,35.76,0,0,0-3-5.85,39.58,39.58,0,0,0,9.07-14.07Zm6.87,24a46.13,46.13,0,0,1-5.74,9.46,37.55,37.55,0,0,0-4.5-3,27.5,27.5,0,0,0,5-8Zm6.9-2.32v13.41h-5.86V87.51h-9.92V82.43h9.92V79.68H170v-14h21.4v14h-8.11v2.75h9.92v5.08Zm-7.79-12.76h10V70.64h-10Zm13,13.53a44.22,44.22,0,0,1,5.34,7.91l-4.61,2.67a46,46,0,0,0-5.06-8.29Z"/></svg>