<svg width="20" height="21" viewBox="0 0 20 21" fill="none" xmlns="http://www.w3.org/2000/svg">
<path d="M16.7557 9.15527H3.24434C2.48807 9.15527 1.875 9.77296 1.875 10.5349V13.875C1.875 14.6369 2.48807 15.2546 3.24434 15.2546H16.7557C17.5119 15.2546 18.125 14.6369 18.125 13.875V10.5349C18.125 9.77296 17.5119 9.15527 16.7557 9.15527Z" stroke="#006FBC" stroke-width="1.5" stroke-miterlimit="10"/>
<path d="M3.57324 16L3.57369 17.1194C3.57369 17.7208 4.05824 18.2095 4.65568 18.2095H6.06071C6.65771 18.2095 7.14271 17.7213 7.14271 17.1194V16" stroke="#006FBC" stroke-width="1.5" stroke-miterlimit="10"/>
<path d="M12.8535 16L12.854 17.1194C12.854 17.7208 13.3385 18.2095 13.936 18.2095H15.341C15.938 18.2095 16.423 17.7213 16.423 17.1194V16" stroke="#006FBC" stroke-width="1.5" stroke-miterlimit="10"/>
<path d="M15.8091 5.69393C15.2826 3.44623 13.6331 3.53614 13.6331 3.53614H6.36656C6.36656 3.53614 4.71702 3.44623 4.19052 5.69393L3.26514 9.15538H16.735L15.8096 5.69393H15.8091Z" stroke="#006FBC" stroke-width="1.5" stroke-miterlimit="10"/>
<path d="M7.83936 12.2051H12.4752" stroke="#006FBC" stroke-width="1.5" stroke-miterlimit="10" stroke-linecap="round"/>
<path d="M4.81522 13.1172C5.30806 13.1172 5.70759 12.7147 5.70759 12.2182C5.70759 11.7216 5.30806 11.3191 4.81522 11.3191C4.32238 11.3191 3.92285 11.7216 3.92285 12.2182C3.92285 12.7147 4.32238 13.1172 4.81522 13.1172Z" fill="#006FBC"/>
<path d="M15.5237 13.1172C16.0166 13.1172 16.4161 12.7147 16.4161 12.2182C16.4161 11.7216 16.0166 11.3191 15.5237 11.3191C15.0309 11.3191 14.6313 11.7216 14.6313 12.2182C14.6313 12.7147 15.0309 13.1172 15.5237 13.1172Z" fill="#006FBC"/>
</svg>
