<svg width="20" height="21" viewBox="0 0 20 21" fill="none" xmlns="http://www.w3.org/2000/svg">
<path d="M11.6665 11.3333H14.9998M4.99984 11.3333H6.6665M6.6665 11.3333H8.33317M6.6665 11.3333V9.66663M6.6665 11.3333V13M4 6.33329H2.1665C2.0339 6.33329 1.90672 6.38597 1.81295 6.47974C1.71918 6.57351 1.6665 6.70068 1.6665 6.83329V15.8333C1.6665 15.9659 1.71918 16.0931 1.81295 16.1868C1.90672 16.2806 2.0339 16.3333 2.1665 16.3333H17.8332C17.9658 16.3333 18.093 16.2806 18.1867 16.1868C18.2805 16.0931 18.3332 15.9659 18.3332 15.8333V6.83329C18.3332 6.70068 18.2805 6.57351 18.1867 6.47974C18.093 6.38597 17.9658 6.33329 17.8332 6.33329H16M4 6.33329V4H6.6665V6.33329M4 6.33329H6.6665M16 6.33329V4H13.3332V6.33329M16 6.33329H13.3332M6.6665 6.33329H13.3332" stroke="#006FBC" stroke-width="1.5" stroke-linecap="round" stroke-linejoin="round"/>
</svg>
