<svg width="32" height="32" viewBox="0 0 32 32" fill="none" xmlns="http://www.w3.org/2000/svg">
    <path d="M26.8091 13.8488H5.19094C3.98092 13.8488 3 14.837 3 16.0562V21.4003C3 22.6194 3.98092 23.6077 5.19094 23.6077H26.8091C28.0191 23.6077 29 22.6194 29 21.4003V16.0562C29 14.837 28.0191 13.8488 26.8091 13.8488Z" stroke="white" stroke-width="2" stroke-miterlimit="10"></path>
    <path d="M5.7168 23.6077H11.4279V25.3986C11.4279 26.3617 10.6519 27.1428 9.69675 27.1428H7.4487C6.4928 27.1428 5.71751 26.361 5.71751 25.3986V23.6077H5.7168Z" stroke="white" stroke-width="2" stroke-miterlimit="10"></path>
    <path d="M20.5659 23.6077H26.2771V25.3986C26.2771 26.3617 25.5011 27.1428 24.5459 27.1428H22.2978C21.3419 27.1428 20.5666 26.361 20.5666 25.3986V23.6077H20.5659Z" stroke="white" stroke-width="2" stroke-miterlimit="10"></path>
    <path d="M25.295 8.31043C24.4526 4.71411 21.8133 4.85797 21.8133 4.85797H10.1869C10.1869 4.85797 7.54762 4.71411 6.70522 8.31043L5.22461 13.8488H26.7763L25.2957 8.31043H25.295Z" stroke="white" stroke-width="2" stroke-miterlimit="10"></path>
    <path d="M12.5435 18.7283H19.9608" stroke="white" stroke-width="2" stroke-miterlimit="10" stroke-linecap="round"></path>
    <path d="M7.70464 20.1876C8.49319 20.1876 9.13243 19.5435 9.13243 18.7491C9.13243 17.9546 8.49319 17.3105 7.70464 17.3105C6.9161 17.3105 6.27686 17.9546 6.27686 18.7491C6.27686 19.5435 6.9161 20.1876 7.70464 20.1876Z" fill="white"></path>
    <path d="M24.8384 20.1876C25.627 20.1876 26.2662 19.5435 26.2662 18.7491C26.2662 17.9546 25.627 17.3105 24.8384 17.3105C24.0499 17.3105 23.4106 17.9546 23.4106 18.7491C23.4106 19.5435 24.0499 20.1876 24.8384 20.1876Z" fill="white"></path>
</svg>