<svg width="105" height="105" viewBox="0 0 105 105" fill="none" xmlns="http://www.w3.org/2000/svg">
<g clip-path="url(#clip0_45_4525)">
<path d="M71.5883 0C72.2994 0.241903 73.0391 0.412658 73.6934 0.739938C76.6235 2.20558 78.117 4.63884 78.1312 7.89741C78.1597 16.0936 78.1454 24.2899 78.1454 32.5003C78.1454 38.7471 78.1454 45.0081 78.1454 51.2549C78.1454 51.6249 78.1454 51.9948 78.1454 52.4075C83.8349 54.0439 84.7453 58.3555 84.2474 63.35C85.8405 63.5777 87.3055 63.6916 88.7279 63.9904C97.1342 65.7691 103.691 72.9123 104.815 81.4501C104.843 81.7204 104.943 81.9766 105.014 82.2327C105.014 83.5987 105.014 84.9648 105.014 86.3308C104.772 87.4265 104.587 88.5364 104.303 89.6036C101.444 100.119 91.1175 106.594 80.4212 104.63C79.8807 104.53 79.2976 104.644 78.7286 104.701C77.9178 104.787 77.1071 104.986 76.2963 104.986C53.581 105 30.8656 105 8.15017 105C3.37098 105 0.0852824 101.727 0.0710586 96.9603C0.0568348 90.4005 0.0710586 83.8406 0.0710586 77.2808C0.0710586 77.0104 0.042611 76.7258 0.0995062 76.4697C0.255968 75.6586 0.768024 75.189 1.593 75.1748C2.40376 75.1606 2.94426 75.6302 3.11495 76.427C3.18607 76.7543 3.15762 77.11 3.15762 77.4516C3.15762 83.9118 3.15762 90.372 3.15762 96.8322C3.15762 100.062 5.02094 101.941 8.23551 101.941C29.557 101.941 50.8642 101.941 72.1857 101.941C72.4701 101.941 72.7688 101.941 73.2098 101.941C65.1876 95.9785 61.9019 88.3087 64.3341 78.6468C66.041 71.8878 71.7874 65.3422 81.1751 63.6916C81.1751 62.1832 81.3458 60.6322 81.1324 59.1381C80.8053 56.8471 78.8708 55.3957 76.4528 55.3957C67.5772 55.3815 58.6873 55.3957 49.8116 55.3957C45.7436 55.3957 43.3114 53.4747 42.3299 49.5189C42.0455 48.3663 41.7894 47.1995 41.4623 46.0469C40.9502 44.1828 39.5705 43.1156 37.6361 43.1014C27.6937 43.0871 17.7512 43.0871 7.8088 43.1014C5.09206 43.1014 3.15762 45.122 3.15762 47.8967C3.1434 54.8692 3.15762 61.8417 3.15762 68.8142C3.15762 69.1557 3.20029 69.5115 3.11495 69.8387C2.91582 70.6214 2.38954 71.0625 1.55033 71.034C0.7538 71.0056 0.284415 70.5502 0.127954 69.796C0.0568348 69.4688 0.0852824 69.113 0.0852824 68.7715C0.0852824 62.169 0.184849 55.5807 0.042611 48.9782C-0.0427317 45.1362 1.39387 41.5646 6.24418 40.0705C6.24418 39.6863 6.24418 39.2736 6.24418 38.8752C6.24418 29.0283 6.34375 19.1815 6.20151 9.34883C6.08772 5.06573 7.58122 1.29489 12.7587 0C32.3591 0 51.9737 0 71.5883 0ZM75.0589 52.2937C75.0589 51.8241 75.0589 51.4826 75.0589 51.1553C75.0589 36.8404 75.0589 22.5254 75.0589 8.21046C75.0589 4.93766 73.1813 3.08782 69.8956 3.07359C51.4189 3.07359 32.9422 3.07359 14.4655 3.07359C11.1087 3.07359 9.27385 4.9092 9.27385 8.26738C9.27385 18.4558 9.27385 28.6299 9.27385 38.8183C9.27385 39.1882 9.27385 39.544 9.27385 39.9851C9.77168 39.9851 10.1415 39.9851 10.4971 39.9851C19.515 39.9851 28.5329 39.9851 37.5507 39.9851C40.936 39.9851 43.4821 41.963 44.3782 45.2216C44.7053 46.4026 44.9898 47.5979 45.2885 48.7932C45.9428 51.3545 47.1376 52.2794 49.8116 52.2794C57.5921 52.2794 65.3867 52.2794 73.1671 52.2794C73.7645 52.2937 74.3477 52.2937 75.0589 52.2937ZM84.2617 66.5659C74.5184 66.5517 66.6242 74.4207 66.5815 84.1964C66.5388 93.9152 74.4615 101.898 84.1763 101.926C93.9196 101.955 101.885 94.0432 101.913 84.3387C101.956 74.5345 94.0476 66.5802 84.2617 66.5659Z" fill="#D66577"/>
<path d="M37.3091 78.7465C37.3091 76.6975 37.2948 74.6484 37.3091 72.5994C37.3233 71.1337 37.7927 70.6499 39.2862 70.6357C40.3103 70.6214 41.3344 70.6214 42.3585 70.6357C46.0282 70.7068 48.5032 72.7559 49.257 76.3844C49.7549 78.8177 49.6411 81.2225 48.4178 83.4423C47.1946 85.6763 45.317 86.9428 42.7283 86.9997C41.5762 87.0281 40.4098 87.0424 39.2435 87.0424C37.9776 87.0424 37.3375 86.459 37.3233 85.1925C37.2948 83.0439 37.3091 80.8952 37.3091 78.7465ZM40.4525 73.7377C40.4525 77.1813 40.4525 80.511 40.4525 83.9119C42.4296 84.0115 44.3498 84.2249 45.6015 82.247C46.7679 80.4114 46.711 76.9821 45.4877 75.2034C44.1934 73.3393 42.2874 73.752 40.4525 73.7377Z" fill="#D66577"/>
<path d="M26.8969 81.0374C26.8969 82.5315 26.9111 83.8691 26.8969 85.1924C26.8827 86.3735 26.2853 87.0565 25.3181 87.0281C24.3793 86.9996 23.8388 86.345 23.8388 85.1924C23.8246 80.824 23.8246 76.4413 23.8388 72.0728C23.8388 70.8064 24.3651 70.2372 25.631 70.2229C27.0249 70.2087 28.4331 70.166 29.827 70.2941C32.6575 70.5502 34.7769 73.0119 34.6915 75.8009C34.592 78.6042 32.3446 80.8809 29.4999 81.009C28.6607 81.0659 27.8499 81.0374 26.8969 81.0374ZM26.9396 77.9354C27.8926 77.9354 28.746 78.0065 29.5852 77.9211C30.6662 77.8073 31.5054 76.8397 31.5908 75.7867C31.6619 74.8049 30.9507 73.6665 29.9408 73.4815C28.9736 73.2965 27.9495 73.3392 26.9396 73.2823C26.9396 74.9329 26.9396 76.3843 26.9396 77.9354Z" fill="#D66577"/>
<path d="M55.0461 73.4246C55.0461 74.691 55.0461 75.8151 55.0461 77.0531C56.1414 77.0531 57.1939 77.0389 58.2465 77.0531C59.3844 77.0673 60.0671 77.6365 60.0956 78.533C60.124 79.4721 59.3986 80.0982 58.2323 80.1267C57.2081 80.1409 56.184 80.1267 55.0035 80.1267C55.0035 80.8809 55.0035 81.5781 55.0035 82.2896C55.0035 83.3426 55.0177 84.4098 54.9892 85.4628C54.9608 86.4304 54.3492 87.0423 53.4815 87.0565C52.6139 87.0565 52.0022 86.4446 51.9311 85.477C51.9169 85.3063 51.9311 85.1355 51.9311 84.9647C51.9311 80.7955 51.9311 76.6404 51.9311 72.4712C51.9311 70.8348 52.4147 70.3652 54.0789 70.3652C55.6151 70.3652 57.1513 70.351 58.6874 70.3652C59.8253 70.3794 60.4938 70.9202 60.5223 71.8451C60.5507 72.8127 59.8538 73.4246 58.6874 73.4388C57.4926 73.4246 56.2978 73.4246 55.0461 73.4246Z" fill="#D66577"/>
<path d="M19.7566 12.3085C19.7566 14.4145 19.7566 16.3497 19.7566 18.3846C34.6773 18.3846 49.5839 18.3846 64.5473 18.3846C64.5473 16.4067 64.5473 14.4145 64.5473 12.3085C61.8163 12.3085 59.128 12.3085 56.4397 12.3085C55.9561 12.3085 55.4867 12.3228 55.0031 12.2943C54.0644 12.2374 53.4101 11.5971 53.4101 10.7575C53.4101 9.91797 54.0644 9.24918 55.0173 9.23495C57.4069 9.20649 59.7965 9.22072 62.1861 9.22072C63.1818 9.22072 64.1632 9.19226 65.1589 9.23495C66.5813 9.29187 67.6339 10.2879 67.6623 11.7109C67.7192 14.1299 67.7192 16.5632 67.6623 18.9964C67.6339 20.4763 66.5813 21.4581 65.102 21.5293C64.7891 21.5435 64.4904 21.5293 64.1775 21.5293C49.4559 21.5293 34.7342 21.5293 19.9984 21.5293C17.495 21.5293 16.6416 20.6613 16.6416 18.1284C16.6416 16.1078 16.6274 14.1015 16.6416 12.0809C16.6558 10.2452 17.6799 9.22072 19.5006 9.22072C28.7887 9.20649 38.091 9.22072 47.3792 9.22072C48.5882 9.22072 49.2567 9.7899 49.2567 10.7575C49.2567 11.7251 48.5882 12.2943 47.3792 12.2943C38.5604 12.2943 29.7559 12.2943 20.9372 12.2943C20.5816 12.3085 20.2117 12.3085 19.7566 12.3085Z" fill="#D66577"/>
<path d="M42.1735 27.6907C49.8828 27.6907 57.6063 27.6907 65.3156 27.6907C65.657 27.6907 66.0126 27.6622 66.3397 27.7192C67.1363 27.8615 67.6341 28.3595 67.6625 29.1848C67.691 30.0528 67.1932 30.5935 66.3397 30.7501C66.0126 30.807 65.657 30.7785 65.3156 30.7785C49.8828 30.7785 34.45 30.7785 19.0172 30.7785C17.3957 30.7785 16.6276 30.252 16.656 29.1848C16.6987 28.1603 17.4241 27.7049 19.0172 27.7049C26.7407 27.6907 34.45 27.6907 42.1735 27.6907Z" fill="#D66577"/>
<path d="M42.1734 33.8377C49.8827 33.8377 57.6062 33.8377 65.3155 33.8377C65.6569 33.8377 66.0125 33.8092 66.3396 33.8661C67.1362 34.0084 67.634 34.5065 67.6625 35.3318C67.6909 36.1998 67.1788 36.7405 66.3396 36.897C66.0125 36.954 65.6569 36.9255 65.3155 36.9255C49.8827 36.9255 34.4499 36.9255 19.0171 36.9255C17.424 36.9255 16.6986 36.4702 16.656 35.4314C16.6133 34.3642 17.3956 33.8519 19.0171 33.8519C26.7406 33.8377 34.4499 33.8377 42.1734 33.8377Z" fill="#D66577"/>
<path d="M57.5353 39.9849C60.2663 39.9849 62.9972 39.9849 65.7282 39.9849C66.9799 39.9849 67.7195 40.5967 67.6769 41.5643C67.6484 42.5035 66.9372 43.0585 65.7424 43.0585C60.2805 43.0585 54.8328 43.0585 49.3709 43.0585C48.1192 43.0585 47.3937 42.4466 47.4222 41.479C47.4506 40.5398 48.1618 39.9849 49.3566 39.9849C52.0876 39.9849 54.8043 39.9849 57.5353 39.9849Z" fill="#D66577"/>
<path d="M57.5354 46.1465C60.2663 46.1465 62.9973 46.1465 65.7283 46.1465C66.98 46.1465 67.7054 46.7583 67.6769 47.7259C67.6485 48.6651 66.9373 49.22 65.7283 49.22C60.2663 49.22 54.8186 49.22 49.3567 49.22C48.105 49.22 47.3796 48.6082 47.408 47.6406C47.4365 46.7014 48.1477 46.1607 49.3567 46.1465C52.0877 46.1322 54.8186 46.1465 57.5354 46.1465Z" fill="#D66577"/>
<path d="M79.1553 86.7433C79.1553 82.7874 79.1553 78.9882 79.1553 75.2031C79.1553 72.7556 80.1083 71.8165 82.569 71.8022C83.7923 71.8022 85.0298 71.788 86.253 71.8022C88.287 71.8307 89.3538 72.8837 89.368 74.9185C89.3822 78.4332 89.368 81.9621 89.368 85.4768C89.368 85.8468 89.368 86.2168 89.368 86.729C90.1361 86.729 90.8331 86.7148 91.5442 86.729C92.6821 86.7433 93.5071 87.2555 93.9481 88.3085C94.3748 89.333 94.1614 90.2722 93.3933 91.0406C90.9895 93.4739 88.5857 95.8929 86.1392 98.2835C85.0155 99.3791 83.4936 99.4076 82.3557 98.3119C79.8807 95.9071 77.4485 93.4596 75.0304 90.9979C74.2624 90.2153 74.1059 89.2619 74.5326 88.2516C74.9735 87.2413 75.7843 86.7433 76.8795 86.729C77.6192 86.7433 78.3161 86.7433 79.1553 86.7433ZM86.3099 74.9754C84.8448 74.9754 83.5647 74.9754 82.2277 74.9754C82.2277 78.604 82.2277 82.1471 82.2277 85.7045C82.2277 89.02 81.7441 89.5607 78.5153 89.8595C78.501 89.8595 78.4726 89.9022 78.5153 89.8453C80.4639 91.7948 82.3984 93.73 84.2048 95.5229C86.0396 93.6731 87.9741 91.7094 89.809 89.8311C89.8943 89.8311 89.7521 89.8169 89.624 89.8169C87.206 89.7742 86.3099 88.8635 86.3099 86.4444C86.3099 83.5416 86.3099 80.6388 86.3099 77.736C86.3099 76.8395 86.3099 75.9288 86.3099 74.9754Z" fill="#D66577"/>
</g>
<defs>
<clipPath id="clip0_45_4525">
<rect width="105" height="105" fill="white"/>
</clipPath>
</defs>
</svg>
