<svg width="32" height="32" viewBox="0 0 32 32" fill="none" xmlns="http://www.w3.org/2000/svg">
    <path d="M18.6665 17.3333H23.9998M7.99984 17.3333H10.6665M10.6665 17.3333H13.3332M10.6665 17.3333V14.6666M10.6665 17.3333V20M7.99984 9.33329H3.4665C3.25433 9.33329 3.05085 9.41758 2.90082 9.56761C2.75079 9.71764 2.6665 9.92112 2.6665 10.1333V24.5333C2.6665 24.7455 2.75079 24.949 2.90082 25.099C3.05085 25.249 3.25433 25.3333 3.4665 25.3333H28.5332C28.7453 25.3333 28.9488 25.249 29.0989 25.099C29.2489 24.949 29.3332 24.7455 29.3332 24.5333V10.1333C29.3332 9.92112 29.2489 9.71764 29.0989 9.56761C28.9488 9.41758 28.7453 9.33329 28.5332 9.33329H23.9998M7.99984 9.33329V6.66663H10.6665V9.33329M7.99984 9.33329H10.6665M23.9998 9.33329V6.66663H21.3332V9.33329M23.9998 9.33329H21.3332M10.6665 9.33329H21.3332" stroke="white" stroke-width="2" stroke-linecap="round" stroke-linejoin="round"></path></svg>
