<svg width="109" height="55" viewBox="0 0 109 55" fill="none" xmlns="http://www.w3.org/2000/svg">
<g clip-path="url(#clip0_45_4555)">
<path d="M0 23.9032C0.593826 22.5249 1.67591 22.0786 3.14068 22.0786C15.9541 22.1049 28.7544 22.0917 41.5678 22.0917C43.4153 22.0917 44.339 22.7218 44.5897 24.1001C44.7877 25.2027 44.1015 26.3578 43.0062 26.6335C42.5047 26.7648 41.9505 26.8042 41.4358 26.8042C28.7016 26.8173 15.9673 26.8042 3.23305 26.8173C1.75508 26.8173 0.607022 26.4104 0.0263923 24.9533C0 24.612 0 24.2576 0 23.9032Z" fill="#1C498B"/>
<path d="M-0.000231609 46.1398C0.567202 44.7353 1.64928 44.2759 3.10086 44.2759C8.4189 44.3021 13.7369 44.2759 19.0418 44.289C21.14 44.289 22.2748 45.4179 21.9449 47.1112C21.7602 48.0826 21.1664 48.6733 20.2162 48.8833C19.8072 48.9752 19.3717 49.0145 18.9494 49.0145C13.671 49.0277 8.3925 49.0014 3.11405 49.0277C1.64928 49.0408 0.580398 48.5682 -0.0134277 47.19C-0.000231609 46.8487 -0.000231609 46.4943 -0.000231609 46.1398Z" fill="#1C498B"/>
<path d="M29.8101 39.0908C25.97 39.0908 22.2883 39.0908 18.6066 39.0908C18.0787 39.0908 17.5377 39.0514 17.023 38.9464C15.9278 38.7101 15.2416 37.7388 15.2943 36.6099C15.3471 35.5204 16.0597 34.6803 17.155 34.4834C17.6696 34.3915 18.2107 34.3784 18.7385 34.3784C22.3807 34.3652 26.036 34.3784 29.8101 34.3784C29.8101 33.4464 29.7837 32.6063 29.8101 31.7793C29.8629 30.2041 30.7998 29.1934 32.1722 29.1934C33.5446 29.1934 34.4947 30.2173 34.5079 31.7925C34.5343 36.3736 34.5211 40.9679 34.5211 45.549C34.5211 45.9166 34.5211 46.2841 34.5211 46.5991C41.4623 39.6946 48.377 32.8294 55.3314 25.9118C48.575 19.9655 41.6602 13.8748 34.5871 7.65283C34.5607 8.21727 34.5211 8.55856 34.5211 8.89985C34.5211 11.4726 34.5343 14.0454 34.5079 16.6314C34.4947 18.2065 33.5182 19.2435 32.159 19.2304C30.7998 19.2304 29.8101 18.1803 29.8101 16.6182C29.7837 11.9321 29.7837 7.23279 29.8101 2.5335C29.8101 1.03708 30.747 0.105101 32.2514 0.0263418C32.5021 0.0132153 32.7528 0.0263418 32.9904 0.0263418C57.2184 0.0263418 81.4465 0.0263418 105.675 0.0263418C106.136 0.0263418 106.598 0.0657213 107.047 0.14448C108.129 0.315125 108.723 1.01083 108.921 2.0347C109 2.44162 108.987 2.87479 108.987 3.29484C108.987 19.4929 108.987 35.691 108.987 51.876C108.987 54.2388 108.195 55.0132 105.78 55.0132C81.5521 55.0132 57.324 55.0132 33.0959 55.0132C30.5887 55.0132 29.7969 54.2256 29.7969 51.7185C29.7969 47.938 29.7969 44.1707 29.7969 40.3903C29.8101 40.0096 29.8101 39.6158 29.8101 39.0908ZM69.4249 32.0419C69.9131 31.6349 70.2958 31.3199 70.6653 31.0049C78.9129 24.0478 87.1604 17.0777 95.4212 10.1206C95.7643 9.83183 96.1338 9.54305 96.5429 9.33302C97.493 8.83422 98.6543 9.08362 99.3405 9.89746C100.013 10.6982 100.079 11.8927 99.4328 12.7328C99.1161 13.1397 98.7071 13.5072 98.3112 13.8485C93.8773 17.6027 89.4434 21.3438 84.9963 25.0848C84.5212 25.4917 84.0462 25.8855 83.5711 26.2925C83.7031 26.2268 83.8218 26.1612 83.9538 26.1087C90.7762 32.8951 97.5854 39.6684 104.21 46.2578C104.21 32.6851 104.21 18.7578 104.21 4.77813C82.3439 4.77813 60.5439 4.77813 38.4667 4.77813C48.8917 13.9536 59.1319 22.9715 69.4249 32.0419ZM38.0841 50.2089C59.0395 50.2089 79.8234 50.2089 100.594 50.2089C93.6529 43.3044 86.7382 36.4261 79.7838 29.5084C79.5859 29.666 79.2824 29.9154 78.992 30.1648C76.4452 32.3044 73.9115 34.4703 71.3647 36.5967C69.8735 37.8438 68.897 37.8175 67.419 36.5574C67.0759 36.2555 66.7328 35.9536 66.3897 35.6385C63.9485 33.4989 61.5204 31.3593 59.1451 29.2722C52.1115 36.2555 45.144 43.1862 38.0841 50.2089Z" fill="#1C498B"/>
<path d="M15.3998 13.8485C12.6022 13.8485 9.79142 13.8616 6.99384 13.8485C5.47628 13.8354 4.53936 13.2316 4.26224 12.1421C3.85316 10.58 4.86926 9.26736 6.65074 9.14922C7.53488 9.08359 8.41902 9.13609 9.30316 9.13609C14.0538 9.13609 18.8044 9.13609 23.555 9.13609C24.0432 9.13609 24.5447 9.17548 25.0197 9.29361C26.049 9.52989 26.788 10.5275 26.7748 11.5382C26.7484 12.6146 25.9567 13.6122 24.8482 13.7435C23.7265 13.8616 22.5917 13.8485 21.4568 13.8485C19.4378 13.8616 17.4188 13.8485 15.3998 13.8485Z" fill="#1C498B"/>
</g>
<defs>
<clipPath id="clip0_45_4555">
<rect width="109" height="55" fill="white"/>
</clipPath>
</defs>
</svg>
