<svg width="28" height="28" viewBox="0 0 28 28" fill="none" xmlns="http://www.w3.org/2000/svg">
<circle cx="14" cy="14" r="14" fill="#2D67B4"/>
<g clip-path="url(#clip0_47_5502)">
<path d="M18.9657 14.5102C18.9657 17.0627 18.9657 19.6153 18.9657 22.173C18.9657 22.4537 18.9041 22.6988 18.6575 22.8673C18.4161 23.0306 18.1644 23.0459 17.9024 22.9081C17.8305 22.8673 17.7637 22.8213 17.6969 22.7754C16.0633 21.5706 14.4298 20.3606 12.7911 19.1609C12.6729 19.0742 12.6318 18.9823 12.637 18.8393C12.6421 15.9447 12.6421 13.0501 12.637 10.1606C12.637 10.0177 12.6729 9.93092 12.7962 9.83902C14.44 8.63422 16.0787 7.4192 17.7174 6.20929C18.0668 5.94893 18.3852 5.92851 18.6781 6.14293C18.9041 6.30629 18.9657 6.53602 18.9657 6.80659C18.9606 8.32791 18.9657 9.84923 18.9657 11.3706C18.9657 12.4171 18.9657 13.4636 18.9657 14.5102Z" fill="white"/>
<path d="M11.1884 10.666C11.1884 13.2288 11.1884 15.766 11.1884 18.3186C11.1164 18.3237 11.0497 18.3288 10.9829 18.3288C9.60103 18.3288 8.22432 18.3288 6.84247 18.3288C6.2774 18.3288 6 18.0531 6 17.4915C6 15.4954 6 13.4993 6 11.5033C6 10.9417 6.2774 10.666 6.84247 10.666C8.21404 10.666 9.59075 10.666 10.9623 10.666C11.0342 10.666 11.101 10.666 11.1884 10.666Z" fill="white"/>
</g>
<defs>
<clipPath id="clip0_47_5502">
<rect width="21" height="17" fill="white" transform="translate(3 6)"/>
</clipPath>
</defs>
</svg>
