<svg width="20" height="21" viewBox="0 0 20 21" fill="none" xmlns="http://www.w3.org/2000/svg">
<path d="M2.6167 6.40038L6.32374 8.38978C6.32374 8.38978 7.49424 8.89692 8.15782 7.88263C8.82101 6.86834 9.01616 6.47838 10.0308 6.67316C11.0454 6.86795 12.2552 6.01003 12.06 4.80056C11.8649 3.59109 11.709 2.88916 11.709 2.88916" stroke="#006FBC" stroke-width="1.5" stroke-miterlimit="10"/>
<path d="M5.1532 15.6459L5.83467 14.0496C5.83467 14.0496 6.43605 12.6869 5.39345 11.5581C4.35084 10.429 3.10804 10.7406 3.10804 10.7406L1.98535 10.8962" stroke="#006FBC" stroke-width="1.5" stroke-miterlimit="10"/>
<path d="M17.2768 16.0178L15.8971 13.3468L17.3009 12.0327C17.8945 11.4789 18.1969 10.6833 18.1102 9.90378C18.0931 9.74937 18.0239 9.61102 17.9205 9.50677C17.8237 9.40918 17.6966 9.34177 17.5543 9.31943C16.7578 9.19519 15.9469 9.48678 15.3855 10.0982L14.0809 11.515L11.4317 10.1244C11.4262 10.1213 11.4204 10.1186 11.4149 10.1158C11.1308 9.97707 10.7825 10.0425 10.5477 10.2792L10.3797 10.4486C10.2495 10.5798 10.1795 10.7605 10.1865 10.9463C10.1931 11.1144 10.2623 11.2732 10.3797 11.3915C10.3918 11.4037 10.4046 11.4158 10.4178 11.4272L12.5104 13.2285L10.5927 15.3229L9.73946 15.0293C9.50077 14.9474 9.23682 15.009 9.05839 15.1888L9.03895 15.2084C8.90833 15.3401 8.83836 15.5208 8.84575 15.707C8.85235 15.8747 8.92194 16.0334 9.03895 16.151C9.05178 16.1639 9.065 16.1761 9.0786 16.1879L9.86153 16.858C9.99214 16.9697 10.1204 17.0889 10.2433 17.2123C10.3661 17.3362 10.4855 17.4667 10.5978 17.6003L11.2622 18.3893C11.2738 18.403 11.2859 18.4163 11.2987 18.4292C11.4157 18.5472 11.5728 18.617 11.7391 18.624C11.9238 18.6315 12.103 18.5609 12.2336 18.4292L12.2531 18.4097C12.4315 18.2298 12.4925 17.9636 12.4113 17.723L12.1201 16.8627L14.1975 14.9294L15.9842 17.0391C15.9955 17.0524 16.0071 17.0654 16.0196 17.0775C16.1366 17.1955 16.294 17.2656 16.4612 17.2723C16.6455 17.2797 16.8243 17.2092 16.9549 17.0775L17.1228 16.9082C17.3611 16.668 17.4241 16.3031 17.2768 16.0178Z" stroke="#006FBC" stroke-width="1.5" stroke-miterlimit="10"/>
<path d="M6.90454 16.4967C3.99053 15.5804 1.875 12.8389 1.875 9.59929C1.875 5.60953 5.08328 2.375 9.04067 2.375C12.3049 2.375 15.0592 4.57525 15.9241 7.5852" stroke="#006FBC" stroke-width="1.5" stroke-miterlimit="10" stroke-linecap="round"/>
</svg>
