<svg width="82" height="82" viewBox="0 0 82 82" fill="none" xmlns="http://www.w3.org/2000/svg">
<circle cx="41" cy="41" r="41" fill="#F09536"/>
<path d="M13.218 57.55V64.648H14.912V59.202H23.032V64.578H24.796V57.55H13.218ZM14.1 62.212V63.864H24.012V62.212H14.1ZM18.076 55.114V68.26H19.854V55.114H18.076ZM26.616 64.032V65.404H39.37V64.032H26.616ZM33.952 64.494L32.3 64.732C33.406 67.084 35.17 67.994 38.824 68.246C39.006 67.77 39.426 67.07 39.776 66.72C36.57 66.65 34.75 66.104 33.952 64.494ZM34.708 63.57C35.646 63.822 36.892 64.27 37.536 64.578L38.25 63.514C37.578 63.22 36.304 62.814 35.394 62.618L34.708 63.57ZM31.502 59.454V60.616H39.594V59.454H31.502ZM36.15 58.544V61.4C36.15 61.554 36.08 61.596 35.912 61.596C35.744 61.61 35.128 61.61 34.582 61.596C34.764 61.932 34.96 62.422 35.03 62.814C35.94 62.814 36.598 62.814 37.102 62.632C37.592 62.45 37.732 62.128 37.732 61.456V58.544H36.15ZM26.448 59.272V60.588H30.368V59.272H26.448ZM29.542 55.1V63.164H31.068V55.1H29.542ZM27.092 55.506V58.544H30.41V57.256H28.492V55.506H27.092ZM32.342 61.064C32.832 61.498 33.378 62.128 33.588 62.548L34.778 61.848C34.526 61.414 33.952 60.826 33.462 60.42L32.342 61.064ZM32.02 57.172C32.594 57.55 33.266 58.11 33.588 58.502L34.526 58.138C34.19 57.732 33.504 57.172 32.93 56.822L32.02 57.172ZM33.448 56.654C34.162 57.018 35.002 57.592 35.394 58.026L36.234 57.578C35.8 57.144 34.946 56.584 34.232 56.248L33.448 56.654ZM37.62 55.772V55.954C36.668 57.508 34.218 58.236 31.558 58.488C31.782 58.754 32.076 59.216 32.188 59.524C35.17 59.146 37.802 58.292 39.02 56.15L38.152 55.73L37.886 55.772H37.62ZM35.17 55.1C34.386 55.786 32.972 56.374 31.026 56.766C31.306 56.976 31.67 57.424 31.838 57.732C33.924 57.158 35.436 56.444 36.542 55.408L35.17 55.1ZM34.862 55.772L33.616 56.682H38.054V55.772H34.862ZM27.288 59.958V60.616C27.288 61.106 27.162 62.156 26.364 62.786C26.728 62.954 27.358 63.276 27.638 63.5C28.576 62.716 28.758 61.316 28.758 60.658V59.958H27.288ZM32.034 62.716V63.948C32.034 65.04 31.278 66.328 26.28 66.916C26.588 67.28 27.008 67.896 27.19 68.288C32.804 67.588 33.7 65.684 33.7 63.99V62.716H32.034ZM45.6 60.224C44.998 62.226 43.864 64.802 42.856 66.496L44.41 66.986C45.446 65.376 46.692 62.912 47.616 60.714L45.6 60.224ZM41.232 65.978L41.456 67.756C44.116 67.616 48.008 67.406 51.606 67.154L51.648 65.516C47.98 65.698 43.878 65.894 41.232 65.978ZM48.316 63.318C49.492 64.858 50.85 66.986 51.438 68.33L53.174 67.406C52.502 66.062 51.186 64.074 49.954 62.562L48.316 63.318ZM44.116 55.436C43.388 57.382 42.058 59.3 40.602 60.448C41.064 60.728 41.876 61.344 42.24 61.694C43.668 60.35 45.138 58.18 46.034 55.968L44.116 55.436ZM49.758 55.45L48.078 56.136C49.114 58.082 50.724 60.294 52.04 61.708C52.362 61.26 53.006 60.588 53.468 60.238C52.18 59.062 50.584 57.102 49.758 55.45ZM54.812 60.07V61.638H67.202V60.07H54.812ZM57.15 56.934V58.46H66.334V56.934H57.15ZM57.29 66.076V67.63H64.878V66.076H57.29ZM60.454 55.114V61.022H62.246V55.114H60.454ZM56.408 62.646V68.302H58.13V64.186H64.038V68.26H65.844V62.646H56.408ZM57.094 55.142C56.604 56.668 55.722 58.222 54.714 59.16C55.12 59.356 55.89 59.79 56.24 60.056C57.192 58.978 58.186 57.27 58.774 55.562L57.094 55.142Z" fill="white"/>
<g clip-path="url(#clip0_45_5380)">
<path d="M31.1028 11C31.1993 11 31.2959 11 31.3924 11C31.4407 11.0193 31.4793 11.0483 31.5275 11.0483C32.7631 11.1256 33.7767 11.6668 34.6648 12.4978C35.2633 13.0582 35.8714 13.5994 36.4795 14.1502C36.9236 14.556 37.3676 14.9522 37.8213 15.3677C38.5742 14.5947 39.4623 14.1888 40.5145 14.1888C41.557 14.1888 42.4451 14.614 43.1787 15.3581C44.2888 14.3531 45.37 13.3771 46.4415 12.4011C47.0689 11.8214 47.7832 11.3865 48.623 11.1836C48.9512 11.1063 49.2794 11.058 49.6076 11C49.7042 11 49.8007 11 49.8972 11C50.0227 11.0193 50.1579 11.058 50.2834 11.0676C52.8511 11.2899 54.8492 13.7057 54.5307 16.2761C54.4535 16.9331 54.2025 17.5612 54.0191 18.2183C54.8106 18.2183 55.6601 18.2087 56.5095 18.2183C57.9672 18.228 58.9807 19.2523 58.9807 20.7114C58.9904 21.7937 58.9807 22.8856 58.9807 23.9679C58.9807 25.0308 58.5463 25.4657 57.4942 25.4657C46.1615 25.4657 34.8385 25.4657 23.5059 25.4753C22.7626 25.4753 22.251 25.2337 21.9807 24.5283C21.9807 23.0789 21.9807 21.6391 21.9807 20.1896C22 20.151 22.0386 20.1123 22.0483 20.0736C22.4054 18.8851 23.2549 18.2377 24.4905 18.228C25.2241 18.228 25.9578 18.228 26.6914 18.228C26.8072 18.228 26.9134 18.2183 27.0582 18.2087C27.0099 18.112 26.9906 18.0541 26.9617 18.0057C25.7068 15.59 26.6624 12.691 29.1336 11.5411C29.7514 11.2512 30.4464 11.1739 31.1028 11ZM36.8464 18.199C36.9429 17.9188 36.856 17.7352 36.6436 17.5516C35.3308 16.3823 34.0566 15.1745 32.7245 14.0245C31.3827 12.865 29.3074 13.5511 28.8923 15.2614C28.5255 16.7979 29.6645 18.2087 31.3055 18.2183C33.0624 18.228 34.8192 18.2183 36.5761 18.2183C36.6629 18.2183 36.7595 18.2087 36.8464 18.199ZM44.0572 18.141C44.173 18.1893 44.1923 18.2087 44.2116 18.2087C46.0746 18.2087 47.9377 18.2087 49.8007 18.2087C49.9165 18.2087 50.042 18.1797 50.1579 18.1604C51.1232 17.9864 51.9244 17.2327 52.1078 16.305C52.3008 15.3484 51.9051 14.3821 51.0942 13.8506C50.1289 13.2225 49.0188 13.3385 48.0632 14.1888C46.7986 15.3194 45.5437 16.4596 44.2985 17.6192C44.1633 17.7352 44.1344 17.9671 44.0572 18.141Z" fill="white"/>
<path d="M24.423 27.8813C28.9889 27.8813 33.5065 27.8813 38.0627 27.8813C38.0627 34.5779 38.0627 41.2647 38.0627 47.9806C37.9275 47.9903 37.8021 47.9999 37.6766 47.9999C34.1243 47.9999 30.572 47.9999 27.0196 47.9999C25.4269 47.9999 24.4133 46.995 24.4133 45.4102C24.4133 39.6897 24.4133 33.9594 24.4133 28.2389C24.4133 28.1326 24.423 28.0263 24.423 27.8813Z" fill="white"/>
<path d="M42.9374 27.8813C47.4743 27.8813 52.0016 27.8813 56.5674 27.8813C56.5771 28.007 56.5867 28.1326 56.5867 28.2679C56.5867 33.9691 56.5867 39.6703 56.5867 45.3716C56.5867 46.995 55.5925 47.9999 53.9804 47.9999C50.4185 47.9999 46.8565 47.9999 43.2849 47.9999C43.1787 47.9999 43.0725 47.9999 42.9277 47.9999C42.9374 41.2841 42.9374 34.5972 42.9374 27.8813Z" fill="white"/>
</g>
<defs>
<clipPath id="clip0_45_5380">
<rect width="37" height="37" fill="white" transform="translate(22 11)"/>
</clipPath>
</defs>
</svg>
