<svg width="82" height="82" viewBox="0 0 82 82" fill="none" xmlns="http://www.w3.org/2000/svg">
<circle cx="41" cy="41" r="41" fill="#2D67B4"/>
<path d="M17.488 62.576V68.246H19.014V64.102H23.228V68.19H24.824V62.576H17.488ZM23.718 55.114C22.164 55.73 19.532 56.192 17.152 56.43C17.334 56.808 17.558 57.466 17.628 57.872C20.106 57.648 22.948 57.214 25.006 56.43L23.718 55.114ZM20.358 56.682V63.458H21.954V56.682H20.358ZM16.606 59.188V60.798H25.538V59.188H16.606ZM18.58 66.16V67.672H23.886V66.16H18.58ZM13.162 56.5C13.96 56.962 15.15 57.634 15.71 58.054L16.704 56.696C16.102 56.304 14.884 55.688 14.1 55.296L13.162 56.5ZM12.476 60.378C13.316 60.826 14.534 61.498 15.108 61.89L16.046 60.504C15.43 60.112 14.184 59.51 13.386 59.132L12.476 60.378ZM12.686 66.958L14.114 68.092C14.954 66.734 15.85 65.138 16.592 63.654L15.36 62.548C14.52 64.158 13.442 65.908 12.686 66.958ZM26.812 64.172V65.362H33.35V64.172H26.812ZM26.49 57.508V58.726H33.49V57.508H26.49ZM29.276 56.514V66.552H30.788V56.514H29.276ZM26.42 66.398L26.616 67.798C28.436 67.63 30.984 67.378 33.364 67.126L33.35 65.852C30.83 66.076 28.156 66.272 26.42 66.398ZM28.198 61.932H31.894V62.576H28.198V61.932ZM28.198 60.322H31.894V60.952H28.198V60.322ZM26.854 59.272V63.626H33.28V59.272H26.854ZM32.594 55.184C31.054 55.52 28.618 55.772 26.532 55.87C26.686 56.192 26.84 56.724 26.896 57.06C28.996 57.018 31.544 56.808 33.336 56.444L32.594 55.184ZM33.49 58.278V59.818H38.334V58.278H33.49ZM37.662 58.278V58.642C37.55 64.06 37.438 66.034 37.116 66.454C36.99 66.65 36.85 66.692 36.64 66.692C36.36 66.692 35.828 66.692 35.226 66.636C35.492 67.084 35.674 67.77 35.716 68.232C36.374 68.26 37.032 68.26 37.466 68.176C37.928 68.092 38.25 67.938 38.558 67.462C39.02 66.832 39.132 64.788 39.258 59.02C39.258 58.824 39.272 58.278 39.272 58.278H37.662ZM34.834 55.352C34.82 60.938 34.974 64.858 32.02 67.112C32.398 67.392 32.944 67.966 33.182 68.372C36.416 65.824 36.43 61.33 36.444 55.352H34.834ZM47.98 60.378H51.018V61.862H47.98V60.378ZM46.454 58.936V63.29H52.642V58.936H46.454ZM49.688 62.87V66.244C49.688 67.672 49.968 68.162 51.242 68.162C51.466 68.162 51.956 68.162 52.208 68.162C53.23 68.162 53.622 67.63 53.748 65.558C53.328 65.446 52.656 65.18 52.348 64.914C52.306 66.468 52.264 66.678 52.026 66.678C51.914 66.678 51.592 66.678 51.508 66.678C51.312 66.678 51.284 66.636 51.284 66.244V62.87H49.688ZM47.35 63.094C47.224 64.914 46.944 66.216 44.844 66.972C45.194 67.266 45.628 67.896 45.796 68.288C48.344 67.252 48.82 65.502 48.988 63.094H47.35ZM47.756 55.492V57.018H51.144V55.492H47.756ZM46.762 56.738C46.496 57.648 45.894 58.796 45.166 59.496C45.544 59.706 46.132 60.112 46.468 60.406C47.252 59.594 47.938 58.306 48.4 57.158L46.762 56.738ZM49.87 55.492V56.276H50.164C50.64 57.662 51.424 59.132 52.348 60.154C52.67 59.818 53.342 59.328 53.762 59.09C52.866 58.25 52.012 56.836 51.592 55.492H49.87ZM41.078 59.412V60.672H45.306V59.412H41.078ZM41.12 55.548V56.822H45.264V55.548H41.12ZM41.078 61.316V62.59H45.306V61.316H41.078ZM40.406 57.438V58.768H45.768V57.438H40.406ZM41.806 63.262V64.592H43.892V66.188H41.806V67.518H45.32V63.262H41.806ZM41.05 63.262V68.078H42.464V63.262H41.05ZM55.848 55.884V57.396H58.312V62.94H55.848V64.48H59.866V55.884H55.848ZM55.862 59.384V60.882H58.928V59.384H55.862ZM61.84 55.674V57.228H66.138V55.674H61.84ZM61.84 59.02V60.532H66.138V59.02H61.84ZM61.812 62.338V63.836H66.124V62.338H61.812ZM54.952 55.884V65.698H56.506V55.884H54.952ZM65.508 55.674V66.314C65.508 66.566 65.424 66.65 65.172 66.65C64.934 66.65 64.08 66.664 63.324 66.622C63.562 67.056 63.828 67.784 63.898 68.246C65.088 68.246 65.886 68.204 66.446 67.938C66.992 67.672 67.174 67.21 67.174 66.342V55.674H65.508ZM60.832 55.674V60.742C60.832 62.884 60.622 65.516 58.256 67.238C58.62 67.462 59.264 68.036 59.516 68.372C62.106 66.468 62.484 63.178 62.484 60.756V55.674H60.832Z" fill="white"/>
<g clip-path="url(#clip0_45_5404)">
<path d="M57.1334 49C46.0487 49 34.9641 49 23.8922 49C22.4603 48.5653 21.9872 47.568 22 46.1231C22.0384 39.4233 22.0128 32.7106 22.0128 26.0108C22.0128 25.8573 22.0128 25.6911 22.0128 25.5249C34.3504 25.5249 46.6496 25.5249 59 25.5249C59 25.7039 59 25.8573 59 26.0108C59 32.2376 59 38.4515 59 44.6783C59 45.3816 59.0128 46.0848 58.9872 46.788C58.9617 47.747 58.3608 48.5397 57.4658 48.8594C57.3507 48.9105 57.2484 48.9616 57.1334 49ZM48.7464 35.0505C48.7336 34.5007 48.4651 34.2577 47.9281 34.1682C46.3811 33.9253 44.8341 33.6824 43.2744 33.4522C43.0315 33.4139 42.9164 33.3244 42.8141 33.107C42.1621 31.7517 41.4845 30.4092 40.8196 29.0538C40.6534 28.7086 40.4744 28.389 40.027 28.3762C39.5923 28.3762 39.4005 28.683 39.2215 29.0411C38.5822 30.3452 37.9174 31.6494 37.291 32.9664C37.1247 33.3116 36.9202 33.4522 36.5494 33.5034C35.0408 33.7079 33.5449 33.9509 32.0363 34.181C31.7167 34.2322 31.4354 34.3345 31.3203 34.6797C31.2053 35.0505 31.3587 35.319 31.6144 35.5619C32.7139 36.6232 33.8134 37.71 34.9129 38.7584C35.1431 38.9758 35.1814 39.1804 35.1303 39.4744C34.849 40.9832 34.6061 42.4919 34.3248 44.0007C34.2609 44.3587 34.2865 44.6655 34.5933 44.8957C34.9129 45.1386 35.207 45.0363 35.5266 44.8701C36.8946 44.1541 38.2626 43.4509 39.6306 42.7221C39.8863 42.5814 40.0781 42.5686 40.3338 42.7093C41.7146 43.4509 43.1082 44.1669 44.5017 44.8957C44.8086 45.0619 45.0898 45.0875 45.3711 44.8829C45.678 44.6783 45.7291 44.3715 45.6652 44.0262C45.3967 42.4664 45.1282 40.9065 44.8341 39.3594C44.783 39.0908 44.8597 38.9502 45.0387 38.784C46.1638 37.6972 47.2761 36.6232 48.3884 35.5236C48.5674 35.3829 48.6697 35.1528 48.7464 35.0505Z" fill="white"/>
<path d="M22.0128 23.9775C22.0128 23.8369 22.0128 23.709 22.0128 23.5939C22.0128 21.74 22.0128 19.886 22.0128 18.032C22.0128 16.4721 22.9717 15.5132 24.5315 15.5132C25.631 15.5132 26.7305 15.5132 27.83 15.5132C27.8684 15.5132 27.9067 15.526 28.009 15.5515C28.009 15.9991 27.9834 16.4721 28.0218 16.9324C28.0474 17.2904 28.0857 17.674 28.2391 18.0065C28.5332 18.6713 29.0702 19.0293 29.8245 19.0165C30.6939 19.0038 31.5505 19.0165 32.4199 19.0165C33.6344 19.0038 34.5038 18.1343 34.5166 16.8941C34.5166 16.4466 34.5166 16.0118 34.5166 15.5388C38.5183 15.5388 42.4945 15.5388 46.5218 15.5388C46.5218 15.9607 46.5218 16.3954 46.5218 16.8174C46.5218 18.1599 47.3656 19.0038 48.7208 19.0165C49.5391 19.0165 50.3573 19.0165 51.1628 19.0165C52.16 19.0165 52.9016 18.3389 52.9783 17.3416C53.0166 16.7534 52.991 16.1653 52.991 15.5388C53.1573 15.526 53.2595 15.5132 53.3618 15.5132C54.4102 15.5132 55.4586 15.5132 56.5197 15.5132C58.0412 15.526 59 16.4849 59 17.9937C59 19.8732 59 21.7528 59 23.6323C59 23.7474 58.9872 23.8497 58.9872 23.9775C46.6752 23.9775 34.376 23.9775 22.0128 23.9775Z" fill="white"/>
<path d="M29.5176 14.2348C29.5176 13.3015 29.5304 12.3809 29.5176 11.4475C29.5176 11.1023 29.6326 10.9872 29.9778 11C30.8472 11.0128 31.7038 11.0128 32.5732 11C32.9184 11 33.0335 11.1278 33.0335 11.4603C33.0207 13.327 33.0207 15.1938 33.0335 17.0605C33.0335 17.4058 32.9056 17.5208 32.5732 17.5208C31.7038 17.508 30.8472 17.508 29.9778 17.5208C29.6454 17.5208 29.5176 17.393 29.5304 17.0605C29.5304 16.1144 29.5176 15.1682 29.5176 14.2348Z" fill="white"/>
<path d="M51.508 14.2858C51.508 15.2192 51.4952 16.1398 51.508 17.0732C51.508 17.4184 51.3801 17.5335 51.0477 17.5207C50.1783 17.5079 49.3217 17.5079 48.4524 17.5207C48.1199 17.5207 48.0049 17.3928 48.0049 17.0476C48.0177 15.1808 48.0177 13.3141 48.0049 11.4473C48.0049 11.1021 48.1327 10.9998 48.4651 10.9998C49.3345 11.0126 50.1911 11.0126 51.0605 10.9998C51.4057 10.987 51.508 11.1277 51.508 11.4601C51.4952 12.4063 51.508 13.3397 51.508 14.2858Z" fill="white"/>
<path d="M43.9264 42.9268C43.0315 42.4537 42.1749 42.0062 41.3183 41.5459C39.8224 40.766 40.1932 40.7915 38.7357 41.5459C37.8919 41.9806 37.0481 42.4281 36.217 42.8757C36.1915 42.8884 36.1659 42.8884 36.0892 42.9012C36.1915 42.2747 36.2938 41.661 36.396 41.0473C36.5111 40.408 36.6134 39.7559 36.7412 39.1166C36.8179 38.6946 36.7157 38.3622 36.3832 38.0553C35.565 37.301 34.7595 36.5338 33.9541 35.7666C33.8646 35.6771 33.7751 35.6132 33.6089 35.4598C34.2354 35.3575 34.7595 35.2808 35.2965 35.204C36.0253 35.089 36.7668 34.9867 37.4955 34.8844C37.8791 34.8333 38.1476 34.6415 38.3138 34.2835C38.8124 33.2478 39.3238 32.2249 39.8352 31.1892C39.8864 31.087 39.9503 30.9719 40.027 30.8057C40.3083 31.381 40.5768 31.9053 40.8325 32.4295C41.1265 33.0432 41.4461 33.6442 41.7274 34.2579C41.9064 34.6543 42.2005 34.8333 42.6096 34.8844C43.8242 35.0506 45.026 35.2296 46.2405 35.4086C46.2789 35.4086 46.3045 35.4342 46.4451 35.5621C46.33 35.6132 46.2022 35.6516 46.1255 35.7411C45.2944 36.521 44.4762 37.3137 43.6452 38.0809C43.3255 38.375 43.236 38.6946 43.3128 39.1166C43.5301 40.2801 43.7219 41.4564 43.9264 42.6199C43.9137 42.7094 43.9137 42.7989 43.9264 42.9268Z" fill="white"/>
</g>
<defs>
<clipPath id="clip0_45_5404">
<rect width="37" height="38" fill="white" transform="translate(22 11)"/>
</clipPath>
</defs>
</svg>
