<svg width="20" height="21" viewBox="0 0 20 21" fill="none" xmlns="http://www.w3.org/2000/svg">
<path d="M12.5 4.66675C12.5 4.00371 12.2366 3.36782 11.7678 2.89898C11.2989 2.43014 10.663 2.16675 10 2.16675C9.33696 2.16675 8.70107 2.43014 8.23223 2.89898C7.76339 3.36782 7.5 4.00371 7.5 4.66675M12.5 4.66675H15M12.5 4.66675C12.5 5.41925 12.1675 6.09425 11.6417 6.55258M7.5 4.66675H5M7.5 4.66675C7.5 5.41925 7.8325 6.09425 8.35833 6.55258M11.6417 6.55258C14.2842 7.32008 15 9.92341 15 11.3334V15.5001C15 15.9421 14.8244 16.366 14.5118 16.6786C14.1993 16.9912 13.7754 17.1667 13.3333 17.1667H11.6667M11.6417 6.55258C11.187 6.94951 10.6036 7.16776 10 7.16675C9.39643 7.16776 8.81303 6.94951 8.35833 6.55258M8.35833 6.55258C5.71583 7.32008 5 9.92341 5 11.3334V15.5001C5 15.9421 5.17559 16.366 5.48816 16.6786C5.80072 16.9912 6.22464 17.1667 6.66667 17.1667H8.33333M11.6667 17.1667C11.6667 17.6088 11.4911 18.0327 11.1785 18.3453C10.866 18.6578 10.442 18.8334 10 18.8334C9.55797 18.8334 9.13405 18.6578 8.82149 18.3453C8.50893 18.0327 8.33333 17.6088 8.33333 17.1667M11.6667 17.1667V13.0001C11.6667 12.5581 11.4911 12.1341 11.1785 11.8216C10.866 11.509 10.442 11.3334 10 11.3334C9.55797 11.3334 9.13405 11.509 8.82149 11.8216C8.50893 12.1341 8.33333 12.5581 8.33333 13.0001V17.1667" stroke="#006FBC" stroke-width="1.5" stroke-linecap="round" stroke-linejoin="round"/>
</svg>
