<svg width="150" height="26" viewBox="0 0 150 26" fill="none" xmlns="http://www.w3.org/2000/svg">
<g clip-path="url(#clip0_1423_37199)">
<path d="M18.7188 7.5728L21.4738 10.5239L28.6867 2.80606L49.7058 25.2968H51.8634L28.6867 0.5L21.4738 8.21779L18.7188 5.26674L0 25.2968H2.15763L18.7188 7.5728Z" fill="url(#paint0_linear_1423_37199)"/>
<path d="M35.9307 12.8871L32.3332 16.7394L25.4546 9.375L18.1704 17.1679L15.0498 13.8281L4.33301 25.2965H47.5302L35.9307 12.8871Z" fill="url(#paint1_linear_1423_37199)"/>
<path d="M73.8769 20.1587V19.5314H68.2956V16.9912H72.8337C73.2394 16.9912 73.5648 16.6643 73.5648 16.2667V15.6394H70.6583L71.9644 12.9976H70.3908C69.9762 12.9976 69.5884 13.2317 69.4056 13.5984L68.3981 15.6394H65.9329L64.9254 13.5984C64.7426 13.2317 64.3592 12.9976 63.9402 12.9976H62.3665L63.6727 15.6394H60.7662V16.9912H66.0354V19.5314H60.4541V20.8832H66.0354V25.2966H67.6759C68.0147 25.2966 68.2956 25.0227 68.2956 24.6825V20.8788H73.1458C73.5515 20.8788 73.8769 20.5519 73.8769 20.1543V20.1587Z" fill="#006EBB"/>
<path d="M68.2957 5.99121H66.6329C66.303 5.99121 66.0356 6.25628 66.0356 6.58319V7.86433H57.0439V9.34869H66.0356V10.8242H59.0277C58.2342 10.8242 57.5878 11.4515 57.5878 12.2246V25.2967H59.2283C59.5671 25.2967 59.848 25.0228 59.848 24.6827V12.3925C59.848 12.2688 59.9505 12.1716 60.0753 12.1716H74.256C74.3808 12.1716 74.4833 12.2688 74.4833 12.3925L74.4699 22.2794C74.4699 22.9465 73.9216 23.5562 72.7269 24.1835L73.935 25.3144C74.0687 25.4337 74.2381 25.5 74.412 25.5C74.519 25.5 74.626 25.4779 74.7285 25.4293C76.1417 24.7489 76.7435 23.8831 76.7435 22.5224V12.2291C76.7435 11.456 76.0971 10.8286 75.3036 10.8286H68.2957V9.35311H76.5562C76.9619 9.35311 77.2873 9.0262 77.2873 8.6286V7.86875H68.2957V5.99563V5.99121Z" fill="#006EBB"/>
<path d="M99.1131 10.1794V23.2382C99.1131 23.3973 98.9794 23.5254 98.8144 23.5254H93.2286V6.42871H91.7486C91.2493 6.42871 90.8437 6.83073 90.8437 7.32551V23.5254H85.2579C85.1687 23.5254 84.9592 23.5033 84.9592 23.3045V9.25165H83.4792C82.9799 9.25165 82.5742 9.65366 82.5742 10.1484V23.5784C82.5742 24.537 83.3766 25.319 84.3618 25.319H99.7015C100.687 25.319 101.489 24.537 101.489 23.5784V9.24723H100.045C99.5277 9.24723 99.1086 9.6625 99.1086 10.175L99.1131 10.1794Z" fill="#006EBB"/>
<path d="M124.986 14.7914C125.41 14.7914 125.753 14.4512 125.753 14.0315V13.2893H122.503C122.534 13.2584 122.566 13.2231 122.588 13.1833L123.52 11.6017C121.901 11.5531 120.506 11.3985 119.267 11.16C120.689 10.5724 121.968 9.90533 122.86 9.21174H124.977C125.383 9.21174 125.709 8.88483 125.709 8.48723V7.72738H117.872V5.99121H116.209C115.879 5.99121 115.611 6.25628 115.611 6.58319V7.72738H107.382V9.21174H110.957C112.032 10.0114 113.182 10.6829 114.323 11.2395C112.91 11.6592 111.399 12.0126 109.847 12.3042L110.173 13.1082C110.208 13.1877 110.266 13.2451 110.329 13.2937H108.929C108.127 13.2937 107.476 13.9299 107.476 14.7118V18.5509C107.476 20.2208 107.538 21.9746 105.96 25.0493L106.704 25.4337C106.959 25.5662 107.275 25.4911 107.44 25.257C108.149 24.263 109.758 22.222 109.758 17.9456V15.0167C109.758 14.893 109.861 14.7914 109.99 14.7914H124.982H124.986ZM113.931 9.21174H119.187C118.42 9.67119 117.559 10.082 116.628 10.4487C115.629 10.0953 114.747 9.67561 113.931 9.21174ZM116.476 12.1672C117.943 12.7238 119.289 13.0905 120.319 13.2893H111.791C113.119 13.0905 114.791 12.6929 116.476 12.1672Z" fill="#006EBB"/>
<path d="M119.004 21.5066H124.113C124.523 21.5066 124.853 21.1753 124.853 20.7732V20.0046H119.004V18.0873H124.581C124.991 18.0873 125.321 17.7559 125.321 17.3539V16.5852H119.004V15.2334H117.341C117.011 15.2334 116.744 15.4985 116.744 15.8254V16.5896H113.226C113.373 16.17 113.503 15.7414 113.61 15.2997H112.081C111.737 15.3173 111.43 15.5559 111.372 15.8916C111.113 17.376 110.775 18.4937 109.994 19.7616L110.663 20.1327C110.913 20.274 111.211 20.1857 111.394 19.9648C111.84 19.4126 112.241 18.7808 112.589 18.0917H116.753V20.009H111.506V21.511H116.753V23.8171H109.874V25.3191H125.379C125.789 25.3191 126.119 24.9878 126.119 24.5858V23.8171H119.013V21.511L119.004 21.5066Z" fill="#006EBB"/>
<path d="M137.692 17.3097V15.8386L135.882 16.4924V11.4871H136.666C137.072 11.4871 137.397 11.1602 137.397 10.7626V10.0028H135.877V6.22559H134.393C134.054 6.22559 133.773 6.49949 133.773 6.83965V10.0028H132.716C132.81 8.78788 132.841 7.73204 132.841 7.11355H131.464C131.098 7.13122 130.826 7.43163 130.826 7.79388C130.826 13.1835 130.162 15.3306 130.162 15.3306L131.25 15.5249C131.531 15.5735 131.803 15.4101 131.878 15.1406C132.204 14.045 132.422 12.7462 132.569 11.4915H133.769V17.2567L131.615 18.0342C131.228 18.1756 130.982 18.5334 130.982 18.9575V20.4286L133.769 19.4214V25.3191H135.253C135.592 25.3191 135.873 25.0452 135.873 24.705V18.6615L137.05 18.2374C137.437 18.0961 137.683 17.7382 137.683 17.3141L137.692 17.3097Z" fill="#006EBB"/>
<path d="M148.56 8.70371H140.705C140.884 7.98361 141.057 7.17959 141.218 6.26953H139.689C139.216 6.26953 138.82 6.6097 138.748 7.07356C138.525 8.53141 138.383 11.2351 136.332 14.3098L137.264 14.7339C137.487 14.8355 137.75 14.7781 137.91 14.597C138.512 13.9255 139.444 12.821 140.282 10.2102H141.392C141.138 13.0817 139.76 17.7777 137.13 20.8083L138.075 21.2722C138.334 21.387 138.623 21.3164 138.828 21.1264C141.731 18.4316 143.237 13.2628 143.59 10.2102H144.695C144.521 13.3688 143.728 19.3416 139.582 23.8786L140.607 24.3425C140.866 24.4574 141.16 24.3911 141.361 24.1967C145.609 20.1457 146.621 13.6074 146.893 10.2057H147.593C147.718 10.2057 147.82 10.3029 147.82 10.4266V21.2015C147.82 22.5798 146.822 22.9951 145.007 23.7505L145.992 25.1245C146.126 25.2481 146.3 25.31 146.474 25.31C146.581 25.31 146.683 25.2702 146.795 25.2349C148.404 24.7534 149.996 23.6666 149.996 21.5196V10.0997C149.996 9.32661 149.349 8.69929 148.556 8.69929L148.56 8.70371Z" fill="#006EBB"/>
</g>
<defs>
<linearGradient id="paint0_linear_1423_37199" x1="18.964" y1="8.54471" x2="27.5101" y2="29.4686" gradientUnits="userSpaceOnUse">
<stop stop-color="#F9BE00"/>
<stop offset="0.06" stop-color="#E6BD05"/>
<stop offset="0.16" stop-color="#B6BB15"/>
<stop offset="0.3" stop-color="#6FB92C"/>
<stop offset="0.52" stop-color="#43975F"/>
<stop offset="0.73" stop-color="#1F7A8A"/>
<stop offset="0.9" stop-color="#0868A5"/>
<stop offset="1" stop-color="#0062B0"/>
</linearGradient>
<linearGradient id="paint1_linear_1423_37199" x1="17.943" y1="13.2008" x2="27.2656" y2="27.5739" gradientUnits="userSpaceOnUse">
<stop stop-color="#E0E200"/>
<stop offset="0.21" stop-color="#7FBE26"/>
<stop offset="0.32" stop-color="#5FA648"/>
<stop offset="0.46" stop-color="#3D8E6D"/>
<stop offset="0.6" stop-color="#227A8A"/>
<stop offset="0.73" stop-color="#0F6D9F"/>
<stop offset="0.87" stop-color="#0364AB"/>
<stop offset="1" stop-color="#0062B0"/>
</linearGradient>
<clipPath id="clip0_1423_37199">
<rect width="150" height="25" fill="white" transform="translate(0 0.5)"/>
</clipPath>
</defs>
</svg>
