<svg width="219" height="244" viewBox="0 0 219 244" fill="none" xmlns="http://www.w3.org/2000/svg">
<path d="M109 83.4558C132.128 83.4558 150.878 64.7736 150.878 41.7279C150.878 18.6822 132.128 0 109 0C85.8721 0 67.123 18.6822 67.123 41.7279C67.123 64.7736 85.8721 83.4558 109 83.4558Z" fill="#C8E7FA"/>
<path d="M119.567 233.446C64.6263 239.207 15.4025 199.657 9.58438 144.875C5.81971 109.428 21.1926 74.6896 50.0127 53.7467C51.5335 52.6822 53.7451 52.9934 54.814 54.5105C55.8829 56.0276 55.5724 58.2324 54.0515 59.2969C12.602 89.5288 3.4904 147.324 33.8428 188.672C64.1953 230.02 122.17 239.147 163.619 208.915C205.069 178.683 214.181 120.888 183.828 79.5398C178.541 72.4913 172.413 66.0741 165.303 60.665C163.733 59.5625 163.486 57.2352 164.61 55.8502C165.715 54.2862 168.049 54.0415 169.439 55.1628C201.85 80.0033 215.93 121.972 204.84 161.148C194.13 200.467 160.305 228.994 119.567 233.446Z" fill="#0F6AA5"/>
<path d="M98.7114 14.7487L96.3648 18.7056C95.4623 20.3244 94.9208 22.3029 94.9208 24.1015L95.2818 34.7133L91.6717 37.0515V36.8717C91.6717 35.4328 90.5886 34.3536 89.1446 34.3536C87.7006 34.3536 86.6175 35.4328 86.6175 36.8717V40.289L83.5489 42.2675V41.5481C83.5489 40.1092 82.4659 39.03 81.0219 39.03C79.5778 39.03 78.4948 40.1092 78.4948 41.5481V45.6849L75.4262 47.6634C74.1626 48.5627 73.0796 49.6418 72.5381 51.0807L71.6356 53.2391C71.2746 53.9585 71.4551 54.8578 71.9966 55.5773C72.5381 56.2967 73.4406 56.4766 74.3432 56.2967L95.6428 51.0807L96.1843 62.9516L90.2276 68.7072C89.6861 69.2468 89.5056 70.1461 89.6861 70.8655C90.0471 71.585 90.7691 72.1245 91.4912 72.1245H98.7114L99.6139 73.3836C100.155 74.103 101.058 74.6426 101.96 74.6426C102.863 74.6426 103.766 74.103 104.307 73.3836L105.029 72.3044H111.888C112.61 72.3044 113.332 71.7648 113.693 71.0454C113.874 70.8655 113.874 70.5058 113.874 70.3259C113.874 69.7863 113.693 69.2468 113.332 68.887L107.195 62.9516L107.737 51.0807L129.036 56.2967C129.939 56.4766 130.661 56.2967 131.383 55.5773C131.744 55.2176 131.924 54.678 131.924 53.9585C131.924 53.5988 131.924 53.4189 131.744 53.2391L130.841 51.0807C130.3 49.6418 129.397 48.3828 127.953 47.6634L124.885 45.6849V41.5481C124.885 40.1092 123.802 39.03 122.358 39.03C120.914 39.03 119.831 40.1092 119.831 41.5481V42.2675L116.762 40.289V36.8717C116.762 35.4328 115.679 34.3536 114.235 34.3536C112.791 34.3536 111.708 35.4328 111.708 36.8717V37.0515L108.098 34.7133L108.459 24.4612V24.1015C108.459 22.123 107.917 20.3244 107.015 18.7056L104.668 14.7487C103.946 13.6695 102.863 12.9501 101.599 12.9501C100.516 12.9501 99.2529 13.6695 98.7114 14.7487Z" fill="#0F6AA5"/>
<path d="M75.6066 51.9801C75.9676 51.0808 76.5091 50.3613 77.2312 50.0016L95.4622 38.1307V38.8502V43.1669L83.3683 48.203C83.0073 48.3828 82.8268 48.5627 82.8268 48.9224V50.9009L75.2456 52.8794L75.6066 51.9801Z" fill="#7DC8EF"/>
<path d="M95.4623 44.9655V48.0231L84.271 50.721V49.462L95.4623 44.9655Z" fill="white"/>
<path d="M96.3649 65.4697V65.6496C96.3649 67.0885 96.7259 68.7072 97.4479 69.9663H91.4912L96.3649 65.4697Z" fill="#7DC8EF"/>
<path d="M111.888 70.1461H105.932C106.473 68.887 106.834 67.4482 106.834 66.1891V65.6495L111.888 70.1461Z" fill="#7DC8EF"/>
<path d="M107.917 44.9655L119.108 49.462V50.721L107.917 48.0231V44.9655Z" fill="white"/>
<path d="M126.329 50.0016C127.051 50.5412 127.592 51.2606 127.953 51.9801L128.314 52.8794L120.733 50.9009V48.9224C120.733 48.5627 120.553 48.3828 120.192 48.203L108.098 43.1669V39.03V38.1307L126.329 50.0016Z" fill="#7DC8EF"/>
<path d="M105.029 38.8501L103.946 65.8293C103.946 67.8078 102.322 70.146 102.322 70.146V65.2898C102.322 64.93 101.961 64.5703 101.6 64.5703C101.239 64.5703 100.878 64.93 100.878 65.2898V70.146C100.878 70.146 99.253 67.2682 99.253 65.4696L97.6284 24.1014V23.7417C97.6284 23.2021 97.6284 22.6626 97.8089 22.123C100.155 21.2237 102.863 21.2237 105.21 22.123C105.39 22.6626 105.39 23.2021 105.39 23.7417L105.029 38.8501Z" fill="white"/>
<path d="M103.946 22.3029C104.127 22.8425 104.127 23.382 104.127 23.9216L103.585 38.8501L102.502 65.2898V70.1461C102.502 70.1461 104.127 67.8079 104.127 65.8294L105.21 38.6703L105.751 23.7418C105.751 23.2022 105.751 22.6626 105.571 22.123C104.127 21.5834 102.502 21.4036 101.058 21.4036C101.961 21.7633 102.863 21.9431 103.946 22.3029Z" fill="#7DC8EF"/>
<path d="M102.321 16.1876L104.668 19.9647C102.863 19.605 100.877 19.605 99.0723 19.9647L101.238 16.1876C101.419 16.0077 101.599 15.8279 101.78 15.8279C101.96 16.0077 102.141 16.0077 102.321 16.1876Z" fill="white"/>
<path d="M136.257 17.0868C136.257 20.8639 136.257 24.641 136.257 28.4181C136.076 28.7778 135.896 28.7778 135.535 28.7778C128.856 28.7778 122.358 28.7778 115.679 28.7778C115.318 28.7778 114.957 28.5979 114.957 28.2382C114.957 24.641 114.957 21.0437 114.957 17.2667V17.0868H115.138C118.387 18.8854 121.816 20.5042 125.065 22.3028C125.426 22.4826 125.607 22.4826 125.787 22.3028C129.036 20.5042 132.466 18.8854 135.715 17.0868C136.076 17.2667 136.257 17.2667 136.257 17.0868Z" fill="#0F6AA5"/>
<path d="M125.607 9.89233C127.773 9.89233 130.119 9.89233 132.285 9.89233C132.827 9.89233 133.007 10.0722 133.007 10.6118C133.007 12.95 133.007 15.1083 133.007 17.4465C133.007 17.6264 133.007 17.6264 132.827 17.8062C130.48 19.0653 128.134 20.1444 125.787 21.4035C125.607 21.4035 125.607 21.4035 125.426 21.4035C123.08 20.1444 120.733 18.8854 118.387 17.8062C118.206 17.8062 118.206 17.6264 118.206 17.4465C118.206 15.1083 118.206 12.95 118.206 10.6118C118.206 10.0722 118.387 9.89233 118.928 9.89233C121.275 9.89233 123.441 9.89233 125.607 9.89233ZM125.787 12.0507C124.163 12.0507 122.719 12.0507 121.094 12.0507C120.914 12.0507 120.553 12.0507 120.553 12.4104C120.372 12.7701 120.553 13.1298 121.094 13.1298C124.163 13.1298 127.231 13.1298 130.3 13.1298C130.661 13.1298 131.022 12.95 131.022 12.5903C131.022 12.2305 130.841 12.0507 130.3 12.0507H130.119C128.675 12.0507 127.231 12.0507 125.787 12.0507ZM125.607 15.1083C127.051 15.1083 128.675 15.1083 130.119 15.1083H130.3C130.48 15.1083 130.841 14.9285 130.841 14.5687C130.841 14.3889 130.661 14.0292 130.48 14.0292C130.3 14.0292 130.3 14.0292 130.119 14.0292C127.051 14.0292 123.982 14.0292 121.094 14.0292C120.914 14.0292 120.914 14.0292 120.733 14.0292C120.372 14.0292 120.192 14.3889 120.372 14.7486C120.553 14.9285 120.733 15.1083 120.914 15.1083C122.538 15.1083 124.163 15.1083 125.607 15.1083ZM125.607 17.2667C126.509 17.2667 127.231 17.2667 128.134 17.2667C128.495 17.2667 128.856 17.0868 128.856 16.7271C128.856 16.3674 128.675 16.1875 128.134 16.1875C126.509 16.1875 124.885 16.1875 123.26 16.1875H123.08C122.899 16.1875 122.719 16.3674 122.719 16.5472C122.538 16.9069 122.899 17.2667 123.26 17.2667C123.982 17.2667 124.885 17.2667 125.607 17.2667Z" fill="#0F6AA5"/>
<path d="M134.091 15.2882C134.632 15.6479 135.174 16.0077 135.715 16.3674C135.174 16.7271 134.632 16.907 134.091 17.2667C134.091 16.3674 134.091 15.8278 134.091 15.2882Z" fill="#0F6AA5"/>
<path d="M117.304 15.2882C117.304 15.8278 117.304 16.5472 117.304 17.0868C116.762 16.7271 116.221 16.5472 115.679 16.1875C116.221 15.8278 116.762 15.4681 117.304 15.2882Z" fill="#0F6AA5"/>
</svg>
