<svg width="218" height="244" viewBox="0 0 218 244" fill="none" xmlns="http://www.w3.org/2000/svg">
<path d="M108.5 83.2C131.512 83.2 150.168 64.575 150.168 41.6C150.168 18.625 131.512 0 108.5 0C85.4874 0 66.832 18.625 66.832 41.6C66.832 64.575 85.4874 83.2 108.5 83.2Z" fill="#C8E7FA"/>
<path d="M119.073 233.427C64.3972 239.18 15.42 199.767 9.64094 145.164C5.90155 109.832 21.2068 75.203 49.8912 54.3222C51.4049 53.2608 53.6057 53.5705 54.6691 55.0825C55.7325 56.5945 55.423 58.7922 53.9093 59.8536C12.6549 89.9959 3.57603 147.606 33.773 188.814C63.9701 230.023 121.662 239.109 162.916 208.966C204.171 178.824 213.249 121.214 183.052 80.0054C177.792 72.9809 171.695 66.5856 164.621 61.1954C163.059 60.0967 162.814 57.777 163.932 56.3963C165.032 54.8372 167.355 54.5928 168.738 55.7102C200.987 80.464 214.99 122.294 203.947 161.346C193.299 200.717 159.455 229.178 119.073 233.427Z" fill="#0F6AA5"/>
<path d="M105.447 12.7311L103.112 16.6759C102.214 18.2897 101.675 20.2621 101.675 22.0552L102.034 32.6345L98.4421 34.9656V34.7863C98.4421 33.3518 97.3645 32.2759 95.9277 32.2759C94.4909 32.2759 93.4133 33.3518 93.4133 34.7863V38.1932L90.36 40.1656V39.4483C90.36 38.0139 89.2824 36.938 87.8456 36.938C86.4087 36.938 85.3311 38.0139 85.3311 39.4483V43.5725L82.2779 45.5449C81.0207 46.4414 79.943 47.5173 79.4042 48.9518L78.5062 51.1035C78.147 51.8207 78.3266 52.7173 78.8654 53.4345C79.4042 54.1518 80.3022 54.3311 81.2003 54.1518L102.393 48.9518L102.932 60.7863L97.0053 66.5242C96.4665 67.0621 96.2869 67.9587 96.4665 68.6759C96.8257 69.3932 97.5441 69.9311 98.2625 69.9311H105.447L106.345 71.1863C106.883 71.9035 107.781 72.4414 108.679 72.4414C109.578 72.4414 110.476 71.9035 111.014 71.1863L111.733 70.1104H118.737C119.456 70.1104 120.174 69.5725 120.533 68.8552C120.713 68.6759 120.713 68.3173 120.713 68.138C120.713 67.6001 120.533 67.0621 120.174 66.7035L114.068 60.7863L114.606 48.9518L135.8 54.1518C136.698 54.3311 137.416 54.1518 138.134 53.4345C138.494 53.0759 138.673 52.538 138.673 51.8207C138.673 51.4621 138.673 51.2828 138.494 51.1035L137.596 48.9518C137.057 47.5173 136.159 46.2621 134.722 45.5449L131.669 43.5725V39.4483C131.669 38.0139 130.591 36.938 129.154 36.938C127.717 36.938 126.64 38.0139 126.64 39.4483V40.1656L123.587 38.1932V34.7863C123.587 33.3518 122.509 32.2759 121.072 32.2759C119.635 32.2759 118.558 33.3518 118.558 34.7863V34.9656L114.966 32.6345L115.325 22.4139V22.0552C115.325 20.0828 114.786 18.2897 113.888 16.6759L111.553 12.7311C110.835 11.6552 109.757 10.938 108.5 10.938C107.243 10.938 105.985 11.6552 105.447 12.7311Z" fill="#0F6AA5"/>
<path d="M82.4574 49.8483C82.8166 48.9517 83.3554 48.2345 84.0738 47.8759L102.214 36.0414V36.7586V41.0621L90.1803 46.0828C89.8211 46.2621 89.6415 46.4414 89.6415 46.8V48.7724L82.0981 50.7448L82.4574 49.8483Z" fill="#7DC8EF"/>
<path d="M102.214 42.8552L102.393 45.7242L91.2578 48.5932V47.338L102.214 42.8552Z" fill="white"/>
<path d="M103.112 63.2966V63.4759C103.112 64.9104 103.471 66.5242 104.19 67.7794H98.2627L103.112 63.2966Z" fill="#7DC8EF"/>
<path d="M118.737 67.9587H112.811C113.349 66.7035 113.709 65.2691 113.709 64.0139V63.476L118.737 67.9587Z" fill="#7DC8EF"/>
<path d="M114.786 42.8552L125.742 47.338V48.5932L114.606 45.7242L114.786 42.8552Z" fill="white"/>
<path d="M132.926 47.8759C133.644 48.4138 134.183 49.131 134.542 49.8483L134.902 50.7448L127.358 48.7724V46.8C127.358 46.4414 127.179 46.2621 126.82 46.0828L114.786 41.2414V37.1173V36.2207L132.926 47.8759Z" fill="#7DC8EF"/>
<path d="M111.733 36.7587L110.655 63.6552C110.655 65.6277 109.039 67.9587 109.039 67.9587V63.1173C109.039 62.7587 108.68 62.4001 108.32 62.4001C107.961 62.4001 107.602 62.7587 107.602 63.1173V68.138C107.602 68.138 105.986 65.269 105.986 63.4759L104.369 22.2345V21.8759C104.369 21.338 104.369 20.8001 104.549 20.2621C106.884 19.3656 109.578 19.3656 111.912 20.2621C112.092 20.8001 112.092 21.338 112.092 21.8759L111.733 36.7587Z" fill="white"/>
<path d="M110.655 20.2622C110.834 20.8001 110.835 21.338 110.835 21.876L110.296 36.7587L109.218 63.1173V68.138C109.218 68.138 110.835 65.807 110.835 63.8346L111.912 36.7587L112.451 21.876C112.451 21.338 112.451 20.8001 112.271 20.2622C110.834 19.7242 109.218 19.5449 107.781 19.5449C108.679 19.7242 109.757 19.9035 110.655 20.2622Z" fill="#7DC8EF"/>
<path d="M109.039 14.1656L111.373 17.9311C109.577 17.5725 107.602 17.5725 105.806 17.9311L108.141 14.1656C108.32 13.9863 108.5 13.807 108.679 13.807C108.679 13.9863 108.859 13.9863 109.039 14.1656Z" fill="white"/>
</svg>
