<svg width="217" height="244" viewBox="0 0 217 244" fill="none" xmlns="http://www.w3.org/2000/svg">
<path d="M108 83.2C130.897 83.2 149.459 64.575 149.459 41.6C149.459 18.625 130.897 0 108 0C85.1033 0 66.5417 18.625 66.5417 41.6C66.5417 64.575 85.1033 83.2 108 83.2Z" fill="#C8E7FA"/>
<path d="M118.477 233.38C64.0517 239.159 15.3219 199.789 9.59757 145.213C5.89362 109.899 21.1456 75.2773 49.7077 54.3911C51.2149 53.3294 53.4053 53.6379 54.463 55.1487C55.5207 56.6594 55.2115 58.8563 53.7043 59.918C12.6258 90.0681 3.55955 147.657 33.5954 188.832C63.6313 230.006 121.051 239.058 162.129 208.908C203.208 178.758 212.274 121.169 182.238 79.9945C177.006 72.9758 170.941 66.5865 163.902 61.2023C162.348 60.1049 162.105 57.7864 163.219 56.4057C164.314 54.8467 166.626 54.6012 168.002 55.7175C200.089 80.4436 214.006 122.248 202.994 161.288C192.375 200.647 158.673 229.113 118.477 233.38Z" fill="#0F6AA5"/>
<g clip-path="url(#clip0_68_214)">
<path d="M124.204 45.4338C124.204 40.0933 124.204 34.8716 124.204 29.5311C124.204 29.1751 124.204 28.7003 124.084 28.3443C123.725 26.9202 122.528 26.2081 120.971 26.2081C116.421 26.2081 111.751 26.2081 107.201 26.2081C102.77 26.2081 98.4596 26.2081 94.0292 26.2081C92.1133 26.2081 90.7961 27.3949 90.7961 29.1751C90.7961 39.9747 90.7961 50.7743 90.7961 61.5739C90.7961 62.1673 90.9159 62.7607 91.2751 63.354C91.9936 64.3035 92.8317 64.6595 94.0292 64.6595C102.89 64.6595 111.871 64.6595 120.731 64.6595C122.647 64.6595 124.204 63.4727 124.204 61.2179C124.204 55.9961 124.204 50.6556 124.204 45.4338Z" fill="white"/>
<path d="M113.906 9C113.906 9.11868 114.146 9.11868 114.146 9.11868C115.942 9.59339 117.259 11.1362 117.259 13.035C117.259 13.8658 117.259 14.8152 117.259 15.6459C117.259 15.7646 117.259 16.0019 117.139 16.1206C116.66 16.8327 116.78 17.5447 116.78 18.2568C116.78 20.037 116.78 21.8171 116.78 23.716C116.78 23.9533 116.78 24.1907 116.9 24.428C117.977 24.428 119.175 24.428 120.372 24.428C121.091 24.428 121.689 24.428 122.288 24.5467C124.324 25.0214 125.761 26.8016 125.88 28.9377C125.88 29.1751 125.88 29.4125 125.88 29.6498C125.88 40.2121 125.88 50.7743 125.88 61.3366C125.88 63.5914 125.042 65.1342 123.007 66.0837C122.767 66.2023 122.767 66.4397 122.767 66.677C122.767 69.1693 121.929 70 119.295 70C117.498 70 116.421 68.9319 116.421 67.1518C116.421 66.9144 116.421 66.7957 116.301 66.5584C110.314 66.5584 104.207 66.5584 98.2202 66.5584C98.2202 66.7957 98.2202 67.1518 98.2202 67.3891C98.2202 67.7451 98.2202 68.1012 98.1004 68.3385C97.6215 69.644 96.0648 70.2374 94.149 70C92.8318 69.7626 91.9936 68.6946 91.9936 67.3891C91.9936 67.1518 91.9936 67.0331 91.9936 66.7957C91.9936 66.4397 91.8739 66.321 91.6344 66.2023C89.8383 65.3716 88.8804 63.8288 88.8804 61.93C88.8804 51.1303 88.8804 40.3307 88.8804 29.5311C88.8804 26.6829 90.7962 24.784 93.67 24.6654C94.8674 24.6654 96.0648 24.6654 97.2622 24.6654C97.5017 24.6654 97.7412 24.6654 97.861 24.5467C97.9807 24.3093 97.9807 24.1907 97.9807 23.9533C97.9807 21.8171 97.9807 19.5623 97.9807 17.4261C97.9807 17.07 97.9807 16.8327 97.7412 16.5953C97.861 16.2393 97.7412 16.1206 97.7412 16.0019C97.7412 14.6965 97.5017 13.2724 97.861 11.9669C98.2202 10.5428 99.1781 9.71206 100.615 9.23735C100.854 9.11868 100.974 9.23735 101.214 9C105.405 9 109.596 9 113.906 9ZM124.204 45.4339C124.204 40.0934 124.204 34.8716 124.204 29.5311C124.204 29.1751 124.204 28.7004 124.084 28.3444C123.725 26.9202 122.528 26.2082 120.971 26.2082C116.421 26.2082 111.751 26.2082 107.201 26.2082C102.77 26.2082 98.4597 26.2082 94.0292 26.2082C92.1134 26.2082 90.7962 27.3949 90.7962 29.1751C90.7962 39.9747 90.7962 50.7743 90.7962 61.5739C90.7962 62.1673 90.916 62.7607 91.2752 63.3541C91.9936 64.3035 92.8318 64.6595 94.0292 64.6595C102.89 64.6595 111.871 64.6595 120.732 64.6595C122.647 64.6595 124.204 63.4728 124.204 61.2179C124.204 55.9961 124.204 50.6556 124.204 45.4339ZM111.511 14.6965C108.877 14.6965 106.123 14.6965 103.249 14.6965C103.13 15.2899 103.369 15.7646 103.13 16.2393C102.77 16.8327 102.89 17.5447 102.89 18.1381C102.89 19.4436 102.89 20.749 102.89 22.1732C102.89 22.8852 102.89 23.716 102.89 24.5467C106.003 24.5467 108.997 24.5467 111.99 24.5467C111.99 24.3093 111.99 24.072 111.99 23.8346C111.99 20.749 112.35 17.6634 111.511 14.6965ZM115.583 15.2899C115.583 14.4591 115.583 13.7471 115.583 13.035C115.463 11.7296 114.505 10.7802 113.188 10.7802C109.476 10.7802 105.644 10.7802 101.932 10.7802C100.735 10.7802 99.7768 11.6109 99.6571 12.7977C99.5373 13.6284 99.6571 14.4591 99.6571 15.2899C100.016 15.2899 100.376 15.2899 100.615 15.2899C100.974 15.2899 101.333 15.4086 101.693 15.1712C101.693 14.8152 101.693 14.5778 101.693 14.2218C101.693 13.2724 102.291 12.7977 103.13 12.7977C106.123 12.7977 109.117 12.7977 112.23 12.7977C113.188 12.7977 113.667 13.3911 113.667 14.2218C113.667 14.5778 113.667 14.9339 113.667 15.2899C114.265 15.2899 114.864 15.2899 115.583 15.2899ZM99.8966 17.07C99.8966 19.5623 99.8966 21.9358 99.8966 24.3093C100.376 24.3093 100.735 24.428 101.094 24.1907C101.094 21.8171 101.094 19.4436 101.094 16.9514C100.735 17.07 100.376 17.07 99.8966 17.07ZM115.104 24.428C115.104 21.9358 115.104 19.5623 115.104 17.1887C114.744 17.1887 114.265 17.1887 113.906 17.1887C113.906 19.6809 113.906 22.0545 113.906 24.428C114.385 24.428 114.744 24.428 115.104 24.428ZM96.6635 66.4397C95.8254 66.4397 94.8674 66.4397 94.0292 66.4397C94.149 66.9144 93.7898 67.6265 94.3885 67.8638C94.9872 68.2198 95.7056 68.1012 96.3043 67.8638C96.7833 67.7451 96.5438 67.0331 96.6635 66.4397ZM118.456 66.4397C118.456 67.0331 118.217 67.7451 118.935 67.9825C119.534 68.2198 120.253 68.3385 120.851 67.9825C121.45 67.6265 121.21 67.0331 121.091 66.5584C120.133 66.4397 119.295 66.4397 118.456 66.4397Z" fill="#0F6AA5"/>
<path d="M115.583 15.2899C115.583 14.4591 115.583 13.7471 115.583 13.035C115.463 11.7296 114.505 10.7802 113.188 10.7802C109.476 10.7802 105.644 10.7802 101.932 10.7802C100.735 10.7802 99.7767 11.6109 99.657 12.7977C99.5372 13.6284 99.657 14.4591 99.657 15.2899C100.016 15.2899 100.375 15.2899 100.615 15.2899C100.974 15.2899 101.333 15.4086 101.693 15.1712C101.693 14.8152 101.693 14.5778 101.693 14.2218C101.693 13.2724 102.291 12.7977 103.129 12.7977C106.123 12.7977 109.117 12.7977 112.23 12.7977C113.188 12.7977 113.667 13.391 113.667 14.2218C113.667 14.5778 113.667 14.9338 113.667 15.2899C114.265 15.2899 114.864 15.2899 115.583 15.2899Z" fill="#7DC8EF"/>
<path d="M100.016 17.0701C100.016 19.5623 100.016 21.9359 100.016 24.3094C100.495 24.3094 100.855 24.4281 101.214 24.1907C101.214 21.8172 101.214 19.4436 101.214 16.9514C100.735 17.0701 100.376 17.0701 100.016 17.0701Z" fill="white"/>
<path d="M115.104 24.428C115.104 21.9358 115.104 19.5623 115.104 17.1887C114.744 17.1887 114.265 17.1887 113.906 17.1887C113.906 19.6809 113.906 22.0545 113.906 24.428C114.385 24.428 114.744 24.428 115.104 24.428Z" fill="white"/>
<path d="M96.6636 66.4397C95.8254 66.4397 94.8675 66.4397 94.0293 66.4397C94.149 66.9144 93.7898 67.6265 94.3885 67.8638C94.9872 68.2198 95.7057 68.1012 96.3044 67.8638C96.7833 67.7451 96.5439 67.0331 96.6636 66.4397Z" fill="#7DC8EF"/>
<path d="M118.457 66.4397C118.457 67.0331 118.217 67.7451 118.935 67.9825C119.534 68.2199 120.253 68.3385 120.851 67.9825C121.45 67.6265 121.211 67.0331 121.091 66.5584C120.133 66.4397 119.295 66.4397 118.457 66.4397Z" fill="#7DC8EF"/>
<path d="M99.4175 32.0233H95.2266V59.9124H99.4175V32.0233Z" fill="#7DC8EF"/>
<path d="M109.595 32.0233H105.405V59.9124H109.595V32.0233Z" fill="#7DC8EF"/>
<path d="M119.654 32.0233H115.463V59.9124H119.654V32.0233Z" fill="#7DC8EF"/>
<path d="M100.495 46.0272C100.495 50.1809 100.495 54.3346 100.495 58.4883C100.495 60.1498 99.5373 61.3365 97.9807 61.6926C96.1845 62.0486 94.5082 60.7432 94.3884 58.963C94.3884 57.6576 94.3884 56.3521 94.3884 54.928C94.3884 54.3346 94.7477 53.9786 95.3464 53.9786C95.8253 53.9786 96.1845 54.3346 96.1845 54.928C96.1845 56.1148 96.1845 57.1828 96.1845 58.3696C96.1845 59.4377 96.6635 60.0311 97.5017 59.9124C98.2201 59.9124 98.6991 59.319 98.6991 58.3696C98.6991 51.249 98.6991 44.0097 98.6991 36.8891C98.6991 35.821 98.6991 34.6342 98.6991 33.5661C98.6991 32.6167 98.2201 32.142 97.382 32.142C96.6635 32.142 96.1845 32.7354 96.1845 33.5661C96.1845 39.1439 96.1845 44.6031 96.1845 50.1809C96.1845 50.4183 96.1845 50.5369 96.1845 50.7743C96.0648 51.249 95.7056 51.605 95.2266 51.605C94.7477 51.605 94.3884 51.249 94.3884 50.7743C94.3884 50.6556 94.3884 50.6556 94.3884 50.5369C94.3884 44.8404 94.3884 39.1439 94.3884 33.4474C94.3884 31.6673 95.8253 30.3618 97.6214 30.4805C99.2978 30.5992 100.495 31.9046 100.495 33.6848C100.495 37.6011 100.495 41.8735 100.495 46.0272Z" fill="#0F6AA5"/>
<path d="M104.447 45.9085C104.447 41.8735 104.447 37.7198 104.447 33.6848C104.447 33.2101 104.447 32.7354 104.566 32.2607C105.045 30.9552 106.363 30.1245 107.919 30.2432C109.236 30.3619 110.434 31.5486 110.434 32.9728C110.434 33.0914 110.434 33.3288 110.434 33.4475C110.434 41.7549 110.434 50.0622 110.434 58.3696C110.434 59.4377 110.074 60.3872 109.117 61.0992C108.159 61.8113 107.081 61.9299 106.003 61.3366C104.926 60.7432 104.327 59.9124 104.327 58.7257C104.327 56.5895 104.327 54.4533 104.327 52.1984C104.447 50.0622 104.447 48.0447 104.447 45.9085ZM106.243 45.9085C106.243 49.9436 106.243 53.9786 106.243 58.1323C106.243 58.3696 106.243 58.607 106.243 58.8443C106.363 59.4377 106.841 59.7938 107.44 59.7938C108.039 59.7938 108.518 59.3191 108.638 58.8443C108.638 58.607 108.638 58.3696 108.638 58.1323C108.638 50.0622 108.638 41.8735 108.638 33.8035C108.638 33.5661 108.638 33.3288 108.638 33.0914C108.518 32.498 108.039 32.0233 107.44 32.0233C106.602 32.0233 106.123 32.498 106.123 33.5661C106.243 37.7198 106.243 41.7549 106.243 45.9085Z" fill="#0F6AA5"/>
<path d="M120.612 45.9086C120.612 50.1809 120.612 54.3346 120.612 58.607C120.612 60.6245 118.816 62.0486 116.78 61.5739C115.463 61.2179 114.505 60.0311 114.505 58.607C114.505 52.7918 114.505 46.858 114.505 41.0428C114.505 40.4494 114.864 39.9747 115.463 39.9747C116.062 39.9747 116.301 40.3307 116.301 41.0428C116.301 46.7393 116.301 52.3171 116.301 58.0136C116.301 58.251 116.301 58.607 116.421 58.8444C116.54 59.4377 117.139 59.7938 117.738 59.7938C118.337 59.6751 118.816 59.3191 118.816 58.7257C118.816 58.607 118.816 58.607 118.816 58.4883C118.816 50.1809 118.816 41.7549 118.816 33.4475C118.816 32.6167 118.337 32.0233 117.498 32.0233C116.78 32.0233 116.301 32.6167 116.301 33.3288C116.301 34.3969 116.301 35.465 116.301 36.5331C116.301 37.2451 115.942 37.6012 115.463 37.6012C114.864 37.6012 114.505 37.2451 114.505 36.4144C114.505 35.3463 114.505 34.2782 114.505 33.2101C114.505 31.43 115.822 30.1245 117.618 30.1245C119.414 30.1245 120.612 31.43 120.612 33.2101C120.612 37.6012 120.612 41.7549 120.612 45.9086Z" fill="#0F6AA5"/>
</g>
<defs>
<clipPath id="clip0_68_214">
<rect width="37" height="61" fill="white" transform="translate(89 9)"/>
</clipPath>
</defs>
</svg>
