<svg width="95" height="109" viewBox="0 0 95 109" fill="none" xmlns="http://www.w3.org/2000/svg">
<g clip-path="url(#clip0_45_4542)">
<path d="M4.49163 109C2.25253 108.262 0.606925 106.96 0.121336 104.545C0.0269163 104.061 0.0134277 103.565 0.0134277 103.068C0.0134277 73.5839 0.0134277 44.1128 0.0134277 14.6284C0.0134277 11.0049 2.30648 8.75025 5.97538 8.73683C10.7503 8.72341 15.5253 8.72341 20.3137 8.75025C20.9342 8.75025 21.3254 8.61605 21.6896 8.03897C22.5393 6.6701 23.8747 6.05276 25.4798 6.02592C26.7613 6.0125 28.0427 6.02592 29.4994 6.02592C29.4994 5.40859 29.486 4.85835 29.4994 4.30812C29.5939 1.90588 31.4013 0.0672903 33.8158 0.0404497C37.5656 0.000188651 41.3019 0.000188651 45.0518 0.0404497C47.4797 0.0672903 49.2602 1.9193 49.3816 4.4289C49.4086 4.91203 49.3816 5.40859 49.3816 6.02592C50.6765 6.02592 51.877 6.03934 53.0775 6.02592C54.8849 5.99908 56.3012 6.68352 57.3264 8.22686C57.5152 8.5221 58.0682 8.72341 58.4459 8.72341C63.1939 8.75025 67.9284 8.73683 72.6764 8.75025C76.5881 8.75025 78.7867 10.9378 78.8002 14.7894C78.8137 19.151 78.8137 23.5126 78.8002 27.8742C78.8002 28.9881 78.1932 29.6323 77.2355 29.6323C76.2913 29.6457 75.6708 29.0015 75.6034 27.9145C75.5899 27.6327 75.6034 27.3508 75.6034 27.069C75.6034 23.3382 75.6034 19.6207 75.6034 15.8899C75.6034 12.3066 75.2257 11.9309 71.6243 11.9309C67.4833 11.9309 63.3558 11.9309 59.2148 11.9309C58.8236 11.9309 58.4459 11.9309 57.9738 11.9309C57.9738 13.0179 57.9738 14.011 57.9738 15.1249C59.0529 15.1249 60.078 15.1249 61.1032 15.1249C63.7065 15.1249 66.3098 15.1115 68.913 15.1249C71.2466 15.1383 72.3661 16.2522 72.3796 18.6008C72.3931 25.9149 72.3796 33.2155 72.3796 40.5296C72.3796 40.9054 72.3796 41.2946 72.3796 41.6703C72.4471 41.6972 72.528 41.7374 72.5954 41.7643C72.7978 41.4556 72.9866 41.1604 73.1889 40.8517C75.9136 36.5706 78.6383 32.2895 81.363 28.0084C83.4942 24.6668 86.8124 23.9287 90.1845 26.0356C90.8185 26.4248 91.4525 26.8274 92.0729 27.2301C95.1348 29.2297 95.8902 32.5445 93.9344 35.6446C90.7915 40.6236 87.6217 45.5891 84.4519 50.568C80.6211 56.5938 76.7769 62.6061 72.9866 68.6452C72.6359 69.2089 72.4066 69.947 72.4066 70.6046C72.3661 79.9988 72.3796 89.4065 72.3796 98.8007C72.3796 101.632 71.368 102.639 68.5219 102.639C49.0849 102.639 29.6613 102.639 10.2243 102.639C7.4861 102.639 6.43399 101.579 6.43399 98.8276C6.43399 72.1882 6.43399 45.5488 6.43399 18.9094C6.43399 16.1851 7.49959 15.1383 10.2513 15.1383C13.502 15.1383 16.7393 15.1383 19.99 15.1383C20.2733 15.1383 20.543 15.1115 20.8937 15.0981C20.8937 14.0781 20.8937 13.0984 20.8937 12.0114C20.57 11.998 20.2328 11.9577 19.8956 11.9577C15.296 11.9577 10.6964 11.9577 6.09677 11.9577C4.04651 11.9309 3.21022 12.7495 3.21022 14.7626C3.21022 44.1665 3.21022 73.5839 3.21022 102.988C3.21022 104.974 4.06 105.82 6.08328 105.82C28.299 105.82 50.5146 105.82 72.7168 105.82C74.7536 105.82 75.5629 105.028 75.5629 102.974C75.5629 91.5135 75.5629 80.0525 75.5764 68.605C75.5764 68.1487 75.5764 67.679 75.6978 67.2361C75.9136 66.4443 76.5206 66.0819 77.3164 66.149C78.1123 66.2161 78.6383 66.6724 78.7462 67.4776C78.8002 67.8668 78.7867 68.256 78.7867 68.6452C78.7867 79.8512 78.7867 91.0706 78.7867 102.277C78.7867 106.249 77.883 107.591 74.241 109.014C50.9867 109 27.7459 109 4.49163 109ZM9.69822 18.3592C9.69822 45.428 9.69822 72.3895 9.69822 99.3778C20.2733 99.3778 30.7809 99.3778 41.3154 99.3778C41.7471 97.5929 42.2057 95.8482 42.5699 94.0902C43.6085 89.0978 44.9169 84.2262 48.1676 80.1196C48.8825 79.207 49.7053 78.8715 50.5146 79.3547C51.3779 79.8646 51.5263 80.7906 50.8788 81.8508C50.2044 82.9379 49.503 83.9981 48.8286 85.0851C48.4644 85.6622 48.1541 86.2795 47.7899 86.9237C48.7072 87.219 49.4356 87.4471 50.1909 87.6887C60.159 72.0137 70.1 56.4059 80.0681 40.7443C79.2992 40.2612 78.6383 39.8452 77.9099 39.3889C77.6806 39.7378 77.4513 40.0599 77.249 40.382C70.0326 51.7356 62.8162 63.0892 55.5863 74.4294C55.3705 74.7649 55.1817 75.1138 54.9254 75.3957C54.3589 76.0264 53.6575 76.2009 52.9156 75.7446C52.1198 75.2749 51.9714 74.5368 52.2816 73.7181C52.403 73.396 52.6323 73.1008 52.8212 72.8055C58.0817 64.5386 63.3423 56.2851 68.5758 47.9913C68.913 47.4545 69.1154 46.7432 69.1154 46.1259C69.1559 37.2551 69.1424 28.3976 69.1424 19.5268C69.1424 19.151 69.1424 18.7752 69.1424 18.3726C49.2602 18.3592 29.5264 18.3592 9.69822 18.3592ZM24.158 15.0712C34.3823 15.0712 44.4583 15.0712 54.6556 15.0712C54.6556 13.6218 54.6691 12.2127 54.6556 10.8036C54.6421 9.58231 54.2779 9.23338 53.0505 9.21996C51.6612 9.20654 50.2718 9.2468 48.8825 9.19312C47.2774 9.13944 46.2522 8.09265 46.1713 6.49563C46.1443 5.86488 46.1848 5.2207 46.1443 4.57652C46.1039 3.69078 45.6453 3.20765 44.7146 3.20765C41.1536 3.20765 37.5926 3.20765 34.0316 3.20765C33.1818 3.20765 32.7097 3.6371 32.6827 4.50942C32.6693 5.07308 32.6962 5.65015 32.6693 6.21381C32.6018 8.11949 31.5497 9.16628 29.6613 9.19312C28.3124 9.21996 26.9501 9.19312 25.6012 9.20654C24.7784 9.20654 24.1849 9.50179 24.1715 10.4144C24.1445 11.9309 24.158 13.4474 24.158 15.0712ZM69.1154 74.6844C68.7242 75.2749 68.4949 75.597 68.2926 75.919C65.6218 80.1062 62.8702 84.2397 60.3343 88.5073C58.2301 92.0503 55.6403 95.0699 52.2547 97.4318C51.4588 97.9821 50.7439 98.6397 49.8537 99.3644C56.4091 99.3644 62.7353 99.3644 69.1019 99.3644C69.1154 91.1914 69.1154 83.0989 69.1154 74.6844ZM54.7096 91.2988C64.826 75.4091 74.848 59.6402 84.924 43.8042C84.1686 43.3345 83.4942 42.9184 82.7658 42.4756C72.7708 58.1774 62.8432 73.7852 52.9156 89.3796C53.5091 90.0238 54.0217 90.5606 54.7096 91.2988ZM89.9552 36.0338C90.6566 34.316 92.6934 33.0142 91.3985 31.0549C90.3059 29.3907 88.5389 28.1829 86.4752 28.1024C84.3035 28.0084 83.9663 30.1825 82.8602 31.5514C85.2207 33.0545 87.5003 34.477 89.9552 36.0338ZM46.8862 90.0507C46.1443 93.0837 45.416 96.1032 44.6876 99.1228C44.755 99.1631 44.8225 99.1899 44.8899 99.2302C47.3044 97.2976 49.7188 95.3517 52.1333 93.4192C50.8653 91.594 49.3951 90.6412 46.8862 90.0507ZM88.1747 38.691C85.7873 37.1879 83.4942 35.752 81.1472 34.2757C80.6211 35.1212 80.149 35.8862 79.65 36.6914C82.0239 38.1945 84.29 39.617 86.637 41.0933C87.1496 40.288 87.6217 39.5499 88.1747 38.691Z" fill="#7FC2FA"/>
<path d="M35.1106 84.5347C35.1106 86.5209 35.1241 88.5071 35.1106 90.4933C35.0837 92.9895 33.4111 94.6939 30.8752 94.7207C26.8556 94.7476 22.8225 94.761 18.8029 94.7207C16.3076 94.6939 14.5945 92.9627 14.581 90.4665C14.554 86.4941 14.554 82.5351 14.581 78.5627C14.5945 75.9859 16.3076 74.3218 18.8839 74.3084C22.8765 74.295 26.8556 74.295 30.8482 74.3084C33.3841 74.3218 35.0567 75.9859 35.0971 78.4956C35.0971 78.5627 35.0971 78.6432 35.0971 78.7103C35.1106 80.6428 35.1106 82.5888 35.1106 84.5347ZM24.8188 91.5267C26.7477 91.5267 28.6631 91.5133 30.592 91.5401C31.5496 91.5535 31.9273 91.1509 31.9138 90.1981C31.8869 86.4001 31.8869 82.6156 31.9138 78.8176C31.9273 77.7843 31.4957 77.4622 30.4975 77.4756C26.7207 77.5159 22.9439 77.5159 19.1671 77.4756C18.1555 77.4622 17.7643 77.8514 17.7643 78.8579C17.7913 82.6156 17.7643 86.3733 17.7778 90.131C17.7778 91.2986 18.0341 91.5401 19.2481 91.5401C21.1095 91.5401 22.9574 91.5267 24.8188 91.5267Z" fill="#7FC2FA"/>
<path d="M35.1106 33.2959C35.1106 35.2821 35.1241 37.2683 35.1106 39.2545C35.0836 41.7507 33.384 43.4283 30.8617 43.4417C26.8691 43.4551 22.8899 43.4551 18.8973 43.4417C16.3345 43.4283 14.6079 41.7373 14.5945 39.174C14.5675 35.2016 14.5675 31.2426 14.5945 27.2702C14.6079 24.7203 16.348 23.0293 18.9243 23.0159C22.8764 23.0025 26.8286 23.0025 30.7807 23.0159C33.4245 23.0293 35.0971 24.6935 35.1241 27.3373C35.1241 29.3235 35.1106 31.3097 35.1106 33.2959ZM31.9003 33.2422C31.9003 31.3231 31.8733 29.4174 31.9138 27.4983C31.9273 26.5186 31.5091 26.1831 30.5649 26.1965C26.7477 26.2234 22.9439 26.2234 19.1266 26.1965C18.1689 26.1965 17.7778 26.5723 17.7778 27.5252C17.7912 31.3231 17.7912 35.1076 17.7778 38.9056C17.7778 39.8316 18.1015 40.2611 19.0861 40.2611C22.9304 40.2342 26.7881 40.2342 30.6324 40.2611C31.5496 40.2611 31.9138 39.8987 31.9003 38.9996C31.8733 37.0804 31.9003 35.1613 31.9003 33.2422Z" fill="#7FC2FA"/>
<path d="M35.1107 58.8482C35.1107 60.8612 35.1242 62.8877 35.1107 64.9008C35.0837 67.2762 33.519 68.9805 31.145 69.0342C26.9501 69.1147 22.7417 69.1147 18.5467 69.0342C16.2537 68.994 14.6215 67.2762 14.5946 64.9813C14.5541 60.9015 14.5541 56.8351 14.5946 52.7553C14.6215 50.4202 16.2806 48.7024 18.6276 48.6621C22.7956 48.595 26.9636 48.595 31.1315 48.6621C33.5055 48.7024 35.0837 50.4202 35.1107 52.7822C35.1242 54.8087 35.1107 56.8351 35.1107 58.8482ZM24.9268 65.8804C26.7747 65.8804 28.6362 65.8939 30.4841 65.8804C31.725 65.867 31.9004 65.6926 31.9004 64.4445C31.9004 60.727 31.9004 56.9962 31.9004 53.2787C31.9004 52.0306 31.725 51.8293 30.4976 51.8293C26.7208 51.8159 22.944 51.8428 19.1672 51.8159C18.169 51.8159 17.7644 52.2051 17.7644 53.2116C17.7913 56.9693 17.7913 60.727 17.7644 64.4847C17.7509 65.4778 18.1421 65.9073 19.1537 65.8939C21.0826 65.867 22.9979 65.8804 24.9268 65.8804Z" fill="#7FC2FA"/>
<path d="M51.4589 31.511C48.3565 31.511 45.2676 31.511 42.1653 31.511C41.8415 31.511 41.5178 31.5379 41.2076 31.4574C40.3443 31.2292 39.8587 30.6656 39.9396 29.753C40.0206 28.8941 40.5466 28.3975 41.3964 28.3438C42.1113 28.2902 42.8262 28.3304 43.5276 28.3304C49.1523 28.3304 54.7771 28.3304 60.4018 28.3304C60.6851 28.3304 60.9683 28.317 61.2516 28.3304C62.2632 28.3841 62.8972 29.0014 62.8972 29.9006C62.8972 30.7998 62.2632 31.4708 61.2651 31.4976C59.7678 31.5379 58.2706 31.511 56.7734 31.511C55.0199 31.511 53.2394 31.511 51.4589 31.511Z" fill="#7FC2FA"/>
<path d="M48.1542 57.1038C46.05 57.1038 43.9592 57.1172 41.855 57.1038C40.6276 57.1038 39.9801 56.567 39.9396 55.5873C39.8992 54.5808 40.6006 53.9232 41.8415 53.9232C46.0769 53.9097 50.3124 53.9097 54.5478 53.9232C55.6943 53.9232 56.4362 54.5942 56.4362 55.5202C56.4362 56.4596 55.7213 57.0904 54.5613 57.1038C52.4166 57.1172 50.2854 57.1038 48.1542 57.1038Z" fill="#7FC2FA"/>
<path d="M46.4682 38.1407C44.9035 38.1407 43.3253 38.1541 41.7607 38.1407C40.6276 38.1273 39.9802 37.577 39.9397 36.6376C39.8992 35.6579 40.5737 34.9735 41.7202 34.9601C44.89 34.9332 48.0598 34.9332 51.2431 34.9601C52.3222 34.9735 53.0236 35.6445 53.0371 36.5437C53.0506 37.4831 52.3222 38.1273 51.1757 38.1407C49.5975 38.1541 48.0329 38.1407 46.4682 38.1407Z" fill="#7FC2FA"/>
<path d="M46.5219 60.6201C48.0866 60.6201 49.6647 60.6067 51.2294 60.6335C52.322 60.6469 53.0099 61.2777 53.0234 62.1903C53.0369 63.0894 52.3355 63.8007 51.2699 63.8007C48.0596 63.8276 44.8493 63.8276 41.6525 63.8007C40.5599 63.7873 39.9125 63.1297 39.926 62.1769C39.9395 61.224 40.5734 60.6469 41.7065 60.6335C43.3251 60.5933 44.9302 60.6201 46.5219 60.6201Z" fill="#7FC2FA"/>
<path d="M23.8207 85.0046C24.8459 83.6224 25.7901 82.334 26.7343 81.0591C27.5031 80.0257 28.3529 79.7976 29.1757 80.3746C30.0255 80.9651 30.0794 81.9045 29.2836 82.9782C28.1371 84.5484 26.9771 86.132 25.8035 87.6753C24.5761 89.2992 22.9844 89.2857 21.7705 87.6619C21.2309 86.9506 20.7049 86.2527 20.2058 85.5146C19.6123 84.6423 19.7472 83.6895 20.5025 83.1661C21.2444 82.6427 22.0942 82.8037 22.7551 83.5955C23.1058 84.025 23.4161 84.4678 23.8207 85.0046Z" fill="#7FC2FA"/>
<path d="M23.8206 33.7522C24.8053 32.4236 25.7225 31.1755 26.6532 29.9408C27.503 28.8001 28.3933 28.5317 29.2296 29.1758C30.0524 29.7932 30.0658 30.6923 29.27 31.7794C28.1235 33.3496 26.9635 34.9197 25.79 36.4765C24.603 38.0467 23.0113 38.0333 21.8243 36.4765C21.3118 35.8055 20.8127 35.1076 20.3271 34.4232C19.6527 33.4703 19.7201 32.5443 20.4755 31.9807C21.2578 31.3902 22.202 31.6183 22.9439 32.5846C23.2137 32.9335 23.4834 33.2959 23.8206 33.7522Z" fill="#7FC2FA"/>
<path d="M23.8341 59.9356C24.8458 58.5801 25.79 57.2918 26.7342 56.0303C27.5165 54.9701 28.4472 54.7419 29.2565 55.3727C30.0389 55.9766 30.0793 56.8623 29.324 57.8957C28.1505 59.4927 26.9905 61.1032 25.79 62.6733C24.603 64.2301 23.0113 64.2033 21.8243 62.6465C21.2713 61.9084 20.7048 61.1837 20.1922 60.4187C19.6392 59.6001 19.7876 58.6607 20.489 58.1507C21.2039 57.6273 22.1211 57.7749 22.755 58.5265C23.1057 58.9559 23.4295 59.4122 23.8341 59.9356Z" fill="#7FC2FA"/>
</g>
<defs>
<clipPath id="clip0_45_4542">
<rect width="95" height="109" fill="white"/>
</clipPath>
</defs>
</svg>
