<svg width="115" height="115" viewBox="0 0 115 115" fill="none" xmlns="http://www.w3.org/2000/svg">
<rect x="57.5" width="81.3173" height="81.3173" transform="rotate(45 57.5 0)" fill="white"/>
<rect x="58" y="56" width="29.6985" height="29.6985" transform="rotate(45 58 56)" fill="#1C498B"/>
<path d="M33.6375 46.288C32.4055 46.288 31.3175 46.08 30.3735 45.664C29.4295 45.232 28.6855 44.624 28.1415 43.84C27.5975 43.04 27.3175 42.072 27.3015 40.936H30.5415C30.5735 41.72 30.8535 42.384 31.3815 42.928C31.9255 43.456 32.6695 43.72 33.6135 43.72C34.4295 43.72 35.0775 43.528 35.5575 43.144C36.0375 42.744 36.2775 42.216 36.2775 41.56C36.2775 40.872 36.0615 40.336 35.6295 39.952C35.2135 39.568 34.6535 39.256 33.9495 39.016C33.2455 38.776 32.4935 38.52 31.6935 38.248C30.3975 37.8 29.4055 37.224 28.7175 36.52C28.0455 35.816 27.7095 34.88 27.7095 33.712C27.6935 32.72 27.9255 31.872 28.4055 31.168C28.9015 30.448 29.5735 29.896 30.4215 29.512C31.2695 29.112 32.2455 28.912 33.3495 28.912C34.4695 28.912 35.4535 29.112 36.3015 29.512C37.1655 29.912 37.8375 30.472 38.3175 31.192C38.8135 31.912 39.0775 32.768 39.1095 33.76H35.8215C35.8055 33.168 35.5735 32.648 35.1255 32.2C34.6935 31.736 34.0855 31.504 33.3015 31.504C32.6295 31.488 32.0615 31.656 31.5975 32.008C31.1495 32.344 30.9255 32.84 30.9255 33.496C30.9255 34.056 31.1015 34.504 31.4535 34.84C31.8055 35.16 32.2855 35.432 32.8935 35.656C33.5015 35.88 34.1975 36.12 34.9815 36.376C35.8135 36.664 36.5735 37 37.2615 37.384C37.9495 37.768 38.5015 38.28 38.9175 38.92C39.3335 39.544 39.5415 40.352 39.5415 41.344C39.5415 42.224 39.3175 43.04 38.8695 43.792C38.4215 44.544 37.7575 45.152 36.8775 45.616C35.9975 46.064 34.9175 46.288 33.6375 46.288ZM45.9229 46V31.672H41.0269V29.2H53.9149V31.672H48.9949V46H45.9229ZM56.1906 46V29.2H67.1586V31.672H59.2626V36.28H66.4386V38.68H59.2626V43.528H67.1586V46H56.1906ZM70.0656 46V29.2H76.2816C77.6256 29.2 78.7376 29.424 79.6176 29.872C80.4976 30.32 81.1536 30.936 81.5856 31.72C82.0176 32.504 82.2336 33.384 82.2336 34.36C82.2336 35.288 82.0256 36.144 81.6096 36.928C81.1936 37.696 80.5456 38.32 79.6656 38.8C78.7856 39.264 77.6576 39.496 76.2816 39.496H73.1376V46H70.0656ZM73.1376 37H76.0896C77.1616 37 77.9296 36.768 78.3936 36.304C78.8736 35.824 79.1136 35.176 79.1136 34.36C79.1136 33.528 78.8736 32.88 78.3936 32.416C77.9296 31.936 77.1616 31.696 76.0896 31.696H73.1376V37Z" fill="#1C498B"/>
<path d="M57.4728 88.384C56.0008 88.384 54.6674 88.128 53.4728 87.616C52.2781 87.0827 51.3181 86.272 50.5928 85.184C49.8674 84.096 49.4834 82.7307 49.4408 81.088H53.4728C53.4941 82.176 53.8461 83.0933 54.5288 83.84C55.2328 84.5653 56.2141 84.928 57.4728 84.928C58.6674 84.928 59.5848 84.5973 60.2248 83.936C60.8648 83.2747 61.1848 82.4427 61.1848 81.44C61.1848 80.2667 60.7581 79.3813 59.9048 78.784C59.0728 78.1653 57.9954 77.856 56.6728 77.856H55.0088V74.496H56.7048C57.7928 74.496 58.6994 74.24 59.4248 73.728C60.1501 73.216 60.5128 72.4587 60.5128 71.456C60.5128 70.624 60.2354 69.9627 59.6808 69.472C59.1474 68.96 58.4008 68.704 57.4408 68.704C56.3954 68.704 55.5741 69.0133 54.9768 69.632C54.4008 70.2507 54.0808 71.008 54.0168 71.904H50.0168C50.1021 69.8347 50.8168 68.2027 52.1608 67.008C53.5261 65.8133 55.2861 65.216 57.4408 65.216C58.9768 65.216 60.2674 65.4933 61.3128 66.048C62.3794 66.5813 63.1794 67.296 63.7128 68.192C64.2674 69.088 64.5448 70.08 64.5448 71.168C64.5448 72.4267 64.1928 73.4933 63.4888 74.368C62.8061 75.2213 61.9528 75.7973 60.9288 76.096C62.1874 76.352 63.2114 76.9707 64.0008 77.952C64.7901 78.912 65.1848 80.128 65.1848 81.6C65.1848 82.8373 64.8861 83.968 64.2888 84.992C63.6914 86.016 62.8168 86.8373 61.6648 87.456C60.5341 88.0747 59.1368 88.384 57.4728 88.384Z" fill="white"/>
</svg>
